<svg xmlns="http://www.w3.org/2000/svg" class="custom-icon" viewBox="0 0 100 100" style="height:48;width:48"><circle class="outer-shape" cx="50" cy="50" r="48" fill="#ebebe3"/><path class="inner-shape" d="M66.35 25.5h-32.7c-4.45 0-8.15 3.7-8.15 8.15V66.3c0 4.55 3.7 8.2 8.15 8.2h32.7c4.5 0 8.15-3.65 8.15-8.15v-32.7c0-4.45-3.65-8.15-8.15-8.15zm5.1 40.85c0 1.35-.55 2.65-1.5 3.6-.95.95-2.25 1.5-3.6 1.5H50V50H28.55V33.65c0-1.35.55-2.65 1.5-3.6s2.25-1.5 3.6-1.5H50V50h21.45v16.35z" fill="#9c9c94"/></svg>