<svg xmlns="http://www.w3.org/2000/svg" class="custom-icon" viewBox="0 0 100 100" style="height:48;width:48"><circle class="outer-shape" cx="50" cy="50" r="48" fill="#ebebe3"/><path class="inner-shape" d="M66.335 25.5H33.67c-4.495 0-8.17 3.675-8.17 8.17v32.665c0 4.495 3.675 8.17 8.165 8.17H66.33c4.495-.005 8.17-3.675 8.17-8.17V33.67c0-4.495-3.675-8.17-8.165-8.17zM67.16 50h-7.97v21.44H50V50h-4.425v-7.015H50V38.43c0-6.19 2.67-9.87 9.945-9.87h8.385v7.59h-6.845c-2.035-.005-2.285 1.06-2.285 3.04l-.01 3.795h9.185L67.16 50z" fill="#9c9c94"/></svg>