<svg xmlns="http://www.w3.org/2000/svg" class="custom-icon" viewBox="0 0 100 100" style="height:48;width:48"><circle class="outer-shape" cx="50" cy="50" r="48" fill="#ebebe3"/><path class="inner-shape" d="M42.55 44.5c-.9-.9-2.35-.9-3.25 0l-3.1 3.15c-.9.9-.9 2.35 0 3.25l8.8 8.85.15.15 3.35 3.35c.9.9 2.35.9 3.25 0l22.15-22.4c.9-.9.9-2.35 0-3.25l-3.4-3.3c-.9-.9-2.35-.9-3.25 0l-17.4 17.6-7.3-7.4zM58.6 60.45c-.15.2-.3.4-.45.55l-5.6 5.7c-1.35 1.35-3.5 1.35-4.85 0L33.05 51.9c-1.35-1.35-1.35-3.55 0-4.9l5.6-5.65c1.35-1.35 3.5-1.35 4.85 0l6.85 6.9L62.5 36l-8.75-8.8c-2.25-2.25-5.85-2.25-8.05 0L27.15 45.9c-2.25 2.25-2.25 5.9 0 8.15l18.5 18.7c2.25 2.25 5.85 2.25 8.05 0l18.5-18.7c2.1-2.15 2.2-5.5.35-7.75L58.6 60.45z" fill="#9c9c94"/></svg>