<svg xmlns="http://www.w3.org/2000/svg" class="custom-icon" viewBox="0 0 100 100" style="height:48;width:48"><circle class="outer-shape" cx="50" cy="50" r="48" fill="#ebebe3"/><path class="inner-shape" d="M25.54 67.115l-.03-.365.03.365zm11.25-14.57c4.405.13 7.355-4.435 6.595-10.2-.76-5.765-4.945-10.39-9.35-10.525-4.405-.13-7.355 4.28-6.595 10.045.76 5.765 4.945 10.545 9.35 10.68zM74.5 37.75v-4.08c0-4.49-3.675-8.165-8.165-8.165H33.67c-4.415 0-8.04 3.55-8.16 7.94 2.795-2.46 6.665-4.515 10.665-4.515H53.27l-3.825 3.235H44.02c3.595 1.38 5.51 5.555 5.51 9.845 0 3.6-2 6.695-4.825 8.9-2.76 2.15-3.28 3.05-3.28 4.875 0 1.56 2.955 4.21 4.5 5.3 4.515 3.185 5.98 6.14 5.98 11.075 0 .785-.095 1.57-.29 2.34H66.34c4.485 0 8.16-3.675 8.16-8.17V40.815h-9.185V50h-3.06v-9.185h-9.19V37.75h9.185v-9.185h3.065v9.185H74.5zm-40.105 24.4c1.035 0 1.98-.03 2.965-.03-1.3-1.26-2.325-2.805-2.325-4.705 0-1.13.36-2.215.87-3.185-.515.035-1.04.05-1.585.05-3.56 0-6.58-1.15-8.815-3.055V64.1c2.555-1.22 5.59-1.95 8.89-1.95zm-8.73 5.805c-.055-.26-.095-.525-.12-.795.025.27.065.535.12.795zm21.63 3.14c-.72-2.815-3.275-4.21-6.835-6.68-1.295-.42-2.72-.665-4.255-.68-4.29-.045-8.285 1.67-10.535 4.23.76 3.72 4.07 6.535 8 6.535h13.705c.085-.53.13-1.085.13-1.645 0-.605-.075-1.19-.21-1.76z" fill="#9c9c94"/></svg>