<svg xmlns="http://www.w3.org/2000/svg" class="custom-icon" version="1.1" viewBox="0 0 100 100" style="height:48;width:48"><circle class="outer-shape" cx="50" cy="50" r="48" fill="rgb(235, 235, 227)"/><path class="inner-shape" transform="translate(25,25) scale(0.5)" d="M1.08 84.23c-0.02-0.24-0.04-0.48-0.06-0.73C1.04 83.74 1.06 83.99 1.08 84.23zM23.58 55.09c8.81 0.26 14.71-8.87 13.19-20.4 -1.52-11.53-9.89-20.78-18.7-21.05C9.26 13.38 3.36 22.2 4.88 33.73 6.4 45.26 14.77 54.82 23.58 55.09zM99 25.5v-8.16c0-8.98-7.35-16.33-16.33-16.33H17.34c-8.83 0-16.08 7.1-16.32 15.88 5.59-4.92 13.33-9.03 21.33-9.03 8.55 0 34.19 0 34.19 0l-7.65 6.47H38.04c7.19 2.76 11.02 11.11 11.02 19.69 0 7.2-4 13.39-9.65 17.8 -5.52 4.3-6.56 6.1-6.56 9.75 0 3.12 5.91 8.42 9 10.6 9.03 6.37 11.96 12.28 11.96 22.15 0 1.57-0.19 3.14-0.58 4.68h29.45C91.65 99 99 91.65 99 82.66V31.63H80.63v18.37h-6.12V31.63H56.13V25.5h18.37V7.13h6.13V25.5H99L99 25.5zM18.79 74.3c2.07 0 3.96-0.06 5.93-0.06 -2.6-2.52-4.65-5.61-4.65-9.41 0-2.26 0.72-4.43 1.74-6.37 -1.03 0.07-2.08 0.1-3.17 0.1 -7.12 0-13.16-2.3-17.63-6.11v6.44l0 19.31C6.12 75.76 12.19 74.3 18.79 74.3L18.79 74.3zM1.33 85.91c-0.11-0.52-0.19-1.05-0.24-1.59C1.14 84.86 1.22 85.39 1.33 85.91zM44.59 92.19c-1.44-5.63-6.55-8.42-13.67-13.36 -2.59-0.84-5.44-1.33-8.51-1.36 -8.58-0.09-16.57 3.34-21.07 8.46 1.52 7.44 8.14 13.07 16 13.07h27.41c0.17-1.06 0.26-2.17 0.26-3.29C45.01 94.5 44.86 93.33 44.59 92.19z" fill="rgb(156, 156, 148)"/></svg>