<svg xmlns="http://www.w3.org/2000/svg" class="custom-icon" viewBox="0 0 100 100" style="height:48;width:48"><circle class="outer-shape" cx="50" cy="50" r="48" fill="#ebebe3"/><path class="inner-shape" d="M69.1 25.5H30.9c-2.95 0-5.4 2.4-5.4 5.4v38.2c0 3 2.45 5.4 5.4 5.4h38.2c3 0 5.4-2.4 5.4-5.4V30.9c0-3-2.45-5.4-5.4-5.4zM49.95 40.6c5.2 0 9.4 4.2 9.4 9.4s-4.2 9.4-9.4 9.4-9.4-4.2-9.4-9.4 4.25-9.4 9.4-9.4zm18.8 26.2c0 1.1-.9 1.95-1.95 1.95H33.15c-1.1 0-1.95-.9-1.95-1.95V46.25h4.25c-.3 1.2-.45 2.4-.45 3.65 0 8.3 6.75 15.05 15.05 15.05S65.1 58.2 65.1 49.9c0-1.25-.15-2.5-.45-3.65h4.15l-.05 20.55zm.15-28.25c0 1.1-.9 1.95-1.95 1.95h-5.6c-1.1 0-1.95-.9-1.95-1.95V33c0-1.1.9-1.95 1.95-1.95h5.55c1.1 0 1.95.9 1.95 1.95v5.55z" fill="#9c9c94"/></svg>