<svg xmlns="http://www.w3.org/2000/svg" class="custom-icon" viewBox="0 0 100 100" style="height:48;width:48"><circle class="outer-shape" cx="50" cy="50" r="48" fill="#ebebe3"/><path class="inner-shape" d="M50 25.5c-13.55 0-24.5 10.95-24.5 24.5S36.45 74.5 50 74.5 74.5 63.55 74.5 50 63.55 25.5 50 25.5zM37.75 37.75h24.5c.45 0 .85.1 1.25.25L50 53.75 36.5 38c.4-.15.8-.25 1.25-.25zM34.7 59.2V40.65l9 10.5L34.8 60c-.1-.3-.1-.55-.1-.8zm27.55 3.05h-24.5c-.25 0-.55-.05-.8-.1l8.7-8.7L50 58.5l4.35-5.05 8.7 8.7c-.25.05-.55.1-.8.1zm3.05-3.05c0 .25-.05.55-.1.8l-8.85-8.9 9-10.5v.2l-.05 18.4z" fill="#9c9c94"/></svg>