<svg xmlns="http://www.w3.org/2000/svg" class="custom-icon" viewBox="0 0 100 100" style="height:48;width:48"><circle class="outer-shape" cx="50" cy="50" r="48" fill="#ebebe3"/><path class="inner-shape" d="M57.39 40.255c2.56 1.005 5.06-.305 5.245-2.76.43-4.6-7.59-4.62-6.74.37-1.53.95-2.87 2.09-4.495 2.945.435-4.665.065-10.125.19-15.1-.67-.385-2.025-.095-2.995-.185v8.285c-1.14.245-2.9-2.045-4.495-2.58 1.135-4.555-6.705-5.39-6.74-.735.1 2.565 2.5 4.115 5.055 3.13 2.225 1.255 4.27 2.675 6.18 4.235v9.025c-1.7-.785-2.925-2.04-4.495-2.945 1.135-4.41-6.66-5.21-6.74-.735-.05 2.735 2.59 4.215 5.245 3.13 1.915 1.49 4.055 2.76 5.995 4.235v9.76c-1.625-.855-2.965-1.995-4.495-2.945.395-1.86-.975-3.42-2.62-3.865-2.645-.145-3.78 1.19-4.12 3.315.05 2.58 2.65 4.025 5.245 2.945 1.9 1.51 4.085 2.735 5.995 4.235V74.5H51.6v-3.685c1.66-1.805 4.095-2.845 5.99-4.42.645.33 1.62.75 2.435.37 1.52-.405 2.385-1.46 2.62-3.13-.155-2.055-1.35-3.095-3.185-3.5-2.38.18-3.665 1.43-3.56 4.05-1.545.63-2.965 2.36-4.305 2.575v-9.385c1.68-1.785 4.09-2.855 5.99-4.42.645.33 1.62.75 2.435.37 1.52-.405 2.385-1.46 2.62-3.13-.155-2.055-1.35-3.095-3.185-3.5-2.38.18-3.665 1.43-3.56 4.055-1.545.63-2.965 2.36-4.305 2.575V44.67c1.515-1.88 3.98-2.835 5.8-4.415z" fill="#9c9c94"/></svg>