<svg xmlns="http://www.w3.org/2000/svg" class="custom-icon" viewBox="0 0 100 100" style="height:48;width:48"><circle class="outer-shape" cx="50" cy="50" r="48" fill="#ebebe3"/><path class="inner-shape" d="M50 25.745c-13.53 0-24.5 10.86-24.5 24.255 0 9.93 6.035 18.465 14.665 22.215-.07-1.695-.01-3.725.425-5.57l3.155-13.215s-.785-1.55-.785-3.84c0-3.595 2.105-6.28 4.725-6.28 2.23 0 3.305 1.655 3.305 3.64 0 2.215-1.43 5.535-2.165 8.61-.615 2.575 1.305 4.67 3.865 4.67 4.645 0 7.77-5.9 7.77-12.895 0-5.315-3.615-9.295-10.195-9.295-7.43 0-12.06 5.485-12.06 11.615 0 2.115.63 3.605 1.615 4.76.455.53.515.745.35 1.35-.115.445-.385 1.52-.5 1.945-.165.615-.665.835-1.225.605-3.42-1.375-5.015-5.085-5.015-9.26 0-6.89 5.87-15.15 17.51-15.15 9.355 0 15.51 6.7 15.51 13.895 0 9.515-5.345 16.625-13.22 16.625-2.645 0-5.135-1.415-5.985-3.025 0 0-1.42 5.59-1.725 6.67-.52 1.87-1.535 3.74-2.465 5.195 2.205.64 4.535.99 6.945.99 13.53 0 24.5-10.86 24.5-24.255S63.53 25.745 50 25.745z" fill="#9c9c94"/></svg>