<svg xmlns="http://www.w3.org/2000/svg" class="custom-icon" version="1.1" viewBox="0 0 100 100" style="height:48;width:48"><circle class="outer-shape" cx="50" cy="50" r="48" fill="rgb(235, 235, 227)"/><path class="inner-shape" transform="translate(25,25) scale(0.5)" d="M14 72.9C6.8 72.9 1 78.7 1 85.9c0 7.2 5.8 13 13 13 7.2 0 13.1-5.8 13.1-13C27.1 78.7 21.3 72.9 14 72.9zM1 34.3v18.8c12.2 0 23.7 4.8 32.4 13.4C42.1 75.2 46.8 86.7 46.8 99h18.9C65.7 63.3 36.7 34.3 1 34.3L1 34.3zM1 1v18.8C44.7 19.8 80.2 55.3 80.2 99H99C99 45 55 1 1 1z" fill="rgb(156, 156, 148)"/></svg>