<svg xmlns="http://www.w3.org/2000/svg" class="custom-icon" viewBox="0 0 100 100" style="height:48;width:48"><circle class="outer-shape" cx="50" cy="50" r="48" fill="#ebebe3"/><path class="inner-shape" d="M50 25.5c-13.55 0-24.5 10.95-24.5 24.5S36.45 74.5 50 74.5 74.5 63.55 74.5 50 63.55 25.5 50 25.5zm0 18.6c-.8 0-1.5.65-1.5 1.5v8.95c-.05 3.4-2.85 6.2-6.25 6.2-3.45 0-6.25-2.8-6.25-6.25v-3.9h4.8v3.85c0 .8.65 1.5 1.5 1.5s1.5-.65 1.5-1.5v-9.1c.1-3.35 2.85-6.05 6.25-6.05s6.15 2.7 6.25 6.1v2l-2.85.85-1.9-.9V45.6c-.05-.85-.75-1.5-1.55-1.5zm14 10.35c0 3.45-2.8 6.25-6.25 6.25s-6.25-2.8-6.25-6.2v-3.9l1.9.9 2.85-.85v3.95c0 .8.65 1.5 1.5 1.5.8 0 1.5-.65 1.5-1.5v-4.05h4.8c-.05 0-.05 3.85-.05 3.9z" fill="#9c9c94"/></svg>