<svg xmlns="http://www.w3.org/2000/svg" class="custom-icon" viewBox="0 0 100 100" style="height:48;width:48"><circle class="outer-shape" cx="50" cy="50" r="48" fill="#ebebe3"/><path class="inner-shape" d="M66.35 25.5h-32.7c-4.45 0-8.15 3.7-8.15 8.15V66.3c0 4.5 3.7 8.15 8.15 8.15H66.3c4.55.05 8.2-3.6 8.2-8.1v-32.7c0-4.45-3.65-8.15-8.15-8.15zM60.5 64.95c-1.45.7-2.75 1.15-3.9 1.45-1.15.25-2.45.4-3.8.4-1.55 0-2.45-.2-3.65-.6-1.2-.4-2.2-.95-3.05-1.65-.85-.7-1.4-1.5-1.75-2.3-.3-.8-.5-2-.5-3.55V46.85h-4.6v-4.8c1.35-.45 2.85-1.05 3.8-1.85.95-.8 1.7-1.75 2.3-2.9.55-1.15.95-2.55 1.2-4.3h4.8v7.8h7.8v6.05h-7.8v8.65c0 1.95-.05 3.1.2 3.65.2.55.7 1.15 1.3 1.45.75.45 1.6.65 2.55.65 1.7 0 3.4-.55 5.1-1.65v5.35z" fill="#9c9c94"/></svg>