<svg xmlns="http://www.w3.org/2000/svg" class="custom-icon" version="1.1" viewBox="0 0 100 100" style="height:48;width:48"><circle class="outer-shape" cx="50" cy="50" r="48" fill="rgb(235, 235, 227)"/><path class="inner-shape" transform="translate(25,25) scale(0.5)" d="M99.001 19.428c-3.606 1.608-7.48 2.695-11.547 3.184 4.15-2.503 7.338-6.466 8.841-11.189 -3.885 2.318-8.187 4-12.768 4.908 -3.667-3.931-8.893-6.387-14.676-6.387 -11.104 0-20.107 9.054-20.107 20.223 0 1.585 0.177 3.128 0.52 4.609 -16.71-0.845-31.525-8.895-41.442-21.131C6.092 16.633 5.1 20.107 5.1 23.813c0 7.017 3.55 13.208 8.945 16.834 -3.296-0.104-6.397-1.014-9.106-2.529 -0.002 0.085-0.002 0.17-0.002 0.255 0 9.799 6.931 17.972 16.129 19.831 -1.688 0.463-3.463 0.71-5.297 0.71 -1.296 0-2.555-0.127-3.783-0.363 2.559 8.034 9.984 13.882 18.782 14.045 -6.881 5.424-15.551 8.657-24.971 8.657 -1.623 0-3.223-0.096-4.796-0.282 8.898 5.738 19.467 9.087 30.82 9.087 36.982 0 57.206-30.817 57.206-57.543 0-0.877-0.02-1.748-0.059-2.617C92.896 27.045 96.305 23.482 99.001 19.428z" fill="rgb(156, 156, 148)"/></svg>