<svg xmlns="http://www.w3.org/2000/svg" class="custom-icon" viewBox="0 0 100 100" style="height:48;width:48"><circle class="outer-shape" cx="50" cy="50" r="48" fill="#ebebe3"/><path class="inner-shape" d="M25.5 40.25l2 2.6s4.1-3.25 5.45-1.6c1.35 1.6 6.6 21.15 8.35 24.75 1.5 3.15 5.7 7.35 10.3 4.35 4.6-3 19.9-16.05 22.65-31.45C77 23.5 55.85 26.7 53.6 40.15c5.6-3.35 8.6 1.35 5.7 6.7-2.85 5.35-5.45 8.85-6.8 8.85-1.35 0-2.4-3.6-4-9.85-1.6-6.45-1.6-18.1-8.35-16.8-6.3 1.25-14.65 11.2-14.65 11.2z" fill="#9c9c94"/></svg>