<svg xmlns="http://www.w3.org/2000/svg" class="custom-icon" viewBox="0 0 100 100" style="height:48;width:48"><circle class="outer-shape" cx="50" cy="50" r="48" fill="#ebebe3"/><path class="inner-shape" d="M43.64 53.74l-9.546-5.615c-.01-.006-.02-.008-.034-.007l.005-.01-.018.013c-.035.01-.076.035-.12.076L26 53.18l3.742 2.256c.006.018.013.034.027.042l5.5 3.235c-.028.055-.045.116-.045.182V74.5l8.084-4.274c.087-.014.165-.057.224-.118l.014-.007h-.007c.068-.074.11-.172.11-.28V58.894c0-.032-.003-.062-.01-.093l.01-4.863c.028-.1.026-.178-.014-.2zM74 69.48l-5.754-3.494L55.513 58.1V25.5l-8.323 4.4.03.01c-.14.067-.238.21-.238.375v32.25c0 .21.153.38.352.41l-.11.007 3.178 1.986c.012.027.03.05.05.064l5.465 3.383 1.573.982-.008-.013 7.628 4.723c.057.036.14.017.222-.038l-.01.103L74 69.48z" fill="#9c9c94"/></svg>