<svg xmlns="http://www.w3.org/2000/svg" class="custom-icon" viewBox="0 0 100 100" style="height:48;width:48"><circle class="outer-shape" cx="50" cy="50" r="48" fill="#ebebe3"/><path class="inner-shape" d="M46.17 54.2c.035-1.275-1.53-2.045-1.53-2.045L34.275 46.92s-1.535-.635-2.285-.19c-.57.34-1.075.95-1.125 1.49l-.675 8.32s-.1 1.44.27 2.095c.53.93 2.27.28 2.27.28l12.105-2.675c.465-.32 1.29-.35 1.335-2.04zm.135-7.41s.99 1.025 2.25.715c1.37-.335 1.585-2.325 1.585-2.325l-.09-16.55s-.205-2.04-1.125-2.595c-1.44-.875-1.865-.42-2.28-.36L37 29.265s-.945.315-1.435 1.1c-.7 1.115.715 2.755.715 2.755l10.025 13.67zm9.975 5.46l11.615-3.395s1.585-.645 1.81-1.505c.22-.86-.26-1.895-.26-1.895l-5.55-6.545s-.48-.825-1.48-.91c-1.1-.095-1.78 1.24-1.78 1.24l-6.56 10.335s-.58 1.03-.03 1.96c.595 1.01 2.235.715 2.235.715zm-7.1 6.44c-1.04-.535-2.28.57-2.28.57l-8.105 8.93s-1.01 1.365-.755 2.205c.24.785.645 1.175 1.21 1.45l8.14 2.57s.985.205 1.735-.01c1.06-.305.865-1.97.865-1.97l.185-12.085c0-.005-.045-1.17-.995-1.66zm18.995 1.36L56.53 56.31s-1.14-.3-1.9.465c-.825.835-.13 2.35-.13 2.35l6.22 10.395s1.02 1.37 1.905 1.37c.89 0 1.765-.73 1.765-.73l4.92-7.035s.495-.89.505-1.665c.025-1.105-1.64-1.41-1.64-1.41z" fill="#9c9c94"/></svg>