<svg xmlns="http://www.w3.org/2000/svg" class="custom-icon" viewBox="0 0 100 100" style="height:48;width:48"><circle class="outer-shape" cx="50" cy="50" r="48" fill="#ebebe3"/><path class="inner-shape" d="M73.64 38.18c-.5-2.675-2.73-4.675-5.285-4.92-6.11-.39-12.245-.71-18.365-.715-6.12-.005-12.23.31-18.345.695-2.57.25-4.795 2.235-5.295 4.92-.565 3.87-.85 7.775-.85 11.68s.285 7.81.85 11.68c.5 2.685 2.725 4.91 5.295 5.155 6.115.385 12.22.78 18.345.78 6.12 0 12.26-.345 18.365-.74 2.56-.25 4.785-2.54 5.285-5.215.575-3.86.86-7.76.86-11.66 0-3.9-.285-7.8-.86-11.66zM44.445 56.875v-14.24l13.26 7.12-13.26 7.12z" fill="#9c9c94"/></svg>