<svg xmlns="http://www.w3.org/2000/svg" class="custom-icon" version="1.1" viewBox="0 0 100 100" style="height:48;width:48"><circle class="outer-shape" cx="50" cy="50" r="48" fill="rgb(235, 235, 227)"/><path class="inner-shape" transform="translate(25,25) scale(0.5)" d="M97.28 26.36c-1-5.35-5.46-9.35-10.57-9.84 -12.22-0.78-24.49-1.42-36.73-1.43 -12.24-0.01-24.46 0.62-36.69 1.39 -5.14 0.5-9.59 4.47-10.59 9.84C1.57 34.06 1 41.87 1 49.68s0.57 15.62 1.7 23.36c1 5.37 5.45 9.82 10.59 10.31 12.23 0.77 24.44 1.56 36.69 1.56 12.24 0 24.52-0.69 36.73-1.48 5.12-0.5 9.57-5.08 10.57-10.43C98.43 65.28 99 57.48 99 49.68 99 41.88 98.43 34.08 97.28 26.36zM38.89 63.75V35.27l26.52 14.24L38.89 63.75z" fill="rgb(156, 156, 148)"/></svg>