<svg xmlns="http://www.w3.org/2000/svg" xmlns:xlink="http://www.w3.org/1999/xlink" class="svg-content" preserveAspectRatio="xMinYMin meet" viewBox="-16.9 -4.1 512 112"><style type="text/css"><![CDATA[
.st0{fill:#FFFFFF;stroke:#FFFFFF;stroke-width:0.2;} .st1{fill:#FFFFFF;} .st2{fill:none;stroke:#FFFFFF;stroke-width:1.0253;} .st3{fill:none;stroke:#FFFFFF;stroke-width:1.6868;} .st4{fill:none;} .st5{fill:none;stroke:#FFFFFF;stroke-width:1.2;} .st6{fill:#FFFFFF;stroke:#FFFFFF;stroke-width:0.75;}
]]></style><path class="st3" d="M100.2 9.9v89.2"/><path class="st4" d="M111.9 8.7h508v107.1h-508z"/><path class="st6" d="M120 34.3l-8.1-27.9h1.8l4.3 15c1.2 4 2.1 7.6 2.9 10.7h.1c.7-3.2 1.8-6.8 3.1-10.7l4.7-15h1.8l-9 27.9H120zM132.5 24.1c0 6.3 3.1 8.9 6.5 8.9 2.5 0 3.8-.6 4.8-1.1l.4 1.5c-.6.4-2.4 1.3-5.4 1.3-5 0-8.1-4.1-8.1-10 0-6.6 3.3-10.8 7.8-10.8 5.7 0 6.8 6.1 6.8 9 0 .5 0 .8-.1 1.2h-12.7zm11-1.6c0-2.8-1-7-5.2-7-3.8 0-5.4 3.9-5.8 7h11zM149 31.7c.9.6 2.3 1.4 3.9 1.4 2.7 0 4-1.7 4-3.8 0-2.2-1.2-3.4-3.6-4.5-2.8-1.2-4.4-3-4.4-5.4 0-2.9 2-5.4 5.3-5.4 1.6 0 3 .5 3.8 1.2l-.6 1.6c-.6-.5-1.7-1.2-3.5-1.2-2.2 0-3.4 1.6-3.4 3.4 0 2.1 1.3 3 3.6 4.1 2.8 1.3 4.4 2.9 4.4 5.9 0 3.4-2.3 5.7-5.8 5.7-1.7 0-3.2-.5-4.4-1.4l.7-1.6zM165.5 10v4.4h4.9V16h-4.9v12.9c0 2.5.6 4.1 2.5 4.1.9 0 1.6-.1 2-.3l.2 1.5c-.6.2-1.4.5-2.4.4-1.3 0-2.3-.5-3-1.4-.8-1-1.1-2.7-1.1-4.8V16h-2.9v-1.6h2.9v-3.6l1.8-.8zM174.3 24.1c0 6.3 3.1 8.9 6.5 8.9 2.5 0 3.8-.6 4.8-1.1l.4 1.5c-.6.4-2.4 1.3-5.4 1.3-5 0-8.1-4.1-8.1-10 0-6.6 3.3-10.8 7.8-10.8 5.7 0 6.8 6.1 6.8 9 0 .5 0 .8-.1 1.2h-12.7zm11.1-1.6c0-2.8-1-7-5.2-7-3.8 0-5.4 3.9-5.8 7h11zM191.5 20.3c0-2 0-4-.1-6h1.6l.1 4h.1c.8-2.5 2.6-4.5 4.9-4.5.3 0 .5 0 .7.1v1.9h-.8c-2.4 0-4.1 2.4-4.5 5.6-.1.6-.1 1.2-.1 1.9v11h-1.7l-.2-14zM202.5 4.8h1.7v13.1h.1c.5-1.1 1.3-2.2 2.3-2.9 1-.7 2.2-1.2 3.5-1.2 1.6 0 6 1 6 8.4v12h-1.7V22.5c0-3.6-1.2-6.8-4.8-6.8-2.5 0-4.5 2-5.2 4.5-.2.6-.2 1.2-.2 2v12.1h-1.7V4.8zM222.1 24.1c0 6.3 3.1 8.9 6.5 8.9 2.5 0 3.8-.6 4.8-1.1l.4 1.5c-.6.4-2.4 1.3-5.4 1.3-5 0-8.1-4.1-8.1-10 0-6.6 3.3-10.8 7.8-10.8 5.7 0 6.8 6.1 6.8 9 0 .5 0 .8-.1 1.2h-12.7zm11-1.6c0-2.8-1-7-5.2-7-3.8 0-5.4 3.9-5.8 7h11zM240.1 10.4c-.8 0-1.3-.8-1.3-1.7 0-.9.6-1.7 1.4-1.7.8 0 1.4.7 1.4 1.7-.1.9-.6 1.7-1.5 1.7zm-.8 23.9V14.4h1.7v19.9h-1.7zM246.8 19.1c0-1.8 0-3.2-.1-4.8h1.6l.1 3.5h.1c1.1-2.3 2.8-3.9 5.6-3.9 2.4 0 4.2 1.8 5 4.3h.1c.5-1.2 1.1-2.1 1.8-2.7 1.1-1 2.3-1.6 4.1-1.6 1.7 0 5.7 1.1 5.7 8.6v11.7H269V22.7c0-4.5-1.5-7.1-4.5-7.1-2.2 0-3.9 1.9-4.5 3.9-.1.6-.3 1.2-.3 2v12.8H258V21.8c0-3.6-1.5-6.2-4.3-6.2-2.3 0-4.1 2.2-4.8 4.5-.1.6-.3 1.2-.3 2v12.3h-1.7l-.1-15.3z"/><path class="st0" d="M117.7 50h-6.1v-1.1h13.6V50H119v17.7h-1.3V50zM127 47.9h1.3v8.8h.1c.4-.8 1-1.4 1.8-1.9s1.7-.8 2.7-.8c1.3 0 4.6.6 4.6 5.6v8.1h-1.3v-7.9c0-2.4-.9-4.6-3.7-4.6-1.9 0-3.5 1.4-4 3-.1.4-.2.8-.2 1.3v8.2H127V47.9zM142.1 60.9c0 4.2 2.3 5.9 5.1 5.9 2 0 3-.4 3.7-.8l.3 1c-.5.3-1.9.9-4.2.9-3.8 0-6.2-2.8-6.2-6.7 0-4.5 2.6-7.2 6-7.2 4.4 0 5.2 4.1 5.2 6 0 .3 0 .6-.1.8l-9.8.1zm8.5-1.1c0-1.9-.8-4.7-4-4.7-3 0-4.2 2.6-4.5 4.7h8.5zM161.6 67.7V48.9h1.3l7.3 11.1c1.5 2.3 2.6 4.1 3.6 5.9h.1c-.2-2.5-.2-4.7-.2-7.6v-9.4h1.3v18.8h-1.2l-7.2-10.9c-1.4-2.1-2.7-4.1-3.6-6.1h-.1c.1 2.3.2 4.3.2 7.5v9.5h-1.5zM187.7 64.5c0 1.1 0 2.1.2 3.2h-1.2l-.2-1.9h-.1c-.7 1-2.1 2.2-4.3 2.2-2.7 0-3.9-1.9-3.9-3.7 0-3.1 2.7-5 8.2-4.9V59c0-1.3-.2-4-3.4-3.9-1.2 0-2.4.3-3.4 1l-.4-1c1.2-.8 2.7-1.1 3.9-1.1 3.9 0 4.6 2.9 4.6 5.3v5.2zm-1.4-4c-2.9-.1-6.8.4-6.8 3.6 0 1.9 1.3 2.7 2.6 2.8 2.2 0 3.5-1.4 4-2.7.1-.3.1-.6.1-.8l.1-2.9zM193.8 51.4v3h3.8v1.1h-3.8v8.7c0 1.7.5 2.7 1.9 2.8.7 0 1.2-.1 1.5-.2l.2 1c-.4.2-1.1.3-1.9.3-1 0-1.8-.3-2.3-.9-.6-.7-.8-1.8-.8-3.2v-8.4h-2.3v-1.1h2.3V52l1.4-.6zM201.2 51.7c-.6 0-1-.5-1-1.1 0-.6.5-1.2 1.1-1.2.6 0 1.1.5 1.1 1.2-.1.5-.5 1.1-1.2 1.1zm-.6 16V54.3h1.3v13.4h-1.3zM211.4 68c-3.5 0-6.1-2.7-6.1-6.9 0-4.6 3-7.1 6.3-7.1 3.7 0 6.2 2.7 6.2 6.9 0 5-3.4 7.1-6.4 7.1zm.1-1.1c2.8 0 5-2.5 5-5.9 0-2.5-1.4-5.8-4.9-5.8-3.4 0-5 3-5 5.9 0 3.3 2.1 5.7 4.9 5.8zM221.2 57.5c0-1.2 0-2.1-.1-3.2h1.3l.1 2.4h.1c.7-1.5 2.4-2.7 4.6-2.7 1.3 0 4.6.6 4.6 5.7v8h-1.3v-7.9c0-2.5-.9-4.7-3.7-4.7-1.9 0-3.5 1.3-4 3.1-.1.3-.2.8-.2 1.2v8.3h-1.3l-.1-10.2zM244.5 64.5c0 1.1 0 2.1.2 3.2h-1.2l-.2-1.9h-.1c-.7 1-2.1 2.2-4.3 2.2-2.7 0-3.9-1.9-3.9-3.7 0-3.1 2.7-5 8.2-4.9V59c0-1.3-.3-4-3.4-3.9-1.2 0-2.4.3-3.4 1l-.4-1c1.2-.8 2.7-1.1 3.9-1.1 3.9 0 4.6 2.9 4.6 5.3v5.2zm-1.3-4c-2.9-.1-6.8.4-6.8 3.6 0 1.9 1.3 2.7 2.6 2.8 2.2 0 3.5-1.4 4-2.7.1-.3.1-.6.1-.8l.1-2.9zM248.8 47.9h1.3v19.8h-1.3V47.9zM260.9 67.7V48.9h1.3l7.3 11.1c1.5 2.3 2.6 4.1 3.6 5.9h.1c-.2-2.5-.2-4.7-.2-7.6v-9.4h1.3v18.8h-1.2l-7.2-10.9c-1.4-2.1-2.7-4.1-3.6-6.1h-.1c.1 2.3.2 4.3.2 7.5v9.5h-1.5zM283.6 68c-3.5 0-6.1-2.7-6.1-6.9 0-4.6 3-7.1 6.3-7.1 3.7 0 6.2 2.7 6.2 6.9 0 5-3.4 7.1-6.4 7.1zm.1-1.1c2.8 0 5-2.5 5-5.9 0-2.5-1.4-5.8-4.9-5.8-3.4 0-5 3-5 5.9 0 3.3 2.1 5.7 4.9 5.8zM293.4 58.3c0-1.3 0-2.7-.1-4h1.2l.1 2.7h.1c.6-1.7 2-3 3.8-3 .2 0 .4 0 .5.1v1.3h-.6c-1.8 0-3.1 1.6-3.5 3.7-.1.4-.1.8-.1 1.3v7.4h-1.3l-.1-9.5zM302.2 54.3l2.3 7.6c.4 1.6.8 2.9 1.2 4.2h.1c.3-1.2.8-2.6 1.3-4.2l2.7-7.6h1.3l2.6 7.5c.6 1.7.9 3.1 1.3 4.3h.1c.3-1.3.7-2.6 1.2-4.2l2.4-7.6h1.4l-4.5 13.4h-1.1l-2.5-7.5c-.6-1.6-1-3-1.4-4.5h-.1c-.4 1.6-.9 3-1.4 4.6l-2.6 7.4H305l-4.1-13.4h1.3zM322.6 60.9c0 4.2 2.3 5.9 5.1 5.9 1.9 0 3-.4 3.7-.8l.3 1c-.5.3-1.9.9-4.2.9-3.8 0-6.2-2.8-6.2-6.7 0-4.5 2.6-7.2 6-7.2 4.4 0 5.2 4.1 5.2 6 0 .3 0 .6-.1.8l-9.8.1zm8.5-1.1c0-1.9-.8-4.7-4-4.7-3 0-4.2 2.6-4.5 4.7h8.5zM346.6 65.8c0 3.4-.7 5.1-1.8 6.2-1.2 1.2-3 1.6-4.5 1.6s-3.2-.4-4.3-1.2l.5-1.1c.9.6 2.2 1.2 4 1.2 2.8 0 4.8-1.4 4.8-5.4v-1.9h-.1c-.7 1.4-2.3 2.6-4.7 2.6-3.4 0-5.7-2.9-5.7-6.6 0-4.7 3.1-7.1 6-7.1 2.6 0 3.9 1.5 4.5 2.6h.1l.1-2.3h1.2c-.1 1-.1 2.1-.1 3.5v7.9zm-1.3-6.3c0-.5 0-.9-.2-1.3-.6-1.6-2-3-4.2-3-2.8 0-4.8 2.3-4.8 5.9 0 3.1 1.6 5.6 4.8 5.6 1.8 0 3.5-1.1 4.1-3 .1-.4.2-.9.2-1.4l.1-2.8zM351.5 51.7c-.6 0-1-.5-1-1.1 0-.6.5-1.2 1.1-1.2.6 0 1.1.5 1.1 1.2-.1.5-.5 1.1-1.2 1.1zm-.6 16V54.3h1.3v13.4h-1.3zM365 64.5c0 1.1 0 2.1.2 3.2H364l-.2-1.9h-.1c-.7 1-2.1 2.2-4.3 2.2-2.7 0-3.9-1.9-3.9-3.7 0-3.1 2.7-5 8.2-4.9V59c0-1.3-.2-4-3.4-3.9-1.2 0-2.4.3-3.4 1l-.4-1c1.2-.8 2.7-1.1 3.9-1.1 3.9 0 4.6 2.9 4.6 5.3v5.2zm-1.3-4c-2.9-.1-6.8.4-6.8 3.6 0 1.9 1.3 2.7 2.6 2.7 2.2 0 3.5-1.4 4-2.7.1-.3.1-.6.1-.8l.1-2.8zM369.3 57.5c0-1.2 0-2.1-.1-3.2h1.3l.1 2.4h.1c.7-1.5 2.4-2.7 4.6-2.7 1.3 0 4.6.6 4.6 5.7v8h-1.3v-7.9c0-2.5-.9-4.7-3.7-4.7-1.9 0-3.5 1.3-4 3.1-.1.3-.2.8-.2 1.2v8.3h-1.3l-.1-10.2zM389.5 59.5v1.2h-6.6v-1.2h6.6zM394.8 61.1l-2.3 6.6h-1.4l6.8-18.8h1.3l6.8 18.8h-1.4l-2.4-6.6h-7.4zm7.1-1.1l-2.3-6.3c-.4-1.3-.7-2.3-1-3.3h-.1c-.3 1.1-.6 2.1-1 3.3l-2.3 6.3h6.7zM408.9 57.5c0-1.2 0-2.1-.1-3.2h1.3l.1 2.3h.1c.9-1.5 2.1-2.6 4.3-2.6 1.8 0 3.3 1.3 3.8 2.9h.1c.4-.8.9-1.4 1.4-1.8.9-.7 1.8-1.1 3.2-1.1 1.3 0 4.3.7 4.3 5.8v7.9h-1.3v-7.8c0-3-1.2-4.8-3.5-4.8-1.7 0-3 1.3-3.5 2.6-.1.4-.2.8-.2 1.3v8.6h-1.3v-8.4c0-2.4-1.1-4.2-3.3-4.2-1.8 0-3.2 1.4-3.7 3-.1.4-.2.8-.2 1.3v8.2h-1.3l-.2-10zM431.9 60.9c0 4.2 2.3 5.9 5.1 5.9 2 0 3-.4 3.7-.8l.3 1c-.5.3-1.9.9-4.2.9-3.8 0-6.2-2.8-6.2-6.7 0-4.5 2.6-7.2 6-7.2 4.4 0 5.2 4.1 5.2 6 0 .3 0 .6-.1.8l-9.8.1zm8.5-1.1c0-1.9-.8-4.7-4-4.7-3 0-4.2 2.6-4.5 4.7h8.5zM445.2 58.3c0-1.3 0-2.7-.1-4h1.2l.1 2.7h.1c.6-1.7 2-3 3.8-3 .2 0 .4 0 .5.1v1.3h-.6c-1.8 0-3.1 1.6-3.5 3.7-.1.4-.1.8-.1 1.3v7.4h-1.3l-.1-9.5zM454.2 51.7c-.6 0-1-.5-1-1.1 0-.6.5-1.2 1.1-1.2.6 0 1.1.5 1.1 1.2 0 .5-.5 1.1-1.2 1.1zm-.6 16V54.3h1.3v13.4h-1.3zM468.7 67.1c-.6.3-2 .9-3.9.8-3.8 0-6.4-2.8-6.4-6.8 0-4.3 2.9-7.1 6.9-7.1 1.6 0 3.1.4 3.5.8l-.5 1.1c-.6-.4-1.7-.8-3.1-.8-3.6 0-5.4 2.7-5.4 5.9 0 3.5 2.2 5.8 5.3 5.8 1.6 0 2.6-.4 3.3-.8l.3 1.1zM480.2 64.5c0 1.1 0 2.1.2 3.2h-1.2l-.2-1.9h-.1c-.7 1-2.1 2.2-4.3 2.2-2.7 0-3.9-1.9-3.9-3.7 0-3.1 2.7-5 8.2-4.9V59c0-1.3-.2-4-3.4-3.9-1.2 0-2.4.3-3.4 1l-.4-1c1.2-.8 2.7-1.1 3.9-1.1 3.9 0 4.6 2.9 4.6 5.3v5.2zm-1.3-4c-2.9-.1-6.8.4-6.8 3.6 0 1.9 1.3 2.7 2.6 2.7 2.2 0 3.5-1.4 4-2.7.1-.3.1-.6.1-.8l.1-2.8zM484.5 57.5c0-1.2 0-2.1-.1-3.2h1.3l.1 2.4h.1c.7-1.5 2.4-2.7 4.6-2.7 1.3 0 4.6.6 4.6 5.7v8h-1.3v-7.9c0-2.5-.9-4.7-3.7-4.7-1.9 0-3.5 1.3-4 3.1-.1.3-.2.8-.2 1.2v8.3h-1.3l-.1-10.2zM130 92.3c-.2-2.8-.4-6.3-.4-8.3h-.1c-.7 2-1.4 4.2-2.5 7l-4 10.2h-.9l-3.7-10c-1.1-2.9-1.9-5.2-2.4-7.2-.1 2.2-.2 5.5-.4 8.6l-.6 8.6h-1.3l1.4-18.8h1.5l4 10.8c.9 2.3 1.6 4.2 2.1 6.1h.1c.5-1.7 1.1-3.5 2.1-6.1l4.2-10.8h1.6l1.3 18.8h-1.3l-.7-8.9zM146.2 97.9c0 1.2 0 2.2.1 3.3H145l-.1-2.4h.1c-.7 1.3-2.2 2.7-4.6 2.7-1.7 0-4.6-.9-4.6-5.9v-7.8h1.3v7.5c0 2.9.8 5 3.6 5 2 0 3.4-1.4 4-2.7.1-.4.3-.9.3-1.5v-8.3h1.3l-.1 10.1zM150.2 99.4c.7.4 1.8 1 3.1 1 2.1 0 3.1-1.1 3.1-2.5 0-1.5-.9-2.3-2.8-3-2.2-.8-3.4-2-3.4-3.7 0-2 1.5-3.6 4.1-3.6 1.2 0 2.3.3 3 .8l-.5 1.1c-.5-.3-1.3-.8-2.7-.8-1.7 0-2.6 1.1-2.6 2.3 0 1.4 1 2 2.7 2.7 2.2.8 3.5 1.9 3.5 4 0 2.3-1.8 3.8-4.5 3.8-1.3 0-2.5-.4-3.4-.9l.4-1.2zM161.3 94.3c0 4.2 2.3 5.9 5.1 5.9 2 0 3-.4 3.7-.8l.3 1c-.5.3-1.9.9-4.2.9-3.8 0-6.2-2.8-6.2-6.7 0-4.5 2.6-7.2 6-7.2 4.4 0 5.2 4.1 5.2 6 0 .3 0 .6-.1.8l-9.8.1zm8.5-1c0-1.9-.8-4.7-4-4.7-3 0-4.2 2.6-4.5 4.7h8.5zM184.9 97.9c0 1.2 0 2.2.1 3.3h-1.3l-.1-2.4h-.1c-.7 1.3-2.2 2.7-4.6 2.7-1.7 0-4.6-.9-4.6-5.9v-7.8h1.3v7.5c0 2.9.8 5 3.6 5 2 0 3.4-1.4 4-2.7.1-.4.3-.9.3-1.5v-8.3h1.3l.1 10.1zM189.4 91c0-1.2 0-2.1-.1-3.2h1.3l.1 2.3h.1c.9-1.5 2.1-2.6 4.3-2.6 1.8 0 3.3 1.3 3.8 2.9h.1c.4-.8.9-1.4 1.4-1.8.9-.7 1.8-1.1 3.2-1.1 1.3 0 4.3.7 4.3 5.8v7.9h-1.3v-7.8c0-3-1.2-4.8-3.5-4.8-1.7 0-3 1.3-3.5 2.6-.1.4-.2.8-.2 1.3v8.6h-1.3v-8.4c0-2.4-1.1-4.2-3.3-4.2-1.8 0-3.2 1.4-3.7 3-.1.4-.2.8-.2 1.3v8.2h-1.3l-.2-10zM230 101.1l-2.1-2.1c-1.9 1.8-3.7 2.4-5.7 2.4-3.1 0-5.3-2.3-5.3-5.2 0-2.6 1.6-4.3 3.7-5.5v-.1c-1-1.4-1.6-2.8-1.6-4.1 0-2.2 1.5-4.4 4.2-4.4 2 0 3.6 1.5 3.6 3.7 0 2-1.2 3.5-4.4 5.1v.1c1.9 2.2 4.1 4.6 5.5 6.3.9-1.4 1.5-3.2 2-6h1.3c-.5 3-1.2 5.3-2.5 6.8 1 1 1.9 1.9 3 3.1l-1.7-.1zm-7.4-.8c1.9 0 3.5-.9 4.6-2.1-1.1-1.3-3.5-3.9-5.9-6.7-1.2.7-3 2.1-3 4.5 0 2.5 1.8 4.3 4.3 4.3zm.5-17.2c-1.8 0-2.8 1.5-2.8 3.3 0 1.6.7 2.7 1.6 3.8 2.3-1.2 3.8-2.3 3.8-4.2 0-1.4-.7-2.8-2.6-2.9zM241.4 82.4v8.3h10.4v-8.3h1.3v18.8h-1.3v-9.4h-10.4v9.4h-1.3V82.4h1.3zM257.8 94.3c0 4.2 2.3 5.9 5.1 5.9 2 0 3-.4 3.7-.8l.3 1c-.5.3-1.9.9-4.2.9-3.8 0-6.2-2.8-6.2-6.7 0-4.5 2.6-7.2 6-7.2 4.4 0 5.2 4.1 5.2 6 0 .3 0 .6-.1.8l-9.8.1zm8.5-1c0-1.9-.8-4.7-4-4.7-3 0-4.2 2.6-4.5 4.7h8.5zM271.1 91.8c0-1.3 0-2.7-.1-4h1.2l.1 2.7h.1c.6-1.7 2-3 3.8-3 .2 0 .4 0 .5.1v1.3h-.6c-1.8 0-3.1 1.6-3.5 3.7-.1.4-.1.8-.1 1.3v7.4h-1.3l-.1-9.5zM280.2 85.1c-.6 0-1-.5-1-1.1 0-.6.5-1.2 1.1-1.2.6 0 1.1.5 1.1 1.2-.1.6-.5 1.1-1.2 1.1zm-.6 16V87.8h1.3v13.4h-1.3zM287.2 84.8v3h3.8v1.1h-3.8v8.7c0 1.7.5 2.7 1.9 2.8.7 0 1.2-.1 1.5-.2l.2 1c-.4.2-1.1.3-1.9.3-1 0-1.8-.3-2.3-.9-.6-.7-.8-1.8-.8-3.2V89h-2.3v-1.1h2.3v-2.5l1.4-.6zM302.3 98c0 1.1 0 2.1.2 3.2h-1.2l-.2-1.9h-.1c-.7 1-2.1 2.2-4.3 2.2-2.7 0-3.9-1.9-3.9-3.7 0-3.1 2.7-5 8.2-4.9v-.4c0-1.3-.2-4-3.4-3.9-1.2 0-2.4.3-3.4 1l-.4-1c1.2-.8 2.7-1.1 3.9-1.1 3.9 0 4.6 2.9 4.6 5.3V98zm-1.3-4c-2.9-.1-6.8.4-6.8 3.6 0 1.9 1.3 2.7 2.6 2.8 2.2 0 3.5-1.4 4-2.7.1-.3.1-.6.1-.8l.1-2.9zM317.3 99.2c0 3.4-.7 5.1-1.8 6.2-1.2 1.2-3 1.6-4.5 1.6s-3.2-.4-4.3-1.2l.5-1.1c.9.6 2.2 1.2 4 1.2 2.8 0 4.8-1.4 4.8-5.4v-2h-.1c-.7 1.4-2.3 2.6-4.7 2.6-3.4 0-5.7-2.9-5.7-6.6 0-4.7 3.1-7.1 6-7.1 2.6 0 3.9 1.5 4.5 2.6h.1l.1-2.3h1.2c-.1 1-.1 2.1-.1 3.5v8zm-1.3-6.3c0-.5 0-.9-.2-1.3-.6-1.6-1.9-3-4.1-3-2.8 0-4.8 2.3-4.8 5.9 0 3.1 1.6 5.6 4.8 5.6 1.8 0 3.5-1.1 4.2-3 .1-.4.2-.9.2-1.4l-.1-2.8zM322 94.3c0 4.2 2.3 5.9 5.1 5.9 1.9 0 3-.4 3.7-.8l.3 1c-.5.3-1.9.9-4.2.9-3.8 0-6.2-2.8-6.2-6.7 0-4.5 2.6-7.2 6-7.2 4.4 0 5.2 4.1 5.2 6 0 .3 0 .6-.1.8l-9.8.1zm8.5-1c0-1.9-.8-4.7-4-4.7-3 0-4.2 2.6-4.5 4.7h8.5zM354.1 100.5c-.9.5-2.8.9-5.1 1-4.5 0-8.9-2.9-8.9-9.6 0-5.6 3.6-9.8 9.5-9.8 2.4 0 3.8.5 4.3.8l-.4 1.2c-.9-.5-2.3-.8-3.9-.8-5.1 0-8.2 3.3-8.2 8.7 0 5.1 2.9 8.3 7.9 8.3 1.6 0 3.1-.3 4.2-.9l.6 1.1zM357.3 94.3c0 4.2 2.3 5.9 5.1 5.9 1.9 0 3-.4 3.7-.8l.3 1c-.5.3-1.9.9-4.2.9-3.8 0-6.2-2.8-6.2-6.7 0-4.5 2.6-7.2 6-7.2 4.4 0 5.2 4.1 5.2 6 0 .3 0 .6-.1.8l-9.8.1zm8.6-1c0-1.9-.8-4.7-4-4.7-3 0-4.2 2.6-4.5 4.7h8.5zM370.6 91c0-1.2 0-2.1-.1-3.2h1.3l.1 2.4h.1c.7-1.5 2.4-2.7 4.6-2.7 1.3 0 4.6.6 4.6 5.7v8h-1.3v-7.9c0-2.5-.9-4.7-3.7-4.7-1.9 0-3.5 1.3-4 3.1-.1.3-.2.8-.2 1.2v8.3h-1.3l-.1-10.2zM387.4 84.8v3h3.8v1.1h-3.8v8.7c0 1.7.5 2.7 1.9 2.8.7 0 1.2-.1 1.5-.2l.2 1c-.4.2-1.1.3-1.9.3-1 0-1.8-.3-2.3-.9-.6-.7-.8-1.8-.8-3.2V89h-2.3v-1.1h2.3v-2.5l1.4-.6zM394.2 94.3c0 4.2 2.3 5.9 5.1 5.9 2 0 3-.4 3.7-.8l.3 1c-.5.3-1.9.9-4.2.9-3.8 0-6.2-2.8-6.2-6.7 0-4.5 2.6-7.2 6-7.2 4.4 0 5.2 4.1 5.2 6 0 .3 0 .6-.1.8l-9.8.1zm8.5-1c0-1.9-.8-4.7-4-4.7-3 0-4.2 2.6-4.5 4.7h8.5zM407.5 91.8c0-1.3 0-2.7-.1-4h1.2l.1 2.7h.1c.6-1.7 2-3 3.8-3 .2 0 .4 0 .5.1v1.3h-.6c-1.8 0-3.1 1.6-3.5 3.7-.1.4-.1.8-.1 1.3v7.4h-1.3l-.1-9.5z"/><path class="st5" d="M3.2 23.8l-5.6-8.7 8.7 5.2M10.3 16.8L6.9 7.1l7.3 7.1M19.6 10.8L19.2.4l4.9 9.1M29.7 7.4L30.4-3l3.8 9.7M40.2 7.4L44.3-2l.4 10.2M49.8 9.1L56.7.3l-2.3 10.9M60.1 12.8l7.3-7.2-3.5 9.7M68.8 19l9.2-4.4-6.2 8M75.2 27.3l9.8-2.8-7.6 6.9M80.1 37l10.3-.1-9.1 4.6M81.8 48l10 2.3-9.9 2.3M-.1 27.9l-9.7-3.1 7.4 7.1M-4.2 36.7l-10.5-1 9 5.4M-6.9 47l-9.9 2.4 9.9 2.4M73 76l5.6 8.7-8.8-5.2M65 83.5l4 9.5-7.7-6.7M56 89l.5 10.4-5-9.1M45.8 91.7L45 102l-3.8-9.6M34.9 92.4l-4.1 9.4-.4-10.3M24.6 90.3l-5.8 8.4 1.5-10.2M15.1 86.1l-7.3 7.2 3.5-9.8M6.5 80.1l-9.1 4.4 6.3-8M0 71.8l-9.8 2.8 7.6-6.9M-4.8 62.1l-10.1.1 9.1-4.6M75.7 72.1l9.9 2.6-7.7-6.7M80 62.7l10.2.5-8.9-5"/><path class="st1" d="M72 49.9c-.4 18.9-15.9 32.9-34.5 33.3C18.9 83.6 3.4 68.3 3.1 50c-.5-19 16.5-33 34.5-33.4 18.5-.3 34.1 15 34.4 33.3 0 1.1 1.6 1.1 1.6 0C73.2 30.1 57 15.4 37.5 15c-19.4-.3-35.6 15.7-36 34.9-.5 19.8 17.3 34.6 36.1 35 19.5.4 35.7-15.7 36.1-34.9-.1-1.1-1.7-1.1-1.7-.1zM80.7 49.9C80.3 73.4 60.9 91 37.8 91.4 14.7 91.8-4.8 72.9-5.1 50c-.4-23.5 20.5-41.1 43-41.5 23-.4 42.5 18.5 42.8 41.4.1 1.1 1.6 1.1 1.6 0C82 28.4 65.4 9.7 43.7 7.3 21.6 4.8.3 18-5.5 39.8-11.2 61.2 2 82.4 21.9 90.1c20.9 8.1 45.2-1.4 55.7-20.9 3.2-5.9 4.6-12.6 4.7-19.3 0-1-1.5-1-1.6 0zM76.2 60.3c-.8.2-1.6-.4-1.8-1.2-.2-.8.4-1.5 1.1-1.8.8-.2 1.7.2 1.9 1.1.1.9-.4 1.7-1.2 1.9zM72.1 69.8c-.9-.1-1.5-.8-1.4-1.6.1-.8.6-1.5 1.5-1.4.8 0 1.6.6 1.6 1.5s-.8 1.5-1.7 1.5zM65.8 77.8c-.8-.3-1.2-1.1-1-1.9.2-.8 1-1.2 1.8-1 .8.2 1.3 1.1 1.1 1.9-.3.8-1.1 1.4-1.9 1zM57.5 84c-.7-.5-.9-1.4-.5-2.1.4-.7 1.3-.9 2.1-.4.7.4 1.1 1.4.5 2.1-.4.6-1.4.8-2.1.4zM48 87.8c-.6-.6-.5-1.6.1-2.2.6-.5 1.5-.5 2.1 0 .6.6.6 1.6 0 2.2-.6.7-1.6.6-2.2 0zM37.8 89.1c-.4-.8-.1-1.7.6-2.1.7-.4 1.6-.2 2 .5.4.7.2 1.7-.5 2.1-.7.5-1.7.3-2.1-.5zM27.6 87.8c-.2-.8.4-1.6 1.2-1.8.8-.2 1.6.3 1.8 1.1.2.8-.2 1.7-1.1 1.9-.8.1-1.7-.4-1.9-1.2zM18.1 84.1c0-.9.8-1.5 1.6-1.5s1.5.6 1.5 1.5c0 .8-.6 1.6-1.5 1.6s-1.6-.8-1.6-1.6zM9.8 78c.2-.8 1.1-1.3 1.9-1.1.8.2 1.3 1 1.1 1.8-.2.8-1 1.4-1.8 1.1-.9-.2-1.4-1-1.2-1.8zM3.4 69.9c.4-.7 1.4-.9 2.1-.5.7.4.8 1.4.5 2-.3.7-1.3 1.1-2 .6-.8-.4-1.1-1.3-.6-2.1zM-.7 60.5c.7-.6 1.6-.5 2.1 0 .5.6.6 1.5 0 2.1-.6.6-1.5.7-2.2.1-.6-.6-.5-1.7.1-2.2zM-2.1 50.3c.8-.4 1.7-.1 2.1.6.4.7.2 1.6-.6 2-.7.4-1.7.2-2.1-.5-.4-.8-.2-1.7.6-2.1zM-.7 40.1c.8-.2 1.7.4 1.8 1.2.2.8-.4 1.5-1.1 1.8-.8.2-1.7-.2-1.9-1.1-.2-.8.3-1.8 1.2-1.9zM3.3 30.7c.9.1 1.5.8 1.5 1.6-.1.8-.6 1.5-1.5 1.5-.8 0-1.5-.7-1.5-1.5-.1-1 .6-1.7 1.5-1.6zM9.7 22.6c.8.3 1.2 1.2 1 1.9-.2.8-1 1.2-1.8 1-.8-.2-1.3-1-1.1-1.9.2-.8 1.1-1.3 1.9-1zM17.9 16.5c.7.4.8 1.5.4 2.1-.4.7-1.3.9-2.1.4-.7-.4-1-1.4-.5-2.1.5-.6 1.5-.9 2.2-.4zM27.4 12.6c.6.6.5 1.6-.1 2.2-.6.5-1.5.5-2.1-.1-.6-.6-.6-1.6 0-2.2.6-.6 1.7-.5 2.2.1zM37.6 11.3c.4.7.1 1.7-.6 2.1-.7.4-1.6.2-2-.6-.4-.7-.2-1.7.5-2.1.8-.5 1.8-.1 2.1.6zM47.8 12.6c.2.8-.3 1.6-1.1 1.8-.8.2-1.6-.3-1.8-1.1-.2-.8.2-1.7 1.1-1.9.8-.2 1.6.3 1.8 1.2zM57.4 16.4c0 .9-.8 1.5-1.6 1.5s-1.5-.6-1.5-1.5c0-.8.6-1.6 1.5-1.6s1.6.7 1.6 1.6zM65.6 22.5c-.2.8-1.1 1.3-1.9 1.1-.8-.2-1.2-1-1-1.8.2-.8 1-1.4 1.8-1.1.9.1 1.4 1 1.1 1.8zM72 30.5c-.4.7-1.4.9-2.1.5-.7-.4-.9-1.3-.5-2s1.3-1.1 2.1-.6c.7.4.9 1.4.5 2.1zM76.1 39.9c-.6.6-1.6.5-2.2-.1-.5-.6-.6-1.5 0-2.1.6-.6 1.5-.7 2.2-.1.7.7.7 1.8 0 2.3zM77.6 50.1c-.8.4-1.7.1-2.1-.6-.4-.7-.2-1.6.6-2 .7-.4 1.7-.2 2.1.5.3.8 0 1.7-.6 2.1z"/><path class="st2" d="M24.2 18.6C35.6 37 36.1 63.7 22.4 81M27.5 18.2c11.4 18.4 11.7 46.7-2 63.9M50.1 17.8c-11.4 18.3-12 45.1 1.8 62.3M46.8 17.4c-11.4 18.3-11.7 46.7 2 63.9M4.9 61.8C24.1 51 52.3 50.4 70.5 63.5M4.4 58.7c19.3-10.9 49.1-11.1 67.2 1.9M4.1 37.2c19.3 10.9 47.4 11.4 65.6-1.7M3.6 40.3c19.3 10.9 49 11.1 67.2-1.9"/><a xlink:href="http://vesterheim.org/" target="_top"><path fill-opacity="0" d="M-17-4h512v112H-17z"/></a></svg>