<svg xmlns="http://www.w3.org/2000/svg" xmlns:xlink="http://www.w3.org/1999/xlink" class="svg-content" preserveAspectRatio="xMinYMin meet" version="1.1" viewBox="-16.9 -4.1 512 112" x="0" y="0"><style type="text/css"><![CDATA[
.st0{fill:#FFFFFF;stroke:#FFFFFF;stroke-width:0.2;} .st1{fill:#FFFFFF;} .st2{fill:none;stroke:#FFFFFF;stroke-width:1.0253;} .st3{fill:none;stroke:#FFFFFF;stroke-width:1.6868;} .st4{fill:none;} .st5{fill:none;stroke:#FFFFFF;stroke-width:1.2;} .st6{fill:#FFFFFF;stroke:#FFFFFF;stroke-width:0.75;}
]]></style><g><line class="st3" x1="100.2" y1="9.9" x2="100.2" y2="99.1"/><rect x="111.9" y="8.7" class="st4" width="508" height="107.1"/><path class="st6" d="M120 34.3l-8.1-27.9h1.8l4.3 15c1.2 4 2.1 7.6 2.9 10.7h.1c.7-3.2 1.8-6.8 3.1-10.7l4.7-15h1.8l-9 27.9h-1.6z"/><path class="st6" d="M132.5 24.1c0 6.3 3.1 8.9 6.5 8.9 2.5 0 3.8-.6 4.8-1.1l.4 1.5c-.6.4-2.4 1.3-5.4 1.3-5 0-8.1-4.1-8.1-10 0-6.6 3.3-10.8 7.8-10.8 5.7 0 6.8 6.1 6.8 9 0 .5 0 .8-.1 1.2h-12.7zm11-1.6c0-2.8-1-7-5.2-7-3.8 0-5.4 3.9-5.8 7h11z"/><path class="st6" d="M149 31.7c.9.6 2.3 1.4 3.9 1.4 2.7 0 4-1.7 4-3.8 0-2.2-1.2-3.4-3.6-4.5-2.8-1.2-4.4-3-4.4-5.4 0-2.9 2-5.4 5.3-5.4 1.6 0 3 .5 3.8 1.2l-.6 1.6c-.6-.5-1.7-1.2-3.5-1.2-2.2 0-3.4 1.6-3.4 3.4 0 2.1 1.3 3 3.6 4.1 2.8 1.3 4.4 2.9 4.4 5.9 0 3.4-2.3 5.7-5.8 5.7-1.7 0-3.2-.5-4.4-1.4l.7-1.6z"/><path class="st6" d="M165.5 10v4.4h4.9v1.6h-4.9v12.9c0 2.5.6 4.1 2.5 4.1.9 0 1.6-.1 2-.3l.2 1.5c-.6.2-1.4.5-2.4.4-1.3 0-2.3-.5-3-1.4-.8-1-1.1-2.7-1.1-4.8v-12.4h-2.9v-1.6h2.9v-3.6l1.8-.8z"/><path class="st6" d="M174.3 24.1c0 6.3 3.1 8.9 6.5 8.9 2.5 0 3.8-.6 4.8-1.1l.4 1.5c-.6.4-2.4 1.3-5.4 1.3-5 0-8.1-4.1-8.1-10 0-6.6 3.3-10.8 7.8-10.8 5.7 0 6.8 6.1 6.8 9 0 .5 0 .8-.1 1.2h-12.7zm11.1-1.6c0-2.8-1-7-5.2-7-3.8 0-5.4 3.9-5.8 7h11z"/><path class="st6" d="M191.5 20.3c0-2 0-4-.1-6h1.6l.1 4h.1c.8-2.5 2.6-4.5 4.9-4.5.3 0 .5 0 .7.1v1.9h-.8c-2.4 0-4.1 2.4-4.5 5.6-.1.6-.1 1.2-.1 1.9v11h-1.7l-.2-14z"/><path class="st6" d="M202.5 4.8h1.7v13.1h.1c.5-1.1 1.3-2.2 2.3-2.9 1-.7 2.2-1.2 3.5-1.2 1.6 0 6 1 6 8.4v12h-1.7v-11.7c0-3.6-1.2-6.8-4.8-6.8-2.5 0-4.5 2-5.2 4.5-.2.6-.2 1.2-.2 2v12.1h-1.7v-29.5z"/><path class="st6" d="M222.1 24.1c0 6.3 3.1 8.9 6.5 8.9 2.5 0 3.8-.6 4.8-1.1l.4 1.5c-.6.4-2.4 1.3-5.4 1.3-5 0-8.1-4.1-8.1-10 0-6.6 3.3-10.8 7.8-10.8 5.7 0 6.8 6.1 6.8 9 0 .5 0 .8-.1 1.2h-12.7zm11-1.6c0-2.8-1-7-5.2-7-3.8 0-5.4 3.9-5.8 7h11z"/><path class="st6" d="M240.1 10.4c-.8 0-1.3-.8-1.3-1.7 0-.9.6-1.7 1.4-1.7.8 0 1.4.7 1.4 1.7-.1.9-.6 1.7-1.5 1.7zm-.8 23.9v-19.9h1.7v19.9h-1.7z"/><path class="st6" d="M246.8 19.1c0-1.8 0-3.2-.1-4.8h1.6l.1 3.5h.1c1.1-2.3 2.8-3.9 5.6-3.9 2.4 0 4.2 1.8 5 4.3h.1c.5-1.2 1.1-2.1 1.8-2.7 1.1-1 2.3-1.6 4.1-1.6 1.7 0 5.7 1.1 5.7 8.6v11.7h-1.8v-11.5c0-4.5-1.5-7.1-4.5-7.1-2.2 0-3.9 1.9-4.5 3.9-.1.6-.3 1.2-.3 2v12.8h-1.7v-12.5c0-3.6-1.5-6.2-4.3-6.2-2.3 0-4.1 2.2-4.8 4.5-.1.6-.3 1.2-.3 2v12.3h-1.7l-.1-15.3z"/><path class="st0" d="M117.7 50h-6.1v-1.1h13.6v1.1h-6.2v17.7h-1.3v-17.7z"/><path class="st0" d="M127 47.9h1.3v8.8h.1c.4-.8 1-1.4 1.8-1.9s1.7-.8 2.7-.8c1.3 0 4.6.6 4.6 5.6v8.1h-1.3v-7.9c0-2.4-.9-4.6-3.7-4.6-1.9 0-3.5 1.4-4 3-.1.4-.2.8-.2 1.3v8.2h-1.3v-19.8z"/><path class="st0" d="M142.1 60.9c0 4.2 2.3 5.9 5.1 5.9 2 0 3-.4 3.7-.8l.3 1c-.5.3-1.9.9-4.2.9-3.8 0-6.2-2.8-6.2-6.7 0-4.5 2.6-7.2 6-7.2 4.4 0 5.2 4.1 5.2 6 0 .3 0 .6-.1.8l-9.8.1zm8.5-1.1c0-1.9-.8-4.7-4-4.7-3 0-4.2 2.6-4.5 4.7h8.5z"/><path class="st0" d="M161.6 67.7v-18.8h1.3l7.3 11.1c1.5 2.3 2.6 4.1 3.6 5.9h.1c-.2-2.5-.2-4.7-.2-7.6v-9.4h1.3v18.8h-1.2l-7.2-10.9c-1.4-2.1-2.7-4.1-3.6-6.1h-.1c.1 2.3.2 4.3.2 7.5v9.5h-1.5z"/><path class="st0" d="M187.7 64.5c0 1.1 0 2.1.2 3.2h-1.2l-.2-1.9h-.1c-.7 1-2.1 2.2-4.3 2.2-2.7 0-3.9-1.9-3.9-3.7 0-3.1 2.7-5 8.2-4.9v-.4c0-1.3-.2-4-3.4-3.9-1.2 0-2.4.3-3.4 1l-.4-1c1.2-.8 2.7-1.1 3.9-1.1 3.9 0 4.6 2.9 4.6 5.3v5.2zm-1.4-4c-2.9-.1-6.8.4-6.8 3.6 0 1.9 1.3 2.7 2.6 2.8 2.2 0 3.5-1.4 4-2.7.1-.3.1-.6.1-.8l.1-2.9z"/><path class="st0" d="M193.8 51.4v3h3.8v1.1h-3.8v8.7c0 1.7.5 2.7 1.9 2.8.7 0 1.2-.1 1.5-.2l.2 1c-.4.2-1.1.3-1.9.3-1 0-1.8-.3-2.3-.9-.6-.7-.8-1.8-.8-3.2v-8.4h-2.3v-1.1h2.3v-2.5l1.4-.6z"/><path class="st0" d="M201.2 51.7c-.6 0-1-.5-1-1.1 0-.6.5-1.2 1.1-1.2.6 0 1.1.5 1.1 1.2-.1.5-.5 1.1-1.2 1.1zm-.6 16v-13.4h1.3v13.4h-1.3z"/><path class="st0" d="M211.4 68c-3.5 0-6.1-2.7-6.1-6.9 0-4.6 3-7.1 6.3-7.1 3.7 0 6.2 2.7 6.2 6.9 0 5-3.4 7.1-6.4 7.1zm.1-1.1c2.8 0 5-2.5 5-5.9 0-2.5-1.4-5.8-4.9-5.8-3.4 0-5 3-5 5.9 0 3.3 2.1 5.7 4.9 5.8z"/><path class="st0" d="M221.2 57.5c0-1.2 0-2.1-.1-3.2h1.3l.1 2.4h.1c.7-1.5 2.4-2.7 4.6-2.7 1.3 0 4.6.6 4.6 5.7v8h-1.3v-7.9c0-2.5-.9-4.7-3.7-4.7-1.9 0-3.5 1.3-4 3.1-.1.3-.2.8-.2 1.2v8.3h-1.3l-.1-10.2z"/><path class="st0" d="M244.5 64.5c0 1.1 0 2.1.2 3.2h-1.2l-.2-1.9h-.1c-.7 1-2.1 2.2-4.3 2.2-2.7 0-3.9-1.9-3.9-3.7 0-3.1 2.7-5 8.2-4.9v-.4c0-1.3-.3-4-3.4-3.9-1.2 0-2.4.3-3.4 1l-.4-1c1.2-.8 2.7-1.1 3.9-1.1 3.9 0 4.6 2.9 4.6 5.3v5.2zm-1.3-4c-2.9-.1-6.8.4-6.8 3.6 0 1.9 1.3 2.7 2.6 2.8 2.2 0 3.5-1.4 4-2.7.1-.3.1-.6.1-.8l.1-2.9z"/><path class="st0" d="M248.8 47.9h1.3v19.8h-1.3v-19.8z"/><path class="st0" d="M260.9 67.7v-18.8h1.3l7.3 11.1c1.5 2.3 2.6 4.1 3.6 5.9h.1c-.2-2.5-.2-4.7-.2-7.6v-9.4h1.3v18.8h-1.2l-7.2-10.9c-1.4-2.1-2.7-4.1-3.6-6.1h-.1c.1 2.3.2 4.3.2 7.5v9.5h-1.5z"/><path class="st0" d="M283.6 68c-3.5 0-6.1-2.7-6.1-6.9 0-4.6 3-7.1 6.3-7.1 3.7 0 6.2 2.7 6.2 6.9 0 5-3.4 7.1-6.4 7.1zm.1-1.1c2.8 0 5-2.5 5-5.9 0-2.5-1.4-5.8-4.9-5.8-3.4 0-5 3-5 5.9 0 3.3 2.1 5.7 4.9 5.8z"/><path class="st0" d="M293.4 58.3c0-1.3 0-2.7-.1-4h1.2l.1 2.7h.1c.6-1.7 2-3 3.8-3 .2 0 .4 0 .5.1v1.3h-.6c-1.8 0-3.1 1.6-3.5 3.7-.1.4-.1.8-.1 1.3v7.4h-1.3l-.1-9.5z"/><path class="st0" d="M302.2 54.3l2.3 7.6c.4 1.6.8 2.9 1.2 4.2h.1c.3-1.2.8-2.6 1.3-4.2l2.7-7.6h1.3l2.6 7.5c.6 1.7.9 3.1 1.3 4.3h.1c.3-1.3.7-2.6 1.2-4.2l2.4-7.6h1.4l-4.5 13.4h-1.1l-2.5-7.5c-.6-1.6-1-3-1.4-4.5h-.1c-.4 1.6-.9 3-1.4 4.6l-2.6 7.4h-1.5l-4.1-13.4h1.3z"/><path class="st0" d="M322.6 60.9c0 4.2 2.3 5.9 5.1 5.9 1.9 0 3-.4 3.7-.8l.3 1c-.5.3-1.9.9-4.2.9-3.8 0-6.2-2.8-6.2-6.7 0-4.5 2.6-7.2 6-7.2 4.4 0 5.2 4.1 5.2 6 0 .3 0 .6-.1.8l-9.8.1zm8.5-1.1c0-1.9-.8-4.7-4-4.7-3 0-4.2 2.6-4.5 4.7h8.5z"/><path class="st0" d="M346.6 65.8c0 3.4-.7 5.1-1.8 6.2-1.2 1.2-3 1.6-4.5 1.6s-3.2-.4-4.3-1.2l.5-1.1c.9.6 2.2 1.2 4 1.2 2.8 0 4.8-1.4 4.8-5.4v-1.9h-.1c-.7 1.4-2.3 2.6-4.7 2.6-3.4 0-5.7-2.9-5.7-6.6 0-4.7 3.1-7.1 6-7.1 2.6 0 3.9 1.5 4.5 2.6h.1l.1-2.3h1.2c-.1 1-.1 2.1-.1 3.5v7.9zm-1.3-6.3c0-.5 0-.9-.2-1.3-.6-1.6-2-3-4.2-3-2.8 0-4.8 2.3-4.8 5.9 0 3.1 1.6 5.6 4.8 5.6 1.8 0 3.5-1.1 4.1-3 .1-.4.2-.9.2-1.4l.1-2.8z"/><path class="st0" d="M351.5 51.7c-.6 0-1-.5-1-1.1 0-.6.5-1.2 1.1-1.2.6 0 1.1.5 1.1 1.2-.1.5-.5 1.1-1.2 1.1zm-.6 16v-13.4h1.3v13.4h-1.3z"/><path class="st0" d="M365 64.5c0 1.1 0 2.1.2 3.2h-1.2l-.2-1.9h-.1c-.7 1-2.1 2.2-4.3 2.2-2.7 0-3.9-1.9-3.9-3.7 0-3.1 2.7-5 8.2-4.9v-.4c0-1.3-.2-4-3.4-3.9-1.2 0-2.4.3-3.4 1l-.4-1c1.2-.8 2.7-1.1 3.9-1.1 3.9 0 4.6 2.9 4.6 5.3v5.2zm-1.3-4c-2.9-.1-6.8.4-6.8 3.6 0 1.9 1.3 2.7 2.6 2.7 2.2 0 3.5-1.4 4-2.7.1-.3.1-.6.1-.8l.1-2.8z"/><path class="st0" d="M369.3 57.5c0-1.2 0-2.1-.1-3.2h1.3l.1 2.4h.1c.7-1.5 2.4-2.7 4.6-2.7 1.3 0 4.6.6 4.6 5.7v8h-1.3v-7.9c0-2.5-.9-4.7-3.7-4.7-1.9 0-3.5 1.3-4 3.1-.1.3-.2.8-.2 1.2v8.3h-1.3l-.1-10.2z"/><path class="st0" d="M389.5 59.5v1.2h-6.6v-1.2h6.6z"/><path class="st0" d="M394.8 61.1l-2.3 6.6h-1.4l6.8-18.8h1.3l6.8 18.8h-1.4l-2.4-6.6h-7.4zm7.1-1.1l-2.3-6.3c-.4-1.3-.7-2.3-1-3.3h-.1c-.3 1.1-.6 2.1-1 3.3l-2.3 6.3h6.7z"/><path class="st0" d="M408.9 57.5c0-1.2 0-2.1-.1-3.2h1.3l.1 2.3h.1c.9-1.5 2.1-2.6 4.3-2.6 1.8 0 3.3 1.3 3.8 2.9h.1c.4-.8.9-1.4 1.4-1.8.9-.7 1.8-1.1 3.2-1.1 1.3 0 4.3.7 4.3 5.8v7.9h-1.3v-7.8c0-3-1.2-4.8-3.5-4.8-1.7 0-3 1.3-3.5 2.6-.1.4-.2.8-.2 1.3v8.6h-1.3v-8.4c0-2.4-1.1-4.2-3.3-4.2-1.8 0-3.2 1.4-3.7 3-.1.4-.2.8-.2 1.3v8.2h-1.3l-.2-10z"/><path class="st0" d="M431.9 60.9c0 4.2 2.3 5.9 5.1 5.9 2 0 3-.4 3.7-.8l.3 1c-.5.3-1.9.9-4.2.9-3.8 0-6.2-2.8-6.2-6.7 0-4.5 2.6-7.2 6-7.2 4.4 0 5.2 4.1 5.2 6 0 .3 0 .6-.1.8l-9.8.1zm8.5-1.1c0-1.9-.8-4.7-4-4.7-3 0-4.2 2.6-4.5 4.7h8.5z"/><path class="st0" d="M445.2 58.3c0-1.3 0-2.7-.1-4h1.2l.1 2.7h.1c.6-1.7 2-3 3.8-3 .2 0 .4 0 .5.1v1.3h-.6c-1.8 0-3.1 1.6-3.5 3.7-.1.4-.1.8-.1 1.3v7.4h-1.3l-.1-9.5z"/><path class="st0" d="M454.2 51.7c-.6 0-1-.5-1-1.1 0-.6.5-1.2 1.1-1.2.6 0 1.1.5 1.1 1.2 0 .5-.5 1.1-1.2 1.1zm-.6 16v-13.4h1.3v13.4h-1.3z"/><path class="st0" d="M468.7 67.1c-.6.3-2 .9-3.9.8-3.8 0-6.4-2.8-6.4-6.8 0-4.3 2.9-7.1 6.9-7.1 1.6 0 3.1.4 3.5.8l-.5 1.1c-.6-.4-1.7-.8-3.1-.8-3.6 0-5.4 2.7-5.4 5.9 0 3.5 2.2 5.8 5.3 5.8 1.6 0 2.6-.4 3.3-.8l.3 1.1z"/><path class="st0" d="M480.2 64.5c0 1.1 0 2.1.2 3.2h-1.2l-.2-1.9h-.1c-.7 1-2.1 2.2-4.3 2.2-2.7 0-3.9-1.9-3.9-3.7 0-3.1 2.7-5 8.2-4.9v-.4c0-1.3-.2-4-3.4-3.9-1.2 0-2.4.3-3.4 1l-.4-1c1.2-.8 2.7-1.1 3.9-1.1 3.9 0 4.6 2.9 4.6 5.3v5.2zm-1.3-4c-2.9-.1-6.8.4-6.8 3.6 0 1.9 1.3 2.7 2.6 2.7 2.2 0 3.5-1.4 4-2.7.1-.3.1-.6.1-.8l.1-2.8z"/><path class="st0" d="M484.5 57.5c0-1.2 0-2.1-.1-3.2h1.3l.1 2.4h.1c.7-1.5 2.4-2.7 4.6-2.7 1.3 0 4.6.6 4.6 5.7v8h-1.3v-7.9c0-2.5-.9-4.7-3.7-4.7-1.9 0-3.5 1.3-4 3.1-.1.3-.2.8-.2 1.2v8.3h-1.3l-.1-10.2z"/><path class="st0" d="M130 92.3c-.2-2.8-.4-6.3-.4-8.3h-.1c-.7 2-1.4 4.2-2.5 7l-4 10.2h-.9l-3.7-10c-1.1-2.9-1.9-5.2-2.4-7.2-.1 2.2-.2 5.5-.4 8.6l-.6 8.6h-1.3l1.4-18.8h1.5l4 10.8c.9 2.3 1.6 4.2 2.1 6.1h.1c.5-1.7 1.1-3.5 2.1-6.1l4.2-10.8h1.6l1.3 18.8h-1.3l-.7-8.9z"/><path class="st0" d="M146.2 97.9c0 1.2 0 2.2.1 3.3h-1.3l-.1-2.4h.1c-.7 1.3-2.2 2.7-4.6 2.7-1.7 0-4.6-.9-4.6-5.9v-7.8h1.3v7.5c0 2.9.8 5 3.6 5 2 0 3.4-1.4 4-2.7.1-.4.3-.9.3-1.5v-8.3h1.3l-.1 10.1z"/><path class="st0" d="M150.2 99.4c.7.4 1.8 1 3.1 1 2.1 0 3.1-1.1 3.1-2.5 0-1.5-.9-2.3-2.8-3-2.2-.8-3.4-2-3.4-3.7 0-2 1.5-3.6 4.1-3.6 1.2 0 2.3.3 3 .8l-.5 1.1c-.5-.3-1.3-.8-2.7-.8-1.7 0-2.6 1.1-2.6 2.3 0 1.4 1 2 2.7 2.7 2.2.8 3.5 1.9 3.5 4 0 2.3-1.8 3.8-4.5 3.8-1.3 0-2.5-.4-3.4-.9l.4-1.2z"/><path class="st0" d="M161.3 94.3c0 4.2 2.3 5.9 5.1 5.9 2 0 3-.4 3.7-.8l.3 1c-.5.3-1.9.9-4.2.9-3.8 0-6.2-2.8-6.2-6.7 0-4.5 2.6-7.2 6-7.2 4.4 0 5.2 4.1 5.2 6 0 .3 0 .6-.1.8l-9.8.1zm8.5-1c0-1.9-.8-4.7-4-4.7-3 0-4.2 2.6-4.5 4.7h8.5z"/><path class="st0" d="M184.9 97.9c0 1.2 0 2.2.1 3.3h-1.3l-.1-2.4h-.1c-.7 1.3-2.2 2.7-4.6 2.7-1.7 0-4.6-.9-4.6-5.9v-7.8h1.3v7.5c0 2.9.8 5 3.6 5 2 0 3.4-1.4 4-2.7.1-.4.3-.9.3-1.5v-8.3h1.3l.1 10.1z"/><path class="st0" d="M189.4 91c0-1.2 0-2.1-.1-3.2h1.3l.1 2.3h.1c.9-1.5 2.1-2.6 4.3-2.6 1.8 0 3.3 1.3 3.8 2.9h.1c.4-.8.9-1.4 1.4-1.8.9-.7 1.8-1.1 3.2-1.1 1.3 0 4.3.7 4.3 5.8v7.9h-1.3v-7.8c0-3-1.2-4.8-3.5-4.8-1.7 0-3 1.3-3.5 2.6-.1.4-.2.8-.2 1.3v8.6h-1.3v-8.4c0-2.4-1.1-4.2-3.3-4.2-1.8 0-3.2 1.4-3.7 3-.1.4-.2.8-.2 1.3v8.2h-1.3l-.2-10z"/><path class="st0" d="M230 101.1l-2.1-2.1c-1.9 1.8-3.7 2.4-5.7 2.4-3.1 0-5.3-2.3-5.3-5.2 0-2.6 1.6-4.3 3.7-5.5v-.1c-1-1.4-1.6-2.8-1.6-4.1 0-2.2 1.5-4.4 4.2-4.4 2 0 3.6 1.5 3.6 3.7 0 2-1.2 3.5-4.4 5.1v.1c1.9 2.2 4.1 4.6 5.5 6.3.9-1.4 1.5-3.2 2-6h1.3c-.5 3-1.2 5.3-2.5 6.8 1 1 1.9 1.9 3 3.1l-1.7-.1zm-7.4-.8c1.9 0 3.5-.9 4.6-2.1-1.1-1.3-3.5-3.9-5.9-6.7-1.2.7-3 2.1-3 4.5 0 2.5 1.8 4.3 4.3 4.3zm.5-17.2c-1.8 0-2.8 1.5-2.8 3.3 0 1.6.7 2.7 1.6 3.8 2.3-1.2 3.8-2.3 3.8-4.2 0-1.4-.7-2.8-2.6-2.9z"/><path class="st0" d="M241.4 82.4v8.3h10.4v-8.3h1.3v18.8h-1.3v-9.4h-10.4v9.4h-1.3v-18.8h1.3z"/><path class="st0" d="M257.8 94.3c0 4.2 2.3 5.9 5.1 5.9 2 0 3-.4 3.7-.8l.3 1c-.5.3-1.9.9-4.2.9-3.8 0-6.2-2.8-6.2-6.7 0-4.5 2.6-7.2 6-7.2 4.4 0 5.2 4.1 5.2 6 0 .3 0 .6-.1.8l-9.8.1zm8.5-1c0-1.9-.8-4.7-4-4.7-3 0-4.2 2.6-4.5 4.7h8.5z"/><path class="st0" d="M271.1 91.8c0-1.3 0-2.7-.1-4h1.2l.1 2.7h.1c.6-1.7 2-3 3.8-3 .2 0 .4 0 .5.1v1.3h-.6c-1.8 0-3.1 1.6-3.5 3.7-.1.4-.1.8-.1 1.3v7.4h-1.3l-.1-9.5z"/><path class="st0" d="M280.2 85.1c-.6 0-1-.5-1-1.1 0-.6.5-1.2 1.1-1.2.6 0 1.1.5 1.1 1.2-.1.6-.5 1.1-1.2 1.1zm-.6 16v-13.3h1.3v13.4h-1.3z"/><path class="st0" d="M287.2 84.8v3h3.8v1.1h-3.8v8.7c0 1.7.5 2.7 1.9 2.8.7 0 1.2-.1 1.5-.2l.2 1c-.4.2-1.1.3-1.9.3-1 0-1.8-.3-2.3-.9-.6-.7-.8-1.8-.8-3.2v-8.4h-2.3v-1.1h2.3v-2.5l1.4-.6z"/><path class="st0" d="M302.3 98c0 1.1 0 2.1.2 3.2h-1.2l-.2-1.9h-.1c-.7 1-2.1 2.2-4.3 2.2-2.7 0-3.9-1.9-3.9-3.7 0-3.1 2.7-5 8.2-4.9v-.4c0-1.3-.2-4-3.4-3.9-1.2 0-2.4.3-3.4 1l-.4-1c1.2-.8 2.7-1.1 3.9-1.1 3.9 0 4.6 2.9 4.6 5.3v5.2zm-1.3-4c-2.9-.1-6.8.4-6.8 3.6 0 1.9 1.3 2.7 2.6 2.8 2.2 0 3.5-1.4 4-2.7.1-.3.1-.6.1-.8l.1-2.9z"/><path class="st0" d="M317.3 99.2c0 3.4-.7 5.1-1.8 6.2-1.2 1.2-3 1.6-4.5 1.6s-3.2-.4-4.3-1.2l.5-1.1c.9.6 2.2 1.2 4 1.2 2.8 0 4.8-1.4 4.8-5.4v-2h-.1c-.7 1.4-2.3 2.6-4.7 2.6-3.4 0-5.7-2.9-5.7-6.6 0-4.7 3.1-7.1 6-7.1 2.6 0 3.9 1.5 4.5 2.6h.1l.1-2.3h1.2c-.1 1-.1 2.1-.1 3.5v8zm-1.3-6.3c0-.5 0-.9-.2-1.3-.6-1.6-1.9-3-4.1-3-2.8 0-4.8 2.3-4.8 5.9 0 3.1 1.6 5.6 4.8 5.6 1.8 0 3.5-1.1 4.2-3 .1-.4.2-.9.2-1.4l-.1-2.8z"/><path class="st0" d="M322 94.3c0 4.2 2.3 5.9 5.1 5.9 1.9 0 3-.4 3.7-.8l.3 1c-.5.3-1.9.9-4.2.9-3.8 0-6.2-2.8-6.2-6.7 0-4.5 2.6-7.2 6-7.2 4.4 0 5.2 4.1 5.2 6 0 .3 0 .6-.1.8l-9.8.1zm8.5-1c0-1.9-.8-4.7-4-4.7-3 0-4.2 2.6-4.5 4.7h8.5z"/><path class="st0" d="M354.1 100.5c-.9.5-2.8.9-5.1 1-4.5 0-8.9-2.9-8.9-9.6 0-5.6 3.6-9.8 9.5-9.8 2.4 0 3.8.5 4.3.8l-.4 1.2c-.9-.5-2.3-.8-3.9-.8-5.1 0-8.2 3.3-8.2 8.7 0 5.1 2.9 8.3 7.9 8.3 1.6 0 3.1-.3 4.2-.9l.6 1.1z"/><path class="st0" d="M357.3 94.3c0 4.2 2.3 5.9 5.1 5.9 1.9 0 3-.4 3.7-.8l.3 1c-.5.3-1.9.9-4.2.9-3.8 0-6.2-2.8-6.2-6.7 0-4.5 2.6-7.2 6-7.2 4.4 0 5.2 4.1 5.2 6 0 .3 0 .6-.1.8l-9.8.1zm8.6-1c0-1.9-.8-4.7-4-4.7-3 0-4.2 2.6-4.5 4.7h8.5z"/><path class="st0" d="M370.6 91c0-1.2 0-2.1-.1-3.2h1.3l.1 2.4h.1c.7-1.5 2.4-2.7 4.6-2.7 1.3 0 4.6.6 4.6 5.7v8h-1.3v-7.9c0-2.5-.9-4.7-3.7-4.7-1.9 0-3.5 1.3-4 3.1-.1.3-.2.8-.2 1.2v8.3h-1.3l-.1-10.2z"/><path class="st0" d="M387.4 84.8v3h3.8v1.1h-3.8v8.7c0 1.7.5 2.7 1.9 2.8.7 0 1.2-.1 1.5-.2l.2 1c-.4.2-1.1.3-1.9.3-1 0-1.8-.3-2.3-.9-.6-.7-.8-1.8-.8-3.2v-8.4h-2.3v-1.1h2.3v-2.5l1.4-.6z"/><path class="st0" d="M394.2 94.3c0 4.2 2.3 5.9 5.1 5.9 2 0 3-.4 3.7-.8l.3 1c-.5.3-1.9.9-4.2.9-3.8 0-6.2-2.8-6.2-6.7 0-4.5 2.6-7.2 6-7.2 4.4 0 5.2 4.1 5.2 6 0 .3 0 .6-.1.8l-9.8.1zm8.5-1c0-1.9-.8-4.7-4-4.7-3 0-4.2 2.6-4.5 4.7h8.5z"/><path class="st0" d="M407.5 91.8c0-1.3 0-2.7-.1-4h1.2l.1 2.7h.1c.6-1.7 2-3 3.8-3 .2 0 .4 0 .5.1v1.3h-.6c-1.8 0-3.1 1.6-3.5 3.7-.1.4-.1.8-.1 1.3v7.4h-1.3l-.1-9.5z"/><polyline class="st5" points="3.2,23.8 -2.4,15.1 6.3,20.3"/><polyline class="st5" points="10.3,16.8 6.9,7.1 14.2,14.2"/><polyline class="st5" points="19.6,10.8 19.2,0.4 24.1,9.5"/><polyline class="st5" points="29.7,7.4 30.4,-3 34.2,6.7"/><polyline class="st5" points="40.2,7.4 44.3,-2 44.7,8.2"/><polyline class="st5" points="49.8,9.1 56.7,0.3 54.4,11.2"/><polyline class="st5" points="60.1,12.8 67.4,5.6 63.9,15.3"/><polyline class="st5" points="68.8,19 78,14.6 71.8,22.6"/><polyline class="st5" points="75.2,27.3 85,24.5 77.4,31.4"/><polyline class="st5" points="80.1,37 90.4,36.9 81.3,41.5"/><polyline class="st5" points="81.8,48 91.8,50.3 81.9,52.6"/><polyline class="st5" points="-0.1,27.9 -9.8,24.8 -2.4,31.9"/><polyline class="st5" points="-4.2,36.7 -14.7,35.7 -5.7,41.1"/><polyline class="st5" points="-6.9,47 -16.8,49.4 -6.9,51.8"/><polyline class="st5" points="73,76 78.6,84.7 69.8,79.5"/><polyline class="st5" points="65,83.5 69,93 61.3,86.3"/><polyline class="st5" points="56,89 56.5,99.4 51.5,90.3"/><polyline class="st5" points="45.8,91.7 45,102 41.2,92.4"/><polyline class="st5" points="34.9,92.4 30.8,101.8 30.4,91.5"/><polyline class="st5" points="24.6,90.3 18.8,98.7 20.3,88.5"/><polyline class="st5" points="15.1,86.1 7.8,93.3 11.3,83.5"/><polyline class="st5" points="6.5,80.1 -2.6,84.5 3.7,76.5"/><polyline class="st5" points="0,71.8 -9.8,74.6 -2.2,67.7"/><polyline class="st5" points="-4.8,62.1 -14.9,62.2 -5.8,57.6"/><polyline class="st5" points="75.7,72.1 85.6,74.7 77.9,68"/><polyline class="st5" points="80,62.7 90.2,63.2 81.3,58.2"/><path class="st1" d="M72 49.9c-.4 18.9-15.9 32.9-34.5 33.3-18.6.4-34.1-14.9-34.4-33.2-.5-19 16.5-33 34.5-33.4 18.5-.3 34.1 15 34.4 33.3 0 1.1 1.6 1.1 1.6 0-.4-19.8-16.6-34.5-36.1-34.9-19.4-.3-35.6 15.7-36 34.9-.5 19.8 17.3 34.6 36.1 35 19.5.4 35.7-15.7 36.1-34.9-.1-1.1-1.7-1.1-1.7-.1z"/><path class="st1" d="M80.7 49.9c-.4 23.5-19.8 41.1-42.9 41.5-23.1.4-42.6-18.5-42.9-41.4-.4-23.5 20.5-41.1 43-41.5 23-.4 42.5 18.5 42.8 41.4.1 1.1 1.6 1.1 1.6 0-.3-21.5-16.9-40.2-38.6-42.6-22.1-2.5-43.4 10.7-49.2 32.5-5.7 21.4 7.5 42.6 27.4 50.3 20.9 8.1 45.2-1.4 55.7-20.9 3.2-5.9 4.6-12.6 4.7-19.3 0-1-1.5-1-1.6 0z"/><path class="st1" d="M76.2 60.3c-.8.2-1.6-.4-1.8-1.2-.2-.8.4-1.5 1.1-1.8.8-.2 1.7.2 1.9 1.1.1.9-.4 1.7-1.2 1.9z"/><path class="st1" d="M72.1 69.8c-.9-.1-1.5-.8-1.4-1.6.1-.8.6-1.5 1.5-1.4.8 0 1.6.6 1.6 1.5s-.8 1.5-1.7 1.5z"/><path class="st1" d="M65.8 77.8c-.8-.3-1.2-1.1-1-1.9.2-.8 1-1.2 1.8-1 .8.2 1.3 1.1 1.1 1.9-.3.8-1.1 1.4-1.9 1z"/><path class="st1" d="M57.5 84c-.7-.5-.9-1.4-.5-2.1.4-.7 1.3-.9 2.1-.4.7.4 1.1 1.4.5 2.1-.4.6-1.4.8-2.1.4z"/><path class="st1" d="M48 87.8c-.6-.6-.5-1.6.1-2.2.6-.5 1.5-.5 2.1 0 .6.6.6 1.6 0 2.2-.6.7-1.6.6-2.2 0z"/><path class="st1" d="M37.8 89.1c-.4-.8-.1-1.7.6-2.1.7-.4 1.6-.2 2 .5.4.7.2 1.7-.5 2.1-.7.5-1.7.3-2.1-.5z"/><path class="st1" d="M27.6 87.8c-.2-.8.4-1.6 1.2-1.8.8-.2 1.6.3 1.8 1.1.2.8-.2 1.7-1.1 1.9-.8.1-1.7-.4-1.9-1.2z"/><path class="st1" d="M18.1 84.1c0-.9.8-1.5 1.6-1.5s1.5.6 1.5 1.5c0 .8-.6 1.6-1.5 1.6s-1.6-.8-1.6-1.6z"/><path class="st1" d="M9.8 78c.2-.8 1.1-1.3 1.9-1.1.8.2 1.3 1 1.1 1.8-.2.8-1 1.4-1.8 1.1-.9-.2-1.4-1-1.2-1.8z"/><path class="st1" d="M3.4 69.9c.4-.7 1.4-.9 2.1-.5.7.4.8 1.4.5 2-.3.7-1.3 1.1-2 .6-.8-.4-1.1-1.3-.6-2.1z"/><path class="st1" d="M-.7 60.5c.7-.6 1.6-.5 2.1 0 .5.6.6 1.5 0 2.1-.6.6-1.5.7-2.2.1-.6-.6-.5-1.7.1-2.2z"/><path class="st1" d="M-2.1 50.3c.8-.4 1.7-.1 2.1.6.4.7.2 1.6-.6 2-.7.4-1.7.2-2.1-.5-.4-.8-.2-1.7.6-2.1z"/><path class="st1" d="M-.7 40.1c.8-.2 1.7.4 1.8 1.2.2.8-.4 1.5-1.1 1.8-.8.2-1.7-.2-1.9-1.1-.2-.8.3-1.8 1.2-1.9z"/><path class="st1" d="M3.3 30.7c.9.1 1.5.8 1.5 1.6-.1.8-.6 1.5-1.5 1.5-.8 0-1.5-.7-1.5-1.5-.1-1 .6-1.7 1.5-1.6z"/><path class="st1" d="M9.7 22.6c.8.3 1.2 1.2 1 1.9-.2.8-1 1.2-1.8 1-.8-.2-1.3-1-1.1-1.9.2-.8 1.1-1.3 1.9-1z"/><path class="st1" d="M17.9 16.5c.7.4.8 1.5.4 2.1-.4.7-1.3.9-2.1.4-.7-.4-1-1.4-.5-2.1.5-.6 1.5-.9 2.2-.4z"/><path class="st1" d="M27.4 12.6c.6.6.5 1.6-.1 2.2-.6.5-1.5.5-2.1-.1-.6-.6-.6-1.6 0-2.2.6-.6 1.7-.5 2.2.1z"/><path class="st1" d="M37.6 11.3c.4.7.1 1.7-.6 2.1-.7.4-1.6.2-2-.6-.4-.7-.2-1.7.5-2.1.8-.5 1.8-.1 2.1.6z"/><path class="st1" d="M47.8 12.6c.2.8-.3 1.6-1.1 1.8-.8.2-1.6-.3-1.8-1.1-.2-.8.2-1.7 1.1-1.9.8-.2 1.6.3 1.8 1.2z"/><path class="st1" d="M57.4 16.4c0 .9-.8 1.5-1.6 1.5s-1.5-.6-1.5-1.5c0-.8.6-1.6 1.5-1.6s1.6.7 1.6 1.6z"/><path class="st1" d="M65.6 22.5c-.2.8-1.1 1.3-1.9 1.1-.8-.2-1.2-1-1-1.8.2-.8 1-1.4 1.8-1.1.9.1 1.4 1 1.1 1.8z"/><path class="st1" d="M72 30.5c-.4.7-1.4.9-2.1.5-.7-.4-.9-1.3-.5-2s1.3-1.1 2.1-.6c.7.4.9 1.4.5 2.1z"/><path class="st1" d="M76.1 39.9c-.6.6-1.6.5-2.2-.1-.5-.6-.6-1.5 0-2.1.6-.6 1.5-.7 2.2-.1.7.7.7 1.8 0 2.3z"/><path class="st1" d="M77.6 50.1c-.8.4-1.7.1-2.1-.6-.4-.7-.2-1.6.6-2 .7-.4 1.7-.2 2.1.5.3.8 0 1.7-.6 2.1z"/><path class="st2" d="M24.2 18.6c11.4 18.4 11.9 45.1-1.8 62.4"/><path class="st2" d="M27.5 18.2c11.4 18.4 11.7 46.7-2 63.9"/><path class="st2" d="M50.1 17.8c-11.4 18.3-12 45.1 1.8 62.3"/><path class="st2" d="M46.8 17.4c-11.4 18.3-11.7 46.7 2 63.9"/><path class="st2" d="M4.9 61.8c19.2-10.8 47.4-11.4 65.6 1.7"/><path class="st2" d="M4.4 58.7c19.3-10.9 49.1-11.1 67.2 1.9"/><path class="st2" d="M4.1 37.2c19.3 10.9 47.4 11.4 65.6-1.7"/><path class="st2" d="M3.6 40.3c19.3 10.9 49 11.1 67.2-1.9"/></g><a xlink:href="/" target="_top"><rect x="-17" y="-4" width="512" height="112" fill-opacity="0"/></a></svg>