<?xml version="1.0" standalone="no"?>
<!DOCTYPE svg PUBLIC "-//W3C//DTD SVG 1.1//EN" "http://www.w3.org/Graphics/SVG/1.1/DTD/svg11.dtd" >
<svg xmlns="http://www.w3.org/2000/svg">
<metadata></metadata>
<defs>
<font id="frankleinbookregular" horiz-adv-x="1122" >
<font-face units-per-em="2048" ascent="1638" descent="-410" />
<missing-glyph horiz-adv-x="454" />
<glyph horiz-adv-x="712" d="M653 1444h-90q-29 -66 -85 -89.5t-122 -23.5q-68 0 -123 22.5t-83 90.5h-91q23 -121 101 -176.5t196 -55.5q119 0 196.5 55.5t100.5 176.5z" />
<glyph horiz-adv-x="473" d="M326 1245v189h-181v-189h181z" />
<glyph horiz-adv-x="552" d="M467 1335q0 39 -15.5 74t-41 60.5t-60.5 41t-74 15.5t-73.5 -15.5t-60 -41t-41 -60.5t-15.5 -74q0 -80 55.5 -135t134.5 -55q39 0 74 15.5t60.5 41t41 60t15.5 73.5zM383 1335q0 -43 -32 -74.5t-75 -31.5q-47 0 -76.5 29.5t-29.5 76.5t29.5 77t76.5 30t77 -31t30 -76z " />
<glyph unicode="&#xa;" horiz-adv-x="733" d="M852 1397l-133 55l-262 -322l80 -34zM518 1397l-135 55l-260 -322l80 -34z" />
<glyph horiz-adv-x="552" d="M528 -262l-28 39q-29 -25 -55.5 -39t-65.5 -14q-43 0 -70.5 23.5t-27.5 68.5q0 27 12 53.5t30.5 50t41 44t43.5 36.5h-66q-29 -14 -61.5 -35.5t-60 -49.5t-46 -60.5t-18.5 -67.5q0 -37 16 -63.5t42 -44t57.5 -25.5t64.5 -8q53 0 107 22.5t85 69.5z" />
<glyph horiz-adv-x="712" d="M666 1436l-121 8l-189 -168l-186 168l-121 -8l266 -275h82z" />
<glyph unicode="&#xd;" horiz-adv-x="473" d="M307 0v63v979h-143v-1042h106h37z" />
<glyph horiz-adv-x="335" d="M655 1440h-131l-846 -1463h129z" />
<glyph horiz-adv-x="1083" d="M915 1274v176h-151v-176h151zM911 0v63v979h-143v-1042h106h37zM657 1477q-70 20 -151 20q-104 0 -160.5 -42t-82 -107.5t-31 -146.5t-5.5 -159h-198v-118h198v-924h144v924h239v118h-239q0 51 -1 109.5t12 109t48 84t109 33.5q35 0 57 -5t55 -15z" />
<glyph horiz-adv-x="1083" d="M913 0v1473h-143v-1473h143zM629 1477q-23 12 -51.5 16t-53.5 4q-106 0 -165.5 -40t-88 -104.5t-35 -146.5t-6.5 -164h-198v-118h198v-924h146q-2 16 -2 31v32v861h239v118h-239v84q0 41 4 85t19.5 81t46 61.5t83.5 24.5q29 0 49.5 -5t47.5 -15z" />
<glyph horiz-adv-x="964" d="M944 0v137h-614v522l274 226v143l-274 -225v614h-158v-743l-147 -121v-143l147 120v-530h772z" />
<glyph horiz-adv-x="432" d="M416 901v152l-123 -109v529h-143v-654l-121 -106v-152l121 107v-668h106l12 63h25v730z" />
<glyph horiz-adv-x="1064" d="M840 1786l-121 8l-189 -168l-186 168l-121 -8l266 -275h82zM997 0v137h-784l760 1159v121h-907v-135h731l-758 -1145v-137h958z" />
<glyph horiz-adv-x="884" d="M754 1436l-121 8l-189 -168l-186 168l-121 -8l266 -275h82zM836 0v119h-603l601 823v100h-740v-118h561l-594 -805v-119h775z" />
<glyph unicode=" "  horiz-adv-x="454" />
<glyph unicode="&#x09;" horiz-adv-x="454" />
<glyph unicode="&#xa0;" horiz-adv-x="454" />
<glyph unicode="!" horiz-adv-x="706" d="M449 1419h-201q10 -270 22.5 -536.5t28.5 -536.5h100q16 268 29 535.5t21 537.5zM442 0v184h-184v-184h184z" />
<glyph unicode="&#x22;" horiz-adv-x="1042" d="M750 1186v231h-160v-229q0 -59 10 -123t16 -123h107q6 59 16.5 122t10.5 122zM449 1186v231h-160v-229q0 -59 10 -123t16 -123h107q6 59 16.5 122t10.5 122z" />
<glyph unicode="#" horiz-adv-x="1183" d="M1114 874v119h-205l70 424h-129l-70 -424h-274l69 424h-129l-69 -424h-242v-119h223l-53 -319h-233v-119h215l-72 -436h129l72 436h274l-72 -436h130l71 436h232v119h-213l53 319h223zM762 874l-53 -319h-275l53 319h275z" />
<glyph unicode="$" horiz-adv-x="1183" d="M1036 387q0 125 -53 200t-132 121t-172 75.5t-172 63.5t-132 83t-53 135q0 61 26.5 103t69.5 70t96 40t107 12q37 0 93 -12t107 -25.5t88 -26.5l37 -12l47 107l-35 15q-34 14 -84.5 31t-108.5 32.5t-108 19.5v148h-114v-154q-72 -10 -138.5 -36.5t-116.5 -69.5 t-81 -103.5t-31 -140.5q0 -117 53.5 -188.5t132 -116.5t171 -76t171 -66.5t132 -87t53.5 -139.5q0 -63 -27.5 -110.5t-72 -78t-99.5 -46t-110 -15.5q-45 0 -106.5 15.5t-117 34t-93.5 33.5l-38 16l-75 -101l38 -19q39 -20 98.5 -43.5t128 -45t128.5 -23.5v-174h114v180 q76 10 144.5 40t121 77t83 111.5t30.5 146.5z" />
<glyph unicode="%" horiz-adv-x="1746" d="M1610 358q0 74 -17.5 140.5t-54.5 118t-95.5 82t-139.5 30.5q-86 0 -144.5 -29.5t-94.5 -81t-52.5 -119t-16.5 -143.5q0 -74 17.5 -141.5t54.5 -118.5t95.5 -81.5t140.5 -30.5t140 30.5t95 83t54.5 119.5t17.5 141zM1483 356q0 -43 -8.5 -90t-28 -85t-54 -63.5 t-87.5 -25.5q-55 0 -91 24.5t-56.5 62.5t-28 85t-7.5 92t7.5 92.5t27 86t54 63.5t89.5 25t91 -25t55.5 -63.5t28 -86t8.5 -92.5zM1403 1440h-135l-887 -1463h133zM750 1063q0 74 -17.5 140.5t-54.5 117.5t-95.5 82t-140.5 31q-86 0 -144 -30t-94 -81t-52.5 -118.5 t-16.5 -143.5q0 -74 17.5 -141.5t54.5 -119.5t95 -83t140 -31t140.5 32t95.5 84t54.5 119.5t17.5 141.5zM623 1061q0 -43 -8.5 -90t-28 -86t-54 -64.5t-88.5 -25.5q-55 0 -91 24.5t-56.5 63.5t-27.5 86t-7 92t7 92t26.5 86t54.5 63.5t90 24.5t91 -24.5t55.5 -63.5t28 -86 t8.5 -92z" />
<glyph unicode="&#x26;" horiz-adv-x="1378" d="M1331 -6l-29 26q-30 27 -73 66t-89 83t-79 77q90 111 142 244t69 272l-133 14q-12 -111 -52 -227.5t-106 -208.5l-4 -4q-90 104 -173 212.5t-165 219.5q66 27 125 61.5t103 81.5t71 106.5t27 137.5q0 70 -28 124t-75 89t-107.5 53.5t-123.5 18.5q-68 0 -131.5 -20.5 t-111.5 -60.5t-76.5 -96.5t-28.5 -129.5q0 -47 14 -92.5t37.5 -86.5t52.5 -79.5t57 -73.5q-76 -25 -139 -63t-110.5 -89t-74 -117.5t-26.5 -150.5q0 -98 39 -174t104.5 -127t150.5 -77t175 -26q66 0 121 10.5t103.5 32t94.5 54t93 78.5q31 -39 81 -83t98 -81t82 -62l34 -24z M827 1128q0 -55 -23.5 -97t-60 -74.5t-83 -57.5t-89.5 -45q-25 29 -50 61.5t-46.5 69.5t-35 75t-13.5 77q0 41 16.5 74.5t44 57t63.5 37t75 13.5q92 0 147 -48.5t55 -142.5zM899 246q-66 -66 -149.5 -107t-180.5 -41q-66 0 -123 20.5t-100 59.5t-68.5 94.5t-25.5 122.5 q0 61 21.5 110.5t58.5 87.5t85 67.5t99 50.5z" />
<glyph unicode="'" horiz-adv-x="591" d="M375 1186v231h-160v-229q0 -59 10.5 -123t16.5 -123h106q6 59 16.5 122t10.5 122z" />
<glyph unicode="(" horiz-adv-x="591" d="M518 -317q-59 84 -102 180t-80 190q-49 127 -76 259t-27 268q0 135 27 268t76 260q37 94 80 190.5t102 180.5h-96q-63 -86 -113.5 -179.5t-95.5 -189.5q-119 -250 -119 -530q0 -279 119 -529q45 -96 95 -189t114 -179h96z" />
<glyph unicode=")" horiz-adv-x="591" d="M496 580q0 281 -119 530q-45 96 -95.5 189.5t-113.5 179.5h-96q59 -84 102 -180.5t80 -190.5q49 -127 75.5 -260t26.5 -268t-26.5 -267.5t-75.5 -259.5q-37 -94 -80 -190t-102 -180h96q63 86 113.5 179t95.5 189q119 250 119 529z" />
<glyph unicode="*" horiz-adv-x="1183" d="M975 862l-285 150l285 149l-60 107l-274 -172l12 321h-118l12 -321l-275 172l-59 -107l285 -149l-285 -150l59 -106l275 172l-12 -322h118l-12 322l274 -172z" />
<glyph unicode="+" horiz-adv-x="1228" d="M1137 489v140h-453v448h-139v-448h-455v-140h455v-454h139v454h453z" />
<glyph unicode="," horiz-adv-x="591" d="M420 143v29q0 14 -2 31h-199q0 -119 -19.5 -239t-47.5 -234l79 -58q33 39 67 98.5t60.5 125t44 130t17.5 117.5z" />
<glyph unicode="-" horiz-adv-x="569" d="M516 522v135h-475v-135h475z" />
<glyph unicode="." horiz-adv-x="591" d="M399 0v201h-196v-201h196z" />
<glyph unicode="/" horiz-adv-x="813" d="M766 1440h-135l-717 -1506h135z" />
<glyph unicode="0" horiz-adv-x="1183" d="M1090 709q0 121 -23 249.5t-79 234t-152.5 173.5t-243.5 68t-244.5 -68t-154 -173.5t-79 -234.5t-22.5 -249q0 -121 22.5 -250t79 -234.5t152.5 -173t244 -67.5q147 0 244.5 67.5t153.5 173t79 234.5t23 250zM930 709q0 -84 -11.5 -187.5t-46 -194.5t-102.5 -152.5 t-178 -61.5q-115 0 -181.5 61.5t-102.5 151.5t-46 193.5t-10 189.5q0 84 11 187t46 194.5t102.5 153t178.5 61.5q113 0 180.5 -61.5t103 -152t46 -193.5t10.5 -189z" />
<glyph unicode="1" horiz-adv-x="1183" d="M918 0v104h-195l-2 1313h-127q-82 -88 -186.5 -177t-206.5 -155l61 -104q82 59 158 118.5t147 131.5v-1127h-205v-104h556z" />
<glyph unicode="2" horiz-adv-x="1183" d="M1036 0l-2 133h-729l420 389q53 49 105.5 107.5t94.5 125t68.5 138.5t26.5 147q0 98 -37 172t-100.5 123t-145.5 74t-172 25q-137 0 -244.5 -58.5t-185.5 -171.5l94 -90q59 92 145.5 139t194.5 47q57 0 109.5 -19t91.5 -55t61.5 -85t22.5 -109q0 -61 -21.5 -119.5 t-56.5 -109.5q-53 -80 -137 -169t-177 -178t-186.5 -172t-166.5 -151v-133h927z" />
<glyph unicode="3" horiz-adv-x="1183" d="M1057 395q0 145 -86 238.5t-230 107.5q61 12 113.5 41t91.5 71t61.5 96.5t22.5 119.5q0 98 -40 168t-105.5 113t-148.5 63.5t-169 20.5q-129 0 -225 -40t-190 -128l81 -92q78 68 152 98.5t178 30.5q53 0 108.5 -13.5t99.5 -43t72.5 -74t28.5 -105.5q0 -102 -51 -156.5 t-128 -79t-165 -27.5t-161 -3v-131q74 0 165 -2t172.5 -26t137 -78t55.5 -161q0 -80 -31.5 -134t-84 -88t-119 -49t-134.5 -15q-51 0 -118.5 21.5t-128 48t-102.5 47.5l-42 22l-45 -117l44 -25q44 -24 109.5 -52.5t141.5 -53t141 -24.5q94 0 189.5 23.5t170.5 73.5 t122 127.5t47 186.5z" />
<glyph unicode="4" horiz-adv-x="1183" d="M1118 328v129h-221v960h-197l-643 -960v-129h686v-328h154v328h221zM743 457h-530l530 823v-823z" />
<glyph unicode="5" horiz-adv-x="1183" d="M1063 461q0 106 -35 191t-96.5 143.5t-148.5 89t-191 30.5q-74 0 -143.5 -23.5t-129.5 -66.5l19 455h641l8 137h-782l-29 -737l68 -14q66 63 146.5 89.5t172.5 26.5q76 0 139.5 -20.5t109.5 -60t71.5 -99t25.5 -139.5q0 -84 -27.5 -148.5t-77.5 -109.5t-119 -67.5 t-148 -22.5q-49 0 -105.5 18.5t-104.5 40t-81 39.5l-33 18l-76 -100l40 -23q40 -24 100.5 -51.5t131 -50t130.5 -22.5q109 0 205 31.5t166.5 92t111.5 149.5t41 204z" />
<glyph unicode="6" horiz-adv-x="1183" d="M1087 449q0 100 -31.5 185t-90 146.5t-141.5 96t-185 34.5q-129 0 -226.5 -60t-156.5 -175q0 113 19.5 224.5t68.5 200.5t136 144t222 55q37 0 88.5 -13t97.5 -29.5t78 -29.5l33 -14l52 111v2l-142 68q-45 23 -100 31t-104 8q-170 0 -285 -65.5t-185.5 -174.5 t-100.5 -247t-30 -285q0 -127 23 -248t80 -217.5t155.5 -154.5t247.5 -58q102 0 189.5 33.5t152 95t100 147t35.5 189.5zM936 446q0 -72 -23.5 -132t-66.5 -104t-103.5 -68.5t-132.5 -24.5q-76 0 -137 26.5t-104 74.5t-65.5 112.5t-22.5 138.5q0 70 29.5 126t78.5 97 t110.5 63.5t125.5 22.5q74 0 132 -24.5t98 -69.5t60.5 -105.5t20.5 -132.5z" />
<glyph unicode="7" horiz-adv-x="1183" d="M1038 1303v114h-899l-8 -137h743q-182 -297 -320 -617.5t-210 -662.5h166q74 350 208 675t320 628z" />
<glyph unicode="8" horiz-adv-x="1183" d="M1100 373q0 76 -29 136t-76 105t-107.5 78t-125.5 56q53 23 104.5 55.5t91 75.5t64.5 95t25 116q0 94 -39 159.5t-102.5 106.5t-143.5 59.5t-160 18.5q-78 0 -160 -19.5t-148.5 -60.5t-109.5 -106.5t-43 -157.5q0 -70 21.5 -123.5t58.5 -95.5t87 -74.5t108 -59.5 q-66 -23 -125.5 -55.5t-105.5 -78.5t-73.5 -105.5t-27.5 -132.5q0 -100 47 -173t121 -119t164 -67.5t176 -21.5q90 0 181 21.5t164 67.5t118 121t45 179zM899 1085q0 -59 -29.5 -104t-74.5 -79t-98.5 -58.5t-102.5 -38.5q-49 14 -101.5 39.5t-95.5 61.5t-70.5 82t-27.5 104 q0 57 29.5 97t75 66.5t98.5 39t100 12.5q51 0 103.5 -12.5t95.5 -39t70.5 -69t27.5 -101.5zM944 360q0 -70 -32.5 -116.5t-83 -76.5t-112 -43t-118.5 -13q-59 0 -122.5 14t-116 45t-86 80t-33.5 121q0 68 33.5 117t84 85.5t110.5 60t116 38.5q55 -16 117.5 -42t116.5 -64 t90 -88t36 -118z" />
<glyph unicode="9" horiz-adv-x="1183" d="M1081 756q0 125 -23.5 246.5t-81.5 218t-155.5 155t-247.5 58.5q-102 0 -189 -34t-150.5 -94.5t-99.5 -145.5t-36 -189q0 -102 31 -187.5t89 -147t140 -95t187 -33.5q125 0 225 56.5t160 168.5q0 -111 -20.5 -221.5t-71 -198.5t-137.5 -143t-220 -55q-41 0 -95 8 t-101 18.5t-80 18.5l-33 8l-35 -92l32 -14q32 -15 82 -32.5t110.5 -31.5t117.5 -14q170 0 286 65.5t186.5 173t100 247t29.5 286.5zM905 942q0 -66 -29.5 -121t-77.5 -96t-107.5 -63.5t-121.5 -22.5q-74 0 -132 23.5t-100 66.5t-63.5 103.5t-21.5 132.5q0 70 23.5 131 t65.5 107t101.5 71.5t130.5 25.5q72 0 134.5 -23.5t109.5 -76.5q20 -23 36.5 -54.5t28 -67.5t17.5 -71.5t6 -64.5z" />
<glyph unicode=":" horiz-adv-x="591" d="M399 840v200h-196v-200h196zM399 0v201h-196v-201h196z" />
<glyph unicode=";" horiz-adv-x="591" d="M399 840v200h-196v-200h196zM420 145v29q0 14 -2 31h-199q0 -119 -19.5 -239t-47.5 -234l79 -58q33 39 67 97.5t60.5 124t44 131t17.5 118.5z" />
<glyph unicode="&#x3c;" horiz-adv-x="1228" d="M1126 61v132l-847 362l847 363v131l-1022 -447v-94z" />
<glyph unicode="=" horiz-adv-x="1228" d="M1137 688v139h-1047v-139h1047zM1137 283v139h-1047v-139h1047z" />
<glyph unicode="&#x3e;" horiz-adv-x="1228" d="M1126 508v94l-1022 447v-131l848 -363l-848 -362v-132z" />
<glyph unicode="?" horiz-adv-x="1064" d="M946 1065q0 92 -33.5 162.5t-92 118t-135.5 71t-163 23.5q-68 0 -136.5 -22.5t-123.5 -50.5t-91 -51l-36 -22l51 -104l32 18q32 19 81 40.5t105.5 40t105.5 18.5q117 0 197.5 -62.5t80.5 -187.5q0 -74 -27.5 -123t-68.5 -89t-88 -76t-88 -80t-68.5 -104.5t-27.5 -146.5 v-92h139q0 57 1 109.5t32 103.5q43 74 103.5 118t116.5 92t95 113.5t39 182.5zM586 0v184h-185v-184h185z" />
<glyph unicode="@" horiz-adv-x="1638" d="M1554 621q0 141 -61 252.5t-161.5 187.5t-226.5 116t-255 40q-150 0 -290 -55.5t-247.5 -153t-172 -230.5t-64.5 -289q0 -164 64.5 -300t173 -233t252 -150.5t300.5 -53.5q57 0 126 14.5t135.5 42t122 68.5t85.5 92l-86 51q-33 -39 -81 -66.5t-103 -45t-111.5 -25.5 t-105.5 -8q-127 0 -240.5 47t-202 128t-139.5 191.5t-51 239.5q0 133 51 246t138.5 193.5t203 127t244.5 46.5q100 0 201.5 -31t184.5 -90.5t135 -146.5t52 -199q0 -86 -23.5 -164t-76.5 -148q-16 -20 -36.5 -43.5t-44 -43t-51.5 -32t-56 -12.5q-31 0 -49.5 18.5t-18.5 47.5 q0 16 12.5 60t29.5 102.5t40 123t44.5 125t37.5 108.5t24 71h-141l-39 -115q-20 68 -76.5 112t-128.5 44q-102 0 -186 -44t-143.5 -117t-93 -165t-33.5 -188q0 -61 18.5 -116.5t54 -95.5t87 -63.5t116.5 -23.5q66 0 131.5 33.5t106.5 86.5q18 -59 64 -92t110 -33 q100 0 183 53.5t142.5 135.5t92 180.5t32.5 188.5zM1016 592q0 -57 -21.5 -127t-60.5 -131.5t-94.5 -103.5t-120.5 -42q-39 0 -66.5 17.5t-46 44t-28 60.5t-9.5 67q0 61 22.5 128.5t63.5 126t97.5 96.5t124.5 38q37 0 62.5 -15.5t42.5 -40t25.5 -55t8.5 -63.5z" />
<glyph unicode="A" horiz-adv-x="1259" d="M1239 0l-512 1417h-201l-522 -1417h162l139 395h625l147 -395h162zM887 522h-531l267 735z" />
<glyph unicode="B" horiz-adv-x="1202" d="M1087 387q0 147 -80.5 238.5t-222.5 122.5q123 31 190.5 106.5t67.5 208.5q0 98 -33.5 165.5t-92 109.5t-136.5 60.5t-166 18.5h-450v-1417h436q92 0 180 21.5t156 67.5t109.5 120t41.5 178zM887 1063q0 -72 -25.5 -121t-69.5 -80t-102.5 -44t-122.5 -13h-243v479h274 q53 0 105.5 -11t93.5 -37t65.5 -69t24.5 -104zM928 395q0 -76 -30 -125t-79 -78.5t-111.5 -42t-125.5 -12.5h-260v539h260q70 0 133 -14.5t110 -46t75 -86t28 -134.5z" />
<glyph unicode="C" horiz-adv-x="1318" d="M1174 1255l-40 29t-101.5 63.5t-136.5 63.5t-142 29q-162 0 -284 -58.5t-204 -159t-124 -234.5t-42 -283q0 -150 42 -282t125 -231.5t205 -157t282 -57.5q70 0 140.5 20.5t127.5 44.5t92 44l35 20l-59 105l-32 -15q-32 -16 -82 -35.5t-109.5 -34.5t-114.5 -15 q-131 0 -223.5 51t-151 135t-85 192.5t-26.5 223.5t28 221t87 189t151.5 133.5t221.5 50.5q55 0 114.5 -21.5t107.5 -46.5t78 -47l31 -21z" />
<glyph unicode="D" horiz-adv-x="1359" d="M1247 717q0 156 -43 284.5t-127 221t-208 143.5t-285 51h-416v-1417h377q168 0 298 50t220 142.5t137 225.5t47 299zM1087 702q0 -270 -143 -417.5t-416 -147.5h-202v1145h235q139 0 239.5 -41t164 -116.5t93 -183.5t29.5 -239z" />
<glyph unicode="E" horiz-adv-x="1083" d="M991 0v137h-657v533h547v133h-547v477h633v137h-791v-1417h815z" />
<glyph unicode="F" horiz-adv-x="946" d="M934 1280v137h-772v-1417h157v670h543l-2 133h-541v477h615z" />
<glyph unicode="G" horiz-adv-x="1417" d="M1266 -14v755h-500v-135h340v-299q0 -18 -12.5 -38.5t-28.5 -40t-34.5 -37t-33.5 -25.5q-47 -31 -103 -43t-112 -12q-133 0 -228 48t-156.5 130t-90 189.5t-28.5 228.5q0 117 28.5 225t88 191t153.5 133.5t225 50.5q57 0 127 -18.5t131.5 -42t102.5 -42.5l41 -18l53 104 l-45 24q-45 23 -111.5 51t-144.5 51.5t-144 23.5q-162 0 -286.5 -56.5t-209.5 -156t-129 -232.5t-44 -286q0 -158 42 -292t125 -231.5t207.5 -153t290.5 -55.5q59 0 105.5 5.5t86.5 18.5t79 37.5t84 63.5l36 -116h95z" />
<glyph unicode="H" horiz-adv-x="1359" d="M1180 0v1417h-158v-608h-690v608h-158v-1417h158v670h690v-670h158z" />
<glyph unicode="I" horiz-adv-x="493" d="M326 0v1417h-160v-1417h160z" />
<glyph unicode="J" horiz-adv-x="749" d="M588 397v1020h-158v-1030q0 -125 -50 -199.5t-185 -74.5q-39 0 -64 -4.5t-59 12.5l-39 -119q45 -12 88 -20.5t90 -8.5q98 0 170 32t118 88.5t67.5 134t21.5 169.5z" />
<glyph unicode="K" horiz-adv-x="1259" d="M1253 0l-624 831l542 586h-190l-637 -727v727h-158v-1417h158v545l158 178l559 -723h192z" />
<glyph unicode="L" horiz-adv-x="964" d="M938 0v137h-614v1280h-158v-1417h772z" />
<glyph unicode="M" horiz-adv-x="1751" d="M1585 0v1417h-229l-471 -1192l-475 1192h-240v-1417h143v1274l504 -1274h121l492 1274v-1274h155z" />
<glyph unicode="N" horiz-adv-x="1359" d="M1206 0v1417h-143v-1206l-698 1206h-201v-1417h143v1235l719 -1235h180z" />
<glyph unicode="O" horiz-adv-x="1417" d="M1313 709q0 141 -36 273t-109.5 233.5t-188.5 163t-272 61.5q-158 0 -273 -61.5t-188.5 -163t-109.5 -233.5t-36 -273t36 -273.5t109.5 -234t188.5 -163t273 -61.5t272.5 61.5t188 163t109.5 234t36 273.5zM1151 709q0 -102 -24.5 -209t-78 -193t-138.5 -141t-203 -55 q-121 0 -205 55t-137.5 141t-78 192.5t-24.5 209.5q0 102 24.5 208.5t78 192.5t137.5 141.5t205 55.5t204.5 -55.5t137 -141.5t78 -192.5t24.5 -208.5z" />
<glyph unicode="P" horiz-adv-x="1083" d="M1028 995q0 211 -123 316.5t-325 105.5h-426v-1417h157v594h264q92 0 174 25.5t144.5 77t98.5 126t36 172.5zM870 1012q0 -78 -25.5 -131.5t-70.5 -87t-106.5 -49t-130.5 -15.5h-226v553h277q129 0 205.5 -68.5t76.5 -201.5z" />
<glyph unicode="Q" horiz-adv-x="1417" d="M1313 709q0 141 -36 273t-109.5 233.5t-188.5 163t-272 61.5q-158 0 -273 -61.5t-188.5 -163t-109.5 -233.5t-36 -273t36 -273.5t109.5 -234t188.5 -163t273 -61.5t272.5 61.5t188 163t109.5 234t36 273.5zM1151 709q0 -102 -24.5 -209t-78 -193t-138.5 -141t-203 -55 q-121 0 -205 55t-137.5 141t-78 192.5t-24.5 209.5q0 102 24.5 208.5t78 192.5t137.5 141.5t205 55.5t204.5 -55.5t137 -141.5t78 -192.5t24.5 -208.5zM1231 -178l-531 94l-12 -102l522 -99z" />
<glyph unicode="R" horiz-adv-x="1202" d="M1124 0q-39 88 -76.5 179t-78.5 179t-90.5 172t-110.5 160q135 31 215 121t80 231q0 98 -35 169t-94.5 117t-138 67.5t-168.5 21.5h-455v-1417h158v641h280q35 -23 71 -71t69.5 -108.5t64.5 -128t57.5 -131t48 -116.5t35.5 -86h168zM905 1047q0 -74 -26.5 -125.5 t-71.5 -84t-104.5 -48t-124.5 -15.5h-248v506h270q61 0 116.5 -10t97.5 -36t66.5 -71.5t24.5 -115.5z" />
<glyph unicode="S" horiz-adv-x="1144" d="M1042 375q0 129 -55 206.5t-139 126t-180.5 78t-180.5 64.5t-139 85t-55 138q0 63 26.5 107.5t69.5 73t96.5 42t108.5 13.5q43 0 103.5 -18.5t114.5 -40t93 -40.5l39 -18l45 115l-39 21q-39 20 -97 45.5t-127 46t-128 20.5q-84 0 -166 -22.5t-147.5 -68.5t-106.5 -116 t-41 -164q0 -121 55.5 -194.5t138.5 -120.5t179 -79t179 -69t138.5 -90t55.5 -143q0 -66 -30 -115t-76 -81t-104.5 -48t-115.5 -16q-49 0 -117.5 24.5t-130 54t-104.5 54.5l-43 24l-58 -106l44 -29q45 -29 110.5 -64.5t144 -64.5t146.5 -29q88 0 177 25t158.5 74t113.5 124 t44 175z" />
<glyph unicode="T" horiz-adv-x="1024" d="M1004 1280v137h-981v-137h413v-1280h158v1280h410z" />
<glyph unicode="U" horiz-adv-x="1339" d="M1169 483v934h-143v-925q0 -172 -88 -274.5t-266 -102.5q-186 0 -267 101t-81 280v921h-158v-928q0 -244 128 -378t376 -134q238 0 368.5 135t130.5 371z" />
<glyph unicode="V" horiz-adv-x="1200" d="M1192 1417h-145l-437 -1224l-428 1224h-166l508 -1417h158z" />
<glyph unicode="W" horiz-adv-x="1808" d="M1794 1417h-143l-316 -1214l-340 1214h-157l-334 -1208l-322 1208h-162l386 -1417h174l329 1186l336 -1186h172z" />
<glyph unicode="X" horiz-adv-x="1179" d="M1171 0l-485 756l436 661h-159l-359 -549l-356 549h-180l440 -678l-494 -739h164l414 623l393 -623h186z" />
<glyph unicode="Y" horiz-adv-x="1200" d="M1184 1417h-156l-412 -674l-407 674h-186l503 -815v-602h158v598z" />
<glyph unicode="Z" horiz-adv-x="1064" d="M997 0v137h-784l760 1159v121h-907v-135h731l-758 -1145v-137h958z" />
<glyph unicode="[" horiz-adv-x="591" d="M485 -317v100h-213v1595h213v101h-237q-29 0 -55.5 -1t-55.5 -1v-1792q29 0 55.5 -1t55.5 -1h237z" />
<glyph unicode="\" horiz-adv-x="813" d="M705 -66l-701 1506h-137l700 -1506h138z" />
<glyph unicode="]" horiz-adv-x="591" d="M461 -315v1792q-29 0 -54.5 1t-54.5 1h-239v-101h213v-1595h-213v-100h239q29 0 54.5 1t54.5 1z" />
<glyph unicode="^" horiz-adv-x="1228" d="M1069 535l-401 882h-111l-403 -882h137l321 712l320 -712h137z" />
<glyph unicode="_" horiz-adv-x="1024" d="M1030 -422v115h-1030v-115h1030z" />
<glyph unicode="`" horiz-adv-x="612" d="M483 1186l-297 270l-118 -63l348 -246z" />
<glyph unicode="a" horiz-adv-x="1064" d="M952 0q-6 14 -9 36.5t-4 47.5t-2 47.5t-1 38.5v535q0 193 -96.5 277.5t-282.5 84.5q-47 0 -112.5 -12.5t-126 -25.5t-103.5 -25l-43 -13l33 -94l37 8t89 18.5t110.5 18.5t103.5 8q121 0 185.5 -58t64.5 -181v-70q-61 -2 -137 -4t-154 -10.5t-151.5 -28.5t-130 -58 t-91.5 -99.5t-35 -153.5q0 -80 29 -138.5t77 -96.5t112.5 -57.5t138.5 -19.5q117 0 203.5 53.5t146.5 151.5l8 -180h141zM795 438q0 -72 -21.5 -134t-63.5 -108t-100.5 -74t-132.5 -28q-94 0 -159.5 45t-65.5 148q0 78 42 125t104.5 72.5t134 33.5t131.5 8h131v-88z" />
<glyph unicode="b" d="M1028 537q0 102 -23.5 197t-73.5 169t-131 119t-198 45q-111 0 -188.5 -55.5t-130.5 -147.5v609h-144v-1473h103l30 174q59 -94 132 -145.5t190 -51.5q119 0 202 49.5t134 128t74.5 179.5t23.5 203zM872 516q0 -70 -13 -143.5t-46 -135t-88 -100.5t-139 -39 q-80 0 -137.5 37t-94.5 94.5t-54 128t-17 140.5v84q0 66 19.5 131t57 117.5t94 84t130.5 31.5q86 0 142 -41t89 -104.5t45 -139t12 -145.5z" />
<glyph unicode="c" horiz-adv-x="946" d="M922 53l-33 94l-37 -8t-89 -18t-110.5 -18.5t-103.5 -8.5q-92 0 -152.5 38t-97.5 99.5t-52.5 139.5t-15.5 157q0 78 19.5 153t60.5 133t104.5 94t151.5 36q37 0 82 -7t85 -16.5t66 -16.5l27 -7l37 96l-28 11q-27 12 -70 26t-97.5 25.5t-107.5 11.5q-121 0 -212 -43 t-151.5 -116.5t-91 -173t-30.5 -212.5t28.5 -212t88 -173t149.5 -117t211 -43q47 0 110.5 12.5t121 26t77.5 19.5z" />
<glyph unicode="d" d="M981 0v1473h-143v-594q-55 90 -131 139t-185 49q-117 0 -199.5 -46t-134 -122t-75 -174t-23.5 -201q0 -104 23.5 -202.5t76 -175t134.5 -123t200 -46.5q109 0 188 54.5t132 146.5v-178h137zM836 479q0 -68 -18.5 -135.5t-56.5 -121.5t-94.5 -89t-131.5 -35 q-88 0 -144.5 42t-88.5 105.5t-44 140.5t-12 149q0 68 14 141.5t47 133.5t88.5 99t139.5 39q80 0 137 -32.5t93 -87t53.5 -122t17.5 -137.5v-90z" />
<glyph unicode="e" horiz-adv-x="1064" d="M977 496q0 111 -20.5 213t-70.5 182t-134 128t-213 48q-115 0 -201 -46t-143.5 -122t-86 -174t-28.5 -203q0 -117 27.5 -216t86 -172t148.5 -115t215 -42q47 0 109.5 12.5t120 26t96.5 25.5l39 12l-33 94l-37 -8t-89 -18t-110.5 -18.5t-103.5 -8.5q-90 0 -148.5 33 t-94.5 88t-51 128t-19 153h741zM819 610h-581q8 66 30.5 127.5t60.5 108.5t92 75.5t128 28.5t125 -28.5t82.5 -76.5t46 -110t16.5 -125z" />
<glyph unicode="f" horiz-adv-x="649" d="M657 1477q-70 20 -151 20q-104 0 -160.5 -42t-82 -107.5t-31 -146.5t-5.5 -159h-198v-118h198v-924h144v924h239v118h-239q0 51 -1 109.5t12 109t48 84t109 33.5q35 0 57 -5t55 -15z" />
<glyph unicode="g" horiz-adv-x="1083" d="M1036 948v115h-458q-14 2 -28.5 3t-31.5 1q-82 0 -154.5 -25.5t-128 -72.5t-87 -116t-31.5 -155q0 -88 40 -166.5t111 -132.5q-53 -23 -96 -65.5t-43 -106.5q0 -113 102 -159q-37 -16 -69.5 -35t-57 -43.5t-39 -57t-14.5 -77.5q0 -90 50.5 -144.5t125 -83t158.5 -37 t152 -8.5q70 0 155.5 10.5t161.5 41t126 87t50 148.5q0 100 -56 153.5t-140 79t-182.5 32.5t-182.5 15.5t-140.5 26t-56.5 64.5q0 45 38 67.5t73 32.5q31 -12 63.5 -16.5t65.5 -4.5q86 0 158.5 26t127 74t85 117.5t30.5 159.5q0 76 -27.5 140.5t-74.5 111.5h225zM764 690 q0 -119 -63.5 -185.5t-184.5 -66.5q-115 0 -181.5 70t-66.5 182q0 113 67.5 187.5t184.5 74.5h19q8 0 18 -2v-2h10q94 -16 145.5 -88t51.5 -170zM885 -135q0 -55 -40 -88t-95.5 -50.5t-116 -22.5t-98.5 -5q-39 0 -96.5 5t-112 21.5t-93 49t-38.5 88.5q0 35 15 60.5t39.5 44 t54.5 32.5t58 27q27 -6 76 -9.5t107.5 -7.5t119 -11t109.5 -23.5t80 -43t31 -67.5z" />
<glyph unicode="h" d="M967 0v670q0 86 -19.5 159.5t-62.5 126t-109.5 82t-159.5 29.5q-123 0 -196.5 -58.5t-122.5 -162.5v627h-143v-1473h143v582q0 70 18.5 135t55.5 116.5t94 81t135 29.5q57 0 99 -21.5t70 -56.5t41 -83t13 -99v-684h144z" />
<glyph unicode="i" horiz-adv-x="473" d="M313 1274v176h-151v-176h151zM307 0v1042h-143v-1042h143z" />
<glyph unicode="j" horiz-adv-x="452" d="M299 1274v176h-152v-176h152zM293 -76v1118h-143v-1099q0 -47 -3.5 -88t-18.5 -72t-47 -49.5t-87 -18.5q-23 0 -50.5 5.5t-49.5 9.5v-121q35 -4 67.5 -9.5t67.5 -5.5q78 0 129 26t80.5 70t42 104t12.5 130z" />
<glyph unicode="k" horiz-adv-x="1024" d="M997 0l-471 627l422 415h-170l-477 -477v908h-143v-1473h141q8 109 5 216.5t-3 215.5l121 107l401 -539h174z" />
<glyph unicode="l" horiz-adv-x="473" d="M307 0v1473h-143v-1473h143z" />
<glyph unicode="m" horiz-adv-x="1693" d="M1546 0v670q0 82 -17.5 154.5t-56 126t-101 85t-154.5 31.5q-119 0 -204 -65.5t-126 -174.5q-23 113 -95.5 176.5t-189.5 63.5q-121 0 -194.5 -58.5t-122.5 -162.5v196h-133v-1042h143v596q0 63 14.5 125.5t47 112t82.5 80t124 30.5q59 0 100.5 -22.5t66 -60.5t35.5 -87 t11 -100v-674h144v600q0 61 14 122.5t47 111t84 80t123 30.5q57 0 98 -23.5t67.5 -61.5t38 -86t11.5 -99v-674h143z" />
<glyph unicode="n" d="M971 0v670q0 88 -19.5 160.5t-62.5 125t-109.5 82t-161.5 29.5q-123 0 -201.5 -57.5t-131.5 -163.5v196h-133v-1042h143v582q0 70 18.5 135t56.5 115.5t95 81t135 30.5q57 0 99 -20.5t71 -56.5t43 -83t14 -100v-684h144z" />
<glyph unicode="o" d="M1038 522q0 111 -29.5 210t-90 173t-149.5 118t-208 44q-121 0 -211 -43t-149.5 -116.5t-89 -173t-29.5 -212.5q0 -111 30.5 -210t90 -172.5t149.5 -118t209 -44.5t209 43t149.5 118t89 174t29.5 210zM881 522q0 -76 -16.5 -151.5t-54.5 -136t-99.5 -98.5t-149.5 -38 t-149.5 38t-99.5 98.5t-55 136t-17 151.5t16 153t55 136t99.5 97t150.5 38q88 0 149.5 -38t99.5 -98t54.5 -136t16.5 -152z" />
<glyph unicode="p" d="M1044 520q0 102 -22.5 200.5t-73.5 175.5t-132 124t-200 47q-117 0 -196.5 -61.5t-132.5 -159.5v196h-131v-1427h143v555q47 -96 131 -144.5t188 -48.5q113 0 194 48.5t133 125t75.5 174t23.5 195.5zM885 514q0 -72 -13.5 -145.5t-46 -133t-90 -97.5t-143.5 -38 q-72 0 -126 33t-91 85t-56.5 116.5t-19.5 128.5v135q0 61 20.5 122.5t59.5 111t93 80t120 30.5q86 0 143.5 -40t90 -103.5t46 -139t13.5 -145.5z" />
<glyph unicode="q" d="M981 -385v1427h-104l-33 -174q-53 92 -130 145.5t-188 53.5q-121 0 -204.5 -46t-135 -123t-74 -175t-22.5 -205q0 -102 23.5 -199.5t76 -173t133 -122t197.5 -46.5t196 58.5t122 163.5v-584h143zM836 492q0 -63 -17.5 -132t-54.5 -126.5t-91.5 -95.5t-127.5 -38 q-90 0 -147.5 39t-90.5 100.5t-46 136.5t-13 148q0 72 13 146.5t46 136t89.5 100.5t144.5 39q82 0 138 -38t91 -97t50.5 -132t15.5 -140v-47z" />
<glyph unicode="r" horiz-adv-x="669" d="M655 915v144q-20 2 -41.5 5t-42.5 3q-57 0 -103 -22.5t-82 -58.5t-61.5 -83t-39.5 -96v235h-129v-1042h143v512q0 59 13.5 131t45 133.5t83 103.5t124.5 42q23 0 45 -2.5t45 -4.5z" />
<glyph unicode="s" horiz-adv-x="927" d="M844 289q0 96 -44 154.5t-109.5 93t-143.5 55t-143.5 44t-109.5 57.5t-44 93q0 49 19.5 80t50 48.5t69.5 24.5t80 7q37 0 85 -8t90 -17.5t72 -16.5l29 -7l37 96l-28 11q-29 12 -75 26t-101.5 25.5t-108.5 11.5q-68 0 -133.5 -16.5t-116.5 -51t-83 -89t-32 -132.5 q0 -94 43 -148.5t109 -88t141.5 -54t141 -45t108.5 -62.5t43 -106q0 -47 -25.5 -80.5t-65.5 -55t-86 -31t-85 -9.5q-45 0 -101.5 7.5t-105.5 16.5t-83 17l-34 8l-32 -94l40 -12q40 -12 97 -25.5t120.5 -26t110.5 -12.5q74 0 145.5 17.5t129 54.5t93.5 96.5t36 143.5z" />
<glyph unicode="t" horiz-adv-x="669" d="M637 -2l-4 117q-35 -4 -65.5 -11.5t-65.5 -7.5q-80 0 -111 51.5t-31 122.5v658h236v119h-236v286l-143 -30v-256h-194v-119h194v-625q0 -72 10.5 -131t40 -102t80.5 -68t131 -25q41 0 79 6.5t79 14.5z" />
<glyph unicode="u" d="M965 0v1042h-144v-579q0 -66 -18.5 -130.5t-55 -115.5t-92 -83t-129.5 -32q-66 0 -109.5 24t-70.5 63.5t-39 91t-12 108.5v653h-143v-653q0 -90 19 -166t61 -130t110 -85t166 -31q113 0 195.5 60.5t130.5 161.5l2 -199h129z" />
<glyph unicode="v" horiz-adv-x="905" d="M899 1042h-141l-295 -876l-291 876h-158l361 -1042h160z" />
<glyph unicode="w" horiz-adv-x="1474" d="M1456 1042h-127l-266 -845l-256 845h-139l-254 -845l-256 845h-150l326 -1042h145l252 844l258 -844h146z" />
<glyph unicode="x" horiz-adv-x="905" d="M895 0l-358 563l315 479h-152l-241 -372l-236 372h-170l324 -495l-361 -547h154l285 436l270 -436h170z" />
<glyph unicode="y" horiz-adv-x="884" d="M883 1042h-138l-294 -833l-287 833h-152l367 -1038q-12 -45 -27.5 -96t-40 -94t-62.5 -72t-95 -29q-23 0 -50.5 6.5t-50.5 10.5l-6 -121q72 -16 137 -17q59 0 104.5 25t79 64.5t57.5 89t40 98.5z" />
<glyph unicode="z" horiz-adv-x="884" d="M836 0v119h-603l601 823v100h-740v-118h561l-594 -805v-119h775z" />
<glyph unicode="{" horiz-adv-x="591" d="M553 -317v102q-20 0 -42 -1t-42 0t-38.5 9t-33.5 27q-16 23 -20 58.5t-4 64.5v333q0 98 -32 177t-128 127q94 49 127 126.5t33 178.5v334q0 23 2 50t11 50.5t27.5 40t49.5 16.5h90v103h-104q-84 0 -130.5 -35t-67 -91.5t-21.5 -129t2.5 -149.5t5.5 -151.5t-11.5 -135 t-48.5 -100.5t-104 -48v-117q70 -8 104.5 -48t48 -100.5t12.5 -135t-5.5 -151.5t-2.5 -149.5t22.5 -129t66 -91t129.5 -34.5h104z" />
<glyph unicode="|" horiz-adv-x="493" d="M311 -23v1506h-131v-1506h131z" />
<glyph unicode="}" horiz-adv-x="591" d="M518 522v117q-70 8 -105.5 48t-48 100.5t-11.5 135t5 151.5t2 149.5t-22.5 129t-65.5 91.5t-129 35h-104v-103q41 0 84 1t72 -36q16 -23 20 -59.5t4 -62.5v-334q0 -102 32 -179t128 -126q-96 -47 -128 -125t-32 -179v-333q0 -23 -3 -50.5t-12 -51t-27.5 -40t-49.5 -16.5 h-88v-102h104q84 0 129 34.5t65.5 91t22.5 129t-2 149.5t-5 151.5t12.5 135t48 100.5t104.5 48z" />
<glyph unicode="~" horiz-adv-x="1228" d="M1098 639l-109 51q-6 -27 -17 -55.5t-28.5 -53t-41 -40t-56.5 -15.5q-43 0 -98.5 29t-117 62.5t-128 62.5t-129.5 29q-49 0 -91 -22.5t-73 -59.5t-51.5 -82t-28.5 -90l107 -52q6 27 17 55.5t28.5 53.5t41 40t56.5 15q43 0 99.5 -28.5t118.5 -62.5t128 -62.5t127 -28.5 q51 0 93 22.5t73 59.5t51.5 82t28.5 90z" />
<glyph unicode="&#xa1;" horiz-adv-x="706" d="M440 860v184h-184v-184h184zM451 -375q-10 270 -22.5 536.5t-29.5 536.5h-100q-16 -268 -28.5 -535t-20.5 -538h201z" />
<glyph unicode="&#xa2;" horiz-adv-x="1183" d="M1004 176l-33 94l-36 -10t-89 -21.5t-113.5 -17.5t-109.5 2q-6 0 -5 0q4 0 10.5 1t9.5 2t-3 1l125 777q33 -10 82 -29t81.5 -31t37.5 -14l32 92q-4 2 -32.5 20.5t-80 44t-100.5 37.5l33 207h-111l-30 -194q-115 -2 -202 -42t-146.5 -110t-89 -164t-29.5 -203 q0 -168 69.5 -300t233.5 -193l-41 -250h111l40 225q53 -10 120 1.5t126.5 27.5t79.5 24zM651 1012l-123 -752q-96 61 -132 157.5t-36 207.5q0 72 16.5 138t51.5 118.5t90 86.5t133 44z" />
<glyph unicode="&#xa3;" horiz-adv-x="1183" d="M1110 111l-66 106q-37 -31 -87 -46t-104 -23.5t-109.5 -9.5t-100.5 -1h-182q41 68 60.5 144.5t19.5 156.5q0 61 -1 124t-3 124h315v115h-324q-4 53 -7 105t-3 106q0 61 16.5 113.5t49 92t81 62.5t113.5 23q66 0 115 -24t96 -71l70 111q-63 59 -135 87t-158 28 q-92 0 -168 -35t-129 -94.5t-83 -139.5t-30 -168q0 -49 2 -98t7 -98h-197v-115h205q4 -25 7 -52.5t3 -51.5q0 -63 1 -125t-8 -119t-36 -107.5t-80 -93.5l-186 2v-139h678q47 0 96 3t96 15.5t90 34t76 58.5z" />
<glyph unicode="&#xa4;" horiz-adv-x="1318" d="M1174 1255l-40 29t-101.5 63.5t-136.5 63.5t-142 29q-123 0 -224.5 -35t-178.5 -97.5t-131 -148.5t-83 -188h-129v-140h101q-4 -31 -6.5 -62.5t-2.5 -63.5q0 -35 3 -70t8 -70h-103v-139h133q31 -98 86.5 -180t132 -142.5t175 -93.5t219.5 -33q70 0 140.5 20.5t127.5 44.5 t92 44l35 20l-59 105l-32 -15q-32 -16 -82 -35.5t-109.5 -34.5t-114.5 -15q-88 0 -158 23.5t-124 65.5t-93 100t-64 126h742v139h-779q-4 35 -7 73t-3 75q0 31 2 60.5t6 57.5h781v140h-750q25 72 64 133t94 106t128 71t163 26q55 0 114.5 -21.5t107.5 -46.5t78 -47l31 -21z " />
<glyph unicode="&#xa5;" horiz-adv-x="1183" d="M1135 1417h-154l-381 -669l-371 669h-182l356 -622h-247v-111h311l45 -80v-84h-356v-110h356v-410h158v410h354v110h-354v80l47 84h307v111h-244z" />
<glyph unicode="&#xa6;" horiz-adv-x="493" d="M311 918v565h-131v-565h131zM311 -23v566h-131v-566h131z" />
<glyph unicode="&#xa7;" horiz-adv-x="1183" d="M1004 578q0 90 -48.5 149t-122 101t-157.5 72t-158 63.5t-122 76.5t-48 109q0 49 23.5 83t60.5 54.5t82 29.5t86 9q35 0 84 -14.5t94 -32.5t77 -32l32 -15l59 92l-38 19q-38 18 -93 39.5t-117.5 40t-111.5 18.5q-72 0 -141.5 -18.5t-124 -57.5t-87 -98.5t-32.5 -139.5 q0 -86 48 -150.5t122 -98.5q-86 -59 -141.5 -137t-55.5 -189q0 -90 48 -149.5t122 -100.5t158 -71.5t157.5 -63.5t121.5 -76t48 -110q0 -53 -28.5 -87t-70.5 -54.5t-91 -28t-92 -7.5q-37 0 -93.5 20.5t-109.5 46.5t-92 46l-39 21l-43 -91l38 -26q38 -25 94 -55.5t124 -55 t129 -20.5q76 4 151.5 21.5t136 54t97.5 94t37 143.5t-48 150.5t-122 99.5q86 59 141.5 137t55.5 189zM860 537q0 -37 -14.5 -72t-37 -65.5t-53 -55.5t-61.5 -39l-235 94q-66 27 -104 73t-38 120q0 37 14.5 71.5t37 65.5t53.5 55.5t61 38.5l236 -92q68 -27 104.5 -73.5 t36.5 -120.5z" />
<glyph unicode="&#xa8;" horiz-adv-x="632" d="M571 1239v188h-180v-188h180zM238 1239v188h-181v-188h181z" />
<glyph unicode="&#xa9;" horiz-adv-x="1597" d="M1534 715q0 154 -58.5 289t-157.5 234t-234.5 157.5t-288.5 58.5q-154 0 -289 -57.5t-234.5 -157.5t-157 -235.5t-57.5 -288.5q0 -154 58.5 -289t158 -234.5t234.5 -158t289 -58.5t289 57.5t234 158t156.5 235.5t57.5 289zM1393 713q0 -125 -46.5 -236.5t-126 -194.5 t-189 -131.5t-236.5 -48.5t-235.5 49.5t-188.5 133.5t-126 194.5t-46 235.5t46 236.5t126 194.5t189.5 131t236.5 48t235.5 -49t188 -133t126 -194.5t46.5 -235.5zM1182 571h-129q-18 -88 -73.5 -138t-148.5 -50q-74 0 -128 26.5t-89.5 71.5t-53 105.5t-17.5 128.5 q0 66 16 125t51 103t87.5 69.5t123.5 25.5q39 0 78 -12t70.5 -35.5t53 -56.5t28.5 -76h129q-23 141 -118 216t-237 75q-98 0 -176 -32t-133 -89t-85 -137t-30 -176q0 -94 31 -175t86 -140.5t134 -93.5t175 -34q68 0 127.5 22.5t105.5 62.5t77 94t45 120z" />
<glyph unicode="&#xaa;" horiz-adv-x="700" d="M635 795q-4 6 -6 20t-4 29.5t-2 29.5v23v320q0 123 -70 171t-184 48q-29 0 -73 -10.5t-85 -23.5t-71 -24l-29 -10l32 -65l23 9q24 9 58 21.5t71 21.5t65 9q72 0 120 -33t48 -110v-41q-53 -2 -133 -4t-154.5 -20.5t-128 -61.5t-53.5 -127q0 -51 21.5 -86t55.5 -57.5 t77 -33t86 -10.5q74 0 134.5 30t101.5 93l4 -108h96zM528 1057q0 -92 -61 -148.5t-152 -56.5q-57 0 -104 23.5t-47 91.5q0 49 29.5 77.5t72.5 43t91.5 18.5t82.5 4h88v-53z" />
<glyph unicode="&#xab;" horiz-adv-x="983" d="M819 182l-194 357l194 356h-108l-230 -350v-13l230 -350h108zM508 182l-195 357l195 356h-109l-229 -350v-13l229 -350h109z" />
<glyph unicode="&#xac;" horiz-adv-x="1228" d="M1137 240v555h-1047v-140h907v-415h140z" />
<glyph unicode="&#xae;" horiz-adv-x="1597" d="M1534 715q0 154 -58.5 289t-157.5 234t-234.5 157.5t-288.5 58.5q-154 0 -289 -57.5t-234.5 -157.5t-157 -235.5t-57.5 -288.5q0 -154 58.5 -289t158 -234.5t234.5 -158t289 -58.5t289 57.5t234 158t156.5 235.5t57.5 289zM1393 713q0 -125 -46.5 -236.5t-126 -194.5 t-189 -131.5t-236.5 -48.5t-235.5 49.5t-188.5 133.5t-126 194.5t-46 235.5t46 236.5t126 194.5t189.5 131t236.5 48t235.5 -49t188 -133t126 -194.5t46.5 -235.5zM1169 291l-251 377q113 6 177 62t64 175q0 61 -22.5 104.5t-60.5 69t-87 36.5t-104 11h-367v-835h131v377 h133l236 -377h151zM1026 907q0 -84 -47 -109.5t-121 -25.5h-209v252h205q29 0 59.5 -5t55 -18.5t41 -36t16.5 -57.5z" />
<glyph unicode="&#xaf;" horiz-adv-x="694" d="M633 1292v115h-574v-115h574z" />
<glyph unicode="&#xb0;" horiz-adv-x="819" d="M725 1126q0 66 -24.5 123.5t-67.5 100.5t-100.5 67.5t-122.5 24.5q-66 0 -123.5 -24.5t-100.5 -67.5t-67.5 -100.5t-24.5 -123.5t24.5 -123t67.5 -100t100.5 -67.5t123.5 -24.5t123 24.5t100 67.5t67.5 100t24.5 123zM612 1126q0 -86 -58 -144t-144 -58t-144.5 58 t-58.5 144t58.5 144.5t144.5 58.5t144 -58.5t58 -144.5z" />
<glyph unicode="&#xb1;" horiz-adv-x="1417" d="M1311 709q0 141 -36 273t-109.5 233.5t-188.5 163t-272 61.5q-158 0 -273 -61.5t-188.5 -163t-109.5 -233.5t-36 -273t36 -273.5t109.5 -234t188.5 -163t273 -61.5q74 0 145 17q10 -55 26.5 -107.5t46 -93.5t75.5 -65.5t118 -24.5q45 0 87 12.5t81 34.5l-29 115 q-29 -14 -60.5 -23.5t-66.5 -9.5q-37 0 -61.5 16.5t-40.5 46t-25.5 68.5t-17.5 82q82 45 144.5 114.5t102.5 158t60.5 188t20.5 203.5zM1149 709q0 -70 -11.5 -141.5t-35 -139.5t-61 -128t-89.5 -103q-12 47 -29.5 90t-47 74.5t-72.5 51t-105 19.5q-45 0 -87 -12t-81 -33 l29 -117q29 16 60.5 25.5t64.5 9.5t56.5 -13t40 -38t26.5 -56.5t18 -68.5q-55 -18 -120 -18q-121 0 -205 55t-137.5 141t-78 192.5t-24.5 209.5q0 102 24.5 208.5t78 192.5t137.5 141.5t205 55.5t204.5 -55.5t137 -141.5t78 -192.5t24.5 -208.5zM987 842q39 0 58.5 24.5 t19.5 53.5q0 31 -19.5 55t-58.5 24h-6q-39 0 -58.5 -24.5t-19.5 -54.5q0 -31 19.5 -55.5t58.5 -24.5zM479 920q0 33 -22.5 56t-55.5 23t-56 -23.5t-23 -55.5q0 -33 23.5 -56.5t55.5 -23.5q33 0 56.5 23.5t23.5 56.5h-2z" />
<glyph unicode="&#xb2;" horiz-adv-x="739" d="M668 569l-2 82h-482l279 238q33 29 67.5 63.5t63.5 75.5t46 85t17 91q0 63 -26.5 108.5t-68.5 74t-96 43t-110 14.5q-37 0 -81 -9.5t-84.5 -29t-72.5 -48t-44 -65.5l61 -55q8 31 34 54.5t58.5 39t67.5 23.5t63 8q37 0 71 -11.5t59.5 -32t42 -51t16.5 -69.5 q0 -35 -14.5 -70.5t-36 -67.5t-48 -60.5t-51.5 -51.5l-342 -297v-82h613z" />
<glyph unicode="&#xb3;" horiz-adv-x="739" d="M676 811q0 94 -59.5 148.5t-149.5 62.5q76 12 133 64.5t57 134.5q0 63 -27.5 105t-71.5 68.5t-98 38t-108 11.5q-35 0 -74.5 -6t-77.5 -20.5t-71 -36t-51 -52.5l53 -57q33 53 96.5 72.5t122.5 19.5q33 0 69 -8t65.5 -24.5t49 -44t19.5 -66.5q0 -66 -36 -98.5t-87 -47 t-108.5 -15.5t-102.5 -1v-82q43 0 103.5 -1t116 -14.5t93 -47t37.5 -99.5q0 -49 -22.5 -83t-58 -53.5t-78.5 -28.5t-84 -9q-27 0 -62 5t-68.5 16.5t-61.5 30t-40 44.5l-55 -57q16 -35 50 -57.5t76 -37t84 -20.5t77 -6q57 0 119.5 13.5t113.5 43t84 77.5t33 118z" />
<glyph unicode="&#xb4;" horiz-adv-x="612" d="M541 1393l-119 63l-297 -270l68 -39z" />
<glyph unicode="&#xb5;" d="M965 0v1042h-144v-579q0 -66 -18.5 -130.5t-55 -115.5t-92 -83t-129.5 -32q-66 0 -109.5 24t-70.5 63.5t-39 91t-12 108.5v653h-143v-1427h145v461l21 -16q22 -15 55 -33.5t72.5 -34t74.5 -15.5q113 -4 193 59.5t121 162.5l2 -199h129z" />
<glyph unicode="&#xb6;" horiz-adv-x="1169" d="M1047 1352v65h-506q-100 0 -184.5 -30.5t-145.5 -89t-95 -140.5t-34 -182q0 -90 32.5 -167t89 -134.5t133.5 -90t167 -32.5v-852h131v1597h223v-1597h131v1653h58z" />
<glyph unicode="&#xb7;" horiz-adv-x="591" d="M399 514v201h-196v-201h196z" />
<glyph unicode="&#xb8;" horiz-adv-x="552" d="M481 -219q0 29 -13 52.5t-33.5 40.5t-47.5 27.5t-53 10.5q-16 0 -31.5 -1t-32.5 -3l35 104h-63l-58 -170q23 2 45.5 4t44.5 2q33 0 62 -19t29 -54q0 -41 -36 -57.5t-69 -16.5q-43 0 -86 12.5t-80 34.5l-18 -72q47 -20 98 -32.5t102 -12.5q37 0 73 7.5t65.5 25t48 46 t18.5 71.5z" />
<glyph unicode="&#xb9;" horiz-adv-x="739" d="M578 569l-43 39h-86l-3 826h-84q-111 -104 -245 -185l26 -82q53 35 104.5 73t98.5 81v-713h-90l-45 -39h367z" />
<glyph unicode="&#xba;" horiz-adv-x="739" d="M692 1108q0 72 -22.5 132t-63.5 103t-100.5 68t-132.5 25q-152 0 -237 -90.5t-85 -237.5q0 -74 22.5 -134.5t64.5 -103.5t101.5 -66.5t133.5 -23.5q150 0 234.5 90.5t84.5 237.5zM586 1108q0 -49 -12.5 -95t-39 -82t-66.5 -56.5t-95 -20.5t-96 20.5t-68 55.5t-40 81 t-13 97t13 97t40 81t67.5 55.5t96.5 20.5q55 0 95 -20.5t66.5 -56.5t39 -82t12.5 -95z" />
<glyph unicode="&#xbb;" horiz-adv-x="983" d="M811 532v13l-225 350h-109l191 -356l-191 -357h109zM500 532v13l-226 350h-108l190 -356l-190 -357h108z" />
<glyph unicode="&#xbc;" horiz-adv-x="1773" d="M1425 780v-501h-350zM1397 864q0 -2 5 -15t10 -28.5t9 -28.5l4 -12zM1671 201v78h-145v585h-129l-426 -585v-78h454v-201h101v201h145zM1407 1440h-131l-846 -1463h129zM580 569l-43 39h-86l-2 826h-84q-111 -104 -246 -185l26 -82q53 35 104.5 73t98.5 81v-713h-90 l-45 -39h367z" />
<glyph unicode="&#xbd;" horiz-adv-x="1773" d="M1690 0l-2 82h-482l279 237q33 29 67.5 64t63.5 76t46 85t17 91q0 63 -26.5 108t-68.5 74t-96 43t-110 14q-37 0 -81 -9t-85 -28.5t-72.5 -48t-43.5 -65.5l61 -55q8 31 34 54t58.5 38.5t67.5 24t63 8.5q37 0 71 -11.5t59.5 -32t42 -51t16.5 -69.5q0 -35 -14.5 -71 t-36 -67.5t-48 -60.5t-51.5 -51l-342 -297v-82h613zM1348 1440h-131l-846 -1463h129zM569 569l-43 39h-86l-2 826h-84q-111 -104 -245 -185l26 -82q53 35 104.5 73t98.5 81v-713h-90l-45 -39h366z" />
<glyph unicode="&#xbe;" horiz-adv-x="1773" d="M1460 780v-501h-350zM1432 864q0 -2 5 -15t10 -28.5t9 -28.5l4 -12zM1706 201v78h-145v585h-129l-426 -585v-78h454v-201h101v201h145zM1470 1440h-131l-845 -1463h129zM719 811q0 94 -59.5 148.5t-149.5 62.5q76 12 133 64.5t57 134.5q0 63 -27.5 105t-71.5 68.5t-98 38 t-108 11.5q-35 0 -74.5 -6t-77.5 -20.5t-71 -36t-51 -52.5l53 -57q33 53 96.5 72.5t122.5 19.5q33 0 69 -8t65.5 -24.5t49 -44t19.5 -66.5q0 -66 -36 -98.5t-87 -47t-108.5 -15.5t-102.5 -1v-82q43 0 103.5 -1t116 -14.5t93 -47t37.5 -99.5q0 -49 -22.5 -83t-58 -53.5 t-78.5 -28.5t-84 -9q-27 0 -62 5t-68.5 16.5t-61 30t-40.5 44.5l-55 -57q16 -35 50 -57.5t76 -37t84 -20.5t77 -6q57 0 119.5 13.5t113.5 43t84 77.5t33 118z" />
<glyph unicode="&#xbf;" horiz-adv-x="1064" d="M670 862v185h-185v-185h185zM938 -248l-41 94l-35 -16t-87 -36.5t-110.5 -37t-103.5 -16.5q-117 0 -197.5 62.5t-80.5 187.5q0 72 27.5 122t68.5 90t88 75.5t88 79.5t68.5 103.5t27.5 147.5v92h-137q0 -57 -1 -109t-32 -104q-43 -74 -104.5 -118.5t-117.5 -92t-95 -113 t-39 -181.5q0 -94 34 -164t92 -117t136 -70.5t164 -23.5q57 0 124.5 22.5t126 50t78.5 38.5z" />
<glyph unicode="&#xc0;" horiz-adv-x="1259" d="M801 1536l-297 270l-119 -63l348 -246zM1239 0l-512 1417h-201l-522 -1417h162l139 395h625l147 -395h162zM887 522h-531l267 735z" />
<glyph unicode="&#xc1;" horiz-adv-x="1259" d="M860 1743l-119 63l-297 -270l68 -39zM1239 0l-512 1417h-201l-522 -1417h162l139 395h625l147 -395h162zM887 522h-531l267 735z" />
<glyph unicode="&#xc2;" horiz-adv-x="1259" d="M940 1532l-266 274h-82l-264 -274l121 -8l184 168l186 -168zM1239 0l-512 1417h-201l-522 -1417h162l139 395h625l147 -395h162zM887 522h-531l267 735z" />
<glyph unicode="&#xc3;" horiz-adv-x="1259" d="M948 1735l-80 32q-23 -35 -46 -52t-66 -17q-33 0 -63.5 12t-60.5 25.5t-61.5 26t-68.5 12.5q-72 0 -120 -44t-77 -106l82 -33q20 35 45 52.5t66 17.5q33 0 63.5 -12.5t61 -25.5t61.5 -25.5t68 -12.5q72 0 119.5 43.5t76.5 106.5zM1239 0l-512 1417h-201l-522 -1417h162 l139 395h625l147 -395h162zM887 522h-531l267 735z" />
<glyph unicode="&#xc4;" horiz-adv-x="1259" d="M883 1589v189h-181v-189h181zM549 1589v189h-180v-189h180zM1239 0l-512 1417h-201l-522 -1417h162l139 395h625l147 -395h162zM887 522h-531l267 735z" />
<glyph unicode="&#xc5;" horiz-adv-x="1259" d="M817 1681q0 39 -15.5 74t-41 60.5t-60 41t-73.5 15.5t-74 -15.5t-60.5 -41t-41 -60.5t-15.5 -74q0 -80 55.5 -135t135.5 -55q39 0 73.5 15.5t60 41t41 60t15.5 73.5zM733 1681q0 -43 -31.5 -74.5t-74.5 -31.5q-47 0 -77 29.5t-30 76.5t30 77t77 30t76.5 -31t29.5 -76z M1239 0l-512 1417h-201l-522 -1417h162l139 395h625l147 -395h162zM887 522h-531l267 735z" />
<glyph unicode="&#xc6;" horiz-adv-x="1892" d="M1792 0v137h-684v533h573v133h-573v477h659v137l-893 2l-864 -1419h164l246 408h530v-408h842zM950 537h-454l454 745v-745z" />
<glyph unicode="&#xc7;" horiz-adv-x="1318" d="M911 -219q0 29 -13 52.5t-33.5 40.5t-47 27.5t-53.5 10.5q-16 0 -31.5 -1t-32.5 -3l23 69h31q70 0 140.5 20.5t127.5 44.5t92 44l35 20l-59 105l-32 -15q-32 -16 -82 -35.5t-109.5 -34.5t-114.5 -15q-131 0 -223.5 51t-151 135t-85 192.5t-26.5 223.5t28 221t87 189 t151.5 133.5t221.5 50.5q55 0 114.5 -21.5t107.5 -46.5t78 -47l31 -21l89 84l-40 29q-40 29 -101.5 63.5t-136.5 63.5t-142 29q-162 0 -284 -58.5t-204 -159t-124 -234.5t-42 -283q0 -139 37 -262.5t107.5 -220.5t175 -159.5t242.5 -78.5l-48 -142q23 2 45.5 4t45.5 2 q33 0 61.5 -19t28.5 -54q0 -41 -36 -57.5t-69 -16.5q-43 0 -86 12.5t-80 34.5l-18 -72q47 -20 98 -32.5t103 -12.5q37 0 72.5 7.5t65 25t48 46t18.5 71.5z" />
<glyph unicode="&#xc8;" horiz-adv-x="1083" d="M717 1536l-297 270l-119 -63l348 -246zM991 0v137h-657v533h547v133h-547v477h633v137h-791v-1417h815z" />
<glyph unicode="&#xc9;" horiz-adv-x="1083" d="M776 1743l-119 63l-297 -270l68 -39zM991 0v137h-657v533h547v133h-547v477h633v137h-791v-1417h815z" />
<glyph unicode="&#xca;" horiz-adv-x="1083" d="M856 1532l-266 274h-82l-264 -274l121 -8l184 168l186 -168zM991 0v137h-657v533h547v133h-547v477h633v137h-791v-1417h815z" />
<glyph unicode="&#xcb;" horiz-adv-x="1083" d="M799 1589v189h-181v-189h181zM465 1589v189h-180v-189h180zM991 0v137h-657v533h547v133h-547v477h633v137h-791v-1417h815z" />
<glyph unicode="&#xcc;" horiz-adv-x="493" d="M420 1536l-297 270l-119 -63l348 -246zM326 0v1417h-160v-1417h160z" />
<glyph unicode="&#xcd;" horiz-adv-x="493" d="M479 1743l-119 63l-297 -270l68 -39zM326 0v1417h-160v-1417h160z" />
<glyph unicode="&#xce;" horiz-adv-x="493" d="M559 1532l-266 274h-82l-264 -274l121 -8l184 168l186 -168zM326 0v1417h-160v-1417h160z" />
<glyph unicode="&#xcf;" horiz-adv-x="493" d="M502 1589v189h-180v-189h180zM168 1589v189h-180v-189h180zM326 0v1417h-160v-1417h160z" />
<glyph unicode="&#xd0;" horiz-adv-x="1359" d="M1247 717q0 160 -43 288t-127 219t-208 141t-285 52l-416 6v-632h-135v-127h135v-664h377q168 0 298 50t220 142.5t137 225.5t47 299zM1087 702q0 -270 -143 -417.5t-416 -147.5h-202v527h336v127h-336v491h235q139 0 239.5 -41t164 -116.5t93 -183.5t29.5 -239z" />
<glyph unicode="&#xd1;" horiz-adv-x="1359" d="M999 1735l-79 32q-23 -35 -46.5 -52t-66.5 -17q-33 0 -63.5 12t-60.5 25.5t-61.5 26t-68.5 12.5q-72 0 -120 -44t-77 -106l82 -33q20 35 45 52.5t66 17.5q33 0 63.5 -12.5t61.5 -25.5t61.5 -25.5t67.5 -12.5q72 0 119.5 43.5t76.5 106.5zM1206 0v1417h-143v-1206 l-698 1206h-201v-1417h143v1235l719 -1235h180z" />
<glyph unicode="&#xd2;" horiz-adv-x="1417" d="M879 1536l-297 270l-119 -63l348 -246zM1313 709q0 141 -36 273t-109.5 233.5t-188.5 163t-272 61.5q-158 0 -273 -61.5t-188.5 -163t-109.5 -233.5t-36 -273t36 -273.5t109.5 -234t188.5 -163t273 -61.5t272.5 61.5t188 163t109.5 234t36 273.5zM1151 709 q0 -102 -24.5 -209t-78 -193t-138.5 -141t-203 -55q-121 0 -205 55t-137.5 141t-78 192.5t-24.5 209.5q0 102 24.5 208.5t78 192.5t137.5 141.5t205 55.5t204.5 -55.5t137 -141.5t78 -192.5t24.5 -208.5z" />
<glyph unicode="&#xd3;" horiz-adv-x="1417" d="M938 1743l-119 63l-297 -270l68 -39zM1313 709q0 141 -36 273t-109.5 233.5t-188.5 163t-272 61.5q-158 0 -273 -61.5t-188.5 -163t-109.5 -233.5t-36 -273t36 -273.5t109.5 -234t188.5 -163t273 -61.5t272.5 61.5t188 163t109.5 234t36 273.5zM1151 709 q0 -102 -24.5 -209t-78 -193t-138.5 -141t-203 -55q-121 0 -205 55t-137.5 141t-78 192.5t-24.5 209.5q0 102 24.5 208.5t78 192.5t137.5 141.5t205 55.5t204.5 -55.5t137 -141.5t78 -192.5t24.5 -208.5z" />
<glyph unicode="&#xd4;" horiz-adv-x="1417" d="M1018 1532l-266 274h-82l-264 -274l120 -8l185 168l186 -168zM1313 709q0 141 -36 273t-109.5 233.5t-188.5 163t-272 61.5q-158 0 -273 -61.5t-188.5 -163t-109.5 -233.5t-36 -273t36 -273.5t109.5 -234t188.5 -163t273 -61.5t272.5 61.5t188 163t109.5 234t36 273.5z M1151 709q0 -102 -24.5 -209t-78 -193t-138.5 -141t-203 -55q-121 0 -205 55t-137.5 141t-78 192.5t-24.5 209.5q0 102 24.5 208.5t78 192.5t137.5 141.5t205 55.5t204.5 -55.5t137 -141.5t78 -192.5t24.5 -208.5z" />
<glyph unicode="&#xd5;" horiz-adv-x="1417" d="M1026 1735l-80 32q-23 -35 -46 -52t-66 -17q-33 0 -64 12t-60.5 25.5t-61.5 26t-68 12.5q-72 0 -120 -44t-77 -106l82 -33q20 35 45 52.5t65 17.5q33 0 64 -12.5t61.5 -25.5t61.5 -25.5t67 -12.5q72 0 120 43.5t77 106.5zM1313 709q0 141 -36 273t-109.5 233.5 t-188.5 163t-272 61.5q-158 0 -273 -61.5t-188.5 -163t-109.5 -233.5t-36 -273t36 -273.5t109.5 -234t188.5 -163t273 -61.5t272.5 61.5t188 163t109.5 234t36 273.5zM1151 709q0 -102 -24.5 -209t-78 -193t-138.5 -141t-203 -55q-121 0 -205 55t-137.5 141t-78 192.5 t-24.5 209.5q0 102 24.5 208.5t78 192.5t137.5 141.5t205 55.5t204.5 -55.5t137 -141.5t78 -192.5t24.5 -208.5z" />
<glyph unicode="&#xd6;" horiz-adv-x="1417" d="M961 1589v189h-181v-189h181zM627 1589v189h-181v-189h181zM1313 709q0 141 -36 273t-109.5 233.5t-188.5 163t-272 61.5q-158 0 -273 -61.5t-188.5 -163t-109.5 -233.5t-36 -273t36 -273.5t109.5 -234t188.5 -163t273 -61.5t272.5 61.5t188 163t109.5 234t36 273.5z M1151 709q0 -102 -24.5 -209t-78 -193t-138.5 -141t-203 -55q-121 0 -205 55t-137.5 141t-78 192.5t-24.5 209.5q0 102 24.5 208.5t78 192.5t137.5 141.5t205 55.5t204.5 -55.5t137 -141.5t78 -192.5t24.5 -208.5z" />
<glyph unicode="&#xd7;" horiz-adv-x="1228" d="M1116 154l-401 401l401 401l-98 99l-402 -402l-401 402l-98 -99l401 -401l-401 -401l98 -99l401 402l402 -402z" />
<glyph unicode="&#xd8;" horiz-adv-x="1417" d="M1343 1454l-104 37l-152 -195q-78 78 -177 111t-208 33q-158 0 -271.5 -61.5t-187 -163t-108.5 -233.5t-35 -273q0 -133 31 -263.5t111 -238.5l-181 -232l105 -36l145 186q78 -80 179.5 -114t211.5 -34q158 0 271.5 61.5t187.5 163t109 233.5t35 274q0 135 -32 266 t-114 242zM993 1176l-649 -836q-47 84 -64.5 178t-17.5 191q0 100 23.5 206.5t77 193.5t136.5 142.5t203 55.5q180 0 291 -131zM1143 709q0 -102 -23.5 -208t-77 -193t-137.5 -142t-203 -55q-90 0 -164.5 32.5t-129.5 104.5l649 837q49 -86 67.5 -182t18.5 -194z" />
<glyph unicode="&#xd9;" horiz-adv-x="1339" d="M846 1536l-297 270l-119 -63l348 -246zM1169 483v934h-143v-925q0 -172 -88 -274.5t-266 -102.5q-186 0 -267 101t-81 280v921h-158v-928q0 -244 128 -378t376 -134q238 0 368.5 135t130.5 371z" />
<glyph unicode="&#xda;" horiz-adv-x="1339" d="M905 1743l-119 63l-297 -270l68 -39zM1169 483v934h-143v-925q0 -172 -88 -274.5t-266 -102.5q-186 0 -267 101t-81 280v921h-158v-928q0 -244 128 -378t376 -134q238 0 368.5 135t130.5 371z" />
<glyph unicode="&#xdb;" horiz-adv-x="1339" d="M985 1532l-266 274h-82l-264 -274l121 -8l184 168l186 -168zM1169 483v934h-143v-925q0 -172 -88 -274.5t-266 -102.5q-186 0 -267 101t-81 280v921h-158v-928q0 -244 128 -378t376 -134q238 0 368.5 135t130.5 371z" />
<glyph unicode="&#xdc;" horiz-adv-x="1339" d="M928 1589v189h-180v-189h180zM594 1589v189h-180v-189h180zM1169 483v934h-143v-925q0 -172 -88 -274.5t-266 -102.5q-186 0 -267 101t-81 280v921h-158v-928q0 -244 128 -378t376 -134q238 0 368.5 135t130.5 371z" />
<glyph unicode="&#xdd;" horiz-adv-x="1200" d="M836 1743l-119 63l-297 -270l67 -39zM1184 1417h-156l-412 -674l-407 674h-186l503 -815v-602h158v598z" />
<glyph unicode="&#xde;" horiz-adv-x="1083" d="M311 463v555h277q131 0 206.5 -68.5t75.5 -204.5q0 -82 -25.5 -134t-69.5 -83.5t-100.5 -45t-118.5 -18.5t-126 -3t-119 2zM1028 729q0 104 -31.5 183t-90 132.5t-141.5 81t-183 27.5h-271v264h-157v-1417h157v328h264q92 0 174 25.5t144.5 76.5t98.5 126t36 173z" />
<glyph unicode="&#xdf;" horiz-adv-x="1163" d="M1075 399q0 106 -50 180t-142 123q-18 8 -46 13.5t-54.5 10.5t-45 16.5t-13.5 35t38 62.5t108 100q49 41 74 99.5t25 119.5q0 82 -33 145.5t-86 106.5t-124 64.5t-146 21.5q-109 0 -190 -37t-135 -101.5t-82 -152.5t-28 -190q0 -256 1 -510t1 -510h144v997q0 74 12 144.5 t44 124t88.5 86t144.5 32.5q98 0 164.5 -58t66.5 -161q0 -61 -18.5 -104t-45 -75t-57.5 -57.5t-56.5 -52t-38.5 -59.5t-7 -80t32.5 -64.5t63.5 -25.5t78 -14t74.5 -30t56 -72t22.5 -140q0 -66 -22.5 -119t-62 -90t-95 -57.5t-119.5 -20.5q-41 0 -80.5 5.5t-78.5 21.5 l-29 -117q49 -10 98 -18t101 -8q94 0 176 27.5t142.5 81.5t95 131t34.5 175z" />
<glyph unicode="&#xe0;" horiz-adv-x="1064" d="M709 1186l-297 270l-119 -63l348 -246zM952 0q-6 14 -9 36.5t-4 47.5t-2 47.5t-1 38.5v535q0 193 -96.5 277.5t-282.5 84.5q-47 0 -112.5 -12.5t-126 -25.5t-103.5 -25l-43 -13l33 -94l37 8t89 18.5t110.5 18.5t103.5 8q121 0 185.5 -58t64.5 -181v-70q-61 -2 -137 -4 t-154 -10.5t-151.5 -28.5t-130 -58t-91.5 -99.5t-35 -153.5q0 -80 29 -138.5t77 -96.5t112.5 -57.5t138.5 -19.5q117 0 203.5 53.5t146.5 151.5l8 -180h141zM795 438q0 -72 -21.5 -134t-63.5 -108t-100.5 -74t-132.5 -28q-94 0 -159.5 45t-65.5 148q0 78 42 125t104.5 72.5 t134 33.5t131.5 8h131v-88z" />
<glyph unicode="&#xe1;" horiz-adv-x="1064" d="M768 1393l-119 63l-297 -270l68 -39zM952 0q-6 14 -9 36.5t-4 47.5t-2 47.5t-1 38.5v535q0 193 -96.5 277.5t-282.5 84.5q-47 0 -112.5 -12.5t-126 -25.5t-103.5 -25l-43 -13l33 -94l37 8t89 18.5t110.5 18.5t103.5 8q121 0 185.5 -58t64.5 -181v-70q-61 -2 -137 -4 t-154 -10.5t-151.5 -28.5t-130 -58t-91.5 -99.5t-35 -153.5q0 -80 29 -138.5t77 -96.5t112.5 -57.5t138.5 -19.5q117 0 203.5 53.5t146.5 151.5l8 -180h141zM795 438q0 -72 -21.5 -134t-63.5 -108t-100.5 -74t-132.5 -28q-94 0 -159.5 45t-65.5 148q0 78 42 125t104.5 72.5 t134 33.5t131.5 8h131v-88z" />
<glyph unicode="&#xe2;" horiz-adv-x="1064" d="M848 1182l-266 274h-82l-264 -274l120 -8l185 167l186 -167zM952 0q-6 14 -9 36.5t-4 47.5t-2 47.5t-1 38.5v535q0 193 -96.5 277.5t-282.5 84.5q-47 0 -112.5 -12.5t-126 -25.5t-103.5 -25l-43 -13l33 -94l37 8t89 18.5t110.5 18.5t103.5 8q121 0 185.5 -58t64.5 -181 v-70q-61 -2 -137 -4t-154 -10.5t-151.5 -28.5t-130 -58t-91.5 -99.5t-35 -153.5q0 -80 29 -138.5t77 -96.5t112.5 -57.5t138.5 -19.5q117 0 203.5 53.5t146.5 151.5l8 -180h141zM795 438q0 -72 -21.5 -134t-63.5 -108t-100.5 -74t-132.5 -28q-94 0 -159.5 45t-65.5 148 q0 78 42 125t104.5 72.5t134 33.5t131.5 8h131v-88z" />
<glyph unicode="&#xe3;" horiz-adv-x="1064" d="M856 1384l-80 33q-23 -35 -46 -52t-66 -17q-33 0 -64 12t-60.5 25.5t-61.5 25.5t-68 12q-72 0 -120 -44t-77 -105l82 -33q20 35 45 52.5t66 17.5q33 0 63.5 -12.5t61 -25.5t61.5 -25.5t67 -12.5q72 0 120 43t77 106zM952 0q-6 14 -9 36.5t-4 47.5t-2 47.5t-1 38.5v535 q0 193 -96.5 277.5t-282.5 84.5q-47 0 -112.5 -12.5t-126 -25.5t-103.5 -25l-43 -13l33 -94l37 8t89 18.5t110.5 18.5t103.5 8q121 0 185.5 -58t64.5 -181v-70q-61 -2 -137 -4t-154 -10.5t-151.5 -28.5t-130 -58t-91.5 -99.5t-35 -153.5q0 -80 29 -138.5t77 -96.5 t112.5 -57.5t138.5 -19.5q117 0 203.5 53.5t146.5 151.5l8 -180h141zM795 438q0 -72 -21.5 -134t-63.5 -108t-100.5 -74t-132.5 -28q-94 0 -159.5 45t-65.5 148q0 78 42 125t104.5 72.5t134 33.5t131.5 8h131v-88z" />
<glyph unicode="&#xe4;" horiz-adv-x="1064" d="M791 1239v188h-181v-188h181zM457 1239v188h-181v-188h181zM952 0q-6 14 -9 36.5t-4 47.5t-2 47.5t-1 38.5v535q0 193 -96.5 277.5t-282.5 84.5q-47 0 -112.5 -12.5t-126 -25.5t-103.5 -25l-43 -13l33 -94l37 8t89 18.5t110.5 18.5t103.5 8q121 0 185.5 -58t64.5 -181 v-70q-61 -2 -137 -4t-154 -10.5t-151.5 -28.5t-130 -58t-91.5 -99.5t-35 -153.5q0 -80 29 -138.5t77 -96.5t112.5 -57.5t138.5 -19.5q117 0 203.5 53.5t146.5 151.5l8 -180h141zM795 438q0 -72 -21.5 -134t-63.5 -108t-100.5 -74t-132.5 -28q-94 0 -159.5 45t-65.5 148 q0 78 42 125t104.5 72.5t134 33.5t131.5 8h131v-88z" />
<glyph unicode="&#xe5;" horiz-adv-x="1064" d="M725 1335q0 39 -15.5 74t-41 60.5t-60.5 41t-73 15.5q-39 0 -74 -15.5t-60.5 -41t-41 -60.5t-15.5 -74q0 -80 55.5 -135t135.5 -55q39 0 73.5 15.5t60 41t41 60t15.5 73.5zM641 1335q0 -43 -31.5 -74.5t-74.5 -31.5q-47 0 -77 29.5t-30 76.5t29.5 77t77.5 30 q47 0 76.5 -31t29.5 -76zM952 0q-6 14 -9 36.5t-4 47.5t-2 47.5t-1 38.5v535q0 193 -96.5 277.5t-282.5 84.5q-47 0 -112.5 -12.5t-126 -25.5t-103.5 -25l-43 -13l33 -94l37 8t89 18.5t110.5 18.5t103.5 8q121 0 185.5 -58t64.5 -181v-70q-61 -2 -137 -4t-154 -10.5 t-151.5 -28.5t-130 -58t-91.5 -99.5t-35 -153.5q0 -80 29 -138.5t77 -96.5t112.5 -57.5t138.5 -19.5q117 0 203.5 53.5t146.5 151.5l8 -180h141zM795 438q0 -72 -21.5 -134t-63.5 -108t-100.5 -74t-132.5 -28q-94 0 -159.5 45t-65.5 148q0 78 42 125t104.5 72.5t134 33.5 t131.5 8h131v-88z" />
<glyph unicode="&#xe6;" horiz-adv-x="1773" d="M1673 518q0 104 -22.5 203.5t-72.5 176.5t-133 123t-204 46q-102 0 -189 -44t-151 -124q-55 96 -147 131t-197 35q-47 0 -112.5 -12.5t-126 -25.5t-103.5 -25l-43 -13l33 -94l37 8t90 19.5t111.5 19.5t103.5 8q123 0 184.5 -58t61.5 -181v-70q-63 -2 -138 -4t-152 -10.5 t-148.5 -28.5t-128 -59t-90.5 -100.5t-34 -151.5q0 -80 29 -138.5t77 -96.5t112.5 -57.5t138.5 -19.5q61 0 120.5 16.5t109.5 47.5t90 76t65 102q66 -121 169 -180.5t240 -59.5q47 0 113 12.5t126 26t103 25.5l43 12l-32 94l-39 -7q-39 -7 -94.5 -16t-116 -16.5t-105.5 -7.5 q-90 0 -149.5 32t-96 85t-53 126t-20.5 153h737q4 12 4 22zM1511 610h-577q8 63 30.5 125t59.5 110t91 76.5t128 28.5t125 -28.5t83 -75.5t46 -108.5t14 -127.5zM793 438q0 -70 -21.5 -132t-61.5 -109t-97.5 -75t-131.5 -28q-94 0 -158.5 45t-64.5 148q0 78 42 125 t103.5 72.5t133 33.5t131.5 8h125v-88z" />
<glyph unicode="&#xe7;" horiz-adv-x="946" d="M725 -219q0 29 -13.5 52.5t-34 40.5t-47 27.5t-52.5 10.5q-16 0 -32 -1t-32 -3l23 69h16q47 0 110.5 11.5t121 26t97.5 26.5l40 12l-33 94l-37 -8t-89 -18t-110.5 -18.5t-103.5 -8.5q-92 0 -152.5 38t-97.5 99.5t-52.5 139.5t-15.5 157q0 78 19.5 153t60.5 133t104.5 94 t151.5 36q37 0 82 -7t85 -16.5t66 -16.5l27 -7l37 96l-28 11q-27 12 -70 26t-97.5 25.5t-107.5 11.5q-121 0 -212 -43t-151.5 -116.5t-91 -173t-30.5 -212.5q0 -102 24.5 -194t73.5 -165t124 -120t177 -61l-47 -140q23 2 45.5 4t44.5 2q33 0 61.5 -19t28.5 -54 q0 -41 -35.5 -57.5t-68.5 -16.5q-43 0 -86 12.5t-80 34.5l-19 -72q47 -20 98.5 -32.5t102.5 -12.5q37 0 73 7.5t65.5 25t48 46t18.5 71.5z" />
<glyph unicode="&#xe8;" horiz-adv-x="1064" d="M709 1186l-297 270l-119 -63l348 -246zM977 496q0 111 -20.5 213t-70.5 182t-134 128t-213 48q-115 0 -201 -46t-143.5 -122t-86 -174t-28.5 -203q0 -117 27.5 -216t86 -172t148.5 -115t215 -42q47 0 109.5 12.5t120 26t96.5 25.5l39 12l-33 94l-37 -8t-89 -18 t-110.5 -18.5t-103.5 -8.5q-90 0 -148.5 33t-94.5 88t-51 128t-19 153h741zM819 610h-581q8 66 30.5 127.5t60.5 108.5t92 75.5t128 28.5t125 -28.5t82.5 -76.5t46 -110t16.5 -125z" />
<glyph unicode="&#xe9;" horiz-adv-x="1064" d="M768 1393l-119 63l-297 -270l68 -39zM977 496q0 111 -20.5 213t-70.5 182t-134 128t-213 48q-115 0 -201 -46t-143.5 -122t-86 -174t-28.5 -203q0 -117 27.5 -216t86 -172t148.5 -115t215 -42q47 0 109.5 12.5t120 26t96.5 25.5l39 12l-33 94l-37 -8t-89 -18 t-110.5 -18.5t-103.5 -8.5q-90 0 -148.5 33t-94.5 88t-51 128t-19 153h741zM819 610h-581q8 66 30.5 127.5t60.5 108.5t92 75.5t128 28.5t125 -28.5t82.5 -76.5t46 -110t16.5 -125z" />
<glyph unicode="&#xea;" horiz-adv-x="1064" d="M848 1182l-266 274h-82l-264 -274l120 -8l185 167l186 -167zM977 496q0 111 -20.5 213t-70.5 182t-134 128t-213 48q-115 0 -201 -46t-143.5 -122t-86 -174t-28.5 -203q0 -117 27.5 -216t86 -172t148.5 -115t215 -42q47 0 109.5 12.5t120 26t96.5 25.5l39 12l-33 94 l-37 -8t-89 -18t-110.5 -18.5t-103.5 -8.5q-90 0 -148.5 33t-94.5 88t-51 128t-19 153h741zM819 610h-581q8 66 30.5 127.5t60.5 108.5t92 75.5t128 28.5t125 -28.5t82.5 -76.5t46 -110t16.5 -125z" />
<glyph unicode="&#xeb;" horiz-adv-x="1064" d="M791 1239v188h-181v-188h181zM457 1239v188h-181v-188h181zM977 496q0 111 -20.5 213t-70.5 182t-134 128t-213 48q-115 0 -201 -46t-143.5 -122t-86 -174t-28.5 -203q0 -117 27.5 -216t86 -172t148.5 -115t215 -42q47 0 109.5 12.5t120 26t96.5 25.5l39 12l-33 94 l-37 -8t-89 -18t-110.5 -18.5t-103.5 -8.5q-90 0 -148.5 33t-94.5 88t-51 128t-19 153h741zM819 610h-581q8 66 30.5 127.5t60.5 108.5t92 75.5t128 28.5t125 -28.5t82.5 -76.5t46 -110t16.5 -125z" />
<glyph unicode="&#xec;" horiz-adv-x="473" d="M412 1186l-297 270l-119 -63l348 -246zM307 0v63v979h-143v-1042h106h37z" />
<glyph unicode="&#xed;" horiz-adv-x="473" d="M471 1393l-119 63l-297 -270l68 -39zM307 0v63v979h-143v-1042h106h37z" />
<glyph unicode="&#xee;" horiz-adv-x="473" d="M551 1182l-266 274h-82l-264 -274l120 -8l185 167l186 -167zM307 0v63v979h-143v-1042h106h37z" />
<glyph unicode="&#xef;" horiz-adv-x="473" d="M494 1239v188h-181v-188h181zM160 1239v188h-180v-188h180zM307 0v63v979h-143v-1042h106h37z" />
<glyph unicode="&#xf0;" d="M1038 561q0 238 -91 423t-275 333l170 102l-76 78l-193 -117q-66 43 -144.5 71t-154.5 44l-69 -84q66 -16 127 -40.5t117 -63.5l-177 -107l78 -76l191 115q29 -23 60.5 -53.5t61 -65.5t55 -70.5t42.5 -68.5q-74 86 -191 86q-121 0 -213 -44t-153.5 -119t-93 -175 t-31.5 -213q0 -111 29.5 -209t90 -172t149.5 -117t208 -43q129 0 221 48.5t150.5 129t85 186t26.5 222.5zM881 516q0 -72 -18.5 -145.5t-57.5 -134t-99.5 -99.5t-142.5 -39q-90 0 -152.5 37t-100.5 96.5t-55 134t-17 152.5q0 76 16 153t55 138t100.5 100t151.5 39 q86 0 147.5 -40t99.5 -102.5t55.5 -139t17.5 -150.5z" />
<glyph unicode="&#xf1;" d="M1012 1384l-80 33q-23 -35 -46.5 -52t-66.5 -17q-33 0 -63.5 12t-60 25.5t-61.5 25.5t-69 12q-72 0 -120 -44t-76 -105l82 -33q20 35 44.5 52.5t65.5 17.5q33 0 63.5 -12.5t61.5 -25.5t61.5 -25.5t67.5 -12.5q72 0 120 43t77 106zM971 0v670q0 88 -19.5 160.5t-62.5 125 t-109.5 82t-161.5 29.5q-123 0 -201.5 -57.5t-131.5 -163.5v196h-133v-1042h143v582q0 70 18.5 135t56.5 115.5t95 81t135 30.5q57 0 99 -20.5t71 -56.5t43 -83t14 -100v-684h144z" />
<glyph unicode="&#xf2;" d="M735 1186l-297 270l-119 -63l349 -246zM1038 522q0 111 -29.5 210t-90 173t-149.5 118t-208 44q-121 0 -211 -43t-149.5 -116.5t-89 -173t-29.5 -212.5q0 -111 30.5 -210t90 -172.5t149.5 -118t209 -44.5t209 43t149.5 118t89 174t29.5 210zM881 522q0 -76 -16.5 -151.5 t-54.5 -136t-99.5 -98.5t-149.5 -38t-149.5 38t-99.5 98.5t-55 136t-17 151.5t16 153t55 136t99.5 97t150.5 38q88 0 149.5 -38t99.5 -98t54.5 -136t16.5 -152z" />
<glyph unicode="&#xf3;" d="M795 1393l-119 63l-297 -270l67 -39zM1038 522q0 111 -29.5 210t-90 173t-149.5 118t-208 44q-121 0 -211 -43t-149.5 -116.5t-89 -173t-29.5 -212.5q0 -111 30.5 -210t90 -172.5t149.5 -118t209 -44.5t209 43t149.5 118t89 174t29.5 210zM881 522q0 -76 -16.5 -151.5 t-54.5 -136t-99.5 -98.5t-149.5 -38t-149.5 38t-99.5 98.5t-55 136t-17 151.5t16 153t55 136t99.5 97t150.5 38q88 0 149.5 -38t99.5 -98t54.5 -136t16.5 -152z" />
<glyph unicode="&#xf4;" d="M874 1182l-266 274h-82l-264 -274l121 -8l184 167l187 -167zM1038 522q0 111 -29.5 210t-90 173t-149.5 118t-208 44q-121 0 -211 -43t-149.5 -116.5t-89 -173t-29.5 -212.5q0 -111 30.5 -210t90 -172.5t149.5 -118t209 -44.5t209 43t149.5 118t89 174t29.5 210zM881 522 q0 -76 -16.5 -151.5t-54.5 -136t-99.5 -98.5t-149.5 -38t-149.5 38t-99.5 98.5t-55 136t-17 151.5t16 153t55 136t99.5 97t150.5 38q88 0 149.5 -38t99.5 -98t54.5 -136t16.5 -152z" />
<glyph unicode="&#xf5;" d="M883 1384l-80 33q-23 -35 -46.5 -52t-66.5 -17q-33 0 -63.5 12t-60 25.5t-61.5 25.5t-69 12q-72 0 -120 -44t-76 -105l82 -33q20 35 44.5 52.5t65.5 17.5q33 0 63.5 -12.5t61.5 -25.5t61.5 -25.5t67.5 -12.5q72 0 120 43t77 106zM1038 522q0 111 -29.5 210t-90 173 t-149.5 118t-208 44q-121 0 -211 -43t-149.5 -116.5t-89 -173t-29.5 -212.5q0 -111 30.5 -210t90 -172.5t149.5 -118t209 -44.5t209 43t149.5 118t89 174t29.5 210zM881 522q0 -76 -16.5 -151.5t-54.5 -136t-99.5 -98.5t-149.5 -38t-149.5 38t-99.5 98.5t-55 136t-17 151.5 t16 153t55 136t99.5 97t150.5 38q88 0 149.5 -38t99.5 -98t54.5 -136t16.5 -152z" />
<glyph unicode="&#xf6;" d="M817 1239v188h-180v-188h180zM483 1239v188h-180v-188h180zM1038 522q0 111 -29.5 210t-90 173t-149.5 118t-208 44q-121 0 -211 -43t-149.5 -116.5t-89 -173t-29.5 -212.5q0 -111 30.5 -210t90 -172.5t149.5 -118t209 -44.5t209 43t149.5 118t89 174t29.5 210zM881 522 q0 -76 -16.5 -151.5t-54.5 -136t-99.5 -98.5t-149.5 -38t-149.5 38t-99.5 98.5t-55 136t-17 151.5t16 153t55 136t99.5 97t150.5 38q88 0 149.5 -38t99.5 -98t54.5 -136t16.5 -152z" />
<glyph unicode="&#xf7;" horiz-adv-x="1228" d="M705 862v187h-183v-187h183zM1137 485v140h-1047v-140h1047zM705 61v187h-183v-187h183z" />
<glyph unicode="&#xf8;" d="M1104 1116q-29 2 -52.5 16.5t-50.5 16.5l-145 -180q-61 53 -138 75.5t-157 22.5q-121 0 -211 -43t-149.5 -116.5t-89 -173t-29.5 -212.5q0 -98 24.5 -194.5t83.5 -175.5l-176 -218q29 -2 51.5 -16t51.5 -14l143 176q63 -55 140 -79t161 -24q119 0 209 43t149.5 118 t89 174.5t29.5 209.5q0 100 -23.5 197.5t-88.5 177.5zM768 862l-479 -590q-29 57 -39 122t-10 128q0 76 16 153t55 136t99.5 97t150.5 38q59 0 112.5 -19.5t94.5 -64.5zM881 522q0 -76 -16.5 -151.5t-54.5 -136t-99.5 -98.5t-149.5 -38q-61 0 -116.5 20.5t-96.5 67.5 l479 590q33 -59 43.5 -123.5t10.5 -130.5z" />
<glyph unicode="&#xf9;" d="M737 1186l-297 270l-118 -63l348 -246zM965 0v1042h-144v-579q0 -66 -18.5 -130.5t-55 -115.5t-92 -83t-129.5 -32q-66 0 -109.5 24t-70.5 63.5t-39 91t-12 108.5v653h-143v-653q0 -90 19 -166t61 -130t110 -85t166 -31q113 0 195.5 60.5t130.5 161.5l2 -199h129z" />
<glyph unicode="&#xfa;" d="M797 1393l-119 63l-297 -270l68 -39zM965 0v1042h-144v-579q0 -66 -18.5 -130.5t-55 -115.5t-92 -83t-129.5 -32q-66 0 -109.5 24t-70.5 63.5t-39 91t-12 108.5v653h-143v-653q0 -90 19 -166t61 -130t110 -85t166 -31q113 0 195.5 60.5t130.5 161.5l2 -199h129z" />
<glyph unicode="&#xfb;" d="M877 1182l-267 274h-82l-264 -274l121 -8l184 167l187 -167zM965 0v1042h-144v-579q0 -66 -18.5 -130.5t-55 -115.5t-92 -83t-129.5 -32q-66 0 -109.5 24t-70.5 63.5t-39 91t-12 108.5v653h-143v-653q0 -90 19 -166t61 -130t110 -85t166 -31q113 0 195.5 60.5 t130.5 161.5l2 -199h129z" />
<glyph unicode="&#xfc;" d="M819 1239v188h-180v-188h180zM485 1239v188h-180v-188h180zM965 0v1042h-144v-579q0 -66 -18.5 -130.5t-55 -115.5t-92 -83t-129.5 -32q-66 0 -109.5 24t-70.5 63.5t-39 91t-12 108.5v653h-143v-653q0 -90 19 -166t61 -130t110 -85t166 -31q113 0 195.5 60.5t130.5 161.5 l2 -199h129z" />
<glyph unicode="&#xfd;" horiz-adv-x="884" d="M676 1393l-119 63l-297 -270l68 -39zM883 1042h-138l-294 -833l-287 833h-152l367 -1038q-12 -45 -27.5 -96t-40 -94t-62.5 -72t-95 -29q-23 0 -50.5 6.5t-50.5 10.5l-6 -121q72 -16 137 -17q59 0 104.5 25t79 64.5t57.5 89t40 98.5z" />
<glyph unicode="&#xfe;" d="M1044 520q0 102 -22.5 200.5t-73.5 175.5t-132 124t-200 47q-115 0 -191.5 -62.5t-125.5 -158.5v627h-143v-1858h143v555q47 -96 131 -144.5t188 -48.5q113 0 194 48.5t133 125t75.5 174t23.5 195.5zM885 514q0 -72 -13.5 -145.5t-46 -133t-90 -97.5t-143.5 -38 q-72 0 -126 33t-91 85t-56.5 116.5t-19.5 128.5v135q0 61 20.5 122.5t59.5 111t93 80t120 30.5q86 0 143.5 -40t90 -103.5t46 -139t13.5 -145.5z" />
<glyph unicode="&#xff;" horiz-adv-x="884" d="M698 1239v188h-180v-188h180zM365 1239v188h-181v-188h181zM883 1042h-138l-294 -833l-287 833h-152l367 -1038q-12 -45 -27.5 -96t-40 -94t-62.5 -72t-95 -29q-23 0 -50.5 6.5t-50.5 10.5l-6 -121q72 -16 137 -17q59 0 104.5 25t79 64.5t57.5 89t40 98.5z" />
<glyph unicode="&#x152;" horiz-adv-x="1931" d="M1845 0v137h-659v533h549v133h-549v477h635v137h-791v-74q-154 90 -330 91q-158 0 -270.5 -60.5t-185 -162t-107.5 -232.5t-35 -272t35 -272.5t108.5 -232t187.5 -159.5t272 -59q51 0 92 5t77.5 16t74.5 28.5t81 42.5v-76h815zM1028 289q0 -49 -35 -83t-84 -54.5 t-103 -28.5t-93 -8q-127 0 -212 52t-137.5 136t-75 189.5t-22.5 214.5t22.5 215t75 191t137.5 137.5t212 52.5q35 0 88 -8.5t104 -27t87 -49t36 -75.5v-854z" />
<glyph unicode="&#x153;" horiz-adv-x="1812" d="M1726 518q0 102 -20 201.5t-69.5 176.5t-130.5 124t-199 47q-117 0 -214.5 -52t-156.5 -153q-59 106 -165.5 155.5t-225.5 49.5q-121 0 -209 -44t-146.5 -119t-87 -173t-28.5 -209t28.5 -209t87 -172.5t146.5 -119t209 -44.5q119 0 221 47.5t172 145.5q141 -193 387 -193 q47 0 114.5 12.5t129 26t105.5 25.5l44 12l-32 94l-37 -8t-89.5 -18t-110.5 -18.5t-103 -8.5q-90 0 -155 33t-106 88t-61 128t-25 153h719q2 2 5 11t3 11zM1563 625v-15h-562q6 63 28 124t59.5 109t91 77.5t125.5 29.5t121 -27.5t79.5 -73.5t44 -104.5t13.5 -119.5zM866 522 q0 -76 -16 -151.5t-54 -136t-98.5 -98.5t-148.5 -38t-148.5 38t-98.5 98.5t-54.5 136t-16.5 151.5t16.5 152t54.5 136t98.5 98t148.5 38t148.5 -38t98.5 -98t54 -136t16 -152z" />
<glyph unicode="&#x160;" horiz-adv-x="1144" d="M881 1786l-121 8l-189 -168l-186 168l-121 -8l266 -275h82zM1042 375q0 129 -55 206.5t-139 126t-180.5 78t-180.5 64.5t-139 85t-55 138q0 63 26.5 107.5t69.5 73t96.5 42t108.5 13.5q43 0 103.5 -18.5t114.5 -40t93 -40.5l39 -18l45 115l-39 21q-39 20 -97 45.5 t-127 46t-128 20.5q-84 0 -166 -22.5t-147.5 -68.5t-106.5 -116t-41 -164q0 -121 55.5 -194.5t138.5 -120.5t179 -79t179 -69t138.5 -90t55.5 -143q0 -66 -30 -115t-76 -81t-104.5 -48t-115.5 -16q-49 0 -117.5 24.5t-130 54t-104.5 54.5l-43 24l-58 -106l44 -29 q45 -29 110.5 -64.5t144 -64.5t146.5 -29q88 0 177 25t158.5 74t113.5 124t44 175z" />
<glyph unicode="&#x161;" horiz-adv-x="927" d="M776 1436l-121 8l-188 -168l-186 168l-121 -8l266 -275h82zM844 289q0 96 -44 154.5t-109.5 93t-143.5 55t-143.5 44t-109.5 57.5t-44 93q0 49 19.5 80t50 48.5t69.5 24.5t80 7q37 0 85 -8t90 -17.5t72 -16.5l29 -7l37 96l-28 11q-29 12 -75 26t-101.5 25.5t-108.5 11.5 q-68 0 -133.5 -16.5t-116.5 -51t-83 -89t-32 -132.5q0 -94 43 -148.5t109 -88t141.5 -54t141 -45t108.5 -62.5t43 -106q0 -47 -25.5 -80.5t-65.5 -55t-86 -31t-85 -9.5q-45 0 -101.5 7.5t-105.5 16.5t-83 17l-34 8l-32 -94l40 -12q40 -12 97 -25.5t120.5 -26t110.5 -12.5 q74 0 145.5 17.5t129 54.5t93.5 96.5t36 143.5z" />
<glyph unicode="&#x178;" horiz-adv-x="1200" d="M858 1589v189h-180v-189h180zM524 1589v189h-180v-189h180zM1184 1417h-156l-412 -674l-407 674h-186l503 -815v-602h158v598z" />
<glyph unicode="&#x192;" horiz-adv-x="1183" d="M1018 715q0 33 -23.5 56.5t-56.5 23.5t-56.5 -23.5t-23.5 -56.5t23.5 -56.5t56.5 -23.5t56.5 23.5t23.5 56.5zM1106 1489q-29 8 -55.5 15t-55.5 7q-78 0 -139 -25.5t-106 -70.5t-75 -106.5t-44 -132.5l-33 -160h-223l-8 -115h208l-153 -848q-10 -51 -23.5 -105 t-38 -100.5t-65.5 -76t-105 -29.5q-18 0 -39.5 3t-39.5 7l-27 -117q25 -4 53.5 -8t52.5 -4q96 0 161 33t107 88t65.5 129t39.5 156l162 872h256l10 115h-243q10 55 22 120.5t36.5 123t69 95.5t117.5 38q18 0 44 -6.5t44 -10.5zM356 748q0 33 -22.5 56t-54.5 23 q-33 0 -56.5 -23.5t-23.5 -55.5q0 -33 23.5 -56.5t56.5 -23.5t56 23.5t23 56.5h-2zM616 -375q0 33 -23.5 56.5t-55.5 23.5q-33 0 -56.5 -23.5t-23.5 -56.5t23.5 -56.5t56.5 -23.5t56 23.5t23 56.5z" />
<glyph unicode="&#x2c6;" horiz-adv-x="712" d="M666 1182l-267 274h-82l-264 -274l121 -8l184 167l187 -167z" />
<glyph unicode="&#x2dc;" horiz-adv-x="733" d="M684 1384l-80 33q-23 -35 -46 -52t-66 -17q-33 0 -64 12t-60.5 25.5t-61.5 25.5t-68 12q-72 0 -120 -44t-77 -105l82 -33q20 35 45 52.5t65 17.5q33 0 64 -12.5t61.5 -25.5t61.5 -25.5t67 -12.5q72 0 120 43t77 106z" />
<glyph unicode="&#x2013;" horiz-adv-x="1024" d="M1026 471v135h-1026v-135h1026z" />
<glyph unicode="&#x2014;" horiz-adv-x="2048" d="M2050 471v135h-2050v-135h2050z" />
<glyph unicode="&#x2018;" horiz-adv-x="604" d="M440 1374l-80 58q-33 -39 -66.5 -98.5t-60 -125t-44 -131t-17.5 -116.5v-31q0 -12 2 -29h199q0 119 19 238.5t48 234.5z" />
<glyph unicode="&#x2019;" horiz-adv-x="593" d="M440 1372v29q0 14 -2 31h-198q0 -119 -19.5 -239t-48.5 -235l80 -57q33 39 66.5 98.5t60.5 125t44 130t17 117.5z" />
<glyph unicode="&#x201a;" horiz-adv-x="567" d="M420 143v29q0 14 -2 31h-199q0 -119 -19.5 -239t-47.5 -234l79 -58q33 39 67 98.5t60.5 125t44 130t17.5 117.5z" />
<glyph unicode="&#x201c;" horiz-adv-x="1042" d="M850 1374l-80 58q-33 -39 -66.5 -98.5t-60.5 -125t-44 -131t-17 -116.5v-31q0 -12 2 -29h198q0 119 19.5 238.5t48.5 234.5zM440 1374l-80 58q-33 -39 -66.5 -98.5t-60 -125t-44 -131t-17.5 -116.5v-31q0 -12 2 -29h199q0 119 19 238.5t48 234.5z" />
<glyph unicode="&#x201d;" horiz-adv-x="1042" d="M850 1372v29q0 14 -2 31h-199q0 -119 -19.5 -239t-47.5 -235l80 -57q33 39 66.5 98.5t60 125t44 130t17.5 117.5zM440 1372v29q0 14 -2 31h-198q0 -119 -19.5 -239t-48.5 -235l80 -57q33 39 66.5 98.5t60.5 125t44 130t17 117.5z" />
<glyph unicode="&#x201e;" horiz-adv-x="1042" d="M829 143v29q0 14 -2 31h-198q0 -119 -19.5 -239t-48.5 -234l80 -58q33 39 66.5 98.5t60.5 125t44 130t17 117.5zM420 143v29q0 14 -2 31h-199q0 -119 -19.5 -239t-47.5 -234l79 -58q33 39 67 98.5t60.5 125t44 130t17.5 117.5z" />
<glyph unicode="&#x2020;" horiz-adv-x="1183" d="M1036 889q-4 18 -7 36.5t-3 37.5q0 18 3 38.5t7 38.5l-389 -32l43 409q-25 -4 -50.5 -8t-49.5 -4q-23 0 -48.5 4t-47.5 8l43 -409l-390 32q4 -18 7.5 -38.5t3.5 -38.5t-3 -37t-8 -37l390 33q-2 -6 -8.5 -34t-13.5 -59.5t-13 -57.5t-6 -28q0 -35 5 -71.5t9 -71.5 q4 -74 8 -147.5t6 -147.5l13 -477h110l12 479q2 74 6.5 146.5t8.5 146.5q4 35 9 72t5 71q0 2 -6 28t-13 57.5t-13.5 59t-8.5 34.5z" />
<glyph unicode="&#x2021;" horiz-adv-x="1183" d="M1038 492q-4 18 -7 36.5t-3 36.5t3 39t7 39l-391 -33q4 39 11.5 81t7.5 81q0 41 -7.5 87t-11.5 87l391 -33q-4 18 -7 37t-3 37t3 39t7 39l-391 -33l31 385q-20 -4 -43 -10t-43 -6t-43 6t-43 10l31 -385l-392 33q4 -18 7.5 -38.5t3.5 -39.5q0 -18 -3 -36.5t-8 -37.5 l392 33q-4 -41 -11.5 -87t-7.5 -87q0 -39 7 -81t12 -81l-392 33q4 -18 7.5 -38.5t3.5 -39.5q0 -18 -3 -36.5t-8 -36.5l392 32q-16 -31 -29.5 -67.5t-13.5 -71.5q0 -47 6 -96t10 -96l33 -365h98l33 367q4 47 10 97t6 97q0 35 -13 70t-30 65z" />
<glyph unicode="&#x2022;" horiz-adv-x="1124" d="M731 748q0 43 -15.5 79.5t-43 64.5t-64.5 43t-80 15q-86 0 -144 -58t-58 -144q0 -43 15 -80t43 -65t64.5 -43t79.5 -15q86 0 144.5 58.5t58.5 144.5z" />
<glyph unicode="&#x2026;" horiz-adv-x="2048" d="M1806 0v201h-196v-201h196zM1124 0v201h-196v-201h196zM442 0v201h-196v-201h196z" />
<glyph unicode="&#x2030;" horiz-adv-x="2088" d="M2007 348q0 66 -14.5 130.5t-46 115.5t-85 83t-128.5 32q-80 0 -133.5 -31t-85 -82t-45 -116.5t-13.5 -133.5t13.5 -133.5t46 -115.5t86 -81.5t131.5 -31.5q76 0 129 32.5t84.5 85t46 116.5t14.5 130zM1880 346q0 -35 -5 -80t-20.5 -85t-44 -67.5t-75.5 -27.5 q-49 0 -80 26.5t-46.5 65.5t-20.5 85t-5 83t5 82t20.5 85t44 67.5t78.5 27.5q49 0 78.5 -27.5t45 -67.5t20.5 -85t5 -82zM1231 1440h-135l-891 -1463h133zM621 1073q0 66 -14.5 130.5t-46.5 115.5t-85 83t-129 32q-80 0 -133 -31t-85 -82t-45 -116.5t-13 -133.5 q0 -66 13 -131.5t46 -117.5t85 -83.5t130 -31.5q76 0 129 32.5t86 85t47.5 117.5t14.5 131zM494 1071q0 -35 -5.5 -81t-20.5 -86t-44 -67.5t-76 -27.5q-49 0 -79.5 26.5t-46 66.5t-20.5 86t-5 83t5 82t20.5 85t44 67.5t75.5 27.5q49 0 80 -26.5t46 -66.5t20.5 -86t5.5 -83z M1323 348q0 66 -14.5 130.5t-46 115.5t-85 83t-128.5 32q-80 0 -133.5 -31t-85 -82t-45 -116.5t-13.5 -133.5t13.5 -133.5t46 -115.5t86 -81.5t131.5 -31.5q76 0 129 32.5t84.5 85t46 116.5t14.5 130zM1196 346q0 -35 -5 -80t-20.5 -85t-44 -67.5t-75.5 -27.5 q-49 0 -80 26.5t-46.5 65.5t-20.5 85t-5 83t5 82t20.5 85t44 67.5t78.5 27.5q49 0 78.5 -27.5t45 -67.5t20.5 -85t5 -82z" />
<glyph unicode="&#x2039;" horiz-adv-x="550" d="M449 182l-195 357l195 356h-109l-229 -350v-13l229 -350h109z" />
<glyph unicode="&#x203a;" horiz-adv-x="550" d="M440 532v13l-225 350h-109l191 -356l-191 -357h109z" />
<glyph unicode="&#x2122;" horiz-adv-x="1878" d="M1778 571v846h-203l-242 -665l-243 665h-199v-846h119v740l274 -740h90l275 740v-740h129zM731 1317v100h-631v-100h250v-746h129v746h252z" />
<glyph unicode="&#xe000;" horiz-adv-x="1044" d="M0 1044h1044v-1044h-1044v1044z" />
<glyph unicode="&#xe001;" horiz-adv-x="591" />
<glyph unicode="&#xe002;" horiz-adv-x="1024" />
<glyph unicode="&#xe004;" horiz-adv-x="1024" />
<glyph unicode="&#xe005;" horiz-adv-x="1024" />
<glyph unicode="&#xe006;" horiz-adv-x="1024" />
<glyph unicode="&#xe007;" horiz-adv-x="1024" />
<glyph unicode="&#xe008;" horiz-adv-x="1024" />
<glyph unicode="&#xe009;" horiz-adv-x="1228" d="M1137 485v140h-1047v-140h1047z" />
<glyph unicode="&#xe00a;" horiz-adv-x="1024" />
<glyph unicode="&#xe00b;" horiz-adv-x="1024" />
<glyph unicode="&#xe00c;" horiz-adv-x="1024" />
<glyph unicode="&#xe00d;" horiz-adv-x="1228" d="M1137 283v139h-508l108 266h400v139h-342l92 226h-139l-93 -226h-565v-139h508l-109 -266h-399v-139h342l-92 -226h139l92 226h566z" />
<glyph unicode="&#xe00e;" horiz-adv-x="1460" d="M1411 541q0 59 -23.5 111.5t-63.5 91t-92 61t-112 22.5q-61 0 -114.5 -18t-100.5 -49t-90 -70t-84 -78q-41 39 -84 78t-91 70t-101.5 49t-112.5 18t-111.5 -22.5t-92.5 -61t-63.5 -91t-23.5 -111.5t23.5 -111.5t63.5 -91.5t92.5 -61.5t111.5 -22.5q57 0 110.5 19.5 t102.5 50t92 69.5t84 76q39 -37 83 -76t93 -69.5t101.5 -50t111.5 -19.5t111.5 22.5t92.5 61.5t63.5 91.5t23.5 111.5zM1307 541q0 -86 -51.5 -134.5t-135.5 -48.5q-47 0 -91 16.5t-83 42t-72.5 58.5t-64.5 66q31 33 65.5 65.5t73.5 58t82 42t90 16.5q76 0 131.5 -52 t55.5 -130zM653 541q-31 -33 -65.5 -66t-73.5 -58.5t-82 -42t-90 -16.5q-86 0 -136 48.5t-50 134.5q0 78 55 130t131 52q47 0 91 -16.5t83 -42t72.5 -58t64.5 -65.5z" />
<glyph unicode="&#xe00f;" horiz-adv-x="1228" d="M1126 193v131l-847 362l847 363v131l-1022 -447v-94zM1126 0v121h-1022v-121h1022z" />
<glyph unicode="&#xe010;" horiz-adv-x="1228" d="M1126 639v94l-1022 447v-131l848 -363l-848 -362v-131zM1126 0v121h-1022v-121h1022z" />
<glyph unicode="&#xe011;" horiz-adv-x="1011" d="M946 805q0 121 -31.5 250t-98 235.5t-170 175t-245.5 68.5q-74 0 -138 -18.5t-130 -47.5l80 -102q55 29 112.5 48.5t120.5 19.5q102 0 169 -51.5t105 -129t53 -169t15 -173.5q0 -57 -6 -114.5t-16 -112.5q-72 61 -140.5 100t-166.5 39q-92 0 -167 -40t-128 -105.5 t-82 -148.5t-29 -169q0 -88 28 -165.5t97 -135.5q57 -47 123 -74.5t139 -27.5q96 0 172 42t131.5 110.5t94.5 156.5t63.5 182.5t34.5 187.5t10 169zM750 612q-6 -47 -15.5 -109.5t-25 -128t-40 -130t-60.5 -114.5t-84 -81t-111 -31q-55 0 -91 28t-56.5 70t-29 92t-8.5 95 q0 86 20.5 170t74.5 152q39 47 89 82.5t115 35.5q72 0 127.5 -36t94.5 -95z" />
<glyph unicode="&#xe012;" horiz-adv-x="1572" d="M1507 0v332h-30q-8 -35 -16.5 -58.5t-23 -38t-37 -21.5t-59.5 -7h-323l4 57q98 23 180 74t140.5 124t91 163t32.5 192q0 143 -56 254t-149.5 185.5t-216 113.5t-256.5 39q-133 0 -255.5 -39t-216 -113.5t-149.5 -185t-56 -254.5q0 -106 30.5 -197.5t88 -162t140.5 -120.5 t185 -73l4 -57h-323q-37 0 -60.5 7t-37 21.5t-21.5 38t-17 58.5h-30v-332h604l-33 311q-84 23 -140.5 77t-90 125t-47 151.5t-13.5 158.5q0 106 24.5 201.5t77 166.5t135.5 111.5t201 40.5q117 0 201 -41.5t136.5 -112.5t77 -165t24.5 -201q0 -78 -14.5 -157.5t-48.5 -149.5 t-90 -124t-138 -81l-33 -311h604z" />
<glyph unicode="&#xe013;" horiz-adv-x="1124" d="M1055 1868l-72 10l-260 -1634l-404 825l-299 -147l33 -68l197 96l498 -1028z" />
<glyph unicode="&#xe014;" horiz-adv-x="1228" d="M1122 805l-98 76q-33 -49 -81 -80t-107 -31q-45 0 -101.5 16.5t-117 37t-121 37t-111.5 16.5q-94 0 -166 -44.5t-125 -117.5l99 -82q35 53 76.5 88t109.5 35q49 0 107.5 -17.5t119 -39t120.5 -39t116 -17.5q84 0 161.5 45t118.5 117zM1122 399l-98 76q-33 -49 -81 -79.5 t-107 -30.5q-45 0 -101.5 16t-117 36.5t-121 37t-111.5 16.5q-94 0 -166 -44t-125 -118l99 -82q35 53 76.5 88t109.5 35q49 0 107.5 -17.5t119 -39t120.5 -38.5t116 -17q84 0 161.5 44.5t118.5 116.5z" />
<glyph unicode="&#xe015;" horiz-adv-x="249" />
<glyph unicode="&#xe016;" horiz-adv-x="1011" d="M954 772l-397 754h-123l-397 -754l397 -772h123zM831 772l-335 -661l-336 661l336 643z" />
<glyph unicode="&#xe017;" horiz-adv-x="2131" d="M1944 305l-195 357l195 356h-109l-229 -350v-13l229 -350h109zM1944 70q0 33 -24 56.5t-56 23.5q-33 0 -56.5 -24t-23.5 -56q0 -33 23.5 -56.5t56.5 -23.5t56.5 23.5t23.5 56.5zM1546 0v670q0 82 -17.5 154.5t-56 126t-101 85t-154.5 31.5q-119 0 -204 -65.5t-126 -174.5 q-23 113 -95.5 176.5t-189.5 63.5q-121 0 -194.5 -58.5t-122.5 -162.5v196h-133v-1042h143v596q0 63 14.5 125.5t47 112t82.5 80t124 30.5q59 0 100.5 -22.5t66 -60.5t35.5 -87t11 -100v-674h144v600q0 61 14 122.5t47 111t84 80t123 30.5q57 0 98 -23.5t67.5 -61.5t38 -86 t11.5 -99v-674h143z" />
<glyph unicode="&#xe018;" horiz-adv-x="591" d="M399 514v201h-196v-201h196z" />
<glyph unicode="&#xe019;" horiz-adv-x="1183" d="M1061 1075l-103 103l-120 -121q-53 47 -119 68.5t-133 21.5q-68 0 -134.5 -23.5t-119.5 -66.5l-119 121l-102 -103l120 -119q-92 -111 -92 -254q0 -70 23.5 -135t68.5 -118l-120 -119l102 -103l119 121q53 -47 118.5 -68.5t133.5 -21.5t134 23.5t120 66.5l118 -121 l103 103l-121 119q92 111 92 253q0 70 -23.5 135.5t-68.5 118.5zM881 702q0 -61 -23.5 -115.5t-63.5 -94t-94.5 -62t-115.5 -22.5t-115.5 22.5t-94.5 62t-62.5 94t-22.5 115.5t23.5 114.5t63.5 93.5t94 63.5t116 23.5q61 0 114.5 -23.5t93.5 -63.5t63.5 -93.5t23.5 -114.5z " />
</font>
</defs>
</svg>
