<?xml version="1.0" standalone="no"?>
<!DOCTYPE svg PUBLIC "-//W3C//DTD SVG 1.1//EN" "http://www.w3.org/Graphics/SVG/1.1/DTD/svg11.dtd" >
<svg xmlns="http://www.w3.org/2000/svg">
<metadata></metadata>
<defs>
<font id="frankleinmediumregular" horiz-adv-x="1144" >
<font-face units-per-em="2048" ascent="1638" descent="-410" />
<missing-glyph horiz-adv-x="600" />
<glyph horiz-adv-x="0" />
<glyph horiz-adv-x="682" />
<glyph horiz-adv-x="726" d="M60 1282q24 -113 103.5 -163.5t199.5 -50.5q124 0 202.5 51t100.5 163l-16 22h-88q-10 0 -14 -13q-24 -50 -74 -68.5t-111 -18.5q-60 0 -107 17t-74 72q-5 11 -17 11h-85q-24 0 -20 -22z" />
<glyph horiz-adv-x="482" d="M148 1078q0 -14 17 -15h152q17 0 18 15v160q0 17 -20 18h-152q-14 0 -15 -18v-160z" />
<glyph horiz-adv-x="563" d="M88 1260q0 -82 56.5 -138.5t137.5 -56.5q39 0 75 15.5t62 42t41.5 62t15.5 75.5q0 39 -15.5 74.5t-41.5 62t-62 42t-75 15.5q-40 0 -75.5 -15.5t-61.5 -42t-41.5 -62t-15.5 -74.5zM201 1260q0 35 23 58t58 23t59 -23t24 -58q0 -34 -25 -59t-58 -25q-36 0 -58.5 24 t-22.5 60z" />
<glyph unicode="&#xa;" horiz-adv-x="747" d="M6 1074q-14 -16 8 -27l78 -32q10 -4 21 2l305 278q6 7 4 15t-13 12l-132 53q-4 2 -9 1t-9 -6zM330 1074q-14 -16 9 -27l77 -32q10 -4 21 2l305 278q6 7 4 15t-13 12l-127 53q-4 2 -10 1t-12 -6z" />
<glyph horiz-adv-x="563" d="M94 -180q0 -37 17 -65t43 -47t59.5 -27.5t63.5 -8.5q55 0 108.5 23t84.5 71v19l-25 35q-13 17 -25 5q-25 -24 -47 -35t-54 -11q-33 0 -53.5 17.5t-20.5 50.5q0 46 37 88t73 69q10 6 6 18t-16 12h-66q-29 -15 -61 -37.5t-59 -50.5t-46 -60t-19 -66z" />
<glyph horiz-adv-x="726" d="M50 1318.5q-4 -8.5 4 -16.5l257 -249q4 -4 12 -4h80l4 1t7 3l258 249q8 8 5.5 16t-15.5 11l-116 8q-8 0 -14 -4l-169 -143l-169 143q0 2 -4 3t-8 1l-118 -8q-10 -2 -14 -10.5z" />
<glyph unicode="&#xd;" horiz-adv-x="482" d="M167 18q0 -18 17 -18h115q16 0 16 18v1026q0 9 -6 14t-12 5h-115q-15 0 -15 -19v-1026z" />
<glyph horiz-adv-x="341" d="M-325 6q-4 -10 1 -19.5t15 -9.5h127q9 0 17 9l833 1455q6 8 -1 18t-17 10h-130q-6 0 -14 -8z" />
<glyph horiz-adv-x="1104" d="M100 938q0 -18 19 -19h178v-901q0 -18 16 -18h140q18 0 19 18v901h218q16 0 16 19v119q0 16 -16 17h-218v72q0 42 4 83t19 72.5t44 51.5t79 20q30 0 52 -5.5t53 -15.5q10 -5 17.5 1.5t7.5 16.5l4 117q0 16 -10 20q-70 20 -156 20q-106 0 -164.5 -41t-86.5 -105.5 t-33 -146t-5 -160.5h-178q-18 0 -19 -17v-119zM821 1287q0 -18 18 -19h149q17 0 17 19v176q0 18 -17 18h-149q-18 0 -18 -18v-176zM825 18q0 -18 19 -18h140q19 0 19 18v1039q0 16 -19 17h-140q-19 0 -19 -17v-1039z" />
<glyph horiz-adv-x="1104" d="M102 938q0 -18 19 -19h178v-901q0 -18 16 -18h143q8 0 14 6t4 14q-2 17 -2 30v32v837h218q16 0 16 19v119q0 16 -16 17h-218v84q0 37 4 74.5t19 69t41 51.5t68 20q27 0 45.5 -4.5t44.5 -14.5q8 -5 15.5 0.5t7.5 15.5l6 117q0 10 -11 17q-23 15 -53.5 19t-56.5 4 q-108 0 -169 -40t-91.5 -103.5t-37.5 -144.5t-7 -165h-178q-18 0 -19 -17v-119zM827 18q0 -18 19 -18h140q17 0 17 18v1467q0 16 -17 17h-140q-19 0 -19 -17v-1467z" />
<glyph horiz-adv-x="983" d="M23 426q0 -12 9.5 -17.5t19.5 2.5l115 95v-488q0 -18 17 -18h758q19 0 19 18v137q0 18 -19 18h-585v491l263 219q6 6 6 16v141q0 13 -10 18t-18 -3l-241 -200v572q0 18 -18 18h-155q-17 0 -17 -18v-731l-139 -114q-5 -4 -5 -14v-142z" />
<glyph horiz-adv-x="440" d="M23 576q0 -12 9.5 -17t17.5 3l86 80v-624q0 -18 17 -18h98q14 0 18 14l6 48h12q16 0 16 20v714l108 105q6 6 7 14v150q0 12 -9.5 17.5t-19.5 -2.5l-86 -81v484q0 18 -16 19h-134q-16 0 -17 -19v-641l-106 -100q-7 -7 -7 -15v-151z" />
<glyph horiz-adv-x="1085" d="M54 18q0 -18 19 -18h942q16 0 17 18v137q0 18 -17 18h-738l732 1135v127q0 19 -19 19h-892q-16 0 -16 -19v-136q0 -18 16 -19h683l-727 -1119v-143zM236.5 1810q-4.5 -10 6.5 -20l261 -273q6 -6 12 -6h80q6 0 12 6l263 273q10 10 6 20t-16 12l-117 8q-2 0 -7.5 -1 t-7.5 -3l-173 -157l-171 157q-5 4 -16 4l-116 -8q-12 -2 -16.5 -12z" />
<glyph horiz-adv-x="901" d="M56 18q0 -18 17 -18h754q19 0 19 18v118q0 18 -19 19h-552l569 796v104q0 18 -19 19h-719q-18 0 -18 -19v-117q0 -18 18 -19h510l-560 -779v-122zM129.5 1453q-4.5 -10 6.5 -20l259 -271q6 -6 12 -6h80q6 0 12 6l261 271q8 10 4 20t-14 12l-117 8q-2 0 -7.5 -1t-7.5 -3 l-171 -157l-170 157q-4 4 -14 4l-117 -8q-12 -2 -16.5 -12z" />
<glyph unicode=" "  horiz-adv-x="600" />
<glyph unicode="&#x09;" horiz-adv-x="600" />
<glyph unicode="&#xa0;" horiz-adv-x="600" />
<glyph unicode="!" horiz-adv-x="720" d="M257 1429q8 -267 21 -534t25 -534q0 -16 16 -16h86q14 0 15 16q12 267 25 534t19 534l-15 18h-176q-16 0 -16 -18zM265 18q0 -8 6 -13t14 -5h156q18 0 19 18v183q0 8 -6.5 13t-12.5 5h-159q-17 0 -17 -18v-183z" />
<glyph unicode="&#x22;" horiz-adv-x="1062" d="M297 1142q0 -39 4 -78.5t10 -79.5q4 -20 6 -39.5t4 -37.5q0 -15 18 -16h100q16 0 16 16q2 18 4.5 37t6.5 40q6 40 10 79.5t4 76.5v220q0 16 -16 17h-151q-16 0 -16 -17v-218zM580 1142q0 -39 5 -78.5t11 -79.5q4 -20 6 -39.5t4 -37.5q0 -15 16 -16h101q19 0 19 16 q0 18 2 37t6 40q6 40 11.5 79.5t5.5 76.5v220q0 16 -19 17h-150q-17 0 -18 -17v-218z" />
<glyph unicode="#" horiz-adv-x="1206" d="M71 451q0 -8 6.5 -12t12.5 -4h189l-68 -415q0 -20 21 -20h127q16 0 17 16l69 419h234l-69 -415q0 -20 18 -20h128q16 0 17 16l69 419h213q18 0 19 16v119q0 19 -21 20h-190l50 279h205q18 0 18 18v118q0 18 -20 19h-183l70 401q0 20 -21 20h-125q-17 0 -18 -16l-68 -405 h-234l69 401q0 20 -22 20h-126q-14 0 -15 -16l-69 -405h-224q-16 0 -16 -19v-118q0 -8 6 -13t13 -5h198l-48 -279h-215q-17 0 -17 -20v-119zM466 590l46 279h236l-48 -279h-234z" />
<glyph unicode="$" horiz-adv-x="1206" d="M153 165q-10 -16 8 -25q84 -46 132 -71t84.5 -38t69.5 -17t87 -6v-156q0 -18 20 -19h112q16 0 17 19v162q76 13 142 44.5t117.5 80.5t82 115.5t30.5 150.5q0 106 -37.5 177.5t-97 119.5t-133 78.5t-145.5 54.5q-57 21 -109.5 42.5t-92 49.5t-63.5 64.5t-24 90.5 q0 56 25 95t64.5 64t89.5 36.5t98 11.5q34 0 56 -1t51.5 -8.5t75.5 -23t129 -42.5q15 -4 23 10l46 105q6 18 -10 25q-76 33 -119 52t-74 28t-58 12t-69 5v132q0 18 -17 19h-112q-19 0 -20 -19v-138q-71 -12 -135 -40t-113.5 -73t-79 -107.5t-29.5 -144.5q0 -98 36 -165 t92 -113t128.5 -76t144.5 -58q56 -20 111 -43t96.5 -52.5t66.5 -69t25 -96.5q0 -60 -25 -103t-65.5 -72t-92.5 -43t-106 -14q-43 0 -69 1t-57.5 11t-79 29.5t-133.5 54.5q-4 2 -10.5 0t-6.5 -6z" />
<glyph unicode="%" horiz-adv-x="1780" d="M138 1074q0 -77 18.5 -147t58.5 -124.5t101.5 -87t149.5 -32.5q86 0 147.5 32.5t100 87t57 125.5t18.5 148q0 78 -18.5 147.5t-58.5 122.5t-101 85t-147 32q-92 0 -153.5 -32t-100.5 -85t-55.5 -123t-16.5 -149zM301 1074q0 42 6 86t25 79t50.5 58t81.5 23t81 -23t49 -58 t25 -79t7 -86q0 -40 -7 -83.5t-26 -79.5t-50 -60t-79 -24q-50 0 -81.5 23t-50.5 59t-25 79.5t-6 85.5zM385 6q-5 -10 0.5 -19.5t17.5 -9.5h134q6 0 15 9l883 1455q8 8 2 18t-18 10h-134q-8 0 -17 -8zM994 374q0 -77 19 -148t59 -124.5t101 -85.5t147 -32t147.5 32t100 86.5 t57.5 125.5t19 146q0 78 -19 148t-58.5 123t-101 85.5t-147.5 32.5q-90 0 -151.5 -31.5t-100 -84.5t-55.5 -123.5t-17 -149.5zM1158 374q0 40 6 84t24 80t49 59t81 23t81.5 -23t50.5 -58t25 -79t6 -86q0 -39 -7 -83t-25 -80t-49.5 -59.5t-79.5 -23.5q-50 0 -81 22.5 t-50 58.5t-25 80t-6 85z" />
<glyph unicode="&#x26;" horiz-adv-x="1405" d="M73 397q0 -102 41 -180.5t108 -131.5t154.5 -80.5t181.5 -27.5q129 0 221 38.5t184 124.5q25 -32 45 -52.5t47 -42.5t72 -54.5t120 -84.5q15 -10 25 4l61 92q8 16 -4 26q-62 56 -101.5 89t-64.5 56.5t-44.5 42t-46.5 47.5q88 108 139 241.5t67 270.5q0 17 -18 21l-132 15 q-18 4 -19 -17q-15 -107 -49 -215.5t-95 -196.5q-82 96 -158 194.5t-151 198.5q64 28 121.5 64t101.5 84t69 108.5t25 138.5q0 75 -29 131.5t-78 94t-112.5 56.5t-131.5 19q-71 0 -136.5 -22t-116 -64t-80.5 -101.5t-30 -137.5q0 -91 47 -173t101 -148q-73 -27 -133.5 -65.5 t-105.5 -91t-70 -120.5t-25 -151zM265 411q0 54 20 100.5t52 81.5t75 63.5t92 47.5l361 -441q-60 -58 -137.5 -93.5t-165.5 -35.5q-60 0 -114.5 19.5t-95.5 55.5t-64 88t-23 114zM437 1151q0 75 55.5 119t125.5 44q82 0 132 -43t50 -129q0 -50 -21 -87.5t-54 -67.5t-75 -53 t-82 -43q-46 55 -88.5 123t-42.5 137z" />
<glyph unicode="'" horiz-adv-x="602" d="M219 1142q0 -39 6.5 -78.5t10.5 -79.5q2 -20 4.5 -39.5t2.5 -37.5q4 -15 16 -16h88q14 0 14 16q2 18 4 37t7 40q4 40 8.5 79.5t4.5 76.5v220q0 16 -18 17h-131q-17 0 -17 -17v-218z" />
<glyph unicode="(" horiz-adv-x="602" d="M88 598q0 -276 115 -538q42 -94 89 -187.5t107 -181.5q4 -8 15 -8h90q10 0 15 9t-3 19q-54 84 -92.5 178.5t-74.5 188.5q-46 125 -71 255.5t-25 264.5q0 133 25 264.5t71 257.5q36 94 74.5 187.5t92.5 177.5q8 10 3 20t-15 10h-90q-10 0 -15 -8q-60 -88 -107 -181.5 t-89 -189.5q-115 -259 -115 -538z" />
<glyph unicode=")" horiz-adv-x="602" d="M85 -308q5 -9 15 -9h92q8 0 13 8q60 88 108 181.5t90 187.5q58 130 85.5 264t27.5 274q0 142 -27 276.5t-86 261.5q-42 96 -90 189.5t-108 181.5q-4 8 -13 8h-92q-10 0 -15 -10t3 -20q54 -84 93.5 -177.5t75.5 -187.5q46 -126 70 -257.5t24 -264.5q0 -134 -24 -264.5 t-70 -255.5q-36 -94 -75.5 -188.5t-93.5 -178.5q-8 -10 -3 -19z" />
<glyph unicode="*" horiz-adv-x="1206" d="M215 864q-2 -7 2 -13l58 -103q11 -19 26 -8l238 149l-11 -279q0 -18 20 -18h114q16 0 17 18l-11 279l239 -149q14 -11 26 8l57 103q4 6 2 13t-10 11l-247 130l247 129q8 4 10 11.5t-2 14.5l-57 104q-12 16 -26 6l-239 -148l11 279q0 17 -17 18h-114q-19 0 -20 -18 l11 -279l-238 148q-12 10 -26 -6l-58 -104q-4 -6 -2 -14t10 -12l247 -129l-247 -130q-8 -4 -10 -11z" />
<glyph unicode="+" horiz-adv-x="1252" d="M92 502q0 -19 19 -20h430v-430q0 -18 19 -18h136q18 0 18 18v430h428q19 0 20 20v136q0 18 -22 18h-428v424q0 16 -18 16h-136q-18 0 -19 -16v-424h-431q-16 0 -16 -18v-136z" />
<glyph unicode="," horiz-adv-x="602" d="M165 -236q-4 -10 8 -19l72 -54q12 -12 20 2q32 38 62 95t55 121.5t41 129t16 116.5v29q0 14 -2 29q0 14 -17 14h-177q-17 0 -18 -16q0 -111 -17.5 -225t-42.5 -222z" />
<glyph unicode="-" horiz-adv-x="580" d="M48 548q0 -15 16 -16h450q18 0 18 16v108q0 14 -18 14h-450q-16 0 -16 -14v-108z" />
<glyph unicode="." horiz-adv-x="602" d="M201 16q0 -8 6 -12t12 -4h170q14 0 14 16v172q0 16 -16 17h-170q-16 0 -16 -17v-172z" />
<glyph unicode="/" horiz-adv-x="829" d="M-18 -40q-4 -8 1 -16t15 -8h134q12 0 12 10l704 1497q4 11 -2.5 19.5t-16.5 8.5h-131q-15 0 -15 -10z" />
<glyph unicode="0" horiz-adv-x="1206" d="M94 723q0 -123 23 -254.5t81.5 -239.5t156.5 -176.5t249 -68.5q150 0 249.5 68.5t157 176.5t80.5 239.5t23 254.5q0 124 -23 255t-80.5 238.5t-157 177t-249.5 69.5t-248.5 -69.5t-157 -177t-81.5 -239t-23 -254.5zM289 723q0 82 10 182t43.5 186.5t95 146t166.5 59.5 q106 0 168.5 -58.5t95.5 -145t43 -186.5t10 -184h-2q0 -81 -10 -180.5t-44 -187.5t-96.5 -147.5t-164.5 -59.5q-106 0 -168 58.5t-95.5 146.5t-42.5 188.5t-9 181.5z" />
<glyph unicode="1" horiz-adv-x="1206" d="M241 1086l60 -102q6 -14 24 -4q70 52 137.5 104t131.5 116v-1060h-183q-18 0 -18 -19v-103q0 -18 21 -18h539q16 0 16 18v103q0 9 -6 14t-12 5h-172v1287q-4 18 -21 18h-123q-10 0 -11 -6q-79 -87 -179 -174t-200 -151q-17 -12 -4 -28z" />
<glyph unicode="2" horiz-adv-x="1206" d="M130 18q0 -18 20 -18h909q18 0 19 18l-4 132q0 18 -19 19h-668l380 355q52 50 104 109t95 126.5t69 140.5t26 153q0 102 -38.5 178.5t-102 127.5t-148.5 77.5t-176 26.5q-278 0 -437 -237q-2 -4 -2 -12t6 -12l94 -90q12 -14 28 4q54 88 135.5 132.5t181.5 44.5 q52 0 99 -17.5t83.5 -51.5t57.5 -78.5t21 -101.5q0 -60 -21 -114.5t-55 -102.5q-41 -62 -104 -134.5t-137 -146.5t-152.5 -146t-148.5 -137q-30 -27 -58 -51t-51 -47q0 -2 -3 -6t-3 -9v-132z" />
<glyph unicode="3" horiz-adv-x="1206" d="M113 163q-4 -16 6 -23q98 -58 153.5 -91t97 -47t81.5 -16t107 -2q96 0 192 25t172.5 76t124 132t47.5 194q0 132 -67.5 223t-182.5 126q100 40 163 122.5t63 199.5q0 102 -41 174.5t-108.5 118.5t-152.5 67t-172 21q-130 0 -227.5 -41t-193.5 -131q-12 -10 -2 -25l82 -92 q10 -12 24 -2q74 64 144 93.5t171 29.5q48 0 99 -12.5t91.5 -38.5t66.5 -67t26 -97q0 -90 -44 -139.5t-109.5 -73t-143.5 -29t-148 -5.5h-33q-19 0 -19 -18v-130q0 -18 19 -19h38q69 0 150 -4t151.5 -27t117.5 -73t47 -142q0 -73 -30.5 -124t-78.5 -82.5t-110 -46 t-126 -14.5q-48 0 -78.5 2t-66 14.5t-88 40.5t-143.5 79q-9 4 -15 1t-10 -11z" />
<glyph unicode="4" horiz-adv-x="1206" d="M62 345q0 -19 20 -20h658v-307q0 -18 18 -18h151q18 0 18 18v307h199q18 0 18 20v127q0 19 -18 19h-199v936q0 18 -18 18h-195q-10 0 -14 -8l-638 -961v-131zM269 491l471 735v-735h-471z" />
<glyph unicode="5" horiz-adv-x="1206" d="M134 159q-13 -16 4 -27q89 -57 142 -86.5t90 -43.5t74.5 -16t98.5 -2q111 0 207 32t168 94.5t114 154.5t42 211q0 112 -35.5 198t-98.5 146.5t-150.5 93.5t-193.5 33q-134 0 -251 -74l16 399h612q18 0 19 17l9 136q0 20 -19 20h-767q-18 0 -18 -18l-28 -733q0 -13 13 -17 l67 -15q8 0 16 4q62 60 137.5 85.5t163.5 25.5q72 0 130 -18.5t100.5 -56.5t66.5 -93t24 -131q0 -79 -26 -140t-71.5 -102.5t-109.5 -63.5t-139 -22q-46 0 -73 2.5t-56.5 12.5t-69 33t-110.5 67q-13 8 -23 -6z" />
<glyph unicode="6" horiz-adv-x="1206" d="M102 677q0 -129 23 -253.5t81.5 -222t159 -157.5t252.5 -60q104 0 193.5 35t155 98t102 152t36.5 195q0 104 -32.5 193t-92 152.5t-144 99.5t-190.5 36q-114 0 -205.5 -48.5t-151.5 -138.5q4 100 26 196.5t71 172t127.5 121t194.5 45.5q36 0 57.5 -1t47.5 -9.5t67 -25 t112 -47.5q17 -8 25 8l53 115v6q0 13 -11 17q-38 18 -58.5 27.5t-34 16t-23.5 12t-24 11.5q-44 23 -101.5 31.5t-107.5 8.5q-173 0 -289 -67t-187 -177t-101.5 -251t-30.5 -291zM311 484q0 65 28 118.5t73.5 92t102.5 59.5t118 21q70 0 123 -24t89 -65.5t55 -99t19 -124.5 t-22 -123.5t-61.5 -98t-95 -64.5t-122.5 -23q-71 0 -127 25t-96 70t-62 105.5t-22 130.5z" />
<glyph unicode="7" horiz-adv-x="1206" d="M140 1293q0 -20 19 -21h696q-176 -293 -305.5 -606t-202.5 -643q-2 -10 4 -16.5t16 -6.5h163q17 0 18 14q73 345 203 667t314 623l3 10v113q0 18 -21 18h-882q-16 0 -17 -16z" />
<glyph unicode="8" horiz-adv-x="1206" d="M86 380q0 -104 48 -179.5t123.5 -123t167 -70.5t179.5 -23q92 0 183.5 23t166 70.5t121.5 125t47 186.5q0 75 -25 133t-67 104t-97.5 80t-113.5 59q48 25 93 58.5t79.5 75t55.5 92.5t21 112q0 98 -40 166t-104.5 111t-146 63t-165.5 20q-80 0 -163.5 -20t-151 -64 t-111.5 -111.5t-44 -164.5q0 -134 67.5 -214t170.5 -135q-60 -26 -113.5 -60t-93 -80t-63.5 -104.5t-24 -129.5zM273 387q0 60 31 106t77.5 80.5t103 56.5t109.5 36q52 -16 111.5 -40t109.5 -60t83 -82.5t33 -107.5q0 -62 -30 -106.5t-77 -71.5t-104.5 -39.5t-111.5 -12.5 q-56 0 -114.5 12.5t-107.5 42t-81 74t-32 112.5zM333 1105q0 52 27 88.5t68.5 59.5t90.5 34.5t93 11.5q46 0 95 -11.5t89.5 -35.5t65.5 -61.5t25 -91.5q0 -55 -27 -96.5t-69.5 -72.5t-91.5 -53t-93 -38q-46 15 -94 39.5t-87.5 56.5t-65.5 75t-26 95z" />
<glyph unicode="9" horiz-adv-x="1206" d="M102 984q0 -104 31.5 -192t91.5 -152t144 -99t191 -35q108 0 201.5 44t157.5 131q-6 -100 -29 -195t-71 -170t-127.5 -120.5t-194.5 -45.5q-40 0 -64 1.5t-52 6.5t-69 15.5t-113 31.5q-14 0 -22 -13l-33 -92q-6 -14 6 -22q71 -36 113 -55t74 -28t67 -10t91 -1 q173 0 290.5 66.5t188 176.5t101 252t30.5 292q0 128 -24 251.5t-82.5 221t-158.5 158.5t-250 61q-104 0 -193.5 -35t-155.5 -97.5t-102.5 -151.5t-36.5 -195zM291 977q0 67 21 125t60 100.5t94.5 66.5t123.5 24q64 0 122.5 -20.5t102.5 -72.5q18 -21 33 -51.5t26 -65 t17 -68t6 -60.5q0 -60 -27.5 -113t-72.5 -90.5t-100 -58.5t-113 -21q-137 0 -215 83.5t-78 221.5z" />
<glyph unicode=":" horiz-adv-x="602" d="M201 18q0 -8 6 -13t12 -5h170q14 0 14 18v197q0 19 -16 19h-170q-16 0 -16 -19v-197zM201 846q0 -9 6 -14t12 -5h170q14 0 14 19v196q0 19 -16 19h-170q-16 0 -16 -19v-196z" />
<glyph unicode=";" horiz-adv-x="602" d="M165 -245q-4 -10 8 -18l72 -56q12 -13 20 2q32 40 62 99t55 125.5t41 134t16 121.5v29q0 14 -2 31q0 17 -17 18h-177q-17 0 -18 -20q0 -115 -17.5 -234t-42.5 -232zM211 853q0 -19 16 -20h176q16 0 17 20v198q0 18 -17 19h-176q-16 0 -16 -19v-198z" />
<glyph unicode="&#x3c;" horiz-adv-x="1252" d="M104 518q0 -12 13 -16l1007 -440q8 -4 16.5 1.5t8.5 16.5v127q0 12 -13 16l-797 341l799 341q11 4 11 16v128q0 10 -9.5 15.5t-17.5 0.5l-1007 -439q-10 -4 -11 -16v-92z" />
<glyph unicode="=" horiz-adv-x="1252" d="M92 289q0 -19 19 -20h1031q19 0 20 20v131q0 19 -22 19h-1032q-16 0 -16 -19v-131zM92 675q0 -16 19 -17h1031q19 0 20 17v134q0 16 -22 16h-1032q-16 0 -16 -16v-134z" />
<glyph unicode="&#x3e;" horiz-adv-x="1252" d="M104 80q0 -11 9.5 -16.5t20.5 -1.5l1004 440q11 4 11 16v92q0 12 -13 16l-1004 439q-11 4 -19.5 -1t-8.5 -15v-128q0 -12 13 -16l796 -341l-798 -341q-10 -6 -11 -16v-127z" />
<glyph unicode="?" horiz-adv-x="1085" d="M130 1310q-2 -6 2 -13l50 -105q4 -8 11.5 -10t13.5 2q69 44 108.5 67t67.5 33.5t56.5 12.5t74.5 2q106 0 179.5 -57.5t73.5 -171.5q0 -48 -13.5 -85.5t-36.5 -69.5t-52.5 -58t-60.5 -50q-36 -30 -71.5 -62.5t-63.5 -73.5t-46 -94t-18 -124v-90q0 -18 21 -18h136 q16 0 16 18v53q0 38 4 75t28 73q32 52 71.5 89t78.5 68h-4q38 30 74.5 60t64.5 70t45 96t17 131q0 96 -35 170t-94 122.5t-137.5 73.5t-166.5 25q-67 0 -106.5 -2t-76 -17t-81.5 -44t-124 -86q-4 -4 -6 -10zM387 18q0 -18 20 -18h177q21 0 22 18v185q0 16 -22 16h-179 q-18 0 -18 -16v-185z" />
<glyph unicode="@" horiz-adv-x="1670" d="M82 506q0 -167 65.5 -306.5t176.5 -238.5t256 -153.5t305 -54.5q59 0 131 15t140 44t125.5 69.5t88.5 95.5q10 14 -6 27l-86 50q-14 6 -24 -4q-32 -36 -78 -62t-99 -42.5t-107.5 -25t-100.5 -8.5q-121 0 -232 45t-195.5 123.5t-134.5 186t-50 230.5q0 127 49 236 t133.5 188.5t196.5 123t237 43.5q96 0 194.5 -29t177.5 -86.5t129.5 -141t50.5 -189.5q0 -82 -23 -157.5t-73 -141.5v2q-14 -21 -34.5 -43.5t-42.5 -40.5t-47 -30t-49 -12q-48 0 -49 48q0 19 15.5 74.5t39.5 126.5t50 147.5t48 136.5q10 31 20.5 55t14.5 41q4 10 -2 16.5 t-17 6.5h-140q-14 0 -18 -10l-24 -67q-31 54 -85 86.5t-118 32.5q-104 0 -190.5 -46t-149 -121.5t-97 -170.5t-34.5 -193q0 -67 20 -124t57 -99t93 -67t124 -25q60 0 122.5 29t105.5 75q24 -52 72.5 -80.5t109.5 -28.5q102 0 188.5 54.5t147.5 139.5t95.5 186.5t34.5 192.5 q0 146 -62.5 260t-165 192.5t-231 119t-260.5 40.5q-153 0 -296 -56.5t-252.5 -155.5t-175 -235t-65.5 -294zM610 393q0 56 21 121.5t58.5 120.5t90.5 91.5t117 36.5q62 0 91 -48.5t29 -106.5q0 -54 -20 -121t-56 -125.5t-87.5 -98.5t-113.5 -40q-34 0 -59 16t-41 40t-23 54 t-7 60z" />
<glyph unicode="A" horiz-adv-x="1284" d="M14 26q-2 -5 -2 -9q0 -5 3 -9q5 -8 17 -8h158q12 0 17 12l134 381h595l142 -381q4 -12 14 -12h162q10 0 15 7q3 4 3 9q0 4 -2 10l-507 1407q-4 12 -17 12h-198q-15 0 -16 -12zM403 556l241 662l235 -662h-476z" />
<glyph unicode="B" horiz-adv-x="1226" d="M142 18q0 -18 19 -18h425q94 0 184.5 22t160.5 71t111.5 125.5t41.5 184.5q0 138 -66.5 228t-184.5 132q100 38 153.5 114t53.5 199q0 102 -34.5 172t-93.5 114t-139.5 63.5t-170.5 19.5h-441q-18 0 -19 -18v-1409zM333 173v499h237q64 0 123 -13t102.5 -44t69.5 -81 t26 -123q0 -69 -28 -114.5t-72.5 -72.5t-103.5 -39t-117 -12h-237zM335 837v439h249q50 0 98.5 -10t85 -33t60 -62t23.5 -95q0 -67 -24.5 -112t-65 -73t-94 -41t-111.5 -13h-221z" />
<glyph unicode="C" horiz-adv-x="1344" d="M128 719q0 -153 43.5 -287.5t128.5 -236t207.5 -160t284.5 -58.5q71 0 114 2.5t80.5 14.5t82.5 38t123 76q13 10 5 24l-59 104q-8 16 -24 9q-70 -38 -109.5 -58t-69.5 -29.5t-61.5 -10.5t-84.5 -1q-125 0 -212.5 49.5t-143 130.5t-80.5 185.5t-25 215.5t26 214t82.5 183 t144 127.5t211.5 47.5q54 0 85.5 -2t61.5 -14.5t66.5 -38.5t103.5 -74q10 -10 23 0l86 84q8 8 8 14q0 7 -10 14q-90 70 -142.5 108.5t-92 55.5t-81 20t-111.5 3q-163 0 -287 -60t-206.5 -162.5t-125 -239t-42.5 -288.5z" />
<glyph unicode="D" horiz-adv-x="1386" d="M142 18q0 -18 21 -18h371q170 0 302.5 51t223.5 145.5t138 230t47 304.5q0 159 -43.5 290.5t-129.5 225.5t-212.5 146t-289.5 52h-409q-18 0 -19 -18v-1409zM335 173v1101h217q133 0 227 -40t154.5 -112.5t89 -175t28.5 -230.5h-2q0 -261 -136 -402t-397 -141h-181z" />
<glyph unicode="E" horiz-adv-x="1104" d="M136 18q0 -18 21 -18h796q16 0 16 18v137q0 8 -6 13t-12 5h-626v493h519q18 0 19 17v134q0 18 -21 18h-517v437h602q19 0 20 19v136q0 18 -22 18h-770q-18 0 -19 -18v-1409z" />
<glyph unicode="F" horiz-adv-x="964" d="M88 18q0 -18 20 -18h153q18 0 18 18v648h510q19 0 20 17l-5 134q0 18 -19 18h-508v437h584q16 0 16 19v136q0 18 -18 18h-753q-18 0 -18 -18v-1409z" />
<glyph unicode="G" horiz-adv-x="1445" d="M136 723q0 -161 42.5 -297.5t127.5 -236t211.5 -156t295.5 -56.5q98 0 147 11.5t78.5 31.5t51.5 48t63 62l27 -132q4 -12 20 -12h93q17 0 17 18v752q0 18 -17 19h-495q-19 0 -19 -19v-134q0 -18 19 -18h318v-281q0 -14 -11 -33t-26.5 -36.5t-32 -32t-29.5 -22.5v2 q-46 -30 -98 -42.5t-104 -12.5q-125 0 -216 47.5t-149.5 125.5t-86.5 182.5t-28 219.5q0 113 27 218t83.5 185t146 127.5t215.5 47.5q54 0 87 -2t70 -12.5t88 -34.5t142 -68q17 -8 26 8l52 103q8 17 -8 25q-100 56 -157.5 86.5t-100.5 45.5t-83 17t-106 2 q-165 0 -291.5 -57.5t-213.5 -159t-131.5 -237.5t-44.5 -292z" />
<glyph unicode="H" horiz-adv-x="1386" d="M180 18q0 -18 21 -18h154q18 0 19 18v648h641v-648q0 -18 19 -18h154q19 0 20 18v1409q0 18 -22 18h-154q-18 0 -19 -18v-585h-641v585q0 18 -19 18h-154q-18 0 -19 -18v-1409z" />
<glyph unicode="I" horiz-adv-x="502" d="M155 18q0 -18 14 -18h166q14 0 14 18v1409q0 18 -14 18h-166q-14 0 -14 -18v-1409z" />
<glyph unicode="J" horiz-adv-x="763" d="M23 28q-2 -4 -2 -7q0 -5 3 -9q6 -8 14 -10q42 -12 83.5 -21t89.5 -9q100 0 171 33t117.5 91.5t68.5 140t22 177.5v1015q0 16 -18 16h-152q-16 0 -17 -16v-1026q0 -117 -45 -186t-161 -69q-10 0 -20 -1t-18 -1t-14.5 -1t-12.5 -1q-26 0 -46 11q-17 10 -26 -11z" />
<glyph unicode="K" horiz-adv-x="1284" d="M100 18q0 -18 19 -18h154q19 0 20 18v534l135 154l539 -700q2 -6 13 -6h190q12 0 17 9q2 3 2 7q0 6 -5 14l-608 814l527 570q10 10 4 20.5t-17 10.5h-187q-8 0 -16 -6l-594 -685v673q0 18 -20 18h-154q-18 0 -19 -18v-1409z" />
<glyph unicode="L" horiz-adv-x="983" d="M98 18q0 -18 19 -18h752q16 0 16 18v137q0 18 -16 18h-580v1254q0 18 -20 18h-152q-18 0 -19 -18v-1409z" />
<glyph unicode="M" horiz-adv-x="1786" d="M171 18q0 -18 19 -18h143q18 0 18 18v1172l466 -1178q4 -12 16 -12h120q12 0 16 12l454 1176v-1170q0 -18 18 -18h155q19 0 19 18v1409q0 18 -19 18h-228q-12 0 -16 -12l-451 -1144l-458 1144q0 12 -15 12h-238q-19 0 -19 -18v-1409z" />
<glyph unicode="N" horiz-adv-x="1386" d="M161 18q0 -18 21 -18h141q17 0 18 18v1158l674 -1168q2 -4 7.5 -6t9.5 -2h178q16 0 16 18v1409q0 8 -6 13t-12 5h-143q-18 0 -18 -18v-1130l-654 1140q-4 8 -15 8h-198q-19 0 -19 -18v-1409z" />
<glyph unicode="O" horiz-adv-x="1445" d="M104 723q0 -144 36.5 -279t112 -238.5t192.5 -166t278 -62.5q159 0 276 62.5t193 166t112.5 238.5t36.5 279q0 146 -36.5 280.5t-112.5 238t-193.5 165.5t-275.5 62q-161 0 -278 -62t-192.5 -165.5t-112 -238t-36.5 -280.5zM301 723q0 98 23 200.5t73 185.5t130.5 136.5 t195.5 53.5q113 0 193.5 -53.5t130 -135.5t72.5 -184.5t23 -202.5q0 -98 -23 -200.5t-72.5 -186t-130.5 -137t-193 -53.5q-115 0 -195.5 53.5t-130.5 137t-73 185.5t-23 201z" />
<glyph unicode="P" horiz-adv-x="1104" d="M106 18q0 -18 19 -18h152q19 0 20 18v574h240q93 0 177 27t147.5 79t100.5 129.5t37 179.5q0 219 -125.5 328.5t-332.5 109.5h-416q-18 0 -19 -18v-1409zM297 763v511h253q119 0 189 -63t70 -187q0 -71 -24.5 -120t-66 -80.5t-98 -46t-121.5 -14.5h-202z" />
<glyph unicode="Q" horiz-adv-x="1445" d="M104 727q0 -146 36.5 -281t112 -239.5t192.5 -167t278 -62.5q159 0 276 62.5t193 167t112.5 239.5t36.5 281t-36.5 280.5t-112.5 238t-193.5 166.5t-275.5 63q-161 0 -278 -63t-192.5 -166.5t-112 -238t-36.5 -280.5zM301 727q0 98 23 201.5t73 187.5t130.5 137t195.5 53 q113 0 193.5 -53t130 -137t72.5 -186.5t23 -202.5t-23 -202.5t-72.5 -187t-130.5 -138t-193 -53.5q-115 0 -195.5 53.5t-130.5 138t-73 186.5t-23 203zM685 -207q-1 -3 -1 -5q0 -12 16 -15l516 -98q3 -1 6 -1q13 0 16 15l22 106q1 3 1 5q0 12 -16 16l-524 94q-3 1 -6 1 q-13 0 -17 -15z" />
<glyph unicode="R" horiz-adv-x="1226" d="M128 18q0 -18 20 -18h155q16 0 16 18v620h251q42 -30 85 -97t82.5 -146.5t74 -162t59.5 -144.5q10 -24 18 -43t14 -35q0 -10 14 -10h165q10 0 14 8q2 4 3 8q0 5 -3 12q-16 33 -29.5 66.5t-28.5 66.5q-60 142 -122.5 276.5t-152.5 254.5q127 37 202 129t75 234 q0 102 -35.5 175.5t-97 121t-143 70.5t-172.5 23h-446q-18 0 -18 -18v-1409zM317 807v465h251q56 0 106.5 -9t90 -32t63 -65t23.5 -107h-3q0 -70 -25 -117t-67 -78t-97 -44t-116 -13h-226z" />
<glyph unicode="S" horiz-adv-x="1166" d="M106 190q-2 -4 -2 -8q0 -8 9 -15q98 -71 154 -110t98 -56t84 -20.5t111 -3.5q90 0 179.5 25.5t160.5 77.5t116 129.5t45 181.5q0 111 -38.5 185t-100 123t-139 80.5t-155.5 57.5q-60 21 -114 42.5t-96 49.5t-67.5 65.5t-25.5 91.5q0 58 24.5 99t64 67t90 38t100.5 12 q40 0 66 -2.5t57 -13t78.5 -33.5t132.5 -65q19 -6 25 12l44 112q8 14 -8 23q-88 50 -137 77t-85.5 40t-73.5 15t-95 2q-86 0 -170.5 -23t-151.5 -71.5t-108.5 -121.5t-41.5 -171q0 -100 37.5 -169t97 -116t134.5 -78.5t151 -58.5q60 -24 116.5 -46t100.5 -54t70 -72.5 t26 -98.5q0 -61 -27 -106t-70 -75.5t-97.5 -45t-108.5 -14.5q-46 0 -75 2.5t-64.5 17t-88.5 46t-150 89.5q-4 4 -12.5 2t-12.5 -10z" />
<glyph unicode="T" horiz-adv-x="1044" d="M20 1291q0 -18 20 -19h388v-1254q0 -18 19 -18h155q18 0 18 18v1254h385q18 0 19 19v136q0 18 -21 18h-965q-17 0 -18 -18v-136z" />
<glyph unicode="U" horiz-adv-x="1365" d="M171 506q0 -253 130.5 -391t383.5 -138q243 0 376 138.5t133 383.5v928q0 18 -18 18h-140q-18 0 -19 -18v-919q0 -165 -81 -261.5t-249 -96.5q-173 0 -248.5 97.5t-75.5 264.5v915q0 18 -18 18h-155q-19 0 -19 -18v-921z" />
<glyph unicode="V" horiz-adv-x="1224" d="M14 1421l502 -1409q4 -12 16 -12h158q10 0 14 12l506 1409q2 4 2 8q0 5 -3 9q-5 7 -17 7h-143q-13 0 -17 -12l-414 -1172l-407 1172q-4 12 -17 12h-164q-12 0 -16 -7q-2 -4 -2 -8t2 -9z" />
<glyph unicode="W" horiz-adv-x="1844" d="M18 1423l385 -1409q4 -14 19 -14h174q10 0 18 14l311 1114l318 -1114q0 -4 6.5 -9t10.5 -5h173q10 0 18 14l377 1409v5q0 7 -4 11q-6 6 -17 6h-144q-11 0 -17 -14l-299 -1140l-319 1140q0 4 -6.5 9t-12.5 5h-158q-11 0 -18 -14l-315 -1134l-303 1134q-4 14 -18 14h-161 q-10 0 -16 -6q-4 -4 -4 -9q0 -3 2 -7z" />
<glyph unicode="X" horiz-adv-x="1202" d="M12 10q4 -10 18 -10h160q10 0 15 8l393 594l373 -594q2 -4 7.5 -6t9.5 -2h184q12 0 17 9q2 4 2 9q0 6 -3 12l-474 739l426 648q4 10 0 19t-16 9h-159q-4 0 -9 -2t-7 -6l-337 -520l-337 520q-2 4 -7 6t-9 2h-177q-13 0 -18.5 -9t0.5 -19l429 -665l-479 -722q-4 -7 -4 -13 q0 -3 2 -7z" />
<glyph unicode="Y" horiz-adv-x="1224" d="M21 1436q-2 -4 -2 -8q0 -5 4 -11l495 -809v-590q0 -18 19 -18h155q18 0 18 18v586l494 813q2 4 2 8q0 6 -4 11q-5 9 -18 9h-154q-4 0 -9.5 -2t-5.5 -6l-393 -643l-386 643q-4 8 -15 8h-185q-10 0 -15 -9z" />
<glyph unicode="Z" horiz-adv-x="1085" d="M54 18q0 -18 19 -18h942q16 0 17 18v137q0 18 -17 18h-738l732 1129v125q0 18 -19 18h-892q-16 0 -16 -18v-134q0 -18 16 -19h683l-727 -1113v-143z" />
<glyph unicode="[" horiz-adv-x="602" d="M123 -297q0 -18 19 -18q12 0 25 -1t25 -1h270q18 0 18 18v100q0 18 -20 19h-178v1557h180q18 0 18 18v100q0 19 -20 20h-270q-13 0 -25 -1t-25 -1q-17 0 -17 -20v-1790z" />
<glyph unicode="\" horiz-adv-x="829" d="M-10 1443l682 -1497q4 -10 18 -10h133q10 0 15.5 8t0.5 16l-684 1501q-4 10 -15 10h-136q-10 0 -14 -8.5t0 -19.5z" />
<glyph unicode="]" horiz-adv-x="602" d="M123 -199v-100q0 -18 19 -18h272q12 0 23.5 1t26.5 1l16 18v1790q0 8 -6 14t-12 6q-14 0 -26 1t-25 1h-271q-17 0 -17 -20v-100q0 -18 19 -18h179v-1557h-181q-17 0 -17 -19z" />
<glyph unicode="^" horiz-adv-x="1252" d="M161 550q-4 -10 2 -18t17 -8h133q14 0 15 8l300 662l297 -662q0 -4 6.5 -6t10.5 -2h134q10 0 14 7.5t0 18.5l-392 864q0 4 -6.5 7.5t-10.5 3.5h-109q-14 0 -14 -11z" />
<glyph unicode="_" horiz-adv-x="1044" d="M-4 -339v-87q0 -15 20 -15h1014q19 0 19 15v87q0 15 -21 16h-1014q-18 0 -18 -16z" />
<glyph unicode="`" horiz-adv-x="624" d="M97 1287.5q-1 -9.5 9 -15.5l326 -223q5 -5 9 -5q6 0 8 3l65 35q8 4 9 13.5t-5 16.5l-280 246q-2 2 -8.5 3t-10.5 -3l-111 -56q-10 -5 -11 -14.5z" />
<glyph unicode="a" horiz-adv-x="1085" d="M106 301q0 -82 29.5 -143.5t80.5 -102.5t118 -61t142 -20q205 0 326 166l7 -122q0 -18 16 -18h138q11 0 15 7q2 3 2 8t-3 11q-4 12 -7 32t-4 43.5t-2 45.5t-1 39v526q0 199 -98 287.5t-291 88.5q-48 0 -77 -1t-64.5 -8t-89.5 -22t-151 -42q-17 -4 -8 -25l31 -93 q0 -5 7.5 -9.5t13.5 -2.5q81 19 126 30.5t76.5 16t57.5 5.5t70 1q108 0 167 -53.5t59 -165.5v-51q-13 -2 -23 -2h-21q-96 -2 -209 -10t-209 -43t-160 -108t-64 -204zM295 301q0 71 39.5 114t98 67t125 31t123.5 7h111l-3 -69q0 -67 -20.5 -125.5t-58.5 -102t-92 -68.5 t-121 -25q-86 0 -144 39.5t-58 131.5z" />
<glyph unicode="b" d="M119 18q0 -18 19 -18h100q14 0 19 14l20 126q55 -78 126 -120.5t179 -42.5q122 0 206.5 50.5t138 132t76.5 185t23 207.5q0 106 -23 204.5t-75.5 174.5t-135 122t-200.5 46q-98 0 -170.5 -43t-124.5 -116v543q0 18 -20 19h-139q-19 0 -19 -19v-1465zM297 514v84 q0 62 18 123.5t52 110.5t86.5 79.5t118.5 30.5q80 0 131 -38.5t81.5 -99t41.5 -132.5t11 -140q0 -67 -12 -137t-41.5 -128t-80.5 -95.5t-129 -37.5q-75 0 -127 34.5t-85.5 89.5t-49 122t-15.5 134z" />
<glyph unicode="c" horiz-adv-x="964" d="M50 532q0 -115 30.5 -216t91 -176.5t151.5 -119t214 -43.5q47 0 78 1.5t65 8.5t84.5 21.5t140.5 43.5l10 26l-34 91q-4 17 -20 13q-82 -19 -126.5 -30.5t-76.5 -15.5t-58 -5t-70 -1q-83 0 -139 35.5t-90 93.5t-47 131.5t-13 148.5q0 73 18 144t56 126.5t96.5 88.5 t140.5 33q33 0 53.5 -1t43.5 -5t57 -13t94 -27q4 -2 10.5 2t10.5 10l38 95q8 15 -11 23q-61 27 -95 42t-63.5 22t-60.5 8t-86 1q-124 0 -215.5 -43.5t-153 -118.5t-93 -176.5t-31.5 -217.5z" />
<glyph unicode="d" d="M117 541q0 -109 24 -210t77 -179.5t138 -126.5t206 -48q96 0 169 41.5t128 115.5v-116q0 -18 16 -18h136q16 0 17 18v1465q0 8 -6.5 13.5t-12.5 5.5h-142q-16 0 -16 -19v-530q-54 71 -125.5 108.5t-165.5 37.5q-121 0 -205 -47t-137 -125.5t-77 -178.5t-24 -207zM307 552 q0 64 13 133t44 126.5t82 95.5t126 38q74 0 127 -32t86.5 -82t49.5 -114.5t16 -132.5l-3 -89q0 -63 -16.5 -127.5t-51 -116.5t-86.5 -84.5t-124 -32.5q-81 0 -132 39.5t-80.5 101.5t-40 135.5t-10.5 141.5z" />
<glyph unicode="e" horiz-adv-x="1085" d="M86 532q0 -119 28 -220t87.5 -175.5t151.5 -117t219 -42.5q48 0 77.5 1.5t64 8.5t84.5 21.5t138 43.5q17 6 13 26l-34 91q-2 6 -9 10.5t-11 2.5q-82 -19 -128 -30.5t-77.5 -15.5t-57.5 -5t-68 -1q-82 0 -135 29t-85.5 78.5t-48.5 114t-20 137.5h709q17 0 17 19 q0 113 -21 217t-72 184.5t-137 129.5t-217 49q-117 0 -205 -47t-146.5 -124.5t-87.5 -177t-29 -207.5zM279 640q9 58 30 111t56.5 94.5t85 67t113.5 25.5t109.5 -25.5t74.5 -67t44 -95.5t19 -110h-532z" />
<glyph unicode="f" horiz-adv-x="661" d="M10 938q0 -18 20 -19h173v-901q0 -18 16 -18h138q18 0 19 18v901h214q16 0 16 19v119q0 16 -16 17h-214v72q0 42 4.5 83t19 72.5t42.5 51.5t78 20q30 0 51 -5.5t51 -15.5q10 -5 17 1.5t7 16.5l6 117q0 14 -10 20q-70 20 -153 20q-104 0 -162 -41t-85 -105.5t-33 -146 t-6 -160.5h-173q-19 0 -20 -17v-119z" />
<glyph unicode="g" horiz-adv-x="1104" d="M50 -125q0 -96 52.5 -154t127.5 -88t160.5 -39.5t155.5 -9.5q71 0 158.5 10.5t165 43t128.5 92t51 157.5q0 96 -46 151.5t-118 85t-158.5 39.5t-170.5 17q-52 4 -97 8t-79.5 12.5t-54.5 22t-20 34.5q0 32 31 50t61 30q31 -11 62.5 -15.5t62.5 -4.5q88 0 163 27.5 t130.5 77.5t86.5 123t31 167q0 67 -31 136t-69 117l203 -20q8 -3 13.5 3.5t5.5 14.5v113q0 18 -19 18h-450q-12 2 -26 3.5t-32 1.5q-85 0 -160 -26t-131.5 -76t-89 -121.5t-32.5 -161.5q0 -86 34.5 -163t99.5 -131q-48 -27 -84.5 -71t-36.5 -104q0 -106 77 -159 q-67 -34 -111 -80t-44 -131zM227 -119q0 27 13 49t33 38t44 28t46 24v-2q2 2 5.5 3.5t7.5 4.5q24 -5 54 -6.5t65 -5.5q56 -4 122 -10t122.5 -20t93 -38t36.5 -63q0 -48 -37.5 -76t-88.5 -44t-107 -21t-93 -5q-36 0 -89 4t-103 19t-87 44t-37 77zM301 706q0 104 61.5 173.5 t167.5 69.5q15 0 24 -2q4 -2 12 -2h6q88 -17 134 -84t46 -155q0 -111 -58.5 -172.5t-167.5 -61.5q-104 0 -164.5 64t-60.5 170z" />
<glyph unicode="h" d="M157 18q0 -8 6 -13t12 -5h140q19 0 20 18v580q0 67 16 128t51 109t87 76.5t123 28.5q52 0 90 -19.5t62.5 -52.5t36.5 -76.5t12 -91.5v-682q0 -18 16 -18h140q18 0 19 18v667q0 90 -20.5 166t-64.5 130.5t-113 86t-164 31.5q-106 0 -176 -43t-117 -123v550q0 18 -20 19 h-140q-16 0 -16 -19v-1465z" />
<glyph unicode="i" horiz-adv-x="482" d="M153 18q0 -8 6 -13t12 -5h148q15 0 16 18v1037q0 18 -18 19h-148q-4 0 -10 -5.5t-6 -13.5v-1037zM153 1285q0 -16 16 -17h154q4 0 11 4t7 13v176q0 8 -6.5 13t-13.5 5h-154q-14 0 -14 -18v-176z" />
<glyph unicode="j" horiz-adv-x="632" d="M2 -253v-119q0 -15 18 -19q7 -2 14 -2q6 0 12 -2q25 -4 43.5 -7t58.5 -3q77 0 133 27t89 74t49 110.5t16 137.5v1117q0 18 -21 19h-155q-16 0 -16 -19v-1101q0 -42 -3.5 -80.5t-16 -66.5t-37.5 -45t-71 -17q-14 0 -29 2t-32 6l-31 7q-20 4 -21 -19zM241 1293 q0 -8 6 -13.5t12 -5.5h161q19 0 19 19v176q0 18 -19 18h-163q-16 0 -16 -18v-176z" />
<glyph unicode="k" horiz-adv-x="1044" d="M96 18q0 -18 17 -18h138q18 0 18 16q6 90 6 191q0 28 -1 55t-1 53q0 32 -1 62t-1 62l98 89l381 -520q4 -8 15 -8h168q13 0 19 9q2 4 2 8q0 6 -5 13l-454 610l404 402q10 11 6 21.5t-20 10.5h-164q-6 0 -13 -6l-437 -444v859q0 18 -18 19h-140q-16 0 -17 -19v-1465z" />
<glyph unicode="l" horiz-adv-x="482" d="M153 18q0 -18 14 -18h146q16 0 17 18v1465q0 18 -17 19h-146q-14 0 -14 -19v-1465z" />
<glyph unicode="m" horiz-adv-x="1726" d="M153 18q0 -18 18 -18h142q19 0 20 18v588q0 58 13 116.5t42.5 104.5t77.5 75t114 29q52 0 90 -21t60 -56t32.5 -80t10.5 -91v-665q0 -18 19 -18h141q19 0 20 18v592q0 58 13.5 115.5t42.5 103.5t77 74t116 28q52 0 88 -21t60.5 -56t34.5 -80t10 -91v-665q0 -18 19 -18 h143q18 0 18 18v661q0 84 -18 159t-58 130.5t-107.5 87.5t-163.5 32q-108 0 -190.5 -54t-130.5 -149q-34 96 -108 149.5t-181 53.5q-106 0 -177.5 -43.5t-119.5 -121.5v124q0 16 -18 16h-132q-18 0 -18 -16v-1029z" />
<glyph unicode="n" d="M155 18q0 -18 16 -18h140q18 0 19 18v574q0 64 16.5 125.5t51 108.5t88 76t124.5 29q50 0 88.5 -18t64.5 -52t39 -76.5t13 -90.5v-676q0 -18 16 -18h140q18 0 19 18v661q0 90 -20.5 165t-64.5 129.5t-112 84.5t-165 30q-106 0 -180 -43.5t-129 -125.5v128q0 16 -16 16 h-132q-16 0 -16 -16v-1029z" />
<glyph unicode="o" d="M84 532q0 -113 31 -214t91.5 -176t152.5 -120t213 -45q122 0 213.5 43.5t153.5 120t92 177.5t30 214q0 114 -31 215t-92 176.5t-153.5 120t-214.5 44.5q-123 0 -214 -43.5t-151.5 -118.5t-90.5 -176.5t-30 -217.5zM273 532q0 74 16 146t52.5 128.5t93 91.5t137.5 35 q82 0 138.5 -35t91.5 -92.5t51 -129.5t16 -144h-2q0 -73 -16 -144t-50 -127t-91.5 -91.5t-139.5 -35.5q-81 0 -137.5 35.5t-92 91.5t-51.5 127.5t-16 143.5z" />
<glyph unicode="p" d="M119 -365q0 -16 19 -17h139q17 0 18 17v488q52 -73 128 -109.5t169 -36.5q115 0 197 49t134 128.5t77.5 180t25.5 199.5q0 107 -23 208.5t-75.5 181t-135 127.5t-202.5 48q-104 0 -178.5 -48t-126.5 -126v130q0 18 -20 19h-127q-19 0 -19 -19v-1420zM295 478v136 q0 56 19 114.5t54 104.5t85.5 75.5t110.5 29.5q80 0 132 -38.5t82.5 -98t42.5 -131.5t12 -140q0 -69 -12 -139t-42.5 -126t-82.5 -92.5t-132 -36.5q-64 0 -114.5 31.5t-85 80.5t-52 109.5t-17.5 120.5z" />
<glyph unicode="q" d="M117 534q0 -106 25 -206.5t78 -178.5t137 -125t203 -47q100 0 172 42.5t121 120.5v-505q0 -16 16 -17h142q16 0 17 17v1420q0 8 -6.5 13.5t-12.5 5.5h-102q-17 0 -18 -15l-26 -128q-52 78 -126.5 123t-174.5 45q-123 0 -209 -47t-138 -125.5t-75 -180.5t-23 -212z M307 539q0 69 13 140t43 129.5t82 96t133 37.5q76 0 128 -36.5t83.5 -93t46.5 -125.5t15 -133l-3 -46q0 -60 -16.5 -125.5t-50 -120.5t-83.5 -90.5t-118 -35.5q-81 0 -134 37.5t-84.5 94.5t-43 129.5t-11.5 141.5z" />
<glyph unicode="r" horiz-adv-x="682" d="M163 18q0 -18 17 -18h135q19 0 20 18v504q0 56 12 124t39.5 125.5t72.5 97.5t109 40q12 0 26 -1t28 -3q8 0 17 -1t15 -1l18 18v140q0 18 -18 19q-4 0 -26 4q-12 2 -24 3t-30 1q-92 0 -154.5 -53t-100.5 -128v140q0 16 -16 16h-123q-17 0 -17 -16v-1029z" />
<glyph unicode="s" horiz-adv-x="945" d="M80 78q-2 -5 -2 -9q0 -11 14 -17q90 -30 140 -44t84.5 -21t63.5 -8.5t78 -1.5q73 0 146 17.5t131.5 56.5t95 101.5t36.5 150.5q0 86 -31.5 141t-81.5 91.5t-113 59.5t-125 43q-44 12 -84.5 25.5t-72 31t-50 41.5t-18.5 58q0 41 16 68t43.5 43t63 22t70.5 6q34 0 56 -1 t47 -5t61.5 -13t101.5 -29q12 -2 21 12l36 95q8 15 -9 23q-65 27 -101.5 42t-65.5 22t-61.5 8t-85.5 1q-71 0 -138 -16.5t-119 -53t-83 -94t-31 -139.5q0 -79 29 -131t76 -87t105.5 -56.5t119.5 -40.5q46 -14 89.5 -29t77.5 -34.5t53.5 -48t19.5 -69.5q0 -42 -24 -71.5 t-59.5 -48.5t-77.5 -27t-77 -8q-42 0 -67 1t-54 5t-72 13.5t-118 28.5q-17 4 -21 -13z" />
<glyph unicode="t" horiz-adv-x="682" d="M28 940q0 -18 20 -19h169v-602q0 -75 12 -137.5t41 -108t82 -71t135 -25.5q41 0 76 5.5t70 13.5h-5q4 2 12 2l16 18l-6 116q0 20 -20 18q-10 -2 -21 -4t-23 -4q-45 -10 -78 -10q-67 0 -93 45.5t-26 109.5v634h211q18 0 18 19v117q0 18 -20 19h-209v267q0 18 -16 18 q-3 0 -6 -1l-137 -29q-15 -4 -15 -19v-236h-169q-18 0 -18 -19v-117z" />
<glyph unicode="u" d="M157 401q0 -92 20 -170t64 -134.5t113.5 -88t169.5 -31.5q98 0 174.5 45t124.5 124v-128q4 -18 21 -18h125q18 0 19 18v1029q0 16 -21 16h-140q-16 0 -16 -16v-573q0 -62 -17 -121.5t-50.5 -107.5t-84.5 -77.5t-120 -29.5q-57 0 -96.5 22t-64.5 58.5t-35 83.5t-10 99v646 q0 16 -20 16h-140q-16 0 -16 -16v-646z" />
<glyph unicode="v" horiz-adv-x="923" d="M12 1038l353 -1026q4 -12 17 -12h157q8 0 17 12l357 1026q2 4 2 8q0 6 -4 10q-6 7 -16 7h-139q-4 0 -10 -4t-6 -8l-272 -808l-267 808q0 4 -7.5 8t-11.5 4h-154q-12 0 -16 -7q-2 -4 -2 -9q0 -4 2 -9z" />
<glyph unicode="w" horiz-adv-x="1503" d="M14 1038l325 -1026q0 -4 7 -8t11 -4h145q16 0 16 12l234 771l238 -771q0 -4 6.5 -8t12.5 -4h144q16 0 17 12l321 1026q1 3 1 5q0 8 -5 13q-6 7 -16 7h-126q-4 0 -10 -4t-6 -8l-249 -776l-236 776q0 4 -6.5 8t-12.5 4h-138q-16 0 -17 -12l-235 -774l-236 774q0 4 -6.5 8 t-12.5 4h-148q-10 0 -16 -7q-3 -4 -4 -9q0 -4 2 -9z" />
<glyph unicode="x" horiz-adv-x="923" d="M14 30q-2 -5 -2 -9q0 -5 3 -11q5 -10 17 -10h150q4 0 9.5 2t5.5 6l265 403l248 -403q0 -4 5.5 -6t9.5 -2h166q13 0 17 9q2 4 2 8q0 6 -3 13l-345 542l305 462q4 10 -1 19.5t-18 9.5h-148q-4 0 -9.5 -2t-5.5 -6l-221 -343l-215 343q0 4 -6.5 6t-10.5 2h-165 q-12 0 -16.5 -9.5t1.5 -19.5l309 -476z" />
<glyph unicode="y" horiz-adv-x="901" d="M10 1066q-2 -3 -2 -7q0 -5 2 -10l355 -1026q0 -6 -2 -12.5t-6 -14.5q-10 -42 -25 -85t-37 -78.5t-54 -58.5t-78 -23q-10 0 -26 3t-33 8l-37 6q-18 5 -19 -19l-8 -118q0 -15 16 -20q67 -16 138 -16q62 0 108.5 26t81 67t58.5 92t42 101l411 1168q1 4 1 7q0 6 -4 10 q-7 8 -17 8h-133q-9 0 -17 -13l-272 -779l-263 779q-4 12 -19 13h-148q-10 0 -13 -8z" />
<glyph unicode="z" horiz-adv-x="901" d="M56 18q0 -18 17 -18h754q19 0 19 18v118q0 16 -19 17h-552l569 789v102q0 19 -19 19h-719q-18 0 -18 -19v-117q0 -16 18 -16h510l-560 -771v-122z" />
<glyph unicode="{" horiz-adv-x="602" d="M56 541q0 -7 6.5 -12t12.5 -7q44 -6 72 -29t44 -58.5t21 -81.5t5 -98q0 -30 -2 -61t-2 -60q-4 -34 -4 -65v-65q0 -64 8 -122.5t31 -102.5t67 -70t117 -26h98q17 0 18 18v102q0 19 -20 20h-29q-8 0 -16.5 -1.5t-18.5 -1.5q-20 0 -39.5 5.5t-29.5 21.5q-13 20 -15 54.5 t-2 58.5v335q0 96 -28.5 174.5t-106.5 128.5q79 54 107 130t28 175v333q0 19 2 43.5t8.5 45t20 35.5t36.5 15h85q17 0 18 18v102q0 19 -20 20h-98q-73 0 -117 -25t-68 -69t-32 -102.5t-8 -124.5q0 -31 2 -64.5t2 -64.5q4 -36 4 -68v-61q0 -50 -5 -95t-21 -79.5t-43 -57.5 t-71 -29q-16 -4 -17 -17v-117z" />
<glyph unicode="|" horiz-adv-x="502" d="M184 -4q0 -18 17 -19h156q14 0 15 19v1497q0 19 -17 20h-156q-14 0 -15 -20v-1497z" />
<glyph unicode="}" horiz-adv-x="602" d="M56 -197v-102q0 -18 19 -18h98q72 0 117 26t67.5 70t31 102.5t8.5 122.5q0 62 -6 130q0 29 -2 60t-2 61q0 52 6 98t21.5 81.5t44 58.5t71.5 29l18 19v117q0 4 -7 9t-13 8q-44 6 -72 28t-43.5 57.5t-20.5 81t-5 98.5q0 59 6 125q0 31 2 64t2 63q0 65 -8.5 124t-32 103 t-68.5 70t-117 26h-98q-16 0 -17 -20v-102q0 -18 19 -18h29q10 0 17 1t17 1q18 0 37 -4.5t34 -25.5q12 -18 14 -52.5t2 -58.5v-333q0 -100 28.5 -176.5t107.5 -128.5q-82 -50 -109 -128.5t-27 -174.5v-335q0 -18 -2 -42t-9 -45t-20.5 -35.5t-36.5 -14.5h-84q-16 0 -17 -20z " />
<glyph unicode="~" horiz-adv-x="1252" d="M132 437q0 -11 12 -19l105 -46q6 -4 13 -1t11 11q4 24 14 47.5t25.5 44.5t36 33.5t48.5 12.5q35 0 83 -21t102 -50q65 -36 136 -66t143 -30q54 0 99 22t78.5 57.5t54.5 78.5t29 87l-10 18l-109 48q-6 4 -14.5 1t-13.5 -13q-4 -24 -13 -47t-24 -43.5t-36 -33t-47 -12.5 q-36 0 -81 20t-99 48q-67 36 -140 67.5t-146 31.5q-52 0 -96 -21.5t-77.5 -57.5t-54.5 -80t-29 -87z" />
<glyph unicode="&#xa1;" horiz-adv-x="720" d="M257 -355q0 -16 18 -17h172q16 0 17 17q-8 269 -21 535.5t-25 533.5q0 16 -17 17h-86q-14 0 -14 -17q-12 -267 -25 -533.5t-19 -535.5zM263 873q0 -18 16 -18h160q16 0 16 18v184q0 8 -6 13.5t-12 5.5h-160q-14 0 -14 -19v-184z" />
<glyph unicode="&#xa2;" horiz-adv-x="1206" d="M197 633q0 -83 15 -159.5t51 -142.5t91 -117t135 -84l-38 -234q-4 -18 19 -19h106q15 0 20 12l34 209q11 -2 18 -2h16q52 0 83.5 1t63 9.5t73 24t115.5 46.5l12 24l-34 92q-6 16 -22 12q-60 -18 -95 -29t-61 -15t-53 -5t-71 -1h-23l117 737q26 -8 41 -13.5t32 -11.5 t41 -15.5t62 -24.5q16 -6 22 11l32 92q4 12 -7 19q-41 27 -65 43.5t-43 26t-39 16.5t-51 16l31 190q4 21 -18 21h-109q-13 0 -17 -17l-29 -179q-113 -4 -198 -46t-142 -114.5t-86 -167t-29 -205.5zM382 640q0 64 13.5 124.5t44 109.5t76.5 82.5t110 46.5l-110 -694 q-75 60 -104.5 146.5t-29.5 184.5z" />
<glyph unicode="&#xa3;" horiz-adv-x="1206" d="M75 18q0 -8 6.5 -13t12.5 -5h669q48 0 98 3t99 16t91.5 36t78.5 62l2 21l-67 107q-4 8 -13.5 9t-15.5 -5q-35 -30 -82 -44.5t-99.5 -22t-104.5 -8.5t-96 -1h-148q36 63 51 134t15 146q0 56 -2 114.5t-2 115.5h293q18 0 18 17v115q0 18 -20 18h-299q0 11 -1 17.5t-1 16.5 q-4 42 -6 79.5t-2 77.5q0 115 60 193t179 78q61 0 106 -22.5t89 -64.5q4 -6 13 -6q10 0 16 8l69 110q2 4 1 11.5t-7 11.5q-125 120 -301 120q-94 0 -172.5 -36t-133.5 -97.5t-85.5 -144t-30.5 -174.5q0 -46 2 -90t6 -88h-175q-19 0 -19 -18v-115q0 -17 21 -17h186v-2 q4 -23 6 -45t2 -38v-114q0 -89 -19.5 -169.5t-95.5 -141.5l-175 2q-4 0 -10.5 -5t-6.5 -13v-139z" />
<glyph unicode="&#xa4;" horiz-adv-x="1344" d="M82 443q0 -19 18 -19h117q34 -98 89 -180.5t132.5 -142t176.5 -92t220 -32.5q74 0 116.5 2.5t80.5 14.5t83 38t121 76q15 10 7 24l-59 104q-8 16 -22 9q-70 -38 -110.5 -58t-70.5 -29.5t-63 -10.5t-85 -1q-159 0 -258 77.5t-149 200.5h708q19 0 19 19v137q0 19 -19 20 h-754q-4 29 -6 62.5t-2 64.5v48q0 26 4 52h758q19 0 19 19v138q0 19 -19 19h-714q48 131 150 213.5t265 82.5q54 0 87 -2t62 -14.5t66.5 -38.5t105.5 -74q12 -8 20 0l88 84q6 6 7 15t-7 13q-90 70 -142 108.5t-92 55.5t-81.5 20t-113.5 3q-123 0 -224 -35t-179.5 -96.5 t-132.5 -147t-86 -187.5h-113q-18 0 -18 -19v-138q0 -19 18 -19h75q-4 -27 -4 -54v-54q0 -62 6 -119h-77q-18 0 -18 -20v-137z" />
<glyph unicode="&#xa5;" horiz-adv-x="1206" d="M51.5 1437q-5.5 -8 0.5 -18l337 -592h-216q-16 0 -16 -18v-111q0 -17 18 -17h297l38 -67v-60h-337q-16 0 -16 -20v-108q0 -18 18 -19h335v-389q0 -18 18 -18h155q19 0 19 18v389h330q19 0 19 19v108q0 19 -21 20h-330v56l40 71h292q19 0 19 17v111q0 18 -21 18h-209 l337 592q4 10 -1.5 18t-16.5 8h-152q-6 0 -17 -10l-359 -637l-349 637q-6 10 -16 10h-180q-10 0 -15.5 -8z" />
<glyph unicode="&#xa6;" horiz-adv-x="502" d="M184 -4q0 -18 17 -19h104q14 0 14 19v562q0 18 -16 18h-104q-14 0 -15 -18v-562zM184 931q0 -18 17 -18h104q14 0 14 18v562q0 19 -16 20h-104q-14 0 -15 -20v-562z" />
<glyph unicode="&#xa7;" horiz-adv-x="1206" d="M180 -128q-5 -16 6 -20q79 -60 125 -93.5t80.5 -49.5t70 -18t96.5 -2h16q78 0 155.5 18t137.5 57t98 103t38 153q0 84 -43 149t-109 102q79 61 128 140t49 185q0 77 -32.5 132t-84.5 95t-119 69t-134 57q-52 20 -101 41t-87 46t-59.5 56.5t-21.5 73.5q0 44 21.5 74t54 49 t73 27t78.5 8q32 0 53 -1t46 -10t64.5 -28t107.5 -53q17 -8 26 6l58 93q10 16 -8 25q-86 43 -133 68t-81.5 36t-64.5 13t-80 2q-76 0 -146.5 -20t-126.5 -60.5t-89 -103.5t-33 -149q0 -81 42 -146t108 -107q-80 -60 -128.5 -137t-48.5 -184q0 -77 32.5 -131.5t84.5 -94 t118.5 -68.5t134.5 -57q52 -20 101 -41t86.5 -47.5t60.5 -57.5t23 -73q0 -48 -26 -78.5t-64.5 -48t-84.5 -24t-84 -6.5q-34 0 -55.5 2t-52 14.5t-77 38.5t-132.5 74q-19 11 -24 -8zM359 610q0 67 45 124.5t102 86.5l221 -88q60 -23 93 -66.5t33 -112.5q0 -67 -45 -124.5 t-102 -86.5l-222 92q-58 23 -91.5 65.5t-33.5 109.5z" />
<glyph unicode="&#xa8;" horiz-adv-x="644" d="M60 1074q0 -16 20 -17h171q16 0 16 17v158q0 16 -16 18h-171q-19 0 -20 -18v-158zM378 1074q0 -16 19 -17h171q16 0 16 17v158q0 16 -16 18h-171q-19 0 -19 -18v-158z" />
<glyph unicode="&#xa9;" horiz-adv-x="1628" d="M60 729q0 -157 60 -294.5t162.5 -239t240 -161.5t294.5 -60t295 59t238.5 161.5t159.5 240t59 294.5t-60 295t-162 239t-240 160.5t-294 59.5q-157 0 -295 -58.5t-239.5 -160.5t-160 -240.5t-58.5 -294.5zM238 729q0 122 45 228t122 186.5t183 127.5t229 47 q121 0 226.5 -47t183 -128.5t121 -189t43.5 -226.5h-2q0 -121 -43.5 -227.5t-122.5 -187t-184.5 -127.5t-225.5 -47q-123 0 -228 47t-182.5 128.5t-121 189t-43.5 226.5zM403 729q0 -98 32.5 -181.5t89.5 -145t140 -96.5t183 -35q71 0 132.5 23t109.5 65t82 98.5t48 124.5 l-20 24h-130q-16 0 -17 -14q-17 -82 -68.5 -128t-133.5 -46q-70 0 -121 24t-83.5 67t-49.5 99t-17 121q0 63 16 118.5t48.5 97t81.5 65.5t116 24q37 0 73 -11.5t65 -32.5t49 -51t24 -68q0 -16 17 -16h130q18 0 18 20q-26 148 -126 226.5t-248 78.5q-102 0 -184 -33t-139 -93 t-87.5 -142.5t-30.5 -182.5z" />
<glyph unicode="&#xaa;" horiz-adv-x="714" d="M64 951q0 -54 22 -92t58 -61t79.5 -33.5t89.5 -10.5q62 0 114.5 20t94.5 63l2 -52q0 -18 19 -18h92q11 0 16 8t-1 19q-4 10 -6 42.5t-2 46.5v309q0 65 -19 109t-54 71t-82.5 39t-106.5 12q-29 0 -47 -1t-42 -7.5t-61.5 -20t-104.5 -38.5q-14 -9 -8 -25l31 -63 q8 -16 23 -8q50 20 77 33t46 18t36 6t42 1q60 0 101 -28t41 -93v-23q-6 -2 -15 -2h-12q-59 0 -132 -5t-137.5 -27t-109 -66t-44.5 -123zM201 951q0 41 27 65t66 36.5t81.5 16t73.5 3.5h65v-34q0 -81 -53.5 -130t-132.5 -49q-48 0 -87.5 19t-39.5 73z" />
<glyph unicode="&#xab;" horiz-adv-x="1002" d="M171 528l222 -344q6 -7 16 -7h105q10 0 16.5 7.5t-0.5 18.5l-183 338l183 336q7 10 0.5 19t-16.5 9h-105q-4 0 -9 -2t-7 -6l-222 -345v-24zM470 528l224 -344q6 -7 16 -7h105q10 0 15 7.5t1 18.5l-183 338l183 336q4 10 -1 19t-15 9h-105q-4 0 -9 -2t-7 -6l-224 -345v-24 z" />
<glyph unicode="&#xac;" horiz-adv-x="1252" d="M92 646q0 -19 19 -20h875v-379q0 -16 19 -17h137q19 0 20 17v530q0 19 -22 19h-1032q-16 0 -16 -19v-131z" />
<glyph unicode="&#xad;" horiz-adv-x="580" d="M48 548q0 -15 16 -16h450q18 0 18 16v108q0 14 -18 14h-450q-16 0 -16 -14v-108z" />
<glyph unicode="&#xae;" horiz-adv-x="1628" d="M60 729q0 -157 60 -294.5t162.5 -239t240 -161.5t294.5 -60t295 59t238.5 161.5t159.5 240t59 294.5t-60 295t-162 239t-240 160.5t-294 59.5q-157 0 -295 -58.5t-239.5 -160.5t-160 -240.5t-58.5 -294.5zM238 729q0 122 45 228t122 186.5t183 127.5t229 47 q121 0 226.5 -47t183 -128.5t121 -189t43.5 -226.5h-2q0 -121 -43.5 -227.5t-122.5 -187t-184.5 -127.5t-225.5 -47q-123 0 -228 47t-182.5 128.5t-121 189t-43.5 226.5zM520 307q0 -16 21 -16h129q18 0 20 16v357h102l229 -367q0 -4 6.5 -5t10.5 -1h148q15 0 19.5 8 t-3.5 18l-235 349q108 12 169 73t61 180q0 67 -24 113t-64.5 74t-94 40t-111.5 12h-364q-19 0 -19 -20v-831zM687 804v215h188q26 0 53 -4t49 -15.5t36.5 -30t14.5 -48.5h-2q0 -73 -40.5 -95t-108.5 -22h-190z" />
<glyph unicode="&#xaf;" horiz-adv-x="707" d="M60 1011q0 -12 22 -12h548q17 0 18 12v90q0 4 -6.5 9.5t-13.5 5.5h-548q-19 0 -20 -15v-90z" />
<glyph unicode="&#xb0;" horiz-adv-x="835" d="M96 1103q0 -68 25 -126t69 -102t102.5 -69t125.5 -25q68 0 126 25t102 69t69 102t25 126q0 67 -25 125.5t-69 102.5t-103 69t-125 25q-67 0 -125.5 -25t-102.5 -69t-69 -102.5t-25 -125.5zM241 1103q0 73 52 125t125 52q76 0 127 -52t51 -125q0 -74 -51.5 -126 t-126.5 -52q-73 0 -125 52.5t-52 125.5z" />
<glyph unicode="&#xb1;" horiz-adv-x="1445" d="M104 727q0 -146 36.5 -281t112 -239.5t192.5 -167t278 -62.5q67 0 130 13q10 -54 28 -106.5t48 -92.5t79 -64t122 -24q46 0 90 14t84 36q14 4 10 20l-29 114q-8 23 -25 13q-30 -12 -59 -22t-61 -10q-29 0 -49.5 15t-34.5 40t-23 58t-16 71q82 48 142.5 120.5t101.5 160 t60.5 189t19.5 205.5q0 146 -36.5 280.5t-112.5 238t-193.5 166.5t-275.5 63q-161 0 -278 -63t-192.5 -166.5t-112 -238t-36.5 -280.5zM301 727q0 96 22 204q2 -40 32 -67t67 -27q40 0 69 30t29 69q0 2 -1 4t-1 5q-4 37 -32 63t-64 26q-54 0 -81 -46q20 65 53.5 122.5 t80.5 101.5t109 69t139 25q113 0 193.5 -53t130 -137t72.5 -186.5t23 -202.5q0 -62 -9 -129.5t-29 -130t-51.5 -118.5t-75.5 -100q-12 46 -32 85.5t-51 68.5t-74 47t-104 18q-46 0 -91 -12.5t-84 -33.5q-13 -8 -11 -21l30 -116q2 -11 10 -14.5t16 0.5q26 15 55 24.5t61 9.5 q54 0 78 -42t39 -104q-23 -6 -48 -8.5t-48 -2.5q-115 0 -195.5 53.5t-130.5 137t-73 185.5t-23 203zM901 936q0 -37 25 -68t77 -31l4 2q48 3 68.5 34.5t20.5 64.5q0 38 -22.5 67t-70.5 29h-6q-48 0 -72 -29.5t-24 -68.5z" />
<glyph unicode="&#xb2;" horiz-adv-x="753" d="M64 574q0 -16 20 -16h588q16 0 18 16v82q0 16 -20 16h-413l230 201q33 30 68 65t63 76t45.5 86.5t17.5 96.5q0 65 -27.5 113t-71 79.5t-98 45.5t-110.5 14q-37 0 -82 -10t-88 -30t-75.5 -50t-44.5 -70q-4 -10 6 -21l58 -54q8 -6 16.5 -3t12.5 13q7 28 30 48.5t51.5 34 t60.5 20t57 6.5q32 0 61 -9.5t52 -28.5t36.5 -45t13.5 -60q0 -31 -12.5 -63.5t-32.5 -62.5t-45 -56t-48 -47l-330 -293q-2 0 -4.5 -4t-2.5 -8v-82z" />
<glyph unicode="&#xb3;" horiz-adv-x="753" d="M52 677q18 -37 53 -61t77.5 -40t85.5 -22t79 -6q58 0 120.5 13t115 45t86 83t33.5 124q0 79 -41 133.5t-107 77.5q56 26 92.5 74t36.5 116q0 67 -28.5 111.5t-74.5 73t-101 39.5t-110 11q-35 0 -75.5 -6t-79.5 -20.5t-72.5 -37.5t-51.5 -56q-4 -4 -2 -10.5t6 -10.5 l50 -56q6 -9 16.5 -8t14.5 10q30 48 86 64.5t108 16.5q30 0 61.5 -6.5t57.5 -21t43 -37.5t17 -56q0 -52 -28.5 -80.5t-71.5 -42t-92 -15.5t-89 -2h-24q-19 0 -20 -19v-80q0 -18 22 -18h30q42 0 92.5 -2t94.5 -16t73 -42t29 -80q0 -44 -21 -73.5t-53 -47t-71 -25t-74 -7.5 q-26 0 -57 4t-60 14t-54.5 26.5t-35.5 39.5q-4 10 -12.5 11t-17.5 -7l-52 -56q-4 -9 -4 -19z" />
<glyph unicode="&#xb4;" horiz-adv-x="624" d="M101 1096q1 -10 12 -14l62 -35q2 -3 7 -3q6 0 10 5l326 223q8 6 7 15.5t-11 14.5l-111 56q-8 6 -18 0l-279 -246q-6 -6 -5 -16z" />
<glyph unicode="&#xb5;" d="M157 -363q0 -8 6 -13.5t12 -5.5h142q19 0 20 19v419q39 -29 62 -44.5t42 -23.5t40 -9.5t56 -1.5h9q94 0 163.5 45t113.5 120v-124q4 -18 21 -18h125q18 0 19 18v1037q0 18 -21 19h-140q-16 0 -16 -19v-577q0 -62 -17 -122.5t-50.5 -109.5t-84.5 -78.5t-120 -29.5 q-57 0 -96.5 22t-64.5 59.5t-35 85.5t-10 100v650q0 18 -20 19h-140q-16 0 -16 -19v-1418z" />
<glyph unicode="&#xb6;" horiz-adv-x="1192" d="M104 992q0 -91 31.5 -170.5t86.5 -139.5t131.5 -95t164.5 -37v-832q0 -18 19 -19h127q18 0 19 19v1577h184v-1577q0 -18 16 -19h130q18 0 19 19v1631h38q18 0 18 19v65q0 18 -18 18h-498q-102 0 -187.5 -32t-148.5 -91.5t-97.5 -144t-34.5 -191.5z" />
<glyph unicode="&#xb7;" horiz-adv-x="602" d="M201 460q0 -8 6 -12.5t12 -4.5h170q14 0 14 17v170q0 17 -16 18h-170q-16 0 -16 -18v-170z" />
<glyph unicode="&#xb8;" horiz-adv-x="563" d="M75 -279q-2 -13 11 -20q44 -20 95 -32t98 -12q38 0 75 7.5t67 25t49 48t19 76.5q0 30 -13.5 55t-35.5 43.5t-50.5 29t-54.5 10.5h-36l24 71q4 9 -1 16t-15 7h-60q-4 0 -9.5 -4t-7.5 -8l-53 -157q-8 -24 17 -23q6 0 14.5 1t14.5 1q17 2 30.5 3t23.5 1q26 0 47 -14.5 t21 -37.5q0 -29 -28 -41t-52 -12q-35 0 -73.5 12t-72.5 30q-18 10 -27 -10z" />
<glyph unicode="&#xb9;" horiz-adv-x="753" d="M144 1246.5q-2 -5.5 2 -12.5l25 -81q2 -9 10.5 -11t17.5 2q42 28 82 58t80 66v-638h-76l-47 -40q-11 -11 -5.5 -21.5t20.5 -10.5h345q14 0 17 10t-7 22l-44 40h-73v791q0 18 -19 18h-85q-112 -106 -237 -183q-4 -4 -6 -9.5z" />
<glyph unicode="&#xba;" horiz-adv-x="753" d="M50 1088q0 -150 87.5 -242t240.5 -92t239.5 92t86.5 242q0 74 -23 135.5t-65 105.5t-102.5 69t-135.5 25q-157 0 -242.5 -92.5t-85.5 -242.5zM186 1088q0 44 11.5 86t35.5 73t59.5 50t85.5 19q48 0 83.5 -19t58.5 -50t33.5 -73t10.5 -86t-10.5 -85.5t-33.5 -72.5 t-58.5 -50t-83.5 -19q-50 0 -86.5 18t-59.5 49t-34.5 72.5t-11.5 87.5z" />
<glyph unicode="&#xbb;" horiz-adv-x="1002" d="M173 185q4 -8 15 -8h105q10 0 16 7l219 344v24l-219 345q-2 4 -7 6t-9 2h-105q-11 0 -15 -9t0 -19l180 -336l-180 -338q-4 -10 0 -18zM472 203q-4 -10 1 -18t16 -8h105q10 0 16 7l219 344v24l-219 345q-2 4 -7 6t-9 2h-105q-11 0 -16 -9t-1 -19l180 -336z" />
<glyph unicode="&#xbc;" horiz-adv-x="1808" d="M113 1256l25 -82q4 -10 12.5 -12t16.5 2q44 29 88 59.5t86 65.5v-647h-80l-48 -42q-10 -10 -6 -22t16 -12h367q14 0 18 12t-6 22l-46 42h-78v803q0 17 -18 18h-93q-58 -54 -118.5 -99.5t-127.5 -85.5q-12 -8 -8 -22zM424 6q-6 -10 0 -19.5t17 -9.5h127q4 0 9 2.5t7 6.5 l847 1455q6 8 0 18t-17 10h-132q-10 0 -14 -8zM961 217q0 -16 19 -16h434v-183q0 -18 19 -18h100q16 0 17 18v183h128q18 0 18 16v78q0 18 -18 18h-128v564q0 19 -17 20h-129h-3q-12 -5 -16 -16l-424 -582v-82zM1118 313l296 424v-424h-296z" />
<glyph unicode="&#xbd;" horiz-adv-x="1808" d="M98 1256l25 -82q5 -10 13 -12t17 2q46 29 89 59.5t83 65.5v-647h-78l-48 -42q-10 -10 -6 -22t18 -12h363q15 0 19.5 12t-7.5 22l-45 42h-75l-2 803q0 17 -19 18h-92q-58 -54 -119 -99.5t-128 -85.5q-12 -8 -8 -22zM361 6q-6 -10 0 -19.5t17 -9.5h128q4 0 9 2.5t7 6.5 l846 1455q6 8 0 18t-16 10h-132q-4 0 -9 -2t-7 -6zM1063 18q0 -18 19 -18h610q19 0 19 18l-3 82q0 18 -18 19h-428l237 202q34 30 70.5 66.5t65 78.5t47 88t18.5 96q0 67 -28 116t-73 80t-102.5 46t-115.5 15q-38 0 -84.5 -11t-89.5 -30.5t-78 -51t-47 -70.5q-2 -4 0 -10.5 t6 -10.5l61 -55q8 -8 17.5 -4t13.5 15q6 28 29 48.5t53.5 34t63 19.5t57.5 6q64 0 117.5 -37.5t53.5 -105.5q0 -32 -13.5 -65t-34.5 -64t-46 -58t-50 -48l-340 -294q-6 -6 -7 -15v-82z" />
<glyph unicode="&#xbe;" horiz-adv-x="1808" d="M78 687q18 -37 53.5 -62t79.5 -41t89 -22t80 -6q61 0 126.5 13t119 46t88 84t34.5 126q0 82 -43 136t-109 77q58 28 95.5 77t37.5 117q0 70 -29.5 115.5t-76.5 73.5t-103 40t-113 12q-36 0 -78 -6t-83 -21t-75.5 -38t-53.5 -56q-6 -11 2 -23l52 -57q6 -8 17 -7t15 9 q14 25 37 41t50 25t57.5 13.5t57.5 4.5q30 0 62 -7.5t59.5 -22t45.5 -38.5t18 -58q0 -52 -30 -81t-73.5 -43t-93.5 -16t-92 -2h-28q-18 0 -18 -18v-82q0 -18 18 -19h34q44 0 95 -2t96 -15.5t75.5 -43t30.5 -81.5q0 -44 -21 -73t-53.5 -47.5t-72 -26t-77.5 -7.5q-25 0 -57 4 t-64 14.5t-58 27t-36 39.5t-29 5l-54 -59q-9 -4 -4 -19zM487.5 -13.5q5.5 -9.5 16.5 -9.5h129q5 0 10 2.5t7 6.5l845 1455q6 10 0 19t-16 9h-132q-4 0 -9 -2t-7 -6l-842 -1455q-7 -10 -1.5 -19.5zM997 217q0 -16 18 -16h434v-183q0 -18 20 -18h100q18 0 18 18v183h126 q18 0 19 16v78q0 18 -19 18h-126v564q0 19 -18 20h-130h-2q-12 -5 -16 -16l-424 -582v-82zM1153 313l296 424v-424h-296z" />
<glyph unicode="&#xbf;" horiz-adv-x="1085" d="M130 0q0 -98 34.5 -171.5t93.5 -122.5t138.5 -73t167.5 -24q58 0 94 2t72.5 16t85.5 44t137 84l4 26l-40 94q-6 12 -22 6q-78 -38 -121 -59t-73.5 -30t-56.5 -11t-70 -2q-106 0 -180.5 57.5t-74.5 171.5q0 48 14 86t37 68t52 56.5t60 50.5q36 30 72 62t64 73t44.5 94.5 t16.5 123.5v92q0 18 -17 19h-134q-18 0 -18 -19v-52q0 -38 -4 -75t-26 -73q-31 -54 -72 -89.5t-83 -69.5q-37 -30 -72.5 -60t-62.5 -70.5t-43.5 -95t-16.5 -129.5zM482 875q0 -18 17 -18h180q19 0 19 18v184q0 18 -19 19h-180q-17 0 -17 -19v-184z" />
<glyph unicode="&#xc0;" horiz-adv-x="1284" d="M14 26q-4 -11 1 -18.5t17 -7.5h158q12 0 17 12l134 383h595l142 -383q4 -12 14 -12h162q10 0 15 7t1 19l-507 1415q-4 13 -17 13h-198q-15 0 -16 -13zM390 1763q-1 -11 7 -17l347 -247q2 -4 6 -4q6 0 10 2l67 40q10 4 11 15t-7 17l-294 269q-9 8 -19 2l-119 -62 q-8 -4 -9 -15zM403 560l241 664l235 -664h-476z" />
<glyph unicode="&#xc1;" horiz-adv-x="1284" d="M14 26q-4 -11 1 -18.5t17 -7.5h158q12 0 17 12l134 383h595l142 -383q4 -12 14 -12h162q10 0 15 7t1 19l-507 1415q-4 13 -17 13h-198q-15 0 -16 -13zM403 560l241 664l235 -664h-476zM448 1552q1 -11 12 -15l66 -40q11 -4 17 2l344 247q11 6 10.5 17t-12.5 15l-116 62 q-10 8 -21 -2l-293 -269q-8 -6 -7 -17z" />
<glyph unicode="&#xc2;" horiz-adv-x="1284" d="M14 26q-4 -11 1 -18.5t17 -7.5h158q12 0 17 12l134 383h595l142 -383q4 -12 14 -12h162q10 0 15 7t1 19l-507 1415q-4 13 -17 13h-198q-15 0 -16 -13zM332.5 1542.5q4.5 -9.5 16.5 -11.5l119 -8q10 0 14 4l172 157l171 -157q4 -4 14 -4l120 8q12 2 16.5 11.5t-6.5 20.5 l-263 273q-6 6 -12 6h-82q-4 0 -10 -6l-263 -273q-11 -11 -6.5 -20.5zM403 560l241 664l235 -664h-476z" />
<glyph unicode="&#xc3;" horiz-adv-x="1284" d="M14 26q-4 -11 1 -18.5t17 -7.5h158q12 0 17 12l134 383h595l142 -383q4 -12 14 -12h162q10 0 15 7t1 19l-507 1415q-4 13 -17 13h-198q-15 0 -16 -13zM313 1650q-6 -18 10 -25l80 -33q14 -8 23 8q17 32 37.5 45.5t56.5 13.5q30 0 58 -9.5t55 -24.5q32 -16 65 -29t73 -13 q80 0 131 47.5t80 113.5l-11 24l-80 32q-14 6 -20 -6q-18 -29 -39 -44.5t-57 -15.5q-29 0 -56 10t-55 24q-34 16 -67 28.5t-73 12.5q-79 0 -130 -46t-81 -113zM403 558l241 666l235 -666h-476z" />
<glyph unicode="&#xc4;" horiz-adv-x="1284" d="M14 26q-4 -11 1 -18.5t17 -7.5h158q12 0 17 12l134 383h595l142 -383q4 -12 14 -12h162q10 0 15 7t1 19l-507 1415q-4 13 -17 13h-198q-15 0 -16 -13zM374 1606q0 -18 19 -19h177q19 0 20 19v188q0 19 -20 20h-177q-19 0 -19 -20v-188zM403 558l241 666l235 -666h-476z M704 1606q0 -18 19 -19h178q18 0 18 19v188q0 19 -18 20h-178q-18 0 -19 -20v-188z" />
<glyph unicode="&#xc5;" horiz-adv-x="1284" d="M14 26q-4 -11 1 -18.5t17 -7.5h158q12 0 17 12l134 383h595l142 -383q4 -12 14 -12h162q10 0 15 7t1 19l-507 1415q-4 13 -17 13h-198q-15 0 -16 -13zM403 560l241 664l235 -664h-476zM441 1700q0 -44 15.5 -82.5t43.5 -66.5t66 -44t82 -16q42 0 79.5 17t65.5 45t45 65.5 t17 81.5t-17 82t-45 66t-65.5 44.5t-79.5 16.5q-88 0 -147.5 -60.5t-59.5 -148.5zM560 1700q0 38 25 63t63 25q37 0 62 -25t25 -63q0 -35 -26 -61t-61 -26q-38 0 -63 24t-25 63z" />
<glyph unicode="&#xc6;" horiz-adv-x="1929" d="M56 30q-4 -11 1 -20.5t18 -9.5h163q8 0 17 8l240 397h502v-387q0 -18 16 -18h842q19 0 19 18v137q0 18 -21 18h-665v493h556q19 0 20 17v134q0 18 -22 18h-554v437h642q18 0 18 19v136q0 18 -20 18l-892 2q-8 0 -17 -8zM592 570l405 656v-656h-405z" />
<glyph unicode="&#xc7;" horiz-adv-x="1344" d="M128 723q0 -138 35.5 -263t104.5 -223.5t171 -163.5t236 -85l-40 -122q-4 -23 21 -23q8 0 15.5 1t15.5 1q17 0 31.5 1t25.5 1q27 0 49 -13.5t22 -40.5q0 -32 -30.5 -43t-55.5 -11q-83 0 -155 44q-6 4 -15 1t-13 -14l-18 -71q0 -16 13 -20q95 -46 205 -46q39 0 79 8t71 27 t51 51t20 80q0 32 -14.5 59t-39 47t-54.5 31.5t-59 11.5h-35l12 29h15q71 0 114 2.5t80.5 14.5t82.5 38t123 76q15 10 5 26l-59 104q-8 16 -24 9q-70 -38 -109.5 -58t-69.5 -29.5t-61.5 -10.5t-84.5 -1q-125 0 -212.5 49.5t-143 130.5t-80.5 186.5t-25 216.5q0 112 26 215 t82.5 183.5t144 128.5t211.5 48q54 0 85.5 -2t61.5 -15t66.5 -39t103.5 -74q10 -10 23 0l86 84q16 16 -2 27q-90 72 -142.5 110t-92 56t-81 21t-111.5 3q-163 0 -287 -59.5t-206.5 -163t-125 -240.5t-42.5 -291z" />
<glyph unicode="&#xc8;" horiz-adv-x="1104" d="M136 18q0 -18 21 -18h796q16 0 16 18v137q0 8 -6 13t-12 5h-626v495h519q18 0 19 19v134q0 18 -21 18h-517v441h602q19 0 20 17v138q0 19 -22 19h-770q-18 0 -19 -19v-1417zM258 1763q-1 -11 9 -17l341 -247q8 -8 18 -2l66 40q8 6 9 16t-7 16l-291 269q0 4 -7 5t-11 -3 l-118 -62q-8 -4 -9 -15z" />
<glyph unicode="&#xc9;" horiz-adv-x="1104" d="M136 18q0 -18 21 -18h796q16 0 16 18v137q0 8 -6 13t-12 5h-626v495h519q18 0 19 19v134q0 18 -21 18h-517v441h602q19 0 20 17v138q0 19 -22 19h-770q-18 0 -19 -19v-1417zM316 1552q1 -11 12 -15l67 -40q2 -2 6 -2q6 0 10 4l341 247q8 6 7 17t-11 15l-115 62 q-8 6 -21 -2l-291 -269q-6 -6 -5 -17z" />
<glyph unicode="&#xca;" horiz-adv-x="1104" d="M136 18q0 -18 21 -18h796q16 0 16 18v137q0 8 -6 13t-12 5h-626v495h519q18 0 19 19v134q0 18 -21 18h-517v441h602q19 0 20 17v138q0 19 -22 19h-770q-18 0 -19 -19v-1417zM204 1542.5q3 -9.5 17 -11.5l118 -8q6 0 14 4l167 157l170 -157q4 -4 14 -4l117 8q12 2 15 11.5 t-7 20.5l-259 273q0 2 -4 4t-8 2h-80q-10 0 -10 -6l-259 -273q-8 -11 -5 -20.5z" />
<glyph unicode="&#xcb;" horiz-adv-x="1104" d="M136 18q0 -18 21 -18h796q16 0 16 18v137q0 8 -6 13t-12 5h-626v495h519q18 0 19 19v134q0 18 -21 18h-517v439h602q19 0 20 19v138q0 19 -22 19h-770q-18 0 -19 -19v-1417zM243 1606q0 -18 20 -19h176q16 0 16 19v188q0 19 -18 20h-176q-18 0 -18 -20v-188zM568 1606 q0 -18 22 -19h175q16 0 16 19v188q0 19 -18 20h-177q-18 0 -18 -20v-188z" />
<glyph unicode="&#xcc;" horiz-adv-x="502" d="M38 1764q0 -11 10 -18l326 -247q6 -6 17 -2l62 40q10 4 11 15q0 11 -9 17l-278 269q-10 10 -18 2l-113 -62q-8 -4 -8 -14zM188 18q0 -18 21 -18h148q18 0 19 18v1417q0 19 -21 19h-148q-18 0 -19 -19v-1417z" />
<glyph unicode="&#xcd;" horiz-adv-x="502" d="M41 1552q1 -11 9 -15l63 -40q10 -6 19 2l326 247q8 6 7 17t-10 15l-110 62q-10 8 -22 -2l-277 -269q-6 -6 -5 -17zM136 18q0 -18 19 -18h148q18 0 18 18v1417q0 19 -18 19h-148q-18 0 -19 -19v-1417z" />
<glyph unicode="&#xce;" horiz-adv-x="502" d="M-61 1542.5q3 -9.5 17 -11.5l117 -8q5 0 13 4l167 157l167 -157q4 -4 12 -4l118 8q10 2 14 11.5t-6 20.5l-257 273q0 2 -4 4t-8 2h-78q-10 0 -10 -6l-257 -273q-8 -11 -5 -20.5zM148 18q0 -18 21 -18h152q19 0 20 18v1417q0 19 -22 19h-152q-18 0 -19 -19v-1417z" />
<glyph unicode="&#xcf;" horiz-adv-x="502" d="M-10 1606q0 -18 18 -19h172q16 0 17 19v188q0 19 -17 20h-172q-18 0 -18 -20v-188zM161 18q0 -18 16 -18h153q17 0 17 18v1417q0 19 -17 19h-153q-16 0 -16 -19v-1417zM307 1606q0 -18 18 -19h172q16 0 17 19v188q0 19 -17 20h-172q-18 0 -18 -20v-188z" />
<glyph unicode="&#xd0;" horiz-adv-x="1386" d="M73 679q0 -18 19 -19h117v-642q0 -18 16 -18h375q169 0 302.5 51t224.5 145.5t139 230t48 304.5q0 164 -44 295.5t-130.5 223t-213 142.5t-291.5 53l-412 6q-16 0 -16 -18v-610h-117q-17 0 -17 -19v-125zM399 173v487h315q18 0 19 19v125q0 18 -21 19h-313v451h217 q134 0 229 -40t155.5 -112.5t89 -175t28.5 -230.5h-2q0 -261 -137 -402t-399 -141h-181z" />
<glyph unicode="&#xd1;" horiz-adv-x="1386" d="M161 18q0 -18 21 -18h141q17 0 18 18v1164l674 -1174q2 -4 7.5 -6t9.5 -2h178q16 0 16 18v1417q0 8 -6 13.5t-12 5.5h-143q-18 0 -18 -19v-1136l-654 1146q-4 9 -15 9h-198q-19 0 -19 -19v-1417zM353 1650q-6 -16 12 -25l80 -33q12 -6 23 8q16 32 37 45.5t57 13.5 q30 0 57 -9.5t56 -24.5q32 -16 64 -29t72 -13q79 0 130 47.5t80 113.5l-12 24l-80 32q-14 6 -20 -6q-19 -29 -40 -44.5t-56 -15.5q-30 0 -57 10t-54 24q-32 16 -65 28.5t-75 12.5q-80 0 -130 -46t-79 -113z" />
<glyph unicode="&#xd2;" horiz-adv-x="1445" d="M104 727q0 -146 36.5 -281t112 -239.5t192.5 -167t278 -62.5q159 0 276 62.5t193 167t112.5 239.5t36.5 281t-36.5 280.5t-112.5 239.5t-193.5 167.5t-275.5 62.5q-161 0 -278 -62.5t-192.5 -167.5t-112 -239.5t-36.5 -280.5zM301 727q0 98 23 201.5t73 187.5t130.5 137 t195.5 53q113 0 193.5 -53t130 -137t72.5 -186.5t23 -202.5q0 -98 -23 -201.5t-72.5 -187t-130.5 -137t-193 -53.5q-115 0 -195.5 53.5t-130.5 137t-73 186.5t-23 202zM461 1763q-1 -11 9 -17l345 -244q8 -8 18 -3l68 38q10 4 11 15t-7 17l-295 269q-10 10 -20 2l-118 -62 q-10 -4 -11 -15z" />
<glyph unicode="&#xd3;" horiz-adv-x="1445" d="M104 727q0 -146 36.5 -281t112 -239.5t192.5 -167t278 -62.5q159 0 276 62.5t193 167t112.5 239.5t36.5 281t-36.5 280.5t-112.5 239.5t-193.5 167.5t-275.5 62.5q-161 0 -278 -62.5t-192.5 -167.5t-112 -239.5t-36.5 -280.5zM301 727q0 98 23 201.5t73 187.5t130.5 137 t195.5 53q113 0 193.5 -53t130 -137t72.5 -186.5t23 -202.5q0 -98 -23 -201.5t-72.5 -187t-130.5 -137t-193 -53.5q-115 0 -195.5 53.5t-130.5 137t-73 186.5t-23 202zM521 1552q1 -11 9 -15l68 -38q10 -6 18 3l345 244q10 6 9 17t-11 15l-117 62q-11 8 -21 -2l-295 -269 q-6 -6 -5 -17z" />
<glyph unicode="&#xd4;" horiz-adv-x="1445" d="M104 727q0 -146 36.5 -281t112 -239.5t192.5 -167t278 -62.5q159 0 276 62.5t193 167t112.5 239.5t36.5 281t-36.5 280.5t-112.5 239.5t-193.5 167.5t-275.5 62.5q-161 0 -278 -62.5t-192.5 -167.5t-112 -239.5t-36.5 -280.5zM301 727q0 98 23 201.5t73 187.5t130.5 137 t195.5 53q113 0 193.5 -53t130 -137t72.5 -186.5t23 -202.5q0 -98 -23 -201.5t-72.5 -187t-130.5 -137t-193 -53.5q-115 0 -195.5 53.5t-130.5 137t-73 186.5t-23 202zM405 1542.5q4 -9.5 17 -11.5l119 -8q10 0 15 4l169 157l174 -157q4 -4 14 -4l119 8q12 2 16.5 11.5 t-6.5 20.5l-263 273q-6 6 -12 6h-82q-6 0 -13 -6l-261 -273q-10 -11 -6 -20.5z" />
<glyph unicode="&#xd5;" horiz-adv-x="1445" d="M104 727q0 -146 36.5 -281t112 -239.5t192.5 -167t278 -62.5q159 0 276 62.5t193 167t112.5 239.5t36.5 281t-36.5 280.5t-112.5 238t-193.5 166.5t-275.5 63q-161 0 -278 -63t-192.5 -166.5t-112 -238t-36.5 -280.5zM301 727q0 98 23 201.5t73 187.5t130.5 137t195.5 53 q113 0 193.5 -53t130 -137t72.5 -186.5t23 -202.5t-23 -202.5t-72.5 -186t-130.5 -137t-193 -53.5q-115 0 -195.5 53.5t-130.5 137t-73 185.5t-23 203zM385 1650q-5 -18 10 -25l81 -33q15 -8 23 8q16 32 36.5 46.5t56.5 14.5q31 0 58 -10.5t56 -25.5q31 -16 64.5 -29 t73.5 -13q77 0 129.5 47.5t81.5 113.5l-11 26l-79 30q-16 8 -23 -6q-16 -29 -37.5 -44.5t-56.5 -15.5q-30 0 -56.5 10t-56.5 26q-31 14 -64 26.5t-75 12.5q-80 0 -130 -46t-81 -113z" />
<glyph unicode="&#xd6;" horiz-adv-x="1445" d="M104 727q0 -146 36.5 -281t112 -239.5t192.5 -167t278 -62.5q159 0 276 62.5t193 167t112.5 239.5t36.5 281t-36.5 280.5t-112.5 239.5t-193.5 167.5t-275.5 62.5q-161 0 -278 -62.5t-192.5 -167.5t-112 -239.5t-36.5 -280.5zM301 727q0 98 23 201.5t73 187.5t130.5 137 t195.5 53q113 0 193.5 -53t130 -137t72.5 -186.5t23 -202.5t-23 -202.5t-72.5 -186t-130.5 -137t-193 -53.5q-115 0 -195.5 53.5t-130.5 137t-73 185.5t-23 203zM447 1606q0 -18 17 -19h180q16 0 16 19v188q0 19 -16 20h-180q-16 0 -17 -20v-188zM777 1606q0 -18 17 -19h179 q18 0 19 19v188q0 19 -19 20h-179q-17 0 -17 -20v-188z" />
<glyph unicode="&#xd7;" horiz-adv-x="1252" d="M123 157l96 -97q13 -12 26 0l381 383l383 -383q12 -12 25 0l96 97q12 12 0 25l-382 382l382 383q12 12 0 24l-96 97q-12 12 -25 0l-383 -383l-381 383q-12 12 -26 0l-96 -97q-12 -12 0 -24l383 -383l-383 -382q-12 -13 0 -25z" />
<glyph unicode="&#xd8;" horiz-adv-x="1445" d="M69 -10q2 -8 13 -13l104 -35q4 -2 9.5 -1t9.5 5l132 169q79 -73 178 -105.5t208 -32.5q161 0 278 62.5t192 166t110.5 239t35.5 280.5q0 132 -30.5 262.5t-108.5 240.5l173 226q6 8 4 16.5t-13 12.5l-102 38q-15 4 -21 -4l-140 -180q-80 74 -177 104t-201 30 q-161 0 -277 -63t-191 -166.5t-111 -238t-36 -278.5q0 -131 29.5 -260.5t107.5 -241.5l-172 -217q-6 -8 -4 -16zM305 725q0 98 23 200.5t73 185.5t129.5 137t192.5 54q161 0 265 -114l-619 -797q-37 75 -50.5 161t-13.5 173zM453 265l617 800q42 -80 56 -167t14 -173 q0 -98 -23 -200.5t-73 -187t-129.5 -138t-191.5 -53.5q-79 0 -148 29.5t-122 89.5z" />
<glyph unicode="&#xd9;" horiz-adv-x="1365" d="M171 508q0 -253 130.5 -392t383.5 -139q243 0 376 139t133 386v933q0 19 -18 19h-140q-18 0 -19 -19v-925q0 -165 -81 -261t-249 -96q-173 0 -248.5 97t-75.5 264v921q0 19 -18 19h-155q-19 0 -19 -19v-927zM431 1763q-1 -11 8 -17l342 -244q8 -8 19 -3l67 38q10 4 11 15 t-7 17l-293 269q-10 10 -20 2l-117 -62q-9 -4 -10 -15z" />
<glyph unicode="&#xda;" horiz-adv-x="1365" d="M171 508q0 -253 130.5 -392t383.5 -139q243 0 376 139t133 386v933q0 19 -18 19h-140q-18 0 -19 -19v-925q0 -165 -81 -261t-249 -96q-173 0 -248.5 97t-75.5 264v921q0 19 -18 19h-155q-19 0 -19 -19v-927zM490 1552q1 -11 9 -15l67 -38q10 -6 18 3l343 244q10 6 9.5 17 t-11.5 15l-116 62q-10 8 -22 -2l-292 -269q-6 -6 -5 -17z" />
<glyph unicode="&#xdb;" horiz-adv-x="1365" d="M171 508q0 -253 130.5 -392t383.5 -139q243 0 376 139t133 386v933q0 19 -18 19h-140q-18 0 -19 -19v-925q0 -165 -81 -261t-249 -96q-173 0 -248.5 97t-75.5 264v921q0 19 -18 19h-155q-19 0 -19 -19v-927zM376 1541.5q4 -10.5 15 -10.5l119 -8q10 0 14 4l170 157 l171 -157q4 -4 14 -4l120 8q10 0 14 10.5t-6 21.5l-261 273q-6 6 -13 6h-79q-6 0 -12 -6l-262 -273q-8 -11 -4 -21.5z" />
<glyph unicode="&#xdc;" horiz-adv-x="1365" d="M171 508q0 -253 130.5 -392t383.5 -139q243 0 376 139t133 386v933q0 19 -18 19h-140q-18 0 -19 -19v-925q0 -165 -81 -261t-249 -96q-173 0 -248.5 97t-75.5 264v921q0 19 -18 19h-155q-19 0 -19 -19v-927zM416 1606q0 -18 19 -19h175q18 0 18 19v188q0 19 -18 20h-175 q-19 0 -19 -20v-188zM744 1606q0 -18 19 -19h177q17 0 17 19v188q0 19 -17 20h-177q-18 0 -19 -20v-188z" />
<glyph unicode="&#xdd;" horiz-adv-x="1224" d="M21 1444.5q-5 -9.5 2 -19.5l495 -813v-594q0 -18 19 -18h155q18 0 18 18v590l494 817q4 10 -1.5 19.5t-18.5 9.5h-154q-4 0 -9.5 -2.5t-5.5 -6.5l-393 -647l-386 647q-4 9 -15 9h-185q-10 0 -15 -9.5zM413 1552q1 -11 11 -15l67 -40q0 -2 6 -2t11 4l345 247q8 6 7 17 t-12 15l-117 62q-8 6 -21 -2l-292 -269q-6 -6 -5 -17z" />
<glyph unicode="&#xde;" horiz-adv-x="1104" d="M106 18q0 -18 19 -18h152q19 0 20 18v307h240q93 0 177 27.5t147.5 79.5t100.5 131t37 181q0 106 -33 188.5t-92 138t-143.5 83.5t-187.5 28h-246v245q0 18 -20 18h-152q-18 0 -19 -18v-1409zM297 497v514h253q119 0 189 -64t70 -187q0 -90 -33.5 -142t-87 -79 t-122.5 -35.5t-138 -8.5q-20 0 -39.5 1t-39.5 1h-52z" />
<glyph unicode="&#xdf;" horiz-adv-x="1186" d="M119 1030q0 -127 1 -253.5t1 -254.5v-508q0 -18 19 -18h139q19 0 20 18v993q0 71 11 137t40.5 117t80.5 82.5t133 31.5q90 0 149.5 -53.5t59.5 -147.5q0 -44 -10.5 -78.5t-28.5 -60.5t-40 -48t-42 -40q-42 -36 -71 -74t-29 -98q0 -20 2 -31v2q4 -34 17 -54t33 -31 t45.5 -16t50.5 -10h-2q31 -6 63.5 -15.5t57.5 -32.5t40.5 -66t15.5 -118q0 -60 -21 -110t-58.5 -85t-87.5 -53.5t-108 -18.5q-40 0 -78 5t-73 20q-21 8 -25 -13l-27 -114q-4 -19 14 -24q6 -2 11 -2q6 0 13 -2q41 -8 84 -15t91 -7q96 0 179.5 29t145.5 84.5t97.5 136 t35.5 182.5q0 113 -51.5 189t-147.5 128q-14 9 -32 12t-37 7q-30 4 -53.5 11.5t-23.5 21.5q0 19 30 55.5t108 99.5q52 42 77 103.5t25 128.5q0 88 -33 153.5t-88 110.5t-127.5 68t-150.5 23q-111 0 -194 -38t-139 -104.5t-84 -157.5t-28 -197z" />
<glyph unicode="&#xe0;" horiz-adv-x="1085" d="M106 303q0 -84 29.5 -145.5t80.5 -102.5t118 -61t142 -20q102 0 184 43t142 123l7 -122q0 -18 16 -18h138q10 0 14.5 7t-0.5 19q-4 12 -7 32t-4 43.5t-2 46.5t-1 40v531q0 201 -98 290.5t-291 89.5q-48 0 -77 -1.5t-65.5 -8.5t-89.5 -22.5t-150 -42.5q-17 -4 -8 -25 l31 -94q4 -17 21 -14q81 21 126 31.5t76.5 16.5t57.5 7t70 1q108 0 167 -54t59 -168v-50q-13 -2 -23 -3h-21q-96 -2 -209 -10t-209 -44t-160 -108.5t-64 -206.5zM295 303q0 71 39.5 115t98 68t125 31t123.5 7h111l-3 -69q0 -67 -20.5 -126.5t-58.5 -103t-92 -69.5t-121 -26 q-86 0 -144 40.5t-58 132.5zM300 1406q-1 -11 9 -17l341 -245q8 -8 18 -2l63 40q24 16 4 32l-290 267q-10 10 -21 2l-115 -62q-8 -4 -9 -15z" />
<glyph unicode="&#xe1;" horiz-adv-x="1085" d="M106 303q0 -84 29.5 -145.5t80.5 -102.5t118 -61t142 -20q102 0 184 43t142 123l7 -122q0 -18 16 -18h138q10 0 14.5 7t-0.5 19q-4 12 -7 32t-4 43.5t-2 46.5t-1 40v531q0 201 -98 290.5t-291 89.5q-48 0 -77 -1.5t-65.5 -8.5t-89.5 -22.5t-150 -42.5q-17 -4 -8 -25 l31 -94q4 -17 21 -14q81 21 126 31.5t76.5 16.5t57.5 7t70 1q108 0 167 -54t59 -168v-50q-13 -2 -23 -3h-21q-96 -2 -209 -10t-209 -44t-160 -108.5t-64 -206.5zM295 303q0 71 39.5 115t98 68t125 31t123.5 7h111l-3 -69q0 -67 -20.5 -126.5t-58.5 -103t-92 -69.5t-121 -26 q-86 0 -144 40.5t-58 132.5zM358 1198q1 -10 11 -16l66 -40q2 -2 8 -2t10 4l339 245q10 6 9 17t-12 15l-117 62q-6 6 -18 -2l-291 -267q-6 -6 -5 -16z" />
<glyph unicode="&#xe2;" horiz-adv-x="1085" d="M106 303q0 -84 29.5 -145.5t80.5 -102.5t118 -61t142 -20q102 0 184 43t142 123l7 -122q0 -18 16 -18h138q10 0 14.5 7t-0.5 19q-4 12 -7 32t-4 43.5t-2 46.5t-1 40v531q0 201 -98 290.5t-291 89.5q-48 0 -77 -1.5t-65.5 -8.5t-89.5 -22.5t-150 -42.5q-17 -4 -8 -25 l31 -94q4 -17 21 -14q81 21 126 31.5t76.5 16.5t57.5 7t70 1q108 0 167 -54t59 -168v-50q-13 -2 -23 -3h-21q-96 -2 -209 -10t-209 -44t-160 -108.5t-64 -206.5zM244 1187.5q3 -9.5 17 -11.5l117 -8q7 0 15 4l169 154l169 -154q4 -4 15 -4l117 8q12 2 15 11.5t-7 20.5 l-259 271q0 2 -4 4t-8 2h-80q-10 0 -10 -6l-261 -271q-8 -11 -5 -20.5zM295 303q0 71 39.5 115t98 68t125 31t123.5 7h111l-3 -69q0 -67 -20.5 -126.5t-58.5 -103t-92 -69.5t-121 -26q-86 0 -144 40.5t-58 132.5z" />
<glyph unicode="&#xe3;" horiz-adv-x="1085" d="M106 303q0 -84 29.5 -145.5t80.5 -102.5t118 -61t142 -20q102 0 184 43t142 123l7 -122q0 -18 16 -18h138q10 0 14.5 7t-0.5 19q-4 12 -7 32t-4 43.5t-2 46.5t-1 40v531q0 201 -98 290.5t-291 89.5q-48 0 -77 -1.5t-65.5 -8.5t-89.5 -22.5t-150 -42.5q-17 -4 -8 -25 l31 -94q4 -17 21 -14q81 19 126 30.5t76.5 16t57.5 6t70 1.5q108 0 167 -54t59 -166v-50q-13 -2 -23 -3h-21q-96 -2 -209 -10t-209 -44t-160 -108.5t-64 -206.5zM223 1278.5q4 -6.5 11 -8.5l81 -34q10 -6 22 9q16 30 36 44.5t55 14.5q32 0 59 -11t54 -23q31 -16 64 -29 t72 -13q78 0 129 46t79 113l-10 25l-79 31q-13 6 -23 -6q-16 -29 -37.5 -44.5t-56.5 -15.5q-29 0 -54 10t-55 25q-31 16 -65.5 27.5t-74.5 11.5q-77 0 -127 -45.5t-80 -112.5q-4 -8 0 -14.5zM295 303q0 71 39.5 115t98 68t125 31t123.5 7h111l-3 -71q0 -67 -20.5 -125.5 t-58.5 -102t-92 -69.5t-121 -26q-86 0 -144 40.5t-58 132.5z" />
<glyph unicode="&#xe4;" horiz-adv-x="1085" d="M106 303q0 -84 29.5 -145.5t80.5 -102.5t118 -61t142 -20q102 0 184 43t142 123l7 -122q0 -18 16 -18h138q10 0 14.5 7t-0.5 19q-4 12 -7 32t-4 43.5t-2 46.5t-1 40v531q0 201 -98 290.5t-291 89.5q-48 0 -77 -1.5t-65.5 -8.5t-89.5 -22.5t-150 -42.5q-17 -4 -8 -25 l31 -94q4 -17 21 -14q81 21 126 31.5t76.5 16.5t57.5 7t70 1q108 0 167 -55t59 -167v-50q-13 -2 -23 -3h-21q-96 -2 -209 -10t-209 -44t-160 -108.5t-64 -206.5zM282 1252q0 -19 21 -20h173q21 0 21 20v187q0 17 -21 17h-175q-18 0 -19 -17v-187zM295 303q0 71 39.5 115 t98 68t125 31t123.5 7h111l-3 -71q0 -67 -20.5 -125.5t-58.5 -102t-92 -69.5t-121 -26q-86 0 -144 40.5t-58 132.5zM610 1252q0 -9 6 -14.5t12 -5.5h179q16 0 16 20v187q0 6 -6 11.5t-13 5.5h-178q-16 0 -16 -17v-187z" />
<glyph unicode="&#xe5;" horiz-adv-x="1085" d="M106 305q0 -84 29.5 -146.5t80.5 -103.5t118 -61t142 -20q102 0 184 43t142 123l7 -122q0 -18 16 -18h138q10 0 14.5 7t-0.5 19q-4 12 -7 32t-4 43.5t-2 46.5t-1 40v533q0 201 -98 289.5t-291 88.5q-48 0 -77 -1.5t-65.5 -8.5t-89.5 -22.5t-150 -42.5q-17 -4 -8 -23 l31 -94q4 -17 21 -12q81 18 126 29.5t76.5 16t57.5 5.5t70 1q108 0 167 -54t59 -166v-52q-13 -2 -23 -3h-21q-96 -2 -209 -10t-209 -44t-160 -108.5t-64 -204.5zM295 305q0 71 39.5 114t98 67t125 31t123.5 7h111l-3 -69q0 -67 -20.5 -125.5t-58.5 -102t-92 -69.5t-121 -26 q-86 0 -144 39.5t-58 133.5zM349 1349q0 -43 15.5 -82t44 -67t66 -44t81.5 -16q42 0 79 17t65.5 45t44 66t15.5 81h-2q0 42 -15.5 80t-44 66t-65.5 45t-79 17t-79.5 -17t-66 -45t-44 -66t-15.5 -80zM468 1349q0 38 25 63t63 25t62 -26t24 -62h-2q0 -35 -25 -61t-61 -26 q-38 0 -62 24t-24 63z" />
<glyph unicode="&#xe6;" horiz-adv-x="1808" d="M102 301q0 -82 30.5 -143.5t81.5 -102.5t119 -61t145 -20q118 0 223.5 58t159.5 162q138 -217 409 -217q48 0 78.5 1.5t66.5 8.5t91 21.5t153 43.5q6 2 10 9.5t0 16.5l-31 91q-4 17 -23 13q-88 -17 -137 -26.5t-82.5 -13.5t-59.5 -5t-70 -1q-82 0 -137 28t-89.5 76.5 t-51.5 112t-23 136.5h719q4 0 10 4t6 9q4 4 4 12v14h2q0 108 -23.5 208.5t-77 179t-139 125.5t-210.5 47q-100 0 -187 -38.5t-150 -111.5q-60 86 -151 117t-194 31q-50 0 -80 -1t-66.5 -8t-91 -22t-152.5 -42q-7 -2 -11 -9t0 -16l34 -91q0 -7 7 -11.5t13 -2.5 q84 21 131 31.5t78.5 16t58.5 6.5t71 1q113 0 169.5 -53.5t56.5 -165.5v-51q-11 -2 -21 -2h-19q-98 -2 -212 -10t-211 -44t-162 -108t-65 -203zM295 301q0 71 39.5 114t99 67t127 31t124.5 7h107l-3 -69q0 -64 -19.5 -123t-57 -102.5t-92 -69.5t-123.5 -26q-86 0 -144 39.5 t-58 131.5zM969 640q10 56 32.5 110t57.5 95.5t84 67t117 25.5q64 0 111.5 -25.5t76.5 -67t44 -95.5t17 -110h-540z" />
<glyph unicode="&#xe7;" horiz-adv-x="964" d="M50 537q0 -102 24 -194t72 -166.5t120.5 -123.5t168.5 -67l-40 -118q-2 -10 4 -17.5t17 -7.5q8 0 15.5 1t15.5 1q16 2 30 3.5t27 1.5q25 0 47.5 -15t22.5 -40q0 -32 -30 -44t-57 -12q-76 0 -150 46q-7 4 -16.5 1t-13.5 -13l-18 -72q0 -16 12 -20q96 -46 205 -46 q38 0 76 8t69.5 27t51.5 50t20 79q0 32 -14.5 60t-37.5 48t-52 31.5t-59 11.5h-36l10 27q50 0 81 1.5t65 8.5t84.5 21.5t140.5 43.5l10 26l-34 93q-4 17 -20 13q-82 -21 -126.5 -31.5t-76.5 -15.5t-58 -6t-70 -1q-83 0 -139 36.5t-90 94.5t-47 132.5t-13 149.5t18 146 t56 126.5t96.5 89t140.5 33.5q33 0 53.5 -1t43.5 -5.5t57 -13.5t94 -27q4 -2 11.5 3t7.5 11l40 96q6 14 -11 20q-61 30 -95 45.5t-63.5 22.5t-60.5 8.5t-86 1.5q-124 0 -215.5 -44t-153 -120t-93 -178.5t-31.5 -219.5z" />
<glyph unicode="&#xe8;" horiz-adv-x="1085" d="M86 539q0 -120 28 -223t87.5 -178.5t151.5 -118t219 -42.5q48 0 77.5 1.5t64 8.5t84.5 21.5t138 43.5q17 6 13 26l-34 93q-2 6 -9 10.5t-11 2.5q-82 -21 -128 -31.5t-77.5 -15.5t-57.5 -6t-68 -1q-82 0 -135 29t-85.5 79.5t-48.5 116t-20 138.5h709q17 0 17 19 q0 113 -21 218t-72 188t-137 132t-217 49q-117 0 -205 -47t-146.5 -125.5t-87.5 -179.5t-29 -208zM279 644q9 58 30 112.5t56.5 97.5t85 68t113.5 25t109.5 -26t74.5 -68t44 -96.5t19 -112.5h-532zM294 1406q-1 -11 9 -17l341 -245q8 -8 18 -2l67 40q11 4 12 15t-8 17 l-292 267q-6 10 -19 2l-117 -62q-10 -4 -11 -15z" />
<glyph unicode="&#xe9;" horiz-adv-x="1085" d="M86 539q0 -120 28 -223t87.5 -178.5t151.5 -118t219 -42.5q48 0 77.5 1.5t64 8.5t84.5 21.5t138 43.5q17 6 13 26l-34 93q-2 6 -9 10.5t-11 2.5q-82 -21 -128 -31.5t-77.5 -15.5t-57.5 -6t-68 -1q-82 0 -135 29t-85.5 79.5t-48.5 116t-20 138.5h709q17 0 17 19 q0 113 -21 218t-72 188t-137 132t-217 49q-117 0 -205 -47t-146.5 -125.5t-87.5 -179.5t-29 -208zM279 644q9 58 30 112.5t56.5 97.5t85 68t113.5 25t109.5 -26t74.5 -68t44 -96.5t19 -112.5h-532zM352 1197q1 -11 11 -15l67 -40q11 -4 17 2l342 245q9 6 8 17t-10 15 l-117 62q-10 8 -20 -2l-291 -267q-8 -6 -7 -17z" />
<glyph unicode="&#xea;" horiz-adv-x="1085" d="M86 539q0 -120 28 -223t87.5 -178.5t151.5 -118t219 -42.5q48 0 77.5 1.5t64 8.5t84.5 21.5t138 43.5q17 6 13 26l-34 93q-2 6 -9 10.5t-11 2.5q-82 -21 -128 -31.5t-77.5 -15.5t-57.5 -6t-68 -1q-82 0 -135 29t-85.5 79.5t-48.5 116t-20 138.5h709q17 0 17 19 q0 113 -21 218t-72 188t-137 132t-217 49q-117 0 -205 -47t-146.5 -125.5t-87.5 -179.5t-29 -208zM240 1187.5q3 -9.5 15 -11.5l119 -8q11 0 15 4l167 154l171 -154q4 -4 15 -4l117 8q12 2 16 11.5t-6 20.5l-261 271q-6 6 -12 6h-80q-6 0 -12 -6l-259 -271q-8 -11 -5 -20.5z M279 644q9 58 30 112.5t56.5 97.5t85 68t113.5 25t109.5 -26t74.5 -68t44 -96.5t19 -112.5h-532z" />
<glyph unicode="&#xeb;" horiz-adv-x="1085" d="M86 537q0 -120 28 -222t87.5 -177.5t151.5 -118t219 -42.5q48 0 77.5 1.5t64 8.5t84.5 21.5t138 43.5q17 6 13 26l-34 93q-2 6 -9 10.5t-11 2.5q-82 -21 -128 -31.5t-77.5 -15.5t-57.5 -6t-68 -1q-82 0 -135 29t-85.5 79.5t-48.5 116t-20 138.5h709q17 0 17 19 q0 113 -21 218t-72 188t-137 132t-217 49q-117 0 -205 -47t-146.5 -125.5t-87.5 -179.5t-29 -210zM279 644q9 58 30 112.5t56.5 96.5t85 67t113.5 25t109.5 -25t74.5 -67t44 -96.5t19 -112.5h-532zM279 1252q0 -19 18 -20h177q17 0 17 20v185q0 19 -17 19h-177 q-17 0 -18 -19v-185zM606 1252q0 -19 18 -20h176q18 0 19 20v185q0 19 -19 19h-176q-18 0 -18 -19v-185z" />
<glyph unicode="&#xec;" horiz-adv-x="482" d="M29 1406q-1 -11 9 -17l325 -245q6 -6 17 -2l65 40q6 4 8 14t-8 16l-278 269q-8 8 -19 2l-110 -62q-8 -4 -9 -15zM184 18q0 -18 21 -18h134q16 0 16 18v1037q0 18 -18 19h-134q-18 0 -19 -19v-1037z" />
<glyph unicode="&#xed;" horiz-adv-x="482" d="M30 1196q2 -10 10 -14l64 -40q2 -2 7 -2q6 0 10 4l326 245q8 6 7 17t-11 15l-110 62q-9 4 -20 -2l-277 -269q-8 -6 -6 -16zM130 18q0 -18 20 -18h135q16 0 16 18v1037q0 18 -19 19h-134q-18 0 -18 -19v-1037z" />
<glyph unicode="&#xee;" horiz-adv-x="482" d="M-70.5 1187.5q3.5 -9.5 14.5 -11.5l116 -8q10 0 15 4l166 154l166 -154q4 -4 15 -4l115 8q12 2 16.5 11.5t-5.5 18.5l-257 273q-6 6 -12 6h-78q-6 0 -13 -6l-252 -273q-10 -9 -6.5 -18.5zM144 18q0 -18 19 -18h138q16 0 16 18v1037q0 18 -16 19h-138q-18 0 -19 -19v-1037 z" />
<glyph unicode="&#xef;" horiz-adv-x="482" d="M-20 1252q0 -19 16 -20h171q19 0 19 20v185q0 19 -19 19h-171q-16 0 -16 -19v-185zM155 18q0 -18 16 -18h136q18 0 18 18v1037q0 18 -18 19h-136q-16 0 -16 -19v-1037zM297 1252q0 -19 16 -20h171q19 0 20 20v185q0 19 -20 19h-171q-16 0 -16 -19v-185z" />
<glyph unicode="&#xf0;" d="M82 532q0 -115 31 -216t91.5 -177.5t152.5 -120.5t213 -44q132 0 224.5 49.5t152.5 133.5t88 192t28 227q0 234 -88 418t-261 332l147 91q14 12 0 26l-74 78q-8 12 -22 4l-183 -111q-67 42 -141 68.5t-144 42.5q-10 2 -20 -6l-68 -84q-8 -8 -4 -16.5t16 -12.5 q54 -17 107.5 -37t101.5 -47l-151 -92q-6 -4 -7 -13t7 -15l78 -76q6 -10 21 -4l178 108q36 -29 74 -70.5t70 -85.5q-54 26 -120 25q-123 0 -216 -45t-155.5 -122t-94.5 -180.5t-32 -219.5zM273 534q0 74 16 147t52.5 131.5t94 95.5t140.5 37q80 0 136.5 -38t91.5 -97.5 t51 -132.5t16 -145h-2q0 -69 -17 -139t-53 -128t-91.5 -94.5t-131.5 -36.5q-83 0 -140.5 34.5t-94 90.5t-52.5 128.5t-16 146.5z" />
<glyph unicode="&#xf1;" d="M134 18q0 -18 21 -18h140q16 0 16 18v580q0 64 17 125.5t52.5 108.5t87.5 76.5t126 29.5q50 0 88.5 -18.5t63.5 -52.5t37.5 -76.5t12.5 -92.5v-680q0 -18 19 -18h140q18 0 18 18v667q0 90 -21 166t-65.5 130.5t-113.5 84.5t-165 30q-106 0 -180.5 -43.5t-126.5 -125.5 v128q0 18 -19 19h-129q-18 0 -19 -19v-1037zM349 1293q-6 -16 10 -25l82 -32q10 -6 21 9q16 30 36 44.5t56 14.5q31 0 57.5 -12t54.5 -24q30 -16 63.5 -28t72.5 -12q77 0 128.5 46t80.5 113l-10 25l-80 31q-12 6 -22 -6q-17 -29 -38.5 -44.5t-56.5 -15.5q-30 0 -55.5 10 t-55 25t-63.5 27t-74 12q-80 0 -129 -45.5t-78 -112.5z" />
<glyph unicode="&#xf2;" d="M84 539q0 -116 31 -218t91.5 -178t152.5 -121t213 -45q122 0 213.5 45t153.5 121t92 178t30 218q0 113 -31 215.5t-92 178.5t-153.5 121t-214.5 45q-123 0 -214 -44t-151.5 -120t-90.5 -178.5t-30 -217.5zM273 539q0 73 16 145t52.5 129.5t93 93t137.5 35.5 q82 0 138.5 -36.5t91.5 -94t51 -129.5t16 -143h-2q0 -74 -16 -146t-50 -130t-91.5 -93.5t-139.5 -35.5q-81 0 -137.5 35.5t-92 93.5t-51.5 130.5t-16 145.5zM316 1406q-1 -11 9 -17l343 -245q6 -6 17 -2l65 40q10 4 11.5 15t-7.5 17l-290 267q-10 10 -21 2l-118 -62 q-8 -4 -9 -15z" />
<glyph unicode="&#xf3;" d="M84 539q0 -116 31 -218t91.5 -178t152.5 -121t213 -45q122 0 213.5 45t153.5 121t92 178t30 218q0 113 -31 215.5t-92 178.5t-153.5 121t-214.5 45q-123 0 -214 -44t-151.5 -120t-90.5 -178.5t-30 -217.5zM273 539q0 73 16 145t52.5 129.5t93 93t137.5 35.5 q82 0 138.5 -36.5t91.5 -94t51 -129.5t16 -143h-2q0 -74 -16 -146t-50 -130t-91.5 -93.5t-139.5 -35.5q-81 0 -137.5 35.5t-92 93.5t-51.5 130.5t-16 145.5zM375 1197q1 -11 12 -15l66 -40q2 -2 7 -2q6 0 10 4l341 245q10 6 9 17t-11 15l-117 62q-9 4 -20 -2l-292 -267 q-6 -6 -5 -17z" />
<glyph unicode="&#xf4;" d="M84 539q0 -116 31 -218t91.5 -178t152.5 -121t213 -45q122 0 213.5 45t153.5 121t92 178t30 218q0 113 -31 215.5t-92 178.5t-153.5 121t-214.5 45q-123 0 -214 -44t-151.5 -120t-90.5 -178.5t-30 -217.5zM260 1187.5q3 -9.5 17 -11.5l120 -8q6 0 14 4l167 154l172 -154 q4 -4 15 -4l118 8q11 0 15.5 10.5t-7.5 21.5l-263 271q0 6 -10 6h-81q-11 0 -11 -6l-261 -271q-8 -11 -5 -20.5zM273 539q0 73 16 145t52.5 129.5t93 93t137.5 35.5q82 0 138.5 -36.5t91.5 -94t51 -129.5t16 -143h-2q0 -74 -16 -146t-50 -130t-91.5 -93.5t-139.5 -35.5 q-81 0 -137.5 35.5t-92 93.5t-51.5 130.5t-16 145.5z" />
<glyph unicode="&#xf5;" d="M84 537q0 -114 31 -216t91.5 -178t152.5 -121t213 -45q122 0 213.5 45t153.5 121t92 177t30 217q0 115 -31 216.5t-92 178.5t-153.5 122t-214.5 45q-123 0 -214 -44t-151.5 -121t-90.5 -179.5t-30 -217.5zM241 1278.5q4 -6.5 10 -8.5l82 -34q12 -6 22 9q27 59 92 59 q29 0 56 -11t57 -23q32 -16 64 -29t72 -13q77 0 128 46t81 113l-8 25l-82 31q-12 6 -23 -6q-17 -29 -38 -44.5t-56 -15.5q-30 0 -56 10t-56 25q-31 16 -64 27.5t-73 11.5q-80 0 -130 -45.5t-78 -112.5q-4 -8 0 -14.5zM273 537q0 73 16 146t52.5 130.5t93 93t137.5 35.5 q82 0 138.5 -36.5t91.5 -94t51 -130.5t16 -144h-2q0 -74 -16 -145t-50 -129t-91.5 -93.5t-139.5 -35.5q-81 0 -137.5 35.5t-92 93.5t-51.5 129.5t-16 144.5z" />
<glyph unicode="&#xf6;" d="M84 537q0 -114 31 -216t91.5 -178t152.5 -121t213 -45q122 0 213.5 45t153.5 121t92 177t30 217q0 115 -31 216.5t-92 178.5t-153.5 122t-214.5 45q-123 0 -214 -44t-151.5 -121t-90.5 -179.5t-30 -217.5zM273 537q0 73 16 146t52.5 130.5t93 93t137.5 35.5 q82 0 138.5 -36.5t91.5 -94t51 -130.5t16 -144h-2q0 -74 -16 -145t-50 -129t-91.5 -93.5t-139.5 -35.5q-81 0 -137.5 35.5t-92 93.5t-51.5 129.5t-16 144.5zM301 1252q0 -19 18 -20h176q20 0 21 20v185q0 19 -21 19h-178q-16 0 -16 -19v-185zM626 1252q0 -19 22 -20h175 q21 0 21 20v185q0 19 -21 19h-177q-19 0 -20 -19v-185z" />
<glyph unicode="&#xf7;" horiz-adv-x="1252" d="M92 495q0 -19 19 -19h1031q19 0 20 19v138q0 17 -22 17h-1032q-16 0 -16 -17v-138zM516 80q0 -19 21 -20h179q18 0 19 20v181q0 18 -21 18h-180q-18 0 -18 -18v-181zM516 867q0 -18 21 -19h179q18 0 19 19v182q0 18 -21 19h-180q-18 0 -18 -19v-182z" />
<glyph unicode="&#xf8;" d="M17.5 -54q5.5 -10 16.5 -10q16 0 41 -16q30 -16 61 -16q8 0 14 6l129 161q61 -48 137.5 -71t157.5 -23q122 0 213.5 45t153.5 121t92 177.5t30 213.5q0 100 -22 196.5t-82 176.5l165 205q8 10 4 19t-16 11q-26 4 -47 16q-14 6 -27.5 11t-28.5 5q-8 0 -15 -6l-133 -163 q-62 48 -135.5 68.5t-151.5 20.5q-123 0 -216 -43.5t-153.5 -119.5t-90.5 -178.5t-30 -218.5q0 -97 22 -191t78 -174l-164 -205q-8 -8 -2.5 -18zM275 534q0 74 16 146t51.5 129.5t92 93t139.5 35.5q52 0 98.5 -15.5t81.5 -51.5l-445 -550q-20 50 -27 104.5t-7 108.5z M389 203l444 549q24 -50 31 -106.5t7 -111.5q0 -73 -16 -144t-50 -128t-91.5 -92.5t-139.5 -35.5q-54 0 -101 16.5t-84 52.5z" />
<glyph unicode="&#xf9;" d="M157 405q0 -94 20 -172t64 -134.5t113.5 -89t169.5 -32.5q98 0 174.5 45t124.5 124v-128q4 -18 21 -18h125q18 0 19 18v1037q0 18 -21 19h-140q-16 0 -16 -19v-577q0 -62 -17 -122.5t-50.5 -109.5t-84.5 -78.5t-120 -29.5q-57 0 -96.5 22t-64.5 59.5t-35 85.5t-10 100 v650q0 18 -20 19h-140q-16 0 -16 -19v-650zM322.5 1406q-1.5 -11 10.5 -17l339 -245q6 -6 18 -2l64 40q10 4 11.5 15t-7.5 17l-290 267q-10 10 -21 2l-114 -62q-9 -4 -10.5 -15z" />
<glyph unicode="&#xfa;" d="M157 405q0 -94 20 -172t64 -134.5t113.5 -89t169.5 -32.5q98 0 174.5 45t124.5 124v-128q4 -18 21 -18h125q18 0 19 18v1037q0 18 -21 19h-140q-16 0 -16 -19v-577q0 -62 -17 -122.5t-50.5 -109.5t-84.5 -78.5t-120 -29.5q-57 0 -96.5 22t-64.5 59.5t-35 85.5t-10 100 v650q0 18 -20 19h-140q-16 0 -16 -19v-650zM381 1198q1 -10 12 -16l65 -40q2 -2 8 -2t10 4l339 245q10 6 9 17t-11 15l-117 62q-4 4 -10.5 3t-6.5 -5l-292 -267q-7 -6 -6 -16z" />
<glyph unicode="&#xfb;" d="M157 405q0 -94 20 -172t64 -134.5t113.5 -89t169.5 -32.5q98 0 174.5 45t124.5 124v-128q4 -18 21 -18h125q18 0 19 18v1037q0 18 -21 19h-140q-16 0 -16 -19v-577q0 -62 -17 -122.5t-50.5 -109.5t-84.5 -78.5t-120 -29.5q-57 0 -96.5 22t-64.5 59.5t-35 85.5t-10 100 v650q0 18 -20 19h-140q-16 0 -16 -19v-650zM266 1187.5q3 -9.5 19 -11.5l116 -8q6 0 15 4l168 154l170 -154q4 -4 15 -4l116 8q13 2 16.5 11.5t-6.5 20.5l-262 271q0 6 -11 6h-81l-4 -2q-5 -2 -5 -4l-261 -271q-8 -11 -5 -20.5z" />
<glyph unicode="&#xfc;" d="M157 405q0 -94 20 -172t64 -134.5t113.5 -89t169.5 -32.5q98 0 174.5 45t124.5 124v-128q4 -18 21 -18h125q18 0 19 18v1037q0 18 -21 19h-140q-16 0 -16 -19v-577q0 -62 -17 -122.5t-50.5 -109.5t-84.5 -78.5t-120 -29.5q-57 0 -96.5 22t-64.5 59.5t-35 85.5t-10 100 v650q0 18 -20 19h-140q-16 0 -16 -19v-650zM307 1252q0 -19 18 -20h174q20 0 21 20v185q0 19 -21 19h-176q-16 0 -16 -19v-185zM630 1252q0 -19 22 -20h175q19 0 19 20v185q0 19 -21 19h-175q-19 0 -20 -19v-185z" />
<glyph unicode="&#xfd;" horiz-adv-x="901" d="M9.5 1072.5q-3.5 -7.5 0.5 -17.5l355 -1032q0 -6 -2 -12.5t-6 -14.5q-10 -42 -25 -85t-37 -79.5t-54 -59.5t-78 -23q-10 0 -26 3t-33 7l-37 7q-18 4 -19 -19l-8 -119q0 -15 16 -19q67 -16 138 -16q62 0 108.5 26t81 67t58.5 93t42 102l411 1174q4 10 -3 17.5t-17 7.5 h-133q-9 0 -17 -12l-272 -786l-263 786q-4 12 -19 12h-148q-10 0 -13.5 -7.5zM249 1204q2 -10 12 -16l64 -39q2 -3 10 -3q6 0 10 5l340 246q9 7 8 16.5t-12 13.5l-117 64q-6 6 -18 -2l-291 -271q-8 -4 -6 -14z" />
<glyph unicode="&#xfe;" d="M119 -367q0 -17 19 -18h139q17 0 18 18v490q52 -73 128 -109.5t169 -36.5q115 0 197 49t134 129.5t77.5 181t25.5 202.5q0 106 -23 207.5t-75.5 182t-135 128.5t-202.5 48q-100 0 -172.5 -48t-122.5 -126v560q0 19 -18 20h-139q-19 0 -19 -20v-1858zM295 480v136 q0 58 19 115.5t54 104.5t85.5 76.5t110.5 29.5q80 0 132 -38.5t82.5 -98t42.5 -132.5t12 -141q0 -69 -12 -139t-42.5 -126t-82.5 -92.5t-132 -36.5q-64 0 -114.5 31.5t-85 80.5t-52 109.5t-17.5 120.5z" />
<glyph unicode="&#xff;" horiz-adv-x="901" d="M9.5 1072.5q-3.5 -7.5 0.5 -17.5l355 -1032q0 -6 -2 -12.5t-6 -14.5q-10 -42 -25 -85t-37 -79.5t-54 -59.5t-78 -23q-10 0 -26 3t-33 7l-37 7q-18 4 -19 -19l-8 -119q0 -15 16 -19q67 -16 138 -16q62 0 108.5 26t81 67t58.5 93t42 102l411 1174q4 10 -3 17.5t-17 7.5 h-133q-9 0 -17 -12l-272 -786l-263 786q-4 12 -19 12h-148q-10 0 -13.5 -7.5zM173 1258q0 -19 21 -20h173q21 0 22 20v187q0 19 -22 20h-175q-19 0 -19 -20v-187zM502 1258q0 -8 6 -14t12 -6h178q16 0 16 20v187q0 19 -18 20h-178q-16 0 -16 -20v-187z" />
<glyph unicode="&#x152;" horiz-adv-x="1969" d="M96 721q0 -144 35.5 -278t111.5 -236.5t193.5 -162.5t279.5 -60q46 0 86 5t75.5 14t71 24t75.5 35v-44q0 -18 16 -18h815q19 0 19 18v137q0 18 -19 18h-639v493h528q19 0 20 19v132q0 18 -20 18h-528v439h614q18 0 18 17v138q0 16 -18 16h-790q-16 0 -16 -16v-42 q-73 38 -148.5 57t-163.5 19q-161 0 -278 -62t-192 -165.5t-110.5 -237t-35.5 -277.5zM297 721q0 104 21 207.5t71 184.5t132.5 131.5t203.5 50.5q32 0 83 -6.5t98 -22.5t81 -44t34 -66v-851q0 -44 -32 -73t-79 -48t-98.5 -26.5t-86.5 -7.5q-121 0 -202.5 50.5t-131.5 132 t-72 182.5t-22 206z" />
<glyph unicode="&#x153;" horiz-adv-x="1848" d="M82 532q0 -113 30 -213t90.5 -176t152.5 -121t215 -45q115 0 217 42.5t176 135.5q144 -177 386 -178q48 0 79 1.5t67 8.5t92.5 21.5t156.5 43.5q8 2 14 9.5t0 16.5l-30 91q-2 6 -9.5 10.5t-14.5 2.5q-83 -19 -130 -30.5t-78 -15.5t-57.5 -5t-70.5 -1q-84 0 -142 29 t-98 78.5t-59.5 114t-26.5 137.5h698q6 0 12 6q4 4 10 17.5t6 15.5q0 106 -22 206.5t-72.5 179t-134 126.5t-208.5 48q-113 0 -211.5 -47t-160.5 -138q-64 98 -169 141.5t-220 43.5q-123 0 -215 -44.5t-152.5 -120t-90.5 -176.5t-30 -215zM275 532q0 72 16 144t51.5 129.5 t92 92.5t139.5 35q84 0 140.5 -35t92 -92.5t51 -129.5t15.5 -144q0 -71 -15.5 -142t-51 -128t-92 -92.5t-140.5 -35.5q-83 0 -139.5 35.5t-92 92.5t-51.5 128.5t-16 141.5zM1047 640q8 56 28.5 109t55.5 94.5t84.5 68t113.5 26.5t110 -25.5t74 -67t41 -94.5t13 -109v-2h-520 z" />
<glyph unicode="&#x178;" horiz-adv-x="1224" d="M21 1444.5q-5 -9.5 2 -19.5l495 -813v-594q0 -18 19 -18h155q18 0 18 18v590l494 817q4 10 -1.5 19.5t-18.5 9.5h-154q-4 0 -9.5 -2.5t-5.5 -6.5l-393 -647l-386 647q-4 9 -15 9h-185q-10 0 -15 -9.5zM337 1606q0 -18 20 -19h175q21 0 22 19v188q0 19 -22 20h-177 q-18 0 -18 -20v-188zM666 1606q0 -18 21 -19h178q18 0 18 19v188q0 19 -20 20h-178q-18 0 -19 -20v-188z" />
<glyph unicode="&#x2c6;" horiz-adv-x="726" d="M52 1076q4 -8 15 -11l117 -6q8 0 13 4l166 141l167 -141q4 -4 13 -4l117 6q12 0 15.5 9.5t-5.5 19.5l-256 247q-6 6 -13 6h-78q-6 0 -12 -6l-255 -247q-8 -10 -4 -18z" />
<glyph unicode="&#x2dc;" horiz-adv-x="747" d="M48 1109q-6 -15 10 -21l78 -27q14 -6 23 7q30 50 90 50q29 0 56.5 -9.5t53.5 -20.5q32 -14 64 -24.5t72 -10.5q75 0 125 39.5t80 97.5l-10 22l-78 26q-12 8 -20 -6q-17 -25 -37.5 -38.5t-55.5 -13.5q-30 0 -55.5 10t-55 22t-62.5 22.5t-73 10.5q-78 0 -126.5 -39.5 t-78.5 -96.5z" />
<glyph unicode="&#x2000;" horiz-adv-x="954" />
<glyph unicode="&#x2001;" horiz-adv-x="1909" />
<glyph unicode="&#x2002;" horiz-adv-x="954" />
<glyph unicode="&#x2003;" horiz-adv-x="1909" />
<glyph unicode="&#x2004;" horiz-adv-x="636" />
<glyph unicode="&#x2005;" horiz-adv-x="477" />
<glyph unicode="&#x2006;" horiz-adv-x="318" />
<glyph unicode="&#x2007;" horiz-adv-x="318" />
<glyph unicode="&#x2008;" horiz-adv-x="238" />
<glyph unicode="&#x2009;" horiz-adv-x="381" />
<glyph unicode="&#x200a;" horiz-adv-x="106" />
<glyph unicode="&#x2010;" horiz-adv-x="580" d="M48 548q0 -15 16 -16h450q18 0 18 16v108q0 14 -18 14h-450q-16 0 -16 -14v-108z" />
<glyph unicode="&#x2011;" horiz-adv-x="580" d="M48 548q0 -15 16 -16h450q18 0 18 16v108q0 14 -18 14h-450q-16 0 -16 -14v-108z" />
<glyph unicode="&#x2012;" horiz-adv-x="580" d="M48 548q0 -15 16 -16h450q18 0 18 16v108q0 14 -18 14h-450q-16 0 -16 -14v-108z" />
<glyph unicode="&#x2013;" horiz-adv-x="1044" d="M-2 393q0 -15 20 -15h1010q19 0 19 15v109q0 14 -21 14h-1010q-18 0 -18 -14v-109z" />
<glyph unicode="&#x2014;" horiz-adv-x="2088" d="M-2 393q0 -15 20 -15h2055q18 0 18 15v109q0 14 -20 14h-2055q-18 0 -18 -14v-109z" />
<glyph unicode="&#x2018;" horiz-adv-x="616" d="M171 903q0 -13 2 -28q0 -16 17 -16h177q17 0 18 18q0 111 16.5 225t43.5 222l-8 17l-72 56q-12 9 -22 -2q-30 -37 -60 -95.5t-55 -122t-41 -128.5t-16 -116v-30z" />
<glyph unicode="&#x2019;" horiz-adv-x="604" d="M165 936q0 -10 8 -19l74 -54q12 -12 20 2q32 38 62 95t55 121.5t41 128.5t16 116v30t-4 29q0 14 -17 14h-177q-17 0 -18 -16q0 -111 -17.5 -225t-42.5 -222z" />
<glyph unicode="&#x201a;" horiz-adv-x="578" d="M153 -236q-4 -10 8 -19l71 -54q12 -12 21 2q32 38 62 95t55 121.5t40.5 129t15.5 116.5v29q0 14 -2 29q0 14 -17 14h-177q-17 0 -17 -16q0 -111 -18 -225t-42 -222z" />
<glyph unicode="&#x201c;" horiz-adv-x="1062" d="M186 903q0 -13 2 -28q0 -16 17 -16h192q18 0 19 18q0 111 17.5 225t46.5 222l-8 17l-77 56q-15 7 -23 -2q-33 -37 -67 -95.5t-60 -122t-42.5 -128.5t-16.5 -116v-30zM580 903q0 -13 2 -28q0 -6 7 -11t13 -5h192q16 0 17 18q0 111 18.5 225t47.5 222l-8 17l-77 56 q-17 9 -23 -2q-34 -37 -67.5 -95.5t-60.5 -122t-44 -128.5t-17 -116v-30z" />
<glyph unicode="&#x201d;" horiz-adv-x="1062" d="M186 936q-4 -10 6 -19l77 -54q15 -10 26 2q33 38 65.5 95t59.5 121.5t43.5 128.5t16.5 116v30t-2 29q0 6 -6 10t-12 4h-191q-18 0 -18 -16q0 -111 -19 -225t-46 -222zM580 936q-4 -10 10 -19l76 -54q14 -10 26 2q31 38 64 95t60.5 121.5t44 128.5t16.5 116v30t-2 29 q0 6 -6 10t-12 4h-193q-16 0 -16 -16q0 -111 -20 -225t-48 -222z" />
<glyph unicode="&#x201e;" horiz-adv-x="1062" d="M186 -236q-4 -10 8 -19l77 -54q17 -12 24 2q33 38 65.5 95t59.5 121.5t43.5 129t16.5 116.5v58q0 6 -6 10t-12 4h-193q-18 0 -18 -16q0 -111 -19 -225t-46 -222zM582 -236q-4 -10 10 -19l76 -54q12 -12 24 2q33 38 65 95t59.5 121.5t44 129t16.5 116.5v29q0 14 -2 29 q0 6 -6 10t-10 4h-193q-18 0 -18 -16q0 -111 -19 -225t-47 -222z" />
<glyph unicode="&#x2022;" horiz-adv-x="1146" d="M365 716q0 -44 16 -81t44 -65.5t66.5 -44t82.5 -15.5q88 0 147.5 59t59.5 147q0 44 -16.5 81.5t-44.5 65.5t-66 44t-82 16q-88 0 -147.5 -59.5t-59.5 -147.5z" />
<glyph unicode="&#x2026;" horiz-adv-x="2088" d="M249 16q0 -16 18 -16h197q18 0 18 16v172q0 16 -18 17h-197q-18 0 -18 -17v-172zM929 16q0 -16 18 -16h195q19 0 20 16v172q0 16 -20 17h-195q-17 0 -18 -17v-172zM1609 16q0 -16 18 -16h195q18 0 18 16v172q0 16 -18 17h-195q-18 0 -18 -17v-172z" />
<glyph unicode="&#x202f;" horiz-adv-x="381" />
<glyph unicode="&#x2039;" horiz-adv-x="561" d="M108 528l215 -344q0 -2 6 -4.5t10 -2.5h100q10 0 14.5 7.5t-2.5 18.5l-176 338l178 336q4 10 -1 19t-15 9h-100q-4 0 -10 -2t-6 -6l-213 -345v-24z" />
<glyph unicode="&#x203a;" horiz-adv-x="561" d="M110.5 896q-4.5 -9 2.5 -19l172 -336l-174 -338q-4 -10 1 -18t16 -8h99l7 3q7 2 7 4l210 344v24l-210 345q-2 4 -8 6l-6 2h-102q-10 0 -14.5 -9z" />
<glyph unicode="&#x205f;" horiz-adv-x="477" />
<glyph unicode="&#x2122;" horiz-adv-x="1915" d="M102 1306q0 -19 19 -19h230v-711q0 -18 18 -18h130q18 0 19 18v711h232q18 0 19 19v98q0 16 -19 17h-629q-18 0 -19 -17v-98zM891 576q0 -18 18 -18h119q19 0 19 18v626l238 -632q4 -12 17 -12h89q13 0 17 12l240 632v-626q0 -18 17 -18h129q19 0 20 18v828q0 16 -20 17 h-202q-12 0 -17 -11l-223 -608l-228 608q-6 10 -17 11h-198q-17 0 -18 -17v-828z" />
<glyph unicode="&#x25fc;" horiz-adv-x="1064" d="M0 0v1065h1065v-1065h-1065z" />
</font>
</defs>
</svg>
