<?xml version="1.0" standalone="no"?>
<!DOCTYPE svg PUBLIC "-//W3C//DTD SVG 1.1//EN" "http://www.w3.org/Graphics/SVG/1.1/DTD/svg11.dtd" >
<svg xmlns="http://www.w3.org/2000/svg">
<metadata></metadata>
<defs>
<font id="frankleinbookregular" horiz-adv-x="1144" >
<font-face units-per-em="2048" ascent="1638" descent="-410" />
<missing-glyph horiz-adv-x="463" />
<glyph horiz-adv-x="0" />
<glyph horiz-adv-x="682" />
<glyph horiz-adv-x="726" d="M60 1473q24 -124 103.5 -180.5t199.5 -56.5q121 0 200.5 56.5t102.5 180.5h-92q-29 -67 -86.5 -91t-124.5 -24q-69 0 -125 23t-85 92h-93z" />
<glyph horiz-adv-x="482" d="M148 1270h185v193h-185v-193z" />
<glyph horiz-adv-x="563" d="M88 1362q0 -82 56.5 -138t137.5 -56q39 0 75 16t62 42t41.5 61t15.5 75q0 39 -15.5 75t-41.5 62t-62 42t-75 16q-40 0 -75.5 -16t-61.5 -42t-41.5 -62t-15.5 -75zM173 1362q0 48 30.5 78.5t78.5 30.5q47 0 78 -31.5t31 -77.5q0 -44 -33 -76t-76 -32q-48 0 -78.5 30 t-30.5 78z" />
<glyph unicode="&#xa;" horiz-adv-x="747" d="M125 1153l82 -35l321 307l-137 56zM466 1153l82 -35l321 307l-136 56z" />
<glyph horiz-adv-x="563" d="M159 -217q0 -38 16.5 -65t43 -45t58.5 -26t66 -8q54 0 109 23t87 71l-29 40q-30 -26 -57 -40.5t-66 -14.5q-44 0 -72 24t-28 70q0 28 12 55t31 51t42 45t44 37h-67q-30 -14 -63 -36t-61 -50.5t-47 -62t-19 -68.5z" />
<glyph horiz-adv-x="726" d="M50 1465l271 -281h84l274 281l-123 8l-193 -171l-190 171z" />
<glyph unicode="&#xd;" horiz-adv-x="482" d="M167 0h108h38v64v999h-146v-1063z" />
<glyph horiz-adv-x="341" d="M-328 -23h131l865 1492h-134z" />
<glyph horiz-adv-x="1104" d="M30 942h202v-942h146v942h244v121h-244q0 52 -1 111.5t12.5 111t49 86t111.5 34.5q35 0 57.5 -5.5t56.5 -15.5l6 122q-71 20 -154 20q-106 0 -163.5 -43t-83.5 -109.5t-31.5 -149.5t-5.5 -162h-202v-121zM779 1299h154v180h-154v-180zM783 0h108h38v64v999h-146v-1063z " />
<glyph horiz-adv-x="1104" d="M32 942h202v-942h148q-2 16 -2 32v32v878h244v121h-244v86q0 41 4.5 86t20 83t46.5 63t86 25q29 0 50 -5.5t48 -15.5l7 122q-24 12 -53 16t-55 4q-108 0 -168.5 -41t-89.5 -106.5t-35.5 -149.5t-6.5 -167h-202v-121zM785 0h146v1502h-146v-1502z" />
<glyph horiz-adv-x="983" d="M26 418l149 123v-541h788v140h-626v532l279 231v146l-279 -230v626h-162v-758l-149 -123v-146z" />
<glyph horiz-adv-x="440" d="M30 572l123 109v-681h108l12 64h26v745l125 110v155l-125 -111v539h-146v-667l-123 -108v-155z" />
<glyph horiz-adv-x="1085" d="M40 0h977v140h-800l775 1182v123h-925v-137h746l-773 -1168v-140zM227 1822l272 -281h83l275 281l-124 8l-192 -171l-190 171z" />
<glyph horiz-adv-x="901" d="M62 0h791v121h-615l613 840v102h-755v-121h572l-606 -821v-121zM140 1465l271 -281h84l274 281l-123 8l-193 -171l-190 171z" />
<glyph unicode=" "  horiz-adv-x="463" />
<glyph unicode="&#x09;" horiz-adv-x="463" />
<glyph unicode="&#xa0;" horiz-adv-x="463" />
<glyph unicode="!" horiz-adv-x="720" d="M253 1447q10 -275 23 -547t29 -547h102q16 273 29.5 546t21.5 548h-205zM263 0h188v188h-188v-188z" />
<glyph unicode="&#x22;" horiz-adv-x="1062" d="M295 1212q0 -60 10 -125.5t16 -125.5h109q7 60 17.5 124.5t10.5 124.5v235h-163v-233zM602 1212q0 -60 10 -125.5t16 -125.5h109q7 60 17.5 124.5t10.5 124.5v235h-163v-233z" />
<glyph unicode="#" horiz-adv-x="1206" d="M73 445h220l-74 -445h132l73 445h280l-74 -445h133l72 445h237v121h-217l54 325h227v122h-209l72 432h-132l-71 -432h-280l70 432h-131l-70 -432h-247v-122h227l-54 -325h-238v-121zM443 566l54 325h280l-54 -325h-280z" />
<glyph unicode="$" horiz-adv-x="1206" d="M153 140l39 -20q40 -20 100.5 -44t130.5 -46t131 -24v-177h116v183q78 10 147.5 41t123 79t85 113.5t31.5 149.5q0 127 -54 203.5t-135 123.5t-175.5 77t-175 65t-135 85t-54.5 137q0 63 27 105.5t71 71t98 41t109 12.5q38 0 95 -12.5t109 -26t90 -26.5l38 -13l48 109 l-35 15q-36 15 -87.5 32.5t-110.5 33t-110 19.5v151h-116v-157q-74 -10 -141.5 -37t-118.5 -71t-82.5 -105.5t-31.5 -143.5q0 -119 54.5 -192t134.5 -119t174.5 -77.5t174.5 -67.5t134.5 -88.5t54.5 -142.5q0 -64 -28 -112.5t-73.5 -80t-101.5 -47t-112 -15.5 q-46 0 -109 15.5t-119.5 34.5t-95.5 35l-38 16z" />
<glyph unicode="%" horiz-adv-x="1780" d="M138 1082q0 -75 17.5 -144t55.5 -122t97 -84.5t143 -31.5q83 0 143 32.5t97.5 85.5t55.5 122t18 144q0 76 -18 143.5t-55.5 119.5t-97.5 84t-143 32q-88 0 -147 -31t-96 -83t-53.5 -120.5t-16.5 -146.5zM267 1082q0 46 7.5 94t27 88t55.5 65t92 25t92.5 -25t56.5 -65 t28.5 -88t8.5 -94q0 -44 -8.5 -92t-28.5 -87.5t-55 -65.5t-90 -26q-56 0 -93 25t-57.5 64.5t-28 87.5t-7.5 94zM389 -23h135l907 1492h-138zM1015 363q0 -75 18 -144t55.5 -121t97 -83t143.5 -31t143 31t96.5 84.5t55.5 122t18 143.5q0 76 -18 143.5t-55.5 120t-97 84 t-142.5 31.5q-88 0 -147.5 -30.5t-96 -83t-53.5 -121t-17 -146.5zM1144 363q0 46 8 94.5t28 87.5t55 64.5t91 25.5t93 -25.5t56.5 -64.5t28.5 -87.5t9 -94.5q0 -44 -9 -92t-28.5 -86.5t-55 -64.5t-89.5 -26q-56 0 -92.5 25t-57.5 63.5t-29 86.5t-8 94z" />
<glyph unicode="&#x26;" horiz-adv-x="1405" d="M96 389q0 -100 39.5 -177.5t106.5 -129.5t153.5 -78.5t178.5 -26.5q68 0 124 10.5t105.5 32.5t96.5 55t94 80q32 -40 83 -84.5t100 -82.5t84 -63l34 -25l63 94l-30 27q-31 27 -74.5 67t-90.5 84.5t-81 78.5q92 113 145 248.5t70 277.5l-135 15q-12 -114 -53 -232.5 t-108 -212.5l-4 -4q-92 106 -177 216.5t-168 223.5q67 28 127 63t105 83t72.5 109t27.5 140q0 72 -28.5 127t-76.5 90.5t-109.5 54.5t-125.5 19q-70 0 -134.5 -21t-113.5 -62t-78 -98.5t-29 -131.5q0 -48 14 -94.5t38 -88.5t53.5 -81t58.5 -75q-78 -25 -142 -64t-112.5 -91 t-75.5 -120t-27 -153zM257 403q0 62 22 112.5t59.5 89.5t86.5 69t101 51l391 -474q-67 -67 -152.5 -109t-184.5 -42q-67 0 -125 21t-102 60.5t-70 96.5t-26 125zM435 1160q0 42 16.5 76t44.5 58t65 37.5t77 13.5q93 0 149.5 -49.5t56.5 -144.5q0 -57 -24 -99.5t-61.5 -76 t-85 -59t-91.5 -45.5q-25 30 -50.5 63t-47.5 70.5t-35.5 76.5t-13.5 79z" />
<glyph unicode="'" horiz-adv-x="602" d="M219 1212q0 -60 11 -125.5t17 -125.5h108q6 60 16.5 124.5t10.5 124.5v235h-163v-233z" />
<glyph unicode="(" horiz-adv-x="602" d="M96 592q0 -285 121 -540q46 -98 97 -193t116 -182h98q-60 85 -104 183t-81 194q-50 130 -77.5 264.5t-27.5 273.5q0 137 27.5 273t77.5 265q37 96 81 194.5t104 184.5h-98q-64 -88 -115.5 -183.5t-97.5 -193.5q-121 -255 -121 -540z" />
<glyph unicode=")" horiz-adv-x="602" d="M73 -323h98q65 87 116.5 182t97.5 193q121 255 121 540q0 286 -121 540q-46 98 -97.5 193.5t-116.5 183.5h-98q61 -86 104.5 -184.5t81.5 -194.5q50 -129 77 -265t27 -273q0 -138 -27 -273t-77 -265q-38 -96 -81.5 -194t-104.5 -183z" />
<glyph unicode="*" horiz-adv-x="1206" d="M217 879l60 -108l281 176l-12 -329h120l-12 329l279 -176l61 108l-290 153l290 152l-61 109l-279 -175l12 327h-120l12 -327l-281 175l-60 -109l291 -152z" />
<glyph unicode="+" horiz-adv-x="1252" d="M92 499h464v-463h142v463h462v143h-462v457h-142v-457h-464v-143z" />
<glyph unicode="," horiz-adv-x="602" d="M155 -275l81 -60q33 40 68 101t62 127.5t44.5 132.5t17.5 120v29q0 15 -2 32h-203q0 -121 -19.5 -243.5t-48.5 -238.5z" />
<glyph unicode="-" horiz-adv-x="580" d="M42 532h484v138h-484v-138z" />
<glyph unicode="." horiz-adv-x="602" d="M207 0h200v205h-200v-205z" />
<glyph unicode="/" horiz-adv-x="829" d="M-88 -67h138l731 1536h-137z" />
<glyph unicode="0" horiz-adv-x="1206" d="M94 723q0 -123 23 -254.5t80.5 -239.5t155.5 -176.5t249 -68.5q150 0 249.5 68.5t156.5 176.5t80.5 239.5t23.5 254.5q0 124 -23.5 255t-80.5 238.5t-155.5 177t-248.5 69.5t-249.5 -69.5t-157 -177t-80.5 -239t-23 -254.5zM257 723q0 86 11 191t47 198.5t105 156 t182 62.5q115 0 184 -62.5t105 -155t47 -197.5t11 -193q0 -85 -12 -191t-47 -198.5t-104.5 -155.5t-181.5 -63q-117 0 -185 63t-105 154.5t-47 197t-10 193.5z" />
<glyph unicode="1" horiz-adv-x="1206" d="M205 1107l62 -106q84 60 161.5 120.5t149.5 134.5v-1150h-209v-106h567v106h-199l-2 1339h-129q-84 -89 -190.5 -180t-210.5 -158z" />
<glyph unicode="2" horiz-adv-x="1206" d="M111 0h946l-2 136h-744l429 396q54 50 107.5 110t96 127.5t69.5 141t27 150.5q0 100 -37.5 175.5t-102.5 125.5t-148.5 75.5t-175.5 25.5q-139 0 -249 -60t-189 -175l96 -92q60 94 148 142t198 48q59 0 112.5 -19.5t93 -56t62.5 -86.5t23 -111q0 -63 -22 -122.5 t-57 -111.5q-55 -82 -140.5 -172.5t-180.5 -181.5t-190 -175.5t-170 -153.5v-136z" />
<glyph unicode="3" horiz-adv-x="1206" d="M94 142l45 -25t111.5 -54t144 -54t144.5 -25q95 0 192.5 24t174 75t124.5 130t48 190q0 148 -87.5 243.5t-234.5 109.5q62 12 115.5 41.5t93.5 72.5t63 98.5t23 121.5q0 100 -41 171.5t-108 115.5t-151.5 65t-172.5 21q-131 0 -229 -41t-194 -131l83 -94q79 70 154.5 101 t181.5 31q54 0 111 -13.5t101.5 -44t73.5 -75.5t29 -108q0 -104 -52 -159.5t-130.5 -80.5t-168 -28t-164.5 -3v-134q76 0 168.5 -2t176 -26.5t140 -79.5t56.5 -164q0 -82 -32 -137t-85.5 -89.5t-121.5 -50t-137 -15.5q-52 0 -121 22t-131 49t-104 49l-43 22z" />
<glyph unicode="4" horiz-adv-x="1206" d="M58 335h700v-335h157v335h225v131h-225v979h-201l-656 -979v-131zM217 466l541 840v-840h-541z" />
<glyph unicode="5" horiz-adv-x="1206" d="M140 134l41 -24q40 -24 102 -52t134 -51t133 -23q111 0 209 32t170 93.5t113.5 152.5t41.5 208q0 108 -35.5 195t-98.5 146.5t-151.5 90.5t-194.5 31q-76 0 -146.5 -24t-132.5 -67l20 464h654l8 139h-798l-29 -751l69 -15q67 65 149 92t176 27q78 0 142.5 -21 t111.5 -61.5t73 -101t26 -142.5q0 -85 -28 -151t-79 -112t-121.5 -69t-150.5 -23q-50 0 -108 19t-106.5 41t-82.5 40l-34 19z" />
<glyph unicode="6" horiz-adv-x="1206" d="M106 675q0 -129 23.5 -252.5t81.5 -222t158.5 -157.5t252.5 -59q104 0 193.5 34t155 96.5t102 150t36.5 193.5q0 102 -32.5 188.5t-92 149.5t-144 98t-188.5 35q-132 0 -231.5 -61t-159.5 -178q0 115 20 228.5t70 204.5t138.5 147t226.5 56q38 0 90.5 -13.5t99.5 -30 t80 -30.5l33 -14l53 114v2l-145 69q-46 23 -102 31.5t-106 8.5q-173 0 -290.5 -67t-189.5 -178t-102.5 -252t-30.5 -291zM287 478q0 72 30 129t80 99t112.5 65t128.5 23q75 0 134 -25t100 -71t62 -108t21 -135q0 -74 -24 -135t-68 -106t-105.5 -70t-135.5 -25 q-77 0 -139.5 27t-106 76t-66.5 115t-23 141z" />
<glyph unicode="7" horiz-adv-x="1206" d="M134 1306h757q-185 -303 -326 -630t-214 -676h169q76 357 212.5 688.5t326.5 640.5v116h-917z" />
<glyph unicode="8" horiz-adv-x="1206" d="M86 372q0 -102 48 -176.5t123.5 -121t167 -68.5t179.5 -22q92 0 184.5 22t167 68.5t120.5 123t46 182.5q0 78 -29.5 139t-77.5 107t-109.5 80t-128.5 57q54 23 106.5 56.5t93 77t66 97t25.5 118.5q0 96 -40 162.5t-104.5 108.5t-146 61t-163.5 19q-80 0 -163.5 -20 t-151 -62t-111.5 -108.5t-44 -160.5q0 -72 22 -126.5t59.5 -97t88.5 -76t110 -60.5q-67 -24 -127.5 -57t-107.5 -80t-75 -107.5t-28 -135.5zM245 378q0 70 34 120t85.5 87t113 61t118.5 39q56 -16 119.5 -42.5t118.5 -65t92 -89.5t37 -121q0 -71 -33 -118.5t-84.5 -78 t-114.5 -44t-121 -13.5q-60 0 -125 14.5t-118.5 46t-87.5 81.5t-34 123zM305 1114q0 58 30 99t76.5 68t100.5 39.5t102 12.5q52 0 105.5 -12.5t97.5 -39.5t72 -70.5t28 -103.5t-30 -106t-76 -81t-100.5 -60t-104.5 -39q-50 14 -103.5 40t-97.5 63t-72 84t-28 106z" />
<glyph unicode="9" horiz-adv-x="1206" d="M100 990q0 -104 31.5 -191t91 -150t143 -97t190.5 -34q127 0 229 57.5t164 172.5q0 -114 -21 -226.5t-72.5 -202t-140.5 -146t-224 -56.5q-42 0 -97 8.5t-103 19t-82 18.5l-34 8l-35 -93l32 -15q33 -15 84 -33t112.5 -32t120.5 -14q173 0 291.5 66.5t190 176.5t102 252 t30.5 292q0 128 -24 251.5t-83.5 222t-159 158.5t-252.5 60q-104 0 -192.5 -35t-153.5 -96.5t-101.5 -148.5t-36.5 -193zM257 984q0 72 24 134t67 109t103.5 73t132.5 26q74 0 137.5 -24t111.5 -78q21 -23 37.5 -55.5t28.5 -69t18 -73t6 -65.5q0 -67 -30 -123.5t-79 -98 t-109.5 -64.5t-124.5 -23q-75 0 -134 24t-102 67.5t-65 105.5t-22 135z" />
<glyph unicode=":" horiz-adv-x="602" d="M207 0h200v205h-200v-205zM207 857h200v204h-200v-204z" />
<glyph unicode=";" horiz-adv-x="602" d="M155 -273l81 -60q33 40 68 100t62 126.5t44.5 133.5t17.5 121v29q0 15 -2 32h-203q0 -121 -19.5 -243.5t-48.5 -238.5zM207 857h200v204h-200v-204z" />
<glyph unicode="&#x3c;" horiz-adv-x="1252" d="M106 518l1043 -456v135l-864 369l864 370v134l-1043 -456v-96z" />
<glyph unicode="=" horiz-adv-x="1252" d="M92 289h1068v141h-1068v-141zM92 702h1068v142h-1068v-142z" />
<glyph unicode="&#x3e;" horiz-adv-x="1252" d="M106 62l1043 456v96l-1043 456v-134l865 -370l-865 -369v-135z" />
<glyph unicode="?" horiz-adv-x="1085" d="M138 1320l52 -106l32 19q33 19 83 40.5t107.5 40.5t107.5 19q120 0 202 -63.5t82 -191.5q0 -75 -28 -125t-70 -91t-90 -77.5t-90 -81.5t-70 -107t-28 -149v-94h142q0 58 1 111.5t33 105.5q44 76 105.5 120.5t118.5 93.5t97 116t40 186q0 94 -34 166t-94 120.5 t-138.5 72.5t-166.5 24q-69 0 -139 -23t-126 -51.5t-93 -51.5zM409 0h189v188h-189v-188z" />
<glyph unicode="@" horiz-adv-x="1670" d="M78 499q0 -167 65.5 -306t176 -238t257 -153.5t306.5 -54.5q58 0 128.5 15t138.5 43t124.5 69.5t87.5 93.5l-88 52q-34 -39 -83 -67t-105 -46t-113.5 -26.5t-107.5 -8.5q-130 0 -245.5 48t-206 131t-142.5 195.5t-52 244.5q0 135 52 250.5t141.5 197.5t207 129.5 t249.5 47.5q102 0 205.5 -31.5t188 -92.5t138 -149.5t53.5 -202.5q0 -88 -24 -167.5t-78 -151.5q-17 -20 -38 -44t-45 -44t-52.5 -32.5t-56.5 -12.5q-32 0 -51 18.5t-19 48.5q0 16 13 61t30.5 104.5t40.5 125.5t45 127.5t38.5 110.5t24.5 73h-144l-39 -117q-21 69 -78.5 114 t-131.5 45q-104 0 -189.5 -45t-146 -119.5t-95 -168.5t-34.5 -192q0 -62 19 -118.5t55 -97.5t89 -65t119 -24q67 0 134 34.5t109 88.5q18 -60 65 -94t112 -34q102 0 186.5 54.5t145.5 138.5t94 184.5t33 191.5q0 144 -62 258t-164.5 191.5t-231 118t-260.5 40.5 q-153 0 -296 -56.5t-252.5 -156t-175 -235t-65.5 -294.5zM580 385q0 62 23 130.5t65 128.5t99.5 98.5t127.5 38.5q37 0 63 -15.5t43.5 -40.5t26 -56t8.5 -65q0 -58 -22 -129.5t-61.5 -134.5t-96 -105.5t-123.5 -42.5q-39 0 -67 17.5t-47 45t-29 62t-10 68.5z" />
<glyph unicode="A" horiz-adv-x="1284" d="M4 0h165l142 403h638l150 -403h165l-522 1445h-205zM363 532l272 750l270 -750h-542z" />
<glyph unicode="B" horiz-adv-x="1226" d="M167 0h445q94 0 183.5 22t159 69t112 122.5t42.5 181.5q0 150 -82 243t-227 125q125 32 194 109t69 212q0 100 -34.5 169t-94 112t-139 61.5t-169.5 18.5h-459v-1445zM328 140v550h266q71 0 135.5 -15t112 -47t76.5 -88t29 -137q0 -78 -31 -128t-81 -80t-113.5 -42.5 t-127.5 -12.5h-266zM330 821v489h280q54 0 107.5 -11.5t95.5 -38t67 -70.5t25 -106q0 -73 -26 -123t-71 -81.5t-104.5 -45t-125.5 -13.5h-248z" />
<glyph unicode="C" horiz-adv-x="1344" d="M102 719q0 -153 43 -287.5t127.5 -236t209 -160t287.5 -58.5q71 0 143 20.5t130.5 45t93.5 45.5l36 20l-60 107l-33 -16q-32 -15 -83 -35t-112 -35.5t-117 -15.5q-134 0 -228 52t-154 138t-87 196.5t-27 227.5q0 118 28.5 226t89 192.5t155 136t225.5 51.5q56 0 117 -22 t109.5 -47.5t80.5 -47.5l31 -22l90 86l-40 30q-41 29 -104 64.5t-139.5 65t-144.5 29.5q-165 0 -289.5 -60t-208 -162.5t-126.5 -239t-43 -288.5z" />
<glyph unicode="D" horiz-adv-x="1386" d="M171 0h385q171 0 303.5 51t224.5 145.5t140 230t48 304.5q0 159 -44 290.5t-129.5 225.5t-212 146t-290.5 52h-425v-1445zM333 140v1168h239q142 0 244.5 -42t167.5 -119t95 -187t30 -244q0 -275 -146 -425.5t-424 -150.5h-206z" />
<glyph unicode="E" horiz-adv-x="1104" d="M180 0h831v140h-670v543h558v136h-558v487h645v139h-806v-1445z" />
<glyph unicode="F" horiz-adv-x="964" d="M165 0h160v683h554l-2 136h-552v487h628v139h-788v-1445z" />
<glyph unicode="G" horiz-adv-x="1445" d="M117 723q0 -161 43 -297.5t127.5 -236t211.5 -156t297 -56.5q60 0 107.5 5.5t88 18.5t80.5 38t86 65l36 -118h97v770h-510v-138h347v-305q0 -18 -12.5 -39t-29 -41t-35.5 -38t-34 -26q-48 -31 -105 -43.5t-114 -12.5q-136 0 -233 49t-159.5 132.5t-91.5 193.5t-29 233 q0 119 29 229.5t89.5 195t156.5 136t229 51.5q59 0 130 -19t134 -43t105 -42l42 -19l54 106l-46 24t-114 52.5t-147.5 52.5t-146.5 24q-166 0 -293 -57.5t-213.5 -159t-131.5 -237.5t-45 -292z" />
<glyph unicode="H" horiz-adv-x="1386" d="M177 0h162v683h703v-683h162v1445h-162v-620h-703v620h-162v-1445z" />
<glyph unicode="I" horiz-adv-x="502" d="M169 0h164v1445h-164v-1445z" />
<glyph unicode="J" horiz-adv-x="763" d="M34 2q46 -12 89.5 -21t91.5 -9q100 0 173.5 33t120.5 90.5t69 136.5t22 173v1040h-161v-1050q0 -128 -51 -204t-189 -76q-40 0 -65.5 -4.5t-60.5 12.5z" />
<glyph unicode="K" horiz-adv-x="1284" d="M190 0h161v556l161 181l570 -737h196l-636 848l552 597h-193l-650 -741v741h-161v-1445z" />
<glyph unicode="L" horiz-adv-x="983" d="M169 0h788v140h-627v1305h-161v-1445z" />
<glyph unicode="M" horiz-adv-x="1786" d="M173 0h146v1299l514 -1299h124l502 1299v-1299h158v1445h-234l-480 -1215l-485 1215h-245v-1445z" />
<glyph unicode="N" horiz-adv-x="1386" d="M167 0h146v1260l734 -1260h183v1445h-146v-1230l-712 1230h-205v-1445z" />
<glyph unicode="O" horiz-adv-x="1445" d="M102 723q0 -144 36.5 -279t111.5 -238.5t192.5 -166t278.5 -62.5t278 62.5t192 166t111.5 238.5t36.5 279t-36.5 278.5t-111.5 238t-192.5 166.5t-277.5 63q-161 0 -278.5 -63t-192.5 -166.5t-111.5 -238t-36.5 -278.5zM267 723q0 104 25 212.5t79.5 196.5t140.5 144.5 t209 56.5q124 0 209 -56.5t139.5 -144.5t79.5 -196.5t25 -212.5t-25 -213t-79.5 -197t-141 -144t-207.5 -56q-123 0 -209 56t-140.5 144t-79.5 196.5t-25 213.5z" />
<glyph unicode="P" horiz-adv-x="1104" d="M157 0h160v606h269q94 0 178 26t147.5 78.5t100.5 128.5t37 176q0 215 -125.5 322.5t-331.5 107.5h-435v-1445zM317 744v564h283q131 0 209 -70t78 -206q0 -79 -26 -133.5t-71.5 -89t-108.5 -50t-133 -15.5h-231z" />
<glyph unicode="Q" horiz-adv-x="1445" d="M102 723q0 -144 36.5 -279t111.5 -238.5t192.5 -166t278.5 -62.5t278 62.5t192 166t111.5 238.5t36.5 279t-36.5 278.5t-111.5 238t-192.5 166.5t-277.5 63q-161 0 -278.5 -63t-192.5 -166.5t-111.5 -238t-36.5 -278.5zM267 723q0 104 25 212.5t79.5 196.5t140.5 144.5 t209 56.5q124 0 209 -56.5t139.5 -144.5t79.5 -196.5t25 -212.5t-25 -213t-79.5 -197t-141 -144t-207.5 -56q-123 0 -209 56t-140.5 144t-79.5 196.5t-25 213.5zM702 -190l532 -101l22 109l-542 96z" />
<glyph unicode="R" horiz-adv-x="1226" d="M175 0h162v654h285q36 -24 72.5 -73t71 -110.5t66 -130.5t58.5 -133.5t49 -118.5t36 -88h171q-39 90 -77.5 182.5t-80 182.5t-92 175.5t-113.5 163.5q138 31 219.5 123t81.5 236q0 100 -35.5 172.5t-96.5 119t-141 68.5t-171 22h-465v-1445zM337 789v517h275 q62 0 118.5 -10.5t99.5 -37t68 -73t25 -117.5q0 -76 -27 -128.5t-73 -85.5t-106.5 -49t-126.5 -16h-253z" />
<glyph unicode="S" horiz-adv-x="1166" d="M106 167l45 -29q46 -30 112.5 -66t147 -65.5t149.5 -29.5q90 0 180.5 25.5t161.5 75.5t116 126t45 178q0 132 -56 211t-142 128.5t-184.5 79.5t-184 66t-141.5 87t-56 140q0 65 27 110.5t71 74.5t98.5 42.5t110.5 13.5q44 0 105.5 -19t116.5 -40.5t95 -40.5l40 -19 l46 117l-40 21t-99 47t-129.5 47t-130.5 21q-86 0 -169.5 -23t-150.5 -70t-108.5 -118.5t-41.5 -167.5q0 -123 56.5 -198t141 -123t182.5 -80.5t182.5 -70.5t141.5 -92t57 -146q0 -67 -31 -117t-77.5 -82.5t-106.5 -49t-118 -16.5q-50 0 -120 25t-132.5 55t-106.5 55l-44 25 z" />
<glyph unicode="T" horiz-adv-x="1044" d="M23 1306h422v-1306h161v1306h418v139h-1001v-139z" />
<glyph unicode="U" horiz-adv-x="1365" d="M169 499q0 -249 130.5 -385.5t383.5 -136.5q243 0 376 137.5t133 378.5v952h-145v-943q0 -176 -90 -280.5t-272 -104.5q-189 0 -272 103t-83 286v939h-161v-946z" />
<glyph unicode="V" horiz-adv-x="1224" d="M16 1445l518 -1445h162l520 1445h-148l-446 -1248l-436 1248h-170z" />
<glyph unicode="W" horiz-adv-x="1844" d="M20 1445l394 -1445h178l335 1210l343 -1210h175l385 1445h-146l-322 -1238l-347 1238h-160l-341 -1232l-328 1232h-166z" />
<glyph unicode="X" horiz-adv-x="1202" d="M14 0h168l422 635l401 -635h189l-494 771l444 674h-162l-366 -560l-363 560h-184l449 -691z" />
<glyph unicode="Y" horiz-adv-x="1224" d="M23 1445l514 -831v-614h161v610l510 835h-159l-421 -687l-415 687h-190z" />
<glyph unicode="Z" horiz-adv-x="1085" d="M40 0h977v140h-800l775 1182v123h-925v-137h746l-773 -1168v-140z" />
<glyph unicode="[" horiz-adv-x="602" d="M140 -321q29 0 56 -1t57 -1h242v102h-218v1627h218v103h-242q-30 0 -57 -1t-56 -1v-1828z" />
<glyph unicode="\" horiz-adv-x="829" d="M-136 1469l714 -1536h141l-715 1536h-140z" />
<glyph unicode="]" horiz-adv-x="602" d="M115 -221v-102h244q30 0 56 1t55 1v1828q-29 0 -55 1t-56 1h-244v-103h218v-1627h-218z" />
<glyph unicode="^" horiz-adv-x="1252" d="M157 546h140l327 726l327 -726h139l-409 899h-113z" />
<glyph unicode="_" horiz-adv-x="1044" d="M0 -313v-117h1051v117h-1051z" />
<glyph unicode="`" horiz-adv-x="624" d="M69 1421l355 -251l69 40l-303 275z" />
<glyph unicode="a" horiz-adv-x="1085" d="M98 293q0 -82 29.5 -141.5t78.5 -98.5t115 -59t141 -20q119 0 207.5 55t149.5 155l8 -184h144q-6 14 -9 37t-4 48.5t-2 48.5t-1 39v546q0 197 -98.5 283t-288.5 86q-48 0 -114.5 -12.5t-128.5 -26t-106 -25.5l-44 -13l34 -96l38 8t91 19t112.5 19t105.5 8q123 0 189 -59 t66 -185v-71q-62 -2 -139.5 -4t-157 -11t-154.5 -29t-133 -59t-93.5 -101.5t-35.5 -156.5zM257 293q0 79 43 127t106.5 74t136.5 34.5t134 8.5h134v-90q0 -74 -22 -137t-65 -110t-102.5 -75.5t-134.5 -28.5q-96 0 -163 46t-67 151z" />
<glyph unicode="b" d="M142 0h105l30 177q61 -95 135.5 -147.5t193.5 -52.5q121 0 206 50.5t137 130.5t76 183t24 207t-24 201t-75 172.5t-134 121t-202 45.5q-113 0 -192 -56.5t-133 -150.5v621h-147v-1502zM289 508v86q0 67 19.5 133.5t58 120t96 85.5t133.5 32q87 0 144.5 -42t91 -106.5 t45.5 -141.5t12 -149q0 -71 -13 -146t-46.5 -137.5t-90 -102.5t-141.5 -40q-82 0 -140.5 37.5t-96.5 96.5t-55 131t-17 143z" />
<glyph unicode="c" horiz-adv-x="964" d="M78 532q0 -115 29 -216t89.5 -176.5t152.5 -119t215 -43.5q48 0 113 12.5t123.5 26.5t78.5 20l61 18l-33 96l-38 -8t-91 -18.5t-112.5 -19t-105.5 -8.5q-94 0 -155.5 38.5t-99.5 101.5t-53.5 142.5t-15.5 160.5q0 79 19.5 155.5t61.5 135.5t107 96t154 37q38 0 84 -7 t86.5 -17t68.5 -17l27 -7l37 98l-28 12q-28 11 -72 25.5t-99.5 26t-109.5 11.5q-123 0 -216 -43.5t-154.5 -118.5t-92.5 -176.5t-31 -217.5z" />
<glyph unicode="d" d="M92 534q0 -106 24 -206.5t77.5 -178.5t137 -125t203.5 -47q112 0 192.5 55.5t134.5 149.5v-182h140v1502h-146v-605q-56 91 -133.5 141t-189.5 50q-119 0 -203 -47t-136.5 -124.5t-76.5 -177t-24 -205.5zM251 546q0 69 14 144t48 136t90.5 101t142.5 40q81 0 139.5 -33 t95 -89t54.5 -124.5t18 -140.5v-91q0 -70 -19 -138.5t-58 -124t-96.5 -91t-133.5 -35.5q-90 0 -147.5 43t-90.5 107.5t-45 143t-12 152.5z" />
<glyph unicode="e" horiz-adv-x="1085" d="M82 532q0 -119 28 -220t87.5 -175.5t151.5 -117t219 -42.5q48 0 112 12.5t122.5 26.5t98.5 26l39 12l-33 96l-38 -8t-91 -18.5t-112.5 -19t-105.5 -8.5q-92 0 -151.5 33.5t-96.5 89.5t-52 130.5t-19 156.5h756q0 113 -21 217t-72 185.5t-137 130.5t-217 49 q-118 0 -205.5 -47t-146 -124.5t-87.5 -177t-29 -207.5zM243 622q8 68 31 130.5t61.5 110.5t93.5 77t131 29q75 0 127.5 -29t84.5 -78t46.5 -112.5t16.5 -127.5h-592z" />
<glyph unicode="f" horiz-adv-x="661" d="M30 942h202v-942h146v942h244v121h-244q0 52 -1 111v9q0 55 13 103q13 51 48.5 85.5t111.5 34.5q35 0 57.5 -5.5t56.5 -15.5l6 122q-71 20 -154 20q-106 0 -163.5 -43t-83.5 -109.5t-31.5 -149.5t-5.5 -162h-202v-121z" />
<glyph unicode="g" horiz-adv-x="1104" d="M52 -148q0 -92 51.5 -147.5t127.5 -84.5t161.5 -37.5t155.5 -8.5q71 0 158.5 10.5t165 41.5t128.5 89t51 151q0 102 -57.5 157t-143 81t-186 33t-186 15.5t-143.5 26.5t-58 66q0 46 39 69t75 33q31 -12 64.5 -17t66.5 -5q88 0 162 26.5t129.5 75.5t86.5 120t31 163 q0 77 -28 143t-76 114h230v117h-467q-15 2 -29.5 3t-32.5 1q-83 0 -157 -26t-130.5 -74t-89 -118t-32.5 -158q0 -90 41 -170t113 -135q-54 -23 -97.5 -66.5t-43.5 -108.5q0 -116 104 -163q-38 -16 -71 -35.5t-58 -44.5t-40 -58t-15 -79zM199 -140q0 36 15.5 62t40 45 t55.5 33t59 28q28 -7 78 -10.5t109.5 -7.5t121.5 -11t111.5 -24t81.5 -44t32 -69q0 -56 -41 -89.5t-97.5 -51.5t-118.5 -23t-100 -5q-40 0 -98.5 5t-114.5 22t-95 50t-39 90zM273 704q0 115 69 191t188 76h20q8 0 18 -2v-2h10q96 -16 148.5 -89.5t52.5 -173.5 q0 -122 -64.5 -189.5t-188.5 -67.5q-117 0 -185 71.5t-68 185.5z" />
<glyph unicode="h" d="M157 0h146v594q0 71 19 137.5t56.5 119t95.5 82.5t138 30q58 0 101 -22t71.5 -57.5t41.5 -84.5t13 -101v-698h147v683q0 88 -19.5 163t-63.5 128.5t-112 83.5t-163 30q-125 0 -200 -59.5t-125 -165.5v639h-146v-1502z" />
<glyph unicode="i" horiz-adv-x="482" d="M165 1299h154v180h-154v-180zM167 0h146v1063h-146v-1063z" />
<glyph unicode="j" horiz-adv-x="461" d="M-108 -275v-124q36 -4 69 -9.5t69 -5.5q79 0 131 26.5t82 71.5t43 106t13 132v1141h-146v-1121q0 -48 -3.5 -90t-19 -73.5t-48 -50.5t-88.5 -19q-24 0 -52 6t-50 10zM150 1299h155v180h-155v-180z" />
<glyph unicode="k" horiz-adv-x="1044" d="M161 0h144q6 81 6 161q0 29 -1 59q-3 110 -3 221l123 109l409 -550h178l-480 640l430 423h-173l-487 -487v926h-146v-1502z" />
<glyph unicode="l" horiz-adv-x="482" d="M167 0h146v1502h-146v-1502z" />
<glyph unicode="m" horiz-adv-x="1726" d="M155 0h146v608q0 64 14.5 128t48 114.5t84.5 81.5t126 31q60 0 102.5 -23t67.5 -62t36.5 -88.5t11.5 -102.5v-687h146v612q0 62 14.5 125t48 113.5t85.5 81.5t126 31q58 0 100 -24t69 -63t38.5 -87.5t11.5 -101.5v-687h146v683q0 84 -18 158t-57 128.5t-103 86.5t-158 32 q-121 0 -207.5 -66.5t-128.5 -177.5q-24 115 -98 179.5t-193 64.5q-123 0 -198 -59.5t-125 -165.5v200h-136v-1063z" />
<glyph unicode="n" d="M155 0h146v594q0 71 19 137.5t57.5 118t96.5 82.5t138 31q58 0 101 -21t72.5 -57.5t44 -84.5t14.5 -102v-698h146v683q0 90 -19.5 164t-63.5 127.5t-112 83.5t-165 30q-125 0 -205 -58.5t-134 -166.5v200h-136v-1063z" />
<glyph unicode="o" d="M84 532q0 -113 31 -214t91.5 -176t152.5 -120t213 -45q122 0 213.5 43.5t152.5 120t91 177.5t30 214q0 114 -30 215t-92 176.5t-152.5 120t-212.5 44.5q-123 0 -215 -43.5t-152.5 -118.5t-90.5 -176.5t-30 -217.5zM245 532q0 78 16 156.5t56 138.5t101.5 99t153.5 39 q90 0 152.5 -39t101.5 -100t56 -138.5t17 -155.5q0 -77 -17 -154t-56 -139t-101.5 -100.5t-152.5 -38.5t-152.5 38.5t-101.5 100.5t-56 139t-17 154z" />
<glyph unicode="p" d="M159 -393h146v566q48 -98 133.5 -147t191.5 -49q116 0 198.5 49t135.5 127.5t77 177.5t24 199q0 104 -23 204.5t-75 179t-134.5 126.5t-204.5 48q-119 0 -200 -62.5t-135 -162.5v200h-134v-1456zM305 472v138q0 62 21 125t60.5 113.5t95 81.5t122.5 31q88 0 146.5 -41 t91.5 -105.5t47 -141.5t14 -149q0 -73 -14 -148t-47 -135.5t-91.5 -99.5t-146.5 -39q-74 0 -129 33.5t-92.5 86.5t-57.5 119t-20 131z" />
<glyph unicode="q" d="M92 528q0 -104 24 -203.5t77.5 -176.5t135.5 -124t201 -47q120 0 200.5 59.5t124.5 166.5v-596h146v1456h-106l-34 -178q-54 94 -132.5 148.5t-191.5 54.5q-124 0 -209 -47t-137.5 -125.5t-75.5 -178t-23 -209.5zM253 534q0 74 13 150t47 138.5t91.5 102.5t147.5 40 q83 0 140.5 -39t93 -99t51.5 -134.5t16 -142.5v-48q0 -64 -18 -134.5t-55.5 -129t-93.5 -97.5t-130 -39q-92 0 -150.5 40t-92.5 102.5t-47 139t-13 150.5z" />
<glyph unicode="r" horiz-adv-x="682" d="M159 0h146v522q0 60 14 133.5t46 136.5t84.5 105.5t126.5 42.5q24 0 46.5 -2.5t45.5 -4.5v147q-20 2 -42 5t-44 3q-58 0 -105 -23t-83.5 -59.5t-62.5 -84.5t-40 -98v240h-132v-1063z" />
<glyph unicode="s" horiz-adv-x="945" d="M73 54l41 -12q41 -12 99 -26t123 -26.5t113 -12.5q75 0 148 17.5t131.5 55.5t95.5 98.5t37 146.5q0 98 -45 157.5t-111.5 94.5t-146.5 56t-146.5 45t-111.5 59t-45 95q0 50 20 81.5t51 49.5t71 25t81 7q38 0 87 -8t92 -18t73 -17l30 -7l38 98l-29 12q-29 11 -76 25.5 t-104 26t-111 11.5q-69 0 -136 -16.5t-119 -52t-84.5 -91t-32.5 -134.5q0 -96 44 -152t111 -90t144 -55t144 -46t111 -63.5t44 -108.5q0 -47 -26 -81.5t-67 -56.5t-88 -31.5t-86 -9.5q-46 0 -104 7.5t-108 17t-84 17.5l-35 8z" />
<glyph unicode="t" horiz-adv-x="682" d="M23 947h198v-638q0 -73 11 -133.5t41 -104t82 -69t134 -25.5q41 0 80 6.5t81 14.5l-4 119q-36 -4 -67 -11.5t-67 -7.5q-82 0 -113.5 52.5t-31.5 124.5v672h241v121h-241v292l-146 -31v-261h-198v-121z" />
<glyph unicode="u" d="M155 397q0 -92 19.5 -169.5t62 -132.5t112 -86.5t169.5 -31.5q115 0 199.5 61.5t133.5 164.5l2 -203h131v1063h-147v-591q0 -67 -18.5 -133t-56 -118t-94 -84.5t-131.5 -32.5q-68 0 -112.5 24.5t-72 65t-39.5 93t-12 110.5v666h-146v-666z" />
<glyph unicode="v" horiz-adv-x="923" d="M14 1063l368 -1063h164l371 1063h-144l-301 -894l-297 894h-161z" />
<glyph unicode="w" horiz-adv-x="1503" d="M8 1063l333 -1063h148l257 861l263 -861h149l327 1063h-129l-272 -862l-261 862h-142l-259 -862l-261 862h-153z" />
<glyph unicode="x" horiz-adv-x="923" d="M16 0h157l291 445l276 -445h173l-365 574l321 489h-155l-246 -380l-241 380h-173l331 -505z" />
<glyph unicode="y" horiz-adv-x="901" d="M12 1063l375 -1059q-13 -46 -28.5 -98t-40.5 -96t-64 -73.5t-97 -29.5q-23 0 -51 7t-52 11l-6 -124q73 -16 140 -17q60 0 106.5 25.5t80.5 65.5t58.5 90.5t40.5 100.5l427 1197h-141l-300 -850l-293 850h-155z" />
<glyph unicode="z" horiz-adv-x="901" d="M62 0h791v121h-615l613 840v102h-755v-121h572l-606 -821v-121z" />
<glyph unicode="{" horiz-adv-x="602" d="M75 532q72 -8 107 -48.5t49 -102.5t13 -138t-5.5 -154.5t-2.5 -152.5t22.5 -131.5t67 -92.5t132.5 -35h106v104q-20 0 -42.5 -1t-43 0t-39.5 9t-34 27q-16 24 -20.5 60t-4.5 66v340q0 99 -32.5 180t-130.5 130q96 50 129.5 129t33.5 182v340q0 24 2.5 51.5t11.5 51.5 t28 41t50 17h92v105h-106q-86 0 -133.5 -36t-68 -93.5t-21.5 -131.5t2.5 -152.5t5.5 -154.5t-12 -137.5t-49.5 -102.5t-106.5 -49v-120z" />
<glyph unicode="|" horiz-adv-x="502" d="M184 -23h133v1536h-133v-1536z" />
<glyph unicode="}" horiz-adv-x="602" d="M40 -219v-104h106q86 0 131.5 35t66.5 92.5t23 131.5t-2 152.5t-5 154.5t13 138t49 102.5t106 48.5v120q-71 8 -107 49t-49 102.5t-12 137.5t5 154.5t2 152.5t-23 131.5t-66.5 93.5t-131.5 36h-106v-105q42 0 85.5 1t73.5 -37q16 -24 20 -61t4 -64v-340q0 -104 33 -182.5 t131 -128.5q-98 -48 -131 -127.5t-33 -182.5v-340q0 -24 -3 -52t-12 -52t-28 -40.5t-50 -16.5h-90z" />
<glyph unicode="~" horiz-adv-x="1252" d="M132 464l109 -53q6 28 17 57t29 54.5t42 40.5t58 15q43 0 101 -29t121 -63.5t130.5 -63.5t129.5 -29q52 0 95 23t74.5 60.5t52.5 83.5t29 92l-111 52q-6 -28 -17.5 -57t-29 -54t-41.5 -40.5t-58 -15.5q-44 0 -100.5 29.5t-119.5 63.5t-130.5 63.5t-132.5 29.5 q-50 0 -92.5 -23t-74 -60.5t-52.5 -83.5t-29 -92z" />
<glyph unicode="&#xa1;" horiz-adv-x="720" d="M255 -382h205q-10 275 -23 547t-30 547h-102q-16 -273 -29 -545.5t-21 -548.5zM261 877h188v188h-188v-188z" />
<glyph unicode="&#xa2;" horiz-adv-x="1206" d="M209 630q0 -171 71 -305.5t238 -196.5l-42 -256h114l40 230q54 -10 122.5 1.5t129 28t81.5 24.5l61 24l-34 95l-36 -10q-37 -10 -91 -21.5t-116 -18t-112 1.5q-6 0 -5 0q4 0 11 1.5t10 2.5t-3 1l127 792q34 -10 84 -29.5t83 -31.5t38 -14l33 93q-4 2 -33 21t-81.5 45 t-102.5 38l33 212h-113l-31 -198q-117 -2 -205.5 -43t-149.5 -112.5t-91 -167t-30 -207.5zM367 638q0 73 17 140.5t52.5 121t91.5 88t136 44.5l-125 -767q-98 62 -135 160.5t-37 212.5z" />
<glyph unicode="&#xa3;" horiz-adv-x="1206" d="M75 0h692q48 0 98 3t98 16t92 34.5t77 59.5l-67 108q-38 -31 -89 -46.5t-106 -24t-111.5 -9.5t-102.5 -1h-186q42 69 62 147t20 160q0 62 -1 126.5t-3 126.5h321v117h-330q-5 54 -8 107t-3 108q0 62 17 116t50 94t82.5 63.5t116.5 23.5t117 -24.5t98 -72.5l71 113 q-64 61 -137.5 89.5t-161.5 28.5q-94 0 -171.5 -36t-131.5 -96.5t-84.5 -142t-30.5 -171.5q0 -50 2 -100t7 -100h-201v-117h209q5 -26 8 -54t3 -52q0 -65 1 -128t-8.5 -121t-37 -109.5t-81.5 -95.5l-190 2v-142z" />
<glyph unicode="&#xa4;" horiz-adv-x="1344" d="M8 435h136q31 -100 88 -184t135 -145.5t178.5 -95t223.5 -33.5q71 0 143 20.5t130.5 45t93.5 45.5l36 20l-60 107l-33 -16q-32 -15 -83 -35t-112 -35.5t-117 -15.5q-90 0 -161.5 24t-126.5 67t-94.5 102t-65.5 129h757v141h-794q-5 36 -8 75t-3 76q0 32 2 62t6 59h797 v142h-765q26 74 65.5 136t95.5 108t130.5 72.5t166.5 26.5q56 0 117 -22t109.5 -47.5t80.5 -47.5l31 -22l90 86l-40 30q-41 29 -104 64.5t-139.5 65t-144.5 29.5q-125 0 -228.5 -36t-182.5 -99.5t-134 -151.5t-84 -192h-132v-142h103q-4 -32 -6.5 -64t-2.5 -65 q0 -36 3 -71.5t8 -71.5h-105v-141z" />
<glyph unicode="&#xa5;" horiz-adv-x="1206" d="M48 1445l363 -634h-252v-113h317l46 -82v-86h-363v-112h363v-418h161v418h361v112h-361v82l48 86h313v113h-248l362 634h-157l-389 -682l-378 682h-186z" />
<glyph unicode="&#xa6;" horiz-adv-x="502" d="M184 -23h133v577h-133v-577zM184 936h133v577h-133v-577z" />
<glyph unicode="&#xa7;" horiz-adv-x="1206" d="M173 -157l39 -26q39 -26 96 -57t126.5 -56t131.5 -21q78 4 155 22t138.5 55t99.5 95.5t38 146.5t-49 153.5t-125 101.5q88 60 144.5 139.5t56.5 193.5q0 91 -49.5 151.5t-124.5 103t-160.5 73.5t-161 65t-124.5 78t-49 111q0 50 24 84.5t61.5 55.5t83.5 30.5t88 9.5 q36 0 86 -15t95.5 -33.5t78.5 -33.5l33 -14l60 93l-39 19t-95 41t-119.5 41t-113.5 19q-74 0 -145 -19t-126.5 -58.5t-88.5 -100.5t-33 -142q0 -88 49 -154t124 -100q-87 -61 -144 -140.5t-57 -192.5q0 -92 49 -152.5t124.5 -102.5t161.5 -73t161 -64.5t124 -77.5t49 -112 q0 -54 -29.5 -89t-72 -56t-92.5 -28.5t-94 -7.5q-38 0 -95.5 21t-111.5 47.5t-94 47.5l-40 21zM323 604q0 38 15 73t38 66.5t54.5 56.5t62.5 39l240 -93q70 -28 107 -75.5t37 -122.5q0 -38 -14.5 -73.5t-37.5 -67t-54 -57t-63 -39.5l-240 96q-67 28 -106 74.5t-39 122.5z " />
<glyph unicode="&#xa8;" horiz-adv-x="644" d="M58 1264h185v192h-185v-192zM399 1264h183v192h-183v-192z" />
<glyph unicode="&#xa9;" horiz-adv-x="1628" d="M58 729q0 -157 59.5 -294.5t161 -239t239.5 -161.5t295 -60t294.5 59t238.5 161.5t160 240t59 294.5t-60 295t-161 239t-239 160.5t-294 59.5q-157 0 -295 -58.5t-239.5 -160.5t-160 -240.5t-58.5 -294.5zM203 729q0 128 47 241.5t128.5 198.5t193 134t241.5 49 q129 0 240 -50t192 -136t128.5 -198.5t47.5 -240.5q0 -127 -47.5 -241t-128.5 -198.5t-193 -134t-241 -49.5q-130 0 -240.5 50.5t-192 136t-128.5 198.5t-47 240zM409 729q0 -96 31.5 -178.5t87.5 -143t137 -95.5t179 -35q69 0 129.5 23t107.5 64t78.5 96t46.5 122h-132 q-18 -89 -75 -140t-151 -51q-76 0 -131 27t-91 73t-54 107.5t-18 130.5q0 68 16 128t52 105t89.5 71t125.5 26q40 0 80 -12.5t72 -36.5t54 -57.5t29 -77.5h132q-24 144 -121 220.5t-241 76.5q-100 0 -180 -32.5t-136 -91t-86.5 -140t-30.5 -179.5z" />
<glyph unicode="&#xaa;" horiz-adv-x="714" d="M60 986q0 -52 22 -87.5t56.5 -58.5t78.5 -33.5t88 -10.5q75 0 137 30.5t104 94.5l4 -110h98q-4 6 -6 20.5t-4.5 30t-2.5 29.5v24v326q0 126 -71 175t-188 49q-29 0 -74 -11t-87 -24t-72 -24l-30 -11l33 -66l24 9t58.5 22t72.5 22t66 9q74 0 123 -33.5t49 -112.5v-41 q-55 -2 -136.5 -4.5t-157.5 -21t-130.5 -62.5t-54.5 -130zM167 986q0 50 30 79t74 44t93.5 19t84.5 4h90v-54q0 -94 -62.5 -151.5t-155.5 -57.5q-58 0 -106 24t-48 93z" />
<glyph unicode="&#xab;" horiz-adv-x="1002" d="M173 543l234 -357h111l-199 364l199 363h-111l-234 -357v-13zM491 543l234 -357h110l-197 364l197 363h-110l-234 -357v-13z" />
<glyph unicode="&#xac;" horiz-adv-x="1252" d="M92 668h925v-423h143v566h-1068v-143z" />
<glyph unicode="&#xad;" horiz-adv-x="580" d="M42 532h484v138h-484v-138z" />
<glyph unicode="&#xae;" horiz-adv-x="1628" d="M58 729q0 -157 59.5 -294.5t161 -239t239.5 -161.5t295 -60t294.5 59t238.5 161.5t160 240t59 294.5t-60 295t-161 239t-239 160.5t-294 59.5q-157 0 -295 -58.5t-239.5 -160.5t-160 -240.5t-58.5 -294.5zM203 729q0 128 47 241.5t128.5 198.5t193 134t241.5 49 q129 0 240 -50t192 -136t128.5 -198.5t47.5 -240.5q0 -127 -47.5 -241t-128.5 -198.5t-193 -134t-241 -49.5q-130 0 -240.5 50.5t-192 136t-128.5 198.5t-47 240zM528 297h134v384h136l240 -384h154l-256 384q116 6 181 63.5t65 178.5q0 62 -23 106.5t-61.5 70.5t-88.5 37.5 t-106 11.5h-375v-852zM662 787v257h209q30 0 61 -5t56 -18.5t42 -36.5t17 -59q0 -86 -48 -112t-124 -26h-213z" />
<glyph unicode="&#xaf;" horiz-adv-x="707" d="M60 1318h586v117h-586v-117z" />
<glyph unicode="&#xb0;" horiz-adv-x="835" d="M96 1149q0 -68 25 -126t69 -102t102.5 -69t125.5 -25q68 0 126 25t102 69t69 102t25 126q0 67 -25 125.5t-69 102.5t-103 69t-125 25q-67 0 -125.5 -25t-102.5 -69t-69 -102.5t-25 -125.5zM211 1149q0 87 59.5 147t147.5 60t147 -60t59 -147q0 -88 -59 -147.5t-147 -59.5 t-147.5 59.5t-59.5 147.5z" />
<glyph unicode="&#xb1;" horiz-adv-x="1445" d="M100 723q0 -144 36.5 -279t111.5 -238.5t192.5 -166t278.5 -62.5q76 0 148 17q10 -56 27 -109.5t47 -95.5t77 -67t120 -25q46 0 89 13t83 35l-30 117q-29 -14 -61.5 -23.5t-67.5 -9.5q-38 0 -63 16.5t-41.5 46.5t-26 70t-17.5 84q83 46 147 117t104.5 161t61.5 191.5 t21 207.5q0 144 -36.5 278.5t-111.5 238t-192.5 166.5t-277.5 63q-161 0 -278.5 -63t-192.5 -166.5t-111.5 -238t-36.5 -278.5zM265 723q0 104 25 212.5t79.5 196.5t140.5 144.5t209 56.5q124 0 209 -56.5t139.5 -144.5t79.5 -196.5t25 -212.5q0 -71 -11.5 -144 t-35.5 -142.5t-62.5 -130.5t-91.5 -105q-12 48 -30 92t-48 76t-74 52t-107 20q-46 0 -89 -12.5t-82 -33.5l29 -120q30 17 62 26.5t66 9.5q33 0 57 -13t41 -38.5t27 -58t19 -69.5q-57 -19 -123 -19q-123 0 -209 56t-140.5 144t-79.5 196.5t-25 213.5zM328 938q0 -33 24 -57 t57 -24q34 0 58 24t24 57h-2q0 34 -23 57.5t-57 23.5t-57.5 -24t-23.5 -57zM921 938q0 -31 20 -56t60 -25l6 2q40 0 59.5 25t19.5 54q0 32 -19.5 56.5t-59.5 24.5h-6q-40 0 -60 -25t-20 -56z" />
<glyph unicode="&#xb2;" horiz-adv-x="753" d="M56 580h625l-2 84h-491l284 243q34 29 69 64.5t64.5 77t47 86.5t17.5 93q0 64 -27 110.5t-70 75.5t-98 44t-112 15q-38 0 -82.5 -9.5t-86 -29.5t-74 -49t-45.5 -67l63 -56q8 31 34.5 55t59.5 40t69 24t64 8q38 0 72.5 -11.5t60.5 -32.5t43 -52t17 -71q0 -36 -15 -72 t-37 -68.5t-49 -62t-52 -52.5l-349 -303v-84z" />
<glyph unicode="&#xb3;" horiz-adv-x="753" d="M40 694q16 -36 50.5 -59t77.5 -38t86 -21t79 -6q58 0 121.5 14t115.5 44t86 79t34 120q0 96 -61 151.5t-153 63.5q78 13 136 66.5t58 136.5q0 65 -28 107.5t-73 69.5t-100 39t-110 12q-36 0 -76 -6t-79 -21t-72.5 -37t-51.5 -53l54 -59q33 55 98 74.5t125 19.5 q34 0 70.5 -8t66.5 -25t50 -45t20 -68q0 -67 -36.5 -100t-88.5 -48t-111 -16t-105 -1v-83q44 0 106 -1.5t118.5 -15t94.5 -47.5t38 -102q0 -50 -23 -84.5t-59 -54.5t-80 -29t-85 -9q-28 0 -63.5 5t-70 16.5t-63 30.5t-40.5 46z" />
<glyph unicode="&#xb4;" horiz-adv-x="624" d="M128 1210l69 -40l355 251l-122 64z" />
<glyph unicode="&#xb5;" d="M155 -393h148v471l22 -16t55.5 -35t74 -34.5t75.5 -15.5q116 -5 197.5 60t123.5 166l2 -203h131v1063h-147v-591q0 -67 -18.5 -133t-56 -118t-94 -84.5t-131.5 -32.5q-68 0 -112.5 24.5t-72 65t-39.5 93t-12 110.5v666h-146v-1456z" />
<glyph unicode="&#xb6;" horiz-adv-x="1192" d="M84 994q0 -91 33 -169.5t90.5 -137.5t136 -92t170.5 -33v-869h134v1629h227v-1629h134v1686h59v66h-516q-102 0 -188.5 -31t-148.5 -90.5t-96.5 -143.5t-34.5 -186z" />
<glyph unicode="&#xb7;" horiz-adv-x="602" d="M207 524h200v205h-200v-205z" />
<glyph unicode="&#xb8;" horiz-adv-x="563" d="M78 -330q47 -21 99.5 -33.5t104.5 -12.5q37 0 74 7.5t67 25.5t49 47t19 73q0 29 -13.5 53t-34.5 41.5t-48.5 28t-53.5 10.5q-17 0 -32.5 -1t-33.5 -3l36 106h-64l-59 -173l46 4t45 2q34 0 63.5 -19.5t29.5 -55.5q0 -41 -36.5 -58t-70.5 -17q-44 0 -87.5 13t-81.5 35z" />
<glyph unicode="&#xb9;" horiz-adv-x="753" d="M119 1274l27 -84q54 36 106.5 75t100.5 82v-727h-92l-46 -40h375l-44 40h-88l-3 843h-86q-113 -106 -250 -189z" />
<glyph unicode="&#xba;" horiz-adv-x="753" d="M52 1130q0 -75 23 -137t66 -105.5t103.5 -67.5t135.5 -24q153 0 239.5 92t86.5 242q0 74 -23 135t-65 105t-102.5 69.5t-135.5 25.5q-155 0 -241.5 -92.5t-86.5 -242.5zM159 1130q0 52 13.5 99t41 82.5t68.5 56.5t98 21t97.5 -21t67.5 -57.5t40 -83.5t13 -97t-13 -97 t-40 -83.5t-67.5 -57.5t-97.5 -21q-56 0 -97.5 21t-69 56.5t-41 82.5t-13.5 99z" />
<glyph unicode="&#xbb;" horiz-adv-x="1002" d="M169 186h110l231 357v13l-231 357h-110l194 -363zM487 186h111l229 357v13l-229 357h-111l194 -363z" />
<glyph unicode="&#xbc;" horiz-adv-x="1808" d="M121 1274l27 -84q54 36 106.5 75t100.5 82v-727h-92l-46 -40h375l-44 40h-88l-2 843h-86q-113 -106 -251 -189zM439 -23h131l865 1492h-133zM990 205h464v-205h103v205h147v80h-147v596h-132l-435 -596v-80zM1096 285l358 511v-511h-358zM1425 881q0 -2 5 -15t10 -29 t9 -29l5 -12z" />
<glyph unicode="&#xbd;" horiz-adv-x="1808" d="M111 1274l27 -84q54 36 106.5 75t100.5 82v-727h-92l-46 -40h373l-43 40h-88l-2 843h-86q-113 -106 -250 -189zM378 -23h132l865 1492h-134zM1099 0h625l-2 84h-492l285 241q33 30 68.5 65.5t65 77.5t47 87t17.5 93q0 64 -27 110t-70 75.5t-98 43.5t-112 14q-38 0 -83 -9 t-87 -29t-74 -49t-44 -67l62 -56q8 32 34.5 55.5t60 39.5t69 24.5t64.5 8.5q37 0 72 -12t61 -32.5t42.5 -52t16.5 -70.5q0 -36 -14.5 -73t-36.5 -69t-49 -61.5t-53 -51.5l-348 -303v-84z" />
<glyph unicode="&#xbe;" horiz-adv-x="1808" d="M84 694q16 -36 50.5 -59t77.5 -38t86 -21t78 -6q59 0 122.5 14t115.5 44t85.5 79t33.5 120q0 96 -60.5 151.5t-152.5 63.5q78 13 136 66.5t58 136.5q0 65 -28 107.5t-73 69.5t-100 39t-110 12q-36 0 -76 -6t-79 -21t-72.5 -37t-52.5 -53l54 -59q34 55 99 74.5t125 19.5 q34 0 70.5 -8t66.5 -25t50 -45t20 -68q0 -67 -37 -100t-89 -48t-110.5 -16t-104.5 -1v-83q44 0 106 -1.5t118.5 -15t94.5 -47.5t38 -102q0 -50 -23 -84.5t-59 -54.5t-80 -29t-86 -9q-27 0 -63 5t-70 16.5t-62 30.5t-41 46zM504 -23h131l864 1492h-133zM1026 205h463v-205 h103v205h148v80h-148v596h-131l-435 -596v-80zM1132 285l357 511v-511h-357zM1461 881q0 -2 5 -15t10 -29t9 -29l4 -12z" />
<glyph unicode="&#xbf;" horiz-adv-x="1085" d="M128 -18q0 -96 34.5 -167.5t93.5 -119.5t138.5 -72t167.5 -24q58 0 127 23t128.5 51t79.5 40l60 34l-42 96l-36 -16q-35 -17 -88.5 -38t-113 -37.5t-105.5 -16.5q-119 0 -201 63.5t-82 191.5q0 73 28 124t69.5 92t89.5 77t90 81t70 105.5t28 150.5v94h-140q0 -58 -1 -111 t-32 -106q-44 -76 -107 -121.5t-120 -93.5t-96.5 -115t-39.5 -185zM495 879h188v189h-188v-189z" />
<glyph unicode="&#xc0;" horiz-adv-x="1284" d="M4 0h165l142 403h638l150 -403h165l-522 1445h-205zM363 532l272 750l270 -750h-542zM393 1778l355 -251l69 40l-303 275z" />
<glyph unicode="&#xc1;" horiz-adv-x="1284" d="M4 0h165l142 403h638l150 -403h165l-522 1445h-205zM363 532l272 750l270 -750h-542zM453 1567l69 -40l355 251l-121 64z" />
<glyph unicode="&#xc2;" horiz-adv-x="1284" d="M4 0h165l142 403h638l150 -403h165l-522 1445h-205zM335 1563l123 -9l188 172l189 -172l124 9l-272 279h-83zM363 532l272 750l270 -750h-542z" />
<glyph unicode="&#xc3;" horiz-adv-x="1284" d="M4 0h165l142 403h638l150 -403h165l-522 1445h-205zM311 1656l84 -33q20 36 45.5 53.5t67.5 17.5q34 0 65 -12.5t62 -26t62.5 -26t69.5 -12.5q73 0 121.5 44t78.5 109l-82 32q-23 -35 -46.5 -52.5t-67.5 -17.5q-34 0 -65 12t-61.5 26t-62.5 26.5t-70 12.5 q-73 0 -122 -44.5t-79 -108.5zM363 532l272 750l270 -750h-542z" />
<glyph unicode="&#xc4;" horiz-adv-x="1284" d="M4 0h165l142 403h638l150 -403h165l-522 1445h-205zM363 532l272 750l270 -750h-542zM376 1621h184v193h-184v-193zM716 1621h185v193h-185v-193z" />
<glyph unicode="&#xc5;" horiz-adv-x="1284" d="M4 0h165l142 403h638l150 -403h165l-522 1445h-205zM363 532l272 750l270 -750h-542zM445 1715q0 -82 56.5 -138t138.5 -56q39 0 74.5 15.5t61.5 41.5t41.5 61.5t15.5 75.5q0 39 -15.5 75t-41.5 62t-61.5 41.5t-74.5 15.5q-40 0 -76 -15.5t-62 -41.5t-41.5 -62t-15.5 -75 zM530 1715q0 48 31 78.5t79 30.5q47 0 77.5 -31.5t30.5 -77.5q0 -44 -32.5 -76.5t-75.5 -32.5q-48 0 -79 30.5t-31 78.5z" />
<glyph unicode="&#xc6;" horiz-adv-x="1929" d="M10 0h167l251 416h541v-416h859v140h-698v543h585v136h-585v487h672v139l-911 2zM506 548l463 760v-760h-463z" />
<glyph unicode="&#xc7;" horiz-adv-x="1344" d="M102 719q0 -142 37.5 -268t109.5 -224.5t178.5 -162.5t247.5 -80l-49 -145q24 2 47 4t46 2q34 0 63 -19.5t29 -55.5q0 -41 -37 -58t-70 -17q-44 0 -88 13t-82 35l-18 -73q48 -21 100 -33.5t105 -12.5q38 0 74 7.5t66 25.5t49 47t19 73q0 29 -13 53t-34 41.5t-48 28 t-55 10.5q-16 0 -32 -1t-33 -3l23 71h32q71 0 143 20.5t130.5 45t93.5 45.5l36 20l-60 107l-33 -16q-32 -15 -83 -35t-112 -35.5t-117 -15.5q-134 0 -228 52t-154 138t-87 196.5t-27 227.5q0 118 28.5 226t89 192.5t155 136t225.5 51.5q56 0 117 -22t109.5 -47.5t80.5 -47.5 l31 -22l90 86l-40 30q-41 29 -104 64.5t-139.5 65t-144.5 29.5q-165 0 -289.5 -60t-208 -162.5t-126.5 -239t-43 -288.5z" />
<glyph unicode="&#xc8;" horiz-adv-x="1104" d="M180 0h831v140h-670v543h558v136h-558v487h645v139h-806v-1445zM307 1778l355 -251l69 40l-303 275z" />
<glyph unicode="&#xc9;" horiz-adv-x="1104" d="M180 0h831v140h-670v543h558v136h-558v487h645v139h-806v-1445zM367 1567l70 -40l355 251l-122 64z" />
<glyph unicode="&#xca;" horiz-adv-x="1104" d="M180 0h831v140h-670v543h558v136h-558v487h645v139h-806v-1445zM249 1563l123 -9l188 172l190 -172l123 9l-271 279h-84z" />
<glyph unicode="&#xcb;" horiz-adv-x="1104" d="M180 0h831v140h-670v543h558v136h-558v487h645v139h-806v-1445zM291 1621h183v193h-183v-193zM630 1621h185v193h-185v-193z" />
<glyph unicode="&#xcc;" horiz-adv-x="502" d="M4 1778l355 -251l69 40l-303 275zM169 0h164v1445h-164v-1445z" />
<glyph unicode="&#xcd;" horiz-adv-x="502" d="M64 1567l70 -40l355 251l-122 64zM169 0h164v1445h-164v-1445z" />
<glyph unicode="&#xce;" horiz-adv-x="502" d="M-54 1563l123 -9l188 172l190 -172l123 9l-271 279h-84zM169 0h164v1445h-164v-1445z" />
<glyph unicode="&#xcf;" horiz-adv-x="502" d="M-12 1621h183v193h-183v-193zM169 0h164v1445h-164v-1445zM328 1621h184v193h-184v-193z" />
<glyph unicode="&#xd0;" horiz-adv-x="1386" d="M34 677h137v-677h385q171 0 303.5 51t224.5 145.5t140 230t48 304.5q0 164 -44 294.5t-129.5 223t-212 143.5t-290.5 53l-425 6v-644h-137v-130zM333 140v537h342v130h-342v501h239q142 0 244.5 -42t167.5 -119t95 -187t30 -244q0 -275 -146 -425.5t-424 -150.5h-206z " />
<glyph unicode="&#xd1;" horiz-adv-x="1386" d="M167 0h146v1260l734 -1260h183v1445h-146v-1230l-712 1230h-205v-1445zM363 1656l84 -33q20 36 45.5 53.5t67.5 17.5q34 0 65 -12.5t62.5 -26t62.5 -26t69 -12.5q73 0 121.5 44t78.5 109l-81 32q-23 -35 -47 -52.5t-68 -17.5q-34 0 -65 12t-61.5 26t-62.5 26.5t-70 12.5 q-73 0 -122 -44.5t-79 -108.5z" />
<glyph unicode="&#xd2;" horiz-adv-x="1445" d="M102 723q0 -144 36.5 -279t111.5 -238.5t192.5 -166t278.5 -62.5t278 62.5t192 166t111.5 238.5t36.5 279t-36.5 278.5t-111.5 238t-192.5 166.5t-277.5 63q-161 0 -278.5 -63t-192.5 -166.5t-111.5 -238t-36.5 -278.5zM267 723q0 104 25 212.5t79.5 196.5t140.5 144.5 t209 56.5q124 0 209 -56.5t139.5 -144.5t79.5 -196.5t25 -212.5t-25 -213t-79.5 -197t-141 -144t-207.5 -56q-123 0 -209 56t-140.5 144t-79.5 196.5t-25 213.5zM472 1778l355 -251l70 40l-303 275z" />
<glyph unicode="&#xd3;" horiz-adv-x="1445" d="M102 723q0 -144 36.5 -279t111.5 -238.5t192.5 -166t278.5 -62.5t278 62.5t192 166t111.5 238.5t36.5 279t-36.5 278.5t-111.5 238t-192.5 166.5t-277.5 63q-161 0 -278.5 -63t-192.5 -166.5t-111.5 -238t-36.5 -278.5zM267 723q0 104 25 212.5t79.5 196.5t140.5 144.5 t209 56.5q124 0 209 -56.5t139.5 -144.5t79.5 -196.5t25 -212.5t-25 -213t-79.5 -197t-141 -144t-207.5 -56q-123 0 -209 56t-140.5 144t-79.5 196.5t-25 213.5zM532 1567l70 -40l355 251l-122 64z" />
<glyph unicode="&#xd4;" horiz-adv-x="1445" d="M102 723q0 -144 36.5 -279t111.5 -238.5t192.5 -166t278.5 -62.5t278 62.5t192 166t111.5 238.5t36.5 279t-36.5 278.5t-111.5 238t-192.5 166.5t-277.5 63q-161 0 -278.5 -63t-192.5 -166.5t-111.5 -238t-36.5 -278.5zM267 723q0 104 25 212.5t79.5 196.5t140.5 144.5 t209 56.5q124 0 209 -56.5t139.5 -144.5t79.5 -196.5t25 -212.5t-25 -213t-79.5 -197t-141 -144t-207.5 -56q-123 0 -209 56t-140.5 144t-79.5 196.5t-25 213.5zM414 1563l123 -9l188 172l190 -172l123 9l-271 279h-84z" />
<glyph unicode="&#xd5;" horiz-adv-x="1445" d="M102 723q0 -144 36.5 -279t111.5 -238.5t192.5 -166t278.5 -62.5t278 62.5t192 166t111.5 238.5t36.5 279t-36.5 278.5t-111.5 238t-192.5 166.5t-277.5 63q-161 0 -278.5 -63t-192.5 -166.5t-111.5 -238t-36.5 -278.5zM267 723q0 104 25 212.5t79.5 196.5t140.5 144.5 t209 56.5q124 0 209 -56.5t139.5 -144.5t79.5 -196.5t25 -212.5t-25 -213t-79.5 -197t-141 -144t-207.5 -56q-123 0 -209 56t-140.5 144t-79.5 196.5t-25 213.5zM391 1656l83 -33q21 36 46.5 53.5t65.5 17.5q34 0 65.5 -12.5t63 -26t63 -26t68.5 -12.5q73 0 122 44t79 109 l-82 32q-24 -35 -47 -52.5t-67 -17.5q-34 0 -65.5 12t-61.5 26t-63 26.5t-69 12.5q-74 0 -123 -44.5t-78 -108.5z" />
<glyph unicode="&#xd6;" horiz-adv-x="1445" d="M102 723q0 -144 36.5 -279t111.5 -238.5t192.5 -166t278.5 -62.5t278 62.5t192 166t111.5 238.5t36.5 279t-36.5 278.5t-111.5 238t-192.5 166.5t-277.5 63q-161 0 -278.5 -63t-192.5 -166.5t-111.5 -238t-36.5 -278.5zM267 723q0 104 25 212.5t79.5 196.5t140.5 144.5 t209 56.5q124 0 209 -56.5t139.5 -144.5t79.5 -196.5t25 -212.5t-25 -213t-79.5 -197t-141 -144t-207.5 -56q-123 0 -209 56t-140.5 144t-79.5 196.5t-25 213.5zM455 1621h185v193h-185v-193zM796 1621h184v193h-184v-193z" />
<glyph unicode="&#xd7;" horiz-adv-x="1252" d="M119 157l100 -101l409 410l410 -410l100 101l-409 409l409 409l-100 101l-410 -410l-409 410l-100 -101l409 -409z" />
<glyph unicode="&#xd8;" horiz-adv-x="1445" d="M62 -26l107 -36l148 190q80 -82 183.5 -116.5t215.5 -34.5q161 0 277 62.5t191.5 166t111 238t35.5 279.5q0 138 -32.5 271.5t-116.5 246.5l188 242l-106 38l-155 -199q-80 79 -181 113t-212 34q-161 0 -277 -63t-191 -166.5t-110.5 -238t-35.5 -278.5 q0 -135 31.5 -268.5t113.5 -243.5zM267 723q0 102 24 210.5t78.5 197.5t139.5 145.5t207 56.5q184 0 297 -133l-662 -853q-48 85 -66 181t-18 195zM416 253l662 854q50 -88 69 -186t19 -198q0 -104 -24 -212t-78.5 -197t-140.5 -145t-207 -56q-92 0 -168 33.5t-132 106.5z " />
<glyph unicode="&#xd9;" horiz-adv-x="1365" d="M169 499q0 -249 130.5 -385.5t383.5 -136.5q243 0 376 137.5t133 378.5v952h-145v-943q0 -176 -90 -280.5t-272 -104.5q-189 0 -272 103t-83 286v939h-161v-946zM439 1778l355 -251l69 40l-303 275z" />
<glyph unicode="&#xda;" horiz-adv-x="1365" d="M169 499q0 -249 130.5 -385.5t383.5 -136.5q243 0 376 137.5t133 378.5v952h-145v-943q0 -176 -90 -280.5t-272 -104.5q-189 0 -272 103t-83 286v939h-161v-946zM499 1567l69 -40l355 251l-121 64z" />
<glyph unicode="&#xdb;" horiz-adv-x="1365" d="M169 499q0 -249 130.5 -385.5t383.5 -136.5q243 0 376 137.5t133 378.5v952h-145v-943q0 -176 -90 -280.5t-272 -104.5q-189 0 -272 103t-83 286v939h-161v-946zM380 1563l124 -9l188 172l189 -172l124 9l-272 279h-83z" />
<glyph unicode="&#xdc;" horiz-adv-x="1365" d="M169 499q0 -249 130.5 -385.5t383.5 -136.5q243 0 376 137.5t133 378.5v952h-145v-943q0 -176 -90 -280.5t-272 -104.5q-189 0 -272 103t-83 286v939h-161v-946zM422 1621h184v193h-184v-193zM763 1621h184v193h-184v-193z" />
<glyph unicode="&#xdd;" horiz-adv-x="1224" d="M23 1445l514 -831v-614h161v610l510 835h-159l-421 -687l-415 687h-190zM428 1567l69 -40l356 251l-122 64z" />
<glyph unicode="&#xde;" horiz-adv-x="1104" d="M157 0h160v335h269q94 0 178 26t147.5 78t100.5 128.5t37 176.5q0 106 -32.5 186.5t-92 135t-144 82.5t-186.5 28h-277v269h-160v-1445zM317 472v566h283q133 0 210 -69.5t77 -208.5q0 -84 -26 -137t-70.5 -85t-102.5 -46t-121 -19t-128.5 -3t-121.5 2z" />
<glyph unicode="&#xdf;" horiz-adv-x="1186" d="M148 1036q0 -261 1 -520t1 -520h147v1017q0 75 12 147t45 126.5t90.5 88t147.5 33.5q100 0 167.5 -59.5t67.5 -164.5q0 -62 -19 -106t-46 -76.5t-58.5 -58.5t-57.5 -53t-39 -60.5t-7 -81.5t33 -66t64.5 -26t79.5 -14.5t76 -31t57 -73t23 -142.5q0 -68 -23 -122t-63 -91.5 t-96.5 -58.5t-122.5 -21q-42 0 -82 5.5t-80 22.5l-29 -120q50 -10 99.5 -18t103.5 -8q95 0 179 28t145.5 83t96.5 133.5t35 178.5q0 108 -51 183.5t-144 125.5q-19 8 -47.5 13.5t-55.5 11t-46 17t-13.5 35.5t39 64t109.5 102q50 42 75.5 101.5t25.5 121.5q0 84 -33.5 148.5 t-87.5 108.5t-126.5 66t-148.5 22q-112 0 -194.5 -38t-137.5 -103.5t-83.5 -155.5t-28.5 -194z" />
<glyph unicode="&#xe0;" horiz-adv-x="1085" d="M98 293q0 -82 29.5 -141.5t78.5 -98.5t115 -59t141 -20q119 0 207.5 55t149.5 155l8 -184h144q-6 14 -9 37t-4 48.5t-2 48.5t-1 39v546q0 197 -98.5 283t-288.5 86q-48 0 -114.5 -12.5t-128.5 -26t-106 -25.5l-44 -13l34 -96l38 8t91 19t112.5 19t105.5 8q123 0 189 -59 t66 -185v-71q-62 -2 -139.5 -4t-157 -11t-154.5 -29t-133 -59t-93.5 -101.5t-35.5 -156.5zM257 293q0 79 43 127t106.5 74t136.5 34.5t134 8.5h134v-90q0 -74 -22 -137t-65 -110t-102.5 -75.5t-134.5 -28.5q-96 0 -163 46t-67 151zM299 1421l355 -251l69 40l-303 275z" />
<glyph unicode="&#xe1;" horiz-adv-x="1085" d="M98 293q0 -82 29.5 -141.5t78.5 -98.5t115 -59t141 -20q119 0 207.5 55t149.5 155l8 -184h144q-6 14 -9 37t-4 48.5t-2 48.5t-1 39v546q0 197 -98.5 283t-288.5 86q-48 0 -114.5 -12.5t-128.5 -26t-106 -25.5l-44 -13l34 -96l38 8t91 19t112.5 19t105.5 8q123 0 189 -59 t66 -185v-71q-62 -2 -139.5 -4t-157 -11t-154.5 -29t-133 -59t-93.5 -101.5t-35.5 -156.5zM257 293q0 79 43 127t106.5 74t136.5 34.5t134 8.5h134v-90q0 -74 -22 -137t-65 -110t-102.5 -75.5t-134.5 -28.5q-96 0 -163 46t-67 151zM359 1210l69 -40l355 251l-121 64z" />
<glyph unicode="&#xe2;" horiz-adv-x="1085" d="M98 293q0 -82 29.5 -141.5t78.5 -98.5t115 -59t141 -20q119 0 207.5 55t149.5 155l8 -184h144q-6 14 -9 37t-4 48.5t-2 48.5t-1 39v546q0 197 -98.5 283t-288.5 86q-48 0 -114.5 -12.5t-128.5 -26t-106 -25.5l-44 -13l34 -96l38 8t91 19t112.5 19t105.5 8q123 0 189 -59 t66 -185v-71q-62 -2 -139.5 -4t-157 -11t-154.5 -29t-133 -59t-93.5 -101.5t-35.5 -156.5zM241 1206l122 -9l189 171l190 -171l123 9l-271 279h-84zM257 293q0 79 43 127t106.5 74t136.5 34.5t134 8.5h134v-90q0 -74 -22 -137t-65 -110t-102.5 -75.5t-134.5 -28.5 q-96 0 -163 46t-67 151z" />
<glyph unicode="&#xe3;" horiz-adv-x="1085" d="M98 293q0 -82 29.5 -141.5t78.5 -98.5t115 -59t141 -20q119 0 207.5 55t149.5 155l8 -184h144q-6 14 -9 37t-4 48.5t-2 48.5t-1 39v546q0 197 -98.5 283t-288.5 86q-48 0 -114.5 -12.5t-128.5 -26t-106 -25.5l-44 -13l34 -96l38 8t91 19t112.5 19t105.5 8q123 0 189 -59 t66 -185v-71q-62 -2 -139.5 -4t-157 -11t-154.5 -29t-133 -59t-93.5 -101.5t-35.5 -156.5zM217 1299l84 -33q20 36 45.5 53.5t67.5 17.5q34 0 65 -12.5t62 -26t62.5 -26t68.5 -12.5q74 0 123 43.5t78 108.5l-81 33q-24 -35 -47.5 -52.5t-67.5 -17.5q-33 0 -65 12t-62 26 t-62.5 26t-69.5 12q-73 0 -122 -44.5t-79 -107.5zM257 293q0 79 43 127t106.5 74t136.5 34.5t134 8.5h134v-90q0 -74 -22 -137t-65 -110t-102.5 -75.5t-134.5 -28.5q-96 0 -163 46t-67 151z" />
<glyph unicode="&#xe4;" horiz-adv-x="1085" d="M98 293q0 -82 29.5 -141.5t78.5 -98.5t115 -59t141 -20q119 0 207.5 55t149.5 155l8 -184h144q-6 14 -9 37t-4 48.5t-2 48.5t-1 39v546q0 197 -98.5 283t-288.5 86q-48 0 -114.5 -12.5t-128.5 -26t-106 -25.5l-44 -13l34 -96l38 8t91 19t112.5 19t105.5 8q123 0 189 -59 t66 -185v-71q-62 -2 -139.5 -4t-157 -11t-154.5 -29t-133 -59t-93.5 -101.5t-35.5 -156.5zM257 293q0 79 43 127t106.5 74t136.5 34.5t134 8.5h134v-90q0 -74 -22 -137t-65 -110t-102.5 -75.5t-134.5 -28.5q-96 0 -163 46t-67 151zM282 1264h184v192h-184v-192zM622 1264 h185v192h-185v-192z" />
<glyph unicode="&#xe5;" horiz-adv-x="1085" d="M98 293q0 -82 29.5 -141.5t78.5 -98.5t115 -59t141 -20q119 0 207.5 55t149.5 155l8 -184h144q-6 14 -9 37t-4 48.5t-2 48.5t-1 39v546q0 197 -98.5 283t-288.5 86q-48 0 -114.5 -12.5t-128.5 -26t-106 -25.5l-44 -13l34 -96l38 8t91 19t112.5 19t105.5 8q123 0 189 -59 t66 -185v-71q-62 -2 -139.5 -4t-157 -11t-154.5 -29t-133 -59t-93.5 -101.5t-35.5 -156.5zM257 293q0 79 43 127t106.5 74t136.5 34.5t134 8.5h134v-90q0 -74 -22 -137t-65 -110t-102.5 -75.5t-134.5 -28.5q-96 0 -163 46t-67 151zM351 1362q0 -82 56.5 -138t138.5 -56 q39 0 74.5 16t61.5 42t42 61t16 75q0 39 -16 75t-42 62t-62 42t-74 16q-40 0 -75.5 -16t-62 -42t-42 -62t-15.5 -75zM437 1362q0 48 30 78.5t79 30.5q48 0 78 -31.5t30 -77.5q0 -44 -32 -76t-76 -32q-48 0 -78.5 30t-30.5 78z" />
<glyph unicode="&#xe6;" horiz-adv-x="1808" d="M104 293q0 -82 29.5 -141.5t78.5 -98.5t115 -59t141 -20q62 0 123 17t112 48.5t91.5 77.5t66.5 104q67 -123 172 -183.5t245 -60.5q48 0 115.5 12.5t128.5 26.5t105 26l44 12l-33 96l-40 -7q-39 -7 -96 -16.5t-118.5 -17t-107.5 -7.5q-92 0 -152.5 32.5t-98 86.5 t-54 128.5t-20.5 156.5h751q4 12 4 22q0 106 -22.5 207.5t-73.5 180t-136 125.5t-208 47q-104 0 -193 -44.5t-154 -126.5q-56 98 -150 133.5t-201 35.5q-48 0 -114.5 -12.5t-128.5 -26t-106 -25.5l-44 -13l34 -96l38 8t92 20t113.5 20t105.5 8q125 0 188 -59t63 -185v-71 q-64 -2 -140.5 -4t-155 -11t-151.5 -29t-131 -60t-92.5 -102.5t-34.5 -154.5zM263 293q0 79 43 127t105.5 74t135.5 34.5t134 8.5h128v-90q0 -72 -22 -135t-63 -111t-99.5 -76.5t-133.5 -28.5q-96 0 -162 46t-66 151zM953 622q8 64 31 127.5t60.5 112.5t92.5 78t131 29 q75 0 127 -29t85 -77t47 -110.5t14 -130.5h-588z" />
<glyph unicode="&#xe7;" horiz-adv-x="964" d="M78 532q0 -104 25 -197.5t74.5 -168t126 -122.5t180.5 -62l-47 -143l46 4t45 2q34 0 63 -19.5t29 -55.5q0 -41 -36 -58t-70 -17q-44 0 -88 13t-81 35l-20 -73q48 -21 100.5 -33.5t104.5 -12.5q38 0 75 7.5t67 25.5t49 47t19 73q0 29 -14 53t-35 41.5t-48 28t-53 10.5 q-17 0 -33 -1t-33 -3l24 71h16q48 0 113 11.5t123.5 26.5t99.5 27l40 12l-33 96l-38 -8t-91 -18.5t-112.5 -19t-105.5 -8.5q-94 0 -155.5 38.5t-99.5 101.5t-53.5 142.5t-15.5 160.5q0 79 19.5 155.5t61.5 135.5t107 96t154 37q38 0 84 -7t86.5 -17t68.5 -17l27 -7l37 98 l-28 12q-28 11 -72 25.5t-99.5 26t-109.5 11.5q-123 0 -216 -43.5t-154.5 -118.5t-92.5 -176.5t-31 -217.5z" />
<glyph unicode="&#xe8;" horiz-adv-x="1085" d="M82 532q0 -119 28 -220t87.5 -175.5t151.5 -117t219 -42.5q48 0 112 12.5t122.5 26.5t98.5 26l39 12l-33 96l-38 -8t-91 -18.5t-112.5 -19t-105.5 -8.5q-92 0 -151.5 33.5t-96.5 89.5t-52 130.5t-19 156.5h756q0 113 -21 217t-72 185.5t-137 130.5t-217 49 q-118 0 -205.5 -47t-146 -124.5t-87.5 -177t-29 -207.5zM243 622q8 68 31 130.5t61.5 110.5t93.5 77t131 29q75 0 127.5 -29t84.5 -78t46.5 -112.5t16.5 -127.5h-592zM299 1421l355 -251l69 40l-303 275z" />
<glyph unicode="&#xe9;" horiz-adv-x="1085" d="M82 532q0 -119 28 -220t87.5 -175.5t151.5 -117t219 -42.5q48 0 112 12.5t122.5 26.5t98.5 26l39 12l-33 96l-38 -8t-91 -18.5t-112.5 -19t-105.5 -8.5q-92 0 -151.5 33.5t-96.5 89.5t-52 130.5t-19 156.5h756q0 113 -21 217t-72 185.5t-137 130.5t-217 49 q-118 0 -205.5 -47t-146 -124.5t-87.5 -177t-29 -207.5zM243 622q8 68 31 130.5t61.5 110.5t93.5 77t131 29q75 0 127.5 -29t84.5 -78t46.5 -112.5t16.5 -127.5h-592zM359 1210l69 -40l355 251l-121 64z" />
<glyph unicode="&#xea;" horiz-adv-x="1085" d="M82 532q0 -119 28 -220t87.5 -175.5t151.5 -117t219 -42.5q48 0 112 12.5t122.5 26.5t98.5 26l39 12l-33 96l-38 -8t-91 -18.5t-112.5 -19t-105.5 -8.5q-92 0 -151.5 33.5t-96.5 89.5t-52 130.5t-19 156.5h756q0 113 -21 217t-72 185.5t-137 130.5t-217 49 q-118 0 -205.5 -47t-146 -124.5t-87.5 -177t-29 -207.5zM241 1206l122 -9l189 171l190 -171l123 9l-271 279h-84zM243 622q8 68 31 130.5t61.5 110.5t93.5 77t131 29q75 0 127.5 -29t84.5 -78t46.5 -112.5t16.5 -127.5h-592z" />
<glyph unicode="&#xeb;" horiz-adv-x="1085" d="M82 532q0 -119 28 -220t87.5 -175.5t151.5 -117t219 -42.5q48 0 112 12.5t122.5 26.5t98.5 26l39 12l-33 96l-38 -8t-91 -18.5t-112.5 -19t-105.5 -8.5q-92 0 -151.5 33.5t-96.5 89.5t-52 130.5t-19 156.5h756q0 113 -21 217t-72 185.5t-137 130.5t-217 49 q-118 0 -205.5 -47t-146 -124.5t-87.5 -177t-29 -207.5zM243 622q8 68 31 130.5t61.5 110.5t93.5 77t131 29q75 0 127.5 -29t84.5 -78t46.5 -112.5t16.5 -127.5h-592zM282 1264h184v192h-184v-192zM622 1264h185v192h-185v-192z" />
<glyph unicode="&#xec;" horiz-adv-x="482" d="M-4 1421l355 -251l69 40l-303 275zM167 0h108h38v64v999h-146v-1063z" />
<glyph unicode="&#xed;" horiz-adv-x="482" d="M56 1210l69 -40l355 251l-121 64zM167 0h108h38v64v999h-146v-1063z" />
<glyph unicode="&#xee;" horiz-adv-x="482" d="M-62 1206l122 -9l189 171l190 -171l123 9l-271 279h-84zM167 0h108h38v64v999h-146v-1063z" />
<glyph unicode="&#xef;" horiz-adv-x="482" d="M-20 1264h183v192h-183v-192zM167 0h108h38v64v999h-146v-1063zM319 1264h185v192h-185v-192z" />
<glyph unicode="&#xf0;" d="M80 526q0 -113 30 -213t91.5 -175.5t152.5 -119.5t212 -44q132 0 225.5 49.5t153.5 132t87 190t27 226.5q0 243 -93 431.5t-281 339.5l174 104l-78 80l-197 -119q-67 43 -147 72t-158 45l-70 -86q67 -16 129.5 -41t119.5 -65l-181 -109l80 -78l195 118q29 -24 61.5 -55 t62.5 -66.5t56 -72t43 -69.5q-75 87 -195 87q-123 0 -217 -44.5t-156.5 -121t-94.5 -178.5t-32 -218zM243 528q0 78 16 156.5t56 140.5t102.5 102t154.5 40q88 0 150.5 -41t101.5 -104.5t57 -141.5t18 -154q0 -73 -19 -148t-59 -136.5t-101.5 -101.5t-145.5 -40 q-92 0 -155.5 37.5t-102.5 98.5t-56 137t-17 155z" />
<glyph unicode="&#xf1;" d="M155 0h146v594q0 71 19 137.5t57.5 118t96.5 82.5t138 31q58 0 101 -21t72.5 -57.5t44 -84.5t14.5 -102v-698h146v683q0 90 -19.5 164t-63.5 127.5t-112 83.5t-165 30q-125 0 -205 -58.5t-134 -166.5v200h-136v-1063zM376 1299l84 -33q20 36 45 53.5t67 17.5 q34 0 65 -12.5t62.5 -26t63 -26t68.5 -12.5q74 0 123 43.5t78 108.5l-81 33q-24 -35 -48 -52.5t-68 -17.5q-33 0 -64 12t-61.5 26t-63 26t-70.5 12q-73 0 -122 -44.5t-78 -107.5z" />
<glyph unicode="&#xf2;" d="M84 532q0 -113 31 -214t91.5 -176t152.5 -120t213 -45q122 0 213.5 43.5t152.5 120t91 177.5t30 214q0 114 -30 215t-92 176.5t-152.5 120t-212.5 44.5q-123 0 -215 -43.5t-152.5 -118.5t-90.5 -176.5t-30 -217.5zM245 532q0 78 16 156.5t56 138.5t101.5 99t153.5 39 q90 0 152.5 -39t101.5 -100t56 -138.5t17 -155.5q0 -77 -17 -154t-56 -139t-101.5 -100.5t-152.5 -38.5t-152.5 38.5t-101.5 100.5t-56 139t-17 154zM325 1421l356 -251l69 40l-303 275z" />
<glyph unicode="&#xf3;" d="M84 532q0 -113 31 -214t91.5 -176t152.5 -120t213 -45q122 0 213.5 43.5t152.5 120t91 177.5t30 214q0 114 -30 215t-92 176.5t-152.5 120t-212.5 44.5q-123 0 -215 -43.5t-152.5 -118.5t-90.5 -176.5t-30 -217.5zM245 532q0 78 16 156.5t56 138.5t101.5 99t153.5 39 q90 0 152.5 -39t101.5 -100t56 -138.5t17 -155.5q0 -77 -17 -154t-56 -139t-101.5 -100.5t-152.5 -38.5t-152.5 38.5t-101.5 100.5t-56 139t-17 154zM387 1210l68 -40l356 251l-121 64z" />
<glyph unicode="&#xf4;" d="M84 532q0 -113 31 -214t91.5 -176t152.5 -120t213 -45q122 0 213.5 43.5t152.5 120t91 177.5t30 214q0 114 -30 215t-92 176.5t-152.5 120t-212.5 44.5q-123 0 -215 -43.5t-152.5 -118.5t-90.5 -176.5t-30 -217.5zM245 532q0 78 16 156.5t56 138.5t101.5 99t153.5 39 q90 0 152.5 -39t101.5 -100t56 -138.5t17 -155.5q0 -77 -17 -154t-56 -139t-101.5 -100.5t-152.5 -38.5t-152.5 38.5t-101.5 100.5t-56 139t-17 154zM267 1206l124 -9l187 171l191 -171l122 9l-271 279h-83z" />
<glyph unicode="&#xf5;" d="M84 532q0 -113 31 -214t91.5 -176t152.5 -120t213 -45q122 0 213.5 43.5t152.5 120t91 177.5t30 214q0 114 -30 215t-92 176.5t-152.5 120t-212.5 44.5q-123 0 -215 -43.5t-152.5 -118.5t-90.5 -176.5t-30 -217.5zM245 532q0 78 16 156.5t56 138.5t101.5 99t153.5 39 q90 0 152.5 -39t101.5 -100t56 -138.5t17 -155.5q0 -77 -17 -154t-56 -139t-101.5 -100.5t-152.5 -38.5t-152.5 38.5t-101.5 100.5t-56 139t-17 154zM245 1299l83 -33q21 36 46 53.5t67 17.5q33 0 64.5 -12.5t63 -26t62.5 -26t69 -12.5q73 0 122 43.5t79 108.5l-82 33 q-23 -35 -47 -52.5t-68 -17.5q-34 0 -65 12t-61 26t-63 26t-70 12q-74 0 -123 -44.5t-77 -107.5z" />
<glyph unicode="&#xf6;" d="M84 532q0 -113 31 -214t91.5 -176t152.5 -120t213 -45q122 0 213.5 43.5t152.5 120t91 177.5t30 214q0 114 -30 215t-92 176.5t-152.5 120t-212.5 44.5q-123 0 -215 -43.5t-152.5 -118.5t-90.5 -176.5t-30 -217.5zM245 532q0 78 16 156.5t56 138.5t101.5 99t153.5 39 q90 0 152.5 -39t101.5 -100t56 -138.5t17 -155.5q0 -77 -17 -154t-56 -139t-101.5 -100.5t-152.5 -38.5t-152.5 38.5t-101.5 100.5t-56 139t-17 154zM309 1264h184v192h-184v-192zM650 1264h183v192h-183v-192z" />
<glyph unicode="&#xf7;" horiz-adv-x="1252" d="M92 495h1068v143h-1068v-143zM532 62h187v191h-187v-191zM532 879h187v191h-187v-191z" />
<glyph unicode="&#xf8;" d="M14 -67q30 -2 53 -16.5t52 -14.5l146 180q64 -56 143 -80.5t164 -24.5q122 0 213.5 43.5t152.5 120t91 178t30 213.5q0 102 -24 201.5t-90 181.5l181 223q-30 2 -53.5 17t-51.5 17l-148 -184q-62 54 -140.5 77t-160.5 23q-123 0 -215 -43.5t-152.5 -118.5t-90.5 -176.5 t-30 -217.5q0 -100 25 -198t85 -179zM245 532q0 78 16 156.5t56 138.5t101.5 99t153.5 39q60 0 115 -20t96 -66l-488 -602q-30 59 -40 125t-10 130zM355 190l489 602q33 -61 44 -126.5t11 -133.5q0 -77 -17 -154t-56 -139t-101.5 -100.5t-152.5 -38.5q-62 0 -118.5 21 t-98.5 69z" />
<glyph unicode="&#xf9;" d="M155 397q0 -92 19.5 -169.5t62 -132.5t112 -86.5t169.5 -31.5q115 0 199.5 61.5t133.5 164.5l2 -203h131v1063h-147v-591q0 -67 -18.5 -133t-56 -118t-94 -84.5t-131.5 -32.5q-68 0 -112.5 24.5t-72 65t-39.5 93t-12 110.5v666h-146v-666zM328 1421l355 -251l69 40 l-303 275z" />
<glyph unicode="&#xfa;" d="M155 397q0 -92 19.5 -169.5t62 -132.5t112 -86.5t169.5 -31.5q115 0 199.5 61.5t133.5 164.5l2 -203h131v1063h-147v-591q0 -67 -18.5 -133t-56 -118t-94 -84.5t-131.5 -32.5q-68 0 -112.5 24.5t-72 65t-39.5 93t-12 110.5v666h-146v-666zM389 1210l69 -40l355 251 l-121 64z" />
<glyph unicode="&#xfb;" d="M155 397q0 -92 19.5 -169.5t62 -132.5t112 -86.5t169.5 -31.5q115 0 199.5 61.5t133.5 164.5l2 -203h131v1063h-147v-591q0 -67 -18.5 -133t-56 -118t-94 -84.5t-131.5 -32.5q-68 0 -112.5 24.5t-72 65t-39.5 93t-12 110.5v666h-146v-666zM269 1206l124 -9l187 171 l191 -171l124 9l-273 279h-83z" />
<glyph unicode="&#xfc;" d="M155 397q0 -92 19.5 -169.5t62 -132.5t112 -86.5t169.5 -31.5q115 0 199.5 61.5t133.5 164.5l2 -203h131v1063h-147v-591q0 -67 -18.5 -133t-56 -118t-94 -84.5t-131.5 -32.5q-68 0 -112.5 24.5t-72 65t-39.5 93t-12 110.5v666h-146v-666zM311 1264h184v192h-184v-192z M652 1264h183v192h-183v-192z" />
<glyph unicode="&#xfd;" horiz-adv-x="901" d="M12 1063l375 -1059q-13 -46 -28.5 -98t-40.5 -96t-64 -73.5t-97 -29.5q-23 0 -51 7t-52 11l-6 -124q73 -16 140 -17q60 0 106.5 25.5t80.5 65.5t58.5 90.5t40.5 100.5l427 1197h-141l-300 -850l-293 850h-155zM265 1210l70 -40l355 251l-122 64z" />
<glyph unicode="&#xfe;" d="M159 -393h146v566q48 -98 133.5 -147t191.5 -49q116 0 198.5 49t135.5 127.5t77 177.5t24 199q0 104 -23 204.5t-75 179t-134.5 126.5t-204.5 48q-117 0 -195 -63.5t-128 -161.5v639h-146v-1895zM305 472v138q0 62 21 125t60.5 113.5t95 81.5t122.5 31q88 0 146.5 -41 t91.5 -105.5t47 -141.5t14 -149q0 -73 -14 -148t-47 -135.5t-91.5 -99.5t-146.5 -39q-74 0 -129 33.5t-92.5 86.5t-57.5 119t-20 131z" />
<glyph unicode="&#xff;" horiz-adv-x="901" d="M12 1063l375 -1059q-13 -46 -28.5 -98t-40.5 -96t-64 -73.5t-97 -29.5q-23 0 -51 7t-52 11l-6 -124q73 -16 140 -17q60 0 106.5 25.5t80.5 65.5t58.5 90.5t40.5 100.5l427 1197h-141l-300 -850l-293 850h-155zM188 1264h184v192h-184v-192zM528 1264h184v192h-184v-192z " />
<glyph unicode="&#x152;" horiz-adv-x="1969" d="M104 721q0 -144 35.5 -278t110.5 -236.5t191.5 -162.5t277.5 -60q52 0 94 5t79 16t76 29t83 44v-78h831v140h-672v543h560v136h-560v487h647v139h-806v-75q-157 92 -337 93q-161 0 -276 -62t-189 -165.5t-109.5 -237t-35.5 -277.5zM271 721q0 111 23 219.5t76.5 195 t140.5 140t216 53.5q36 0 90 -8.5t106 -27.5t89 -50t37 -77v-871q0 -50 -36 -85t-86 -55.5t-105 -29t-95 -8.5q-129 0 -216 53t-140.5 139t-76.5 193.5t-23 218.5z" />
<glyph unicode="&#x153;" horiz-adv-x="1848" d="M75 532q0 -113 29.5 -213t89 -176t149 -121t213.5 -45q121 0 225 48t176 148q144 -196 395 -196q47 0 116 12.5t132 26.5t107 26l45 12l-32 96l-38 -8t-91.5 -18.5t-112.5 -19t-105 -8.5q-92 0 -158 33.5t-108 89.5t-62.5 130.5t-25.5 156.5h733q2 2 5.5 11t3.5 11 q0 104 -20.5 205.5t-71 180t-133 126.5t-203.5 48q-119 0 -218.5 -53t-159.5 -156q-60 108 -169 158.5t-230 50.5q-124 0 -213.5 -44.5t-149 -121t-89 -176.5t-29.5 -214zM236 532q0 78 16.5 155.5t55.5 138.5t100.5 100t151.5 39t151.5 -39t100.5 -100t55 -138.5t16 -155.5 q0 -77 -16 -154t-55 -139t-100.5 -100.5t-151.5 -38.5t-151.5 38.5t-100.5 100.5t-55.5 139t-16.5 154zM1021 622q6 64 28.5 126.5t61 111.5t93 79t127.5 30q74 0 123.5 -28t81 -75t45 -106.5t13.5 -121.5v-16h-573z" />
<glyph unicode="&#x178;" horiz-adv-x="1224" d="M23 1445l514 -831v-614h161v610l510 835h-159l-421 -687l-415 687h-190zM351 1621h183v193h-183v-193zM692 1621h183v193h-183v-193z" />
<glyph unicode="&#x2c6;" horiz-adv-x="726" d="M54 1206l123 -9l188 171l191 -171l123 9l-272 279h-84z" />
<glyph unicode="&#x2dc;" horiz-adv-x="747" d="M42 1299l83 -33q21 36 46.5 53.5t66.5 17.5q33 0 65 -12.5t63 -26t62.5 -26t68.5 -12.5q73 0 122 43.5t79 108.5l-82 33q-23 -35 -46.5 -52.5t-67.5 -17.5q-34 0 -65.5 12t-61.5 26t-63 26t-69 12q-74 0 -123 -44.5t-78 -107.5z" />
<glyph unicode="&#x2000;" horiz-adv-x="954" />
<glyph unicode="&#x2001;" horiz-adv-x="1909" />
<glyph unicode="&#x2002;" horiz-adv-x="954" />
<glyph unicode="&#x2003;" horiz-adv-x="1909" />
<glyph unicode="&#x2004;" horiz-adv-x="636" />
<glyph unicode="&#x2005;" horiz-adv-x="477" />
<glyph unicode="&#x2006;" horiz-adv-x="318" />
<glyph unicode="&#x2007;" horiz-adv-x="318" />
<glyph unicode="&#x2008;" horiz-adv-x="238" />
<glyph unicode="&#x2009;" horiz-adv-x="381" />
<glyph unicode="&#x200a;" horiz-adv-x="106" />
<glyph unicode="&#x2010;" horiz-adv-x="580" d="M42 532h484v138h-484v-138z" />
<glyph unicode="&#x2011;" horiz-adv-x="580" d="M42 532h484v138h-484v-138z" />
<glyph unicode="&#x2012;" horiz-adv-x="580" d="M42 532h484v138h-484v-138z" />
<glyph unicode="&#x2013;" horiz-adv-x="1044" d="M0 480h1047v138h-1047v-138z" />
<glyph unicode="&#x2014;" horiz-adv-x="2088" d="M0 480h2091v138h-2091v-138z" />
<glyph unicode="&#x2018;" horiz-adv-x="616" d="M175 949q0 -13 2 -30h203q0 121 19.5 243t49.5 239l-82 60q-33 -40 -67.5 -101t-61.5 -127.5t-45 -133.5t-18 -119v-31z" />
<glyph unicode="&#x2019;" horiz-adv-x="604" d="M175 977l82 -58q34 40 68 100.5t61.5 127.5t45 132.5t17.5 119.5v30q0 14 -2 32h-202q0 -122 -20 -244.5t-50 -239.5z" />
<glyph unicode="&#x201a;" horiz-adv-x="578" d="M155 -275l81 -60q33 40 68 101t62 127.5t44.5 132.5t17.5 120v29q0 15 -2 32h-203q0 -121 -19.5 -243.5t-48.5 -238.5z" />
<glyph unicode="&#x201c;" horiz-adv-x="1062" d="M175 949q0 -13 2 -30h203q0 121 19.5 243t49.5 239l-82 60q-33 -40 -67.5 -101t-61.5 -127.5t-45 -133.5t-18 -119v-31zM594 949q0 -13 2 -30h202q0 121 19.5 243t49.5 239l-82 60q-33 -40 -67.5 -101t-62 -127.5t-44.5 -133.5t-17 -119v-31z" />
<glyph unicode="&#x201d;" horiz-adv-x="1062" d="M175 977l82 -58q34 40 68 100.5t61.5 127.5t45 132.5t17.5 119.5v30q0 14 -2 32h-202q0 -122 -20 -244.5t-50 -239.5zM594 977l81 -58q34 40 68 100.5t61 127.5t45 132.5t18 119.5v30q0 14 -2 32h-203q0 -122 -20 -244.5t-48 -239.5z" />
<glyph unicode="&#x201e;" horiz-adv-x="1062" d="M155 -275l81 -60q33 40 68 101t62 127.5t44.5 132.5t17.5 120v29q0 15 -2 32h-203q0 -121 -19.5 -243.5t-48.5 -238.5zM572 -275l82 -60q33 40 67.5 101t62 127.5t45 132.5t17.5 120v29q0 15 -2 32h-202q0 -121 -20 -243.5t-50 -238.5z" />
<glyph unicode="&#x2022;" horiz-adv-x="1146" d="M333 763q0 -44 15 -81.5t43.5 -66.5t66 -44t81.5 -15q87 0 147 59.5t60 147.5q0 44 -16 81t-44 65.5t-66 44t-81 15.5q-88 0 -147 -59t-59 -147z" />
<glyph unicode="&#x2026;" horiz-adv-x="2088" d="M251 0h200v205h-200v-205zM947 0h199v205h-199v-205zM1642 0h200v205h-200v-205z" />
<glyph unicode="&#x202f;" horiz-adv-x="381" />
<glyph unicode="&#x2039;" horiz-adv-x="561" d="M113 543l234 -357h111l-199 364l199 363h-111l-234 -357v-13z" />
<glyph unicode="&#x203a;" horiz-adv-x="561" d="M108 186h111l230 357v13l-230 357h-111l195 -363z" />
<glyph unicode="&#x205f;" horiz-adv-x="477" />
<glyph unicode="&#x2122;" horiz-adv-x="1915" d="M102 1343h255v-761h132v761h257v102h-644v-102zM909 582h121v755l280 -755h91l281 755v-755h132v863h-208l-246 -678l-248 678h-203v-863z" />
<glyph unicode="&#x25fc;" horiz-adv-x="1064" d="M0 0v1065h1065v-1065h-1065z" />
</font>
</defs>
</svg>
