<svg xmlns="http://www.w3.org/2000/svg" class="custom-icon" version="1.1" viewBox="0 0 100 100" style="height:48;width:48"><circle class="outer-shape" cx="50" cy="50" r="48" fill="rgb(235, 235, 227)"/><path class="inner-shape" transform="translate(25,25) scale(0.5)" d="M82.7 1H17.3C8.4 1 1 8.4 1 17.3v65.3C1 91.7 8.4 99 17.3 99H82.7c9 0 16.3-7.3 16.3-16.3V17.3C99 8.4 91.7 1 82.7 1zM92.9 82.7c0 2.7-1.1 5.3-3 7.2 -1.9 1.9-4.5 3-7.2 3h-32.7V50H7.1V17.3c0-2.7 1.1-5.3 3-7.2s4.5-3 7.2-3h32.7V50h42.9L92.9 82.7 92.9 82.7z" fill="rgb(156, 156, 148)"/></svg>