<svg xmlns="http://www.w3.org/2000/svg" class="custom-icon" version="1.1" viewBox="0 0 100 100" style="height:48;width:48"><circle class="outer-shape" cx="50" cy="50" r="48" fill="rgb(235, 235, 227)"/><path class="inner-shape" transform="translate(25,25) scale(0.5)" d="M82.67 1H17.34C8.35 1 1 8.35 1 17.34v65.33c0 8.99 7.35 16.34 16.33 16.34h65.33C91.65 99 99 91.66 99 82.67V17.34C99 8.35 91.65 1 82.67 1L82.67 1zM84.32 50H68.38v42.88H50V50h-8.85V35.97H50v-9.11c0-12.38 5.34-19.74 19.89-19.74h16.77V22.3H72.97c-4.07-0.01-4.57 2.12-4.57 6.08l-0.02 7.59H86.75l-2.43 14.03V50z" fill="rgb(156, 156, 148)"/></svg>