<svg xmlns="http://www.w3.org/2000/svg" class="custom-icon" version="1.1" viewBox="0 0 100 100" style="height:48;width:48"><circle class="outer-shape" cx="50" cy="50" r="48" fill="rgb(235, 235, 227)"/><path class="inner-shape" transform="translate(25,25) scale(0.5)" d="M35.1 39c-1.8-1.8-4.7-1.8-6.5 0l-6.2 6.3c-1.8 1.8-1.8 4.7 0 6.5L40 69.5c0.1 0.1 0.2 0.2 0.3 0.3l6.7 6.7c1.8 1.8 4.7 1.8 6.5 0l44.3-44.8c1.8-1.8 1.8-4.7 0-6.5L91 18.6c-1.8-1.8-4.7-1.8-6.5 0L49.7 53.8 35.1 39zM67.2 70.9c-0.3 0.4-0.6 0.8-0.9 1.1L55.1 83.4c-2.7 2.7-7 2.7-9.7 0L16.1 53.8c-2.7-2.7-2.7-7.1 0-9.8l11.2-11.3c2.7-2.7 7-2.7 9.7 0l13.7 13.8 24.3-24.5L57.5 4.4c-4.5-4.5-11.7-4.5-16.1 0L4.3 41.8c-4.5 4.5-4.5 11.8 0 16.3l37 37.4c4.5 4.5 11.7 4.5 16.1 0l37-37.4c4.2-4.3 4.4-11 0.7-15.5L67.2 70.9z" fill="rgb(156, 156, 148)"/></svg>