<svg xmlns="http://www.w3.org/2000/svg" class="custom-icon" version="1.1" viewBox="0 0 100 100" style="height:48;width:48"><circle class="outer-shape" cx="50" cy="50" r="48" fill="rgb(235, 235, 227)"/><path class="inner-shape" transform="translate(25,25) scale(0.5)" d="M50 1C22.9 1 1 22.9 1 50s21.9 49 49 49 49-21.9 49-49S77.1 1 50 1zM25.5 25.5h49c0.9 0 1.7 0.2 2.5 0.5L50 57.5 23 26C23.8 25.7 24.6 25.5 25.5 25.5L25.5 25.5zM19.4 68.4v-36.7c0-0.1 0-0.3 0-0.4l18 21L19.6 70C19.4 69.4 19.4 68.9 19.4 68.4L19.4 68.4zM74.5 74.5h-49c-0.5 0-1.1-0.1-1.6-0.2l17.4-17.4L50 67l8.7-10.1 17.4 17.4C75.6 74.4 75 74.5 74.5 74.5L74.5 74.5zM80.6 68.4c0 0.5-0.1 1.1-0.2 1.6L62.7 52.2l18-21c0 0.1 0 0.3 0 0.4L80.6 68.4 80.6 68.4z" fill="rgb(156, 156, 148)"/></svg>