<svg xmlns="http://www.w3.org/2000/svg" class="custom-icon" version="1.1" viewBox="0 0 100 100" style="height:48;width:48"><circle class="outer-shape" cx="50" cy="50" r="48" fill="rgb(235, 235, 227)"/><path class="inner-shape" transform="translate(25,25) scale(0.5)" d="M88.2 1H11.8C5.9 1 1 5.8 1 11.8V88.2C1 94.2 5.9 99 11.8 99H88.2c6 0 10.8-4.8 10.8-10.8V11.8C99 5.8 94.1 1 88.2 1zM49.9 31.2c10.4 0 18.8 8.4 18.8 18.8 0 10.4-8.4 18.8-18.8 18.8s-18.8-8.4-18.8-18.8S39.6 31.2 49.9 31.2zM87.5 83.6c0 2.2-1.8 3.9-3.9 3.9H16.3c-2.2 0-3.9-1.8-3.9-3.9v-41.1h8.5c-0.6 2.4-0.9 4.8-0.9 7.3 0 16.6 13.5 30.1 30.1 30.1s30.1-13.5 30.1-30.1c0-2.5-0.3-5-0.9-7.3h8.3L87.5 83.6 87.5 83.6zM87.8 27.1c0 2.2-1.8 3.9-3.9 3.9H72.7c-2.2 0-3.9-1.8-3.9-3.9v-11.1c0-2.2 1.8-3.9 3.9-3.9h11.1c2.2 0 3.9 1.8 3.9 3.9V27.1z" fill="rgb(156, 156, 148)"/></svg>