<svg xmlns="http://www.w3.org/2000/svg" class="custom-icon" version="1.1" viewBox="0 0 100 100" style="height:48;width:48"><circle class="outer-shape" cx="50" cy="50" r="48" fill="rgb(235, 235, 227)"/><path class="inner-shape" transform="translate(25,25) scale(0.5)" d="M64.78 30.51c5.12 2.01 10.12-0.61 10.49-5.52 0.86-9.2-15.18-9.24-13.48 0.74 -3.06 1.9-5.74 4.18-8.99 5.89 0.87-9.33 0.13-20.25 0.38-30.2 -1.34-0.77-4.05-0.19-5.99-0.37v16.57c-2.28 0.49-5.8-4.09-8.99-5.16 2.27-9.11-13.41-10.78-13.48-1.47 0.2 5.13 5 8.23 10.11 6.26 4.45 2.51 8.54 5.35 12.36 8.47v18.05c-3.4-1.57-5.85-4.08-8.99-5.89 2.27-8.82-13.32-10.42-13.48-1.47 -0.1 5.47 5.18 8.43 10.49 6.26 3.83 2.98 8.11 5.52 11.99 8.47v19.52c-3.25-1.71-5.93-3.99-8.99-5.89 0.79-3.72-1.95-6.84-5.24-7.73 -5.29-0.29-7.56 2.38-8.24 6.63 0.1 5.16 5.3 8.05 10.49 5.89 3.8 3.02 8.17 5.47 11.99 8.47V99h5.99v-7.37c3.32-3.61 8.19-5.69 11.98-8.84 1.29 0.66 3.24 1.5 4.87 0.74 3.04-0.81 4.77-2.92 5.24-6.26 -0.31-4.11-2.7-6.19-6.37-7 -4.76 0.36-7.33 2.86-7.12 8.1 -3.09 1.26-5.93 4.72-8.61 5.15V64.75c3.36-3.57 8.18-5.71 11.98-8.84 1.29 0.66 3.24 1.5 4.87 0.74 3.04-0.81 4.77-2.92 5.24-6.26 -0.31-4.11-2.7-6.19-6.37-7 -4.76 0.36-7.33 2.86-7.12 8.11 -3.09 1.26-5.93 4.72-8.61 5.15V39.34C56.21 35.58 61.14 33.67 64.78 30.51z" fill="rgb(156, 156, 148)"/></svg>