<svg xmlns="http://www.w3.org/2000/svg" class="custom-icon" version="1.1" viewBox="0 0 100 100" style="height:48;width:48"><circle class="outer-shape" cx="50" cy="50" r="48" fill="rgb(235, 235, 227)"/><path class="inner-shape" transform="translate(25,25) scale(0.5)" d="M50 1.49C22.94 1.49 1 23.21 1 50c0 19.86 12.07 36.93 29.33 44.43 -0.14-3.39-0.02-7.45 0.85-11.14 0.94-3.94 6.31-26.43 6.31-26.43s-1.57-3.1-1.57-7.68c0-7.19 4.21-12.56 9.45-12.56 4.46 0 6.61 3.31 6.61 7.28 0 4.43-2.86 11.07-4.33 17.22 -1.23 5.15 2.61 9.34 7.73 9.34 9.29 0 15.54-11.8 15.54-25.79 0-10.63-7.23-18.59-20.39-18.59 -14.86 0-24.12 10.97-24.12 23.23 0 4.23 1.26 7.21 3.23 9.52 0.91 1.06 1.03 1.49 0.7 2.7 -0.23 0.89-0.77 3.04-1 3.89 -0.33 1.23-1.33 1.67-2.45 1.21C20.05 63.88 16.86 56.46 16.86 48.11c0-13.78 11.74-30.3 35.02-30.3 18.71 0 31.02 13.4 31.02 27.79 0 19.03-10.69 33.25-26.44 33.25 -5.29 0-10.27-2.83-11.97-6.05 0 0-2.84 11.18-3.45 13.34 -1.04 3.74-3.07 7.48-4.93 10.39C40.52 97.81 45.18 98.51 50 98.51c27.06 0 49-21.72 49-48.51S77.06 1.49 50 1.49z" fill="rgb(156, 156, 148)"/></svg>