<svg xmlns="http://www.w3.org/2000/svg" class="custom-icon" version="1.1" viewBox="0 0 100 100" style="height:48;width:48"><circle class="outer-shape" cx="50" cy="50" r="48" fill="rgb(235, 235, 227)"/><path class="inner-shape" transform="translate(25,25) scale(0.5)" d="M50 1C22.9 1 1 22.9 1 50S22.9 99 50 99s49-21.9 49-49S77.1 1 50 1zM50 38.2c-1.6 0-3 1.3-3 3l0 17.9c-0.1 6.8-5.7 12.4-12.5 12.4 -6.9 0-12.5-5.6-12.5-12.5 0-0.1 0-7.8 0-7.8h9.6v7.7c0 1.6 1.3 3 3 3s3-1.3 3-3V40.7c0.2-6.7 5.7-12.1 12.5-12.1 6.8 0 12.3 5.4 12.5 12.2v4l-5.7 1.7 -3.8-1.8v-3.5C53 39.5 51.6 38.2 50 38.2zM78 58.9c0 6.9-5.6 12.5-12.5 12.5 -6.9 0-12.5-5.6-12.5-12.4v-7.8l3.8 1.8 5.7-1.7v7.9c0 1.6 1.3 3 3 3 1.6 0 3-1.3 3-3V51.1h9.6C78 51.1 78 58.8 78 58.9z" fill="rgb(156, 156, 148)"/></svg>