<svg xmlns="http://www.w3.org/2000/svg" class="custom-icon" version="1.1" viewBox="0 0 100 100" style="height:48;width:48"><circle class="outer-shape" cx="50" cy="50" r="48" fill="rgb(235, 235, 227)"/><path class="inner-shape" transform="translate(25,25) scale(0.5)" d="M82.7 1H17.3C8.4 1 1 8.4 1 17.3v65.3c0 9 7.4 16.3 16.3 16.3h65.3C91.7 99 99 91.7 99 82.7V17.3C99 8.4 91.7 1 82.7 1L82.7 1zM71 79.9c-2.9 1.4-5.5 2.3-7.8 2.9 -2.3 0.5-4.9 0.8-7.6 0.8 -3.1 0-4.9-0.4-7.3-1.2 -2.4-0.8-4.4-1.9-6.1-3.3 -1.7-1.4-2.8-3-3.5-4.6 -0.6-1.6-1-4-1-7.1V43.7h-9.2v-9.6c2.7-0.9 5.7-2.1 7.6-3.7 1.9-1.6 3.4-3.5 4.6-5.8 1.1-2.3 1.9-5.1 2.4-8.6h9.6v15.6h15.6v12.1H52.7v17.3c0 3.9-0.1 6.2 0.4 7.3 0.4 1.1 1.4 2.3 2.6 2.9 1.5 0.9 3.2 1.3 5.1 1.3 3.4 0 6.8-1.1 10.2-3.3v10.7V79.9z" fill="rgb(156, 156, 148)"/></svg>