<svg xmlns="http://www.w3.org/2000/svg" class="custom-icon" version="1.1" viewBox="0 0 100 100" style="height:48;width:48"><circle class="outer-shape" cx="50" cy="50" r="48" fill="rgb(235, 235, 227)"/><path class="inner-shape" transform="translate(25,25) scale(0.5)" d="M1 30.5l4 5.2c0 0 8.2-6.5 10.9-3.2 2.7 3.2 13.2 42.3 16.7 49.5 3 6.3 11.4 14.7 20.6 8.7 9.2-6 39.8-32.1 45.3-62.9 5.5-30.8-36.8-24.4-41.3 2.5 11.2-6.7 17.2 2.7 11.4 13.4C62.9 54.4 57.7 61.4 55 61.4c-2.7 0-4.8-7.2-8-19.7 -3.2-12.9-3.2-36.2-16.7-33.6C17.7 10.6 1 30.5 1 30.5L1 30.5z" fill="rgb(156, 156, 148)"/></svg>