<svg xmlns="http://www.w3.org/2000/svg" class="custom-icon" version="1.1" viewBox="0 0 100 100" style="height:48;width:48"><circle class="outer-shape" cx="50" cy="50" r="48" fill="rgb(235, 235, 227)"/><path class="inner-shape" transform="translate(25,25) scale(0.5)" d="M42.34 58.4c0.07-2.55-3.06-4.09-3.06-4.09L18.55 43.84c0 0-3.07-1.27-4.57-0.38 -1.14 0.68-2.15 1.9-2.25 2.98l-1.35 16.64c0 0-0.2 2.88 0.54 4.19 1.06 1.86 4.54 0.56 4.54 0.56l24.21-5.35C40.6 61.84 42.25 61.78 42.34 58.4zM42.61 43.58c0 0 1.98 2.05 4.5 1.43 2.74-0.67 3.17-4.65 3.17-4.65l-0.18-33.1c0 0-0.41-4.08-2.25-5.19C44.97 0.32 44.12 1.23 43.29 1.35L24 8.53c0 0-1.89 0.63-2.87 2.2 -1.4 2.23 1.43 5.51 1.43 5.51L42.61 43.58zM62.56 54.5l23.23-6.79c0 0 3.17-1.29 3.62-3.01 0.44-1.72-0.52-3.79-0.52-3.79L77.79 27.82c0 0-0.96-1.65-2.96-1.82 -2.2-0.19-3.56 2.48-3.56 2.48L58.15 49.15c0 0-1.16 2.06-0.06 3.92C59.28 55.09 62.56 54.5 62.56 54.5zM48.36 67.38c-2.08-1.07-4.56 1.14-4.56 1.14L27.59 86.38c0 0-2.02 2.73-1.51 4.41 0.48 1.57 1.29 2.35 2.42 2.9l16.28 5.14c0 0 1.97 0.41 3.47-0.02 2.12-0.61 1.73-3.94 1.73-3.94l0.37-24.17C50.35 70.69 50.26 68.36 48.36 67.38zM86.35 70.1l-23.29-7.48c0 0-2.28-0.6-3.8 0.93 -1.65 1.67-0.26 4.7-0.26 4.7l12.44 20.79c0 0 2.04 2.74 3.81 2.74 1.78 0 3.53-1.46 3.53-1.46l9.84-14.07c0 0 0.99-1.78 1.01-3.33C89.68 70.71 86.35 70.1 86.35 70.1z" fill="rgb(156, 156, 148)"/></svg>