<svg xmlns="http://www.w3.org/2000/svg" version="1.1" x="0px" y="0px" width="15px" height="15px" viewBox="0.5 0.5 15 15" xml:space="preserve" enable-background="new 0.5 0.5 15 15"><style type="text/css">.st0{fill:#223236;}</style><path class="st0" d="M15 13.3l-3.6-3c-0.4-0.3-0.8-0.5-1.1-0.5 0.8-1 1.3-2.3 1.3-3.7 0-3.1-2.5-5.6-5.6-5.6S0.5 3 0.5 6.1c0 3.1 2.5 5.6 5.6 5.6 1.4 0 2.7-0.5 3.6-1.3 0 0.3 0.1 0.7 0.5 1.1l3 3.6c0.5 0.6 1.4 0.6 1.9 0.1C15.7 14.6 15.6 13.8 15 13.3L15 13.3zM6.1 9.9c-2.1 0-3.8-1.7-3.8-3.8s1.7-3.8 3.8-3.8c2.1 0 3.8 1.7 3.8 3.8S8.2 9.9 6.1 9.9z"/></svg>