<svg xmlns="http://www.w3.org/2000/svg" xmlns:xlink="http://www.w3.org/1999/xlink" version="1.1" x="0px" y="0px" width="814.05px" height="755.25px" viewBox="0 0 814.05 755.25" enable-background="new 0 0 814.05 755.25" xml:space="preserve"><style>.style0{stroke:	#000000;stroke-width:	4.8;fill:	#F3E8D1;}.style1{stroke:	#000000;stroke-width:	2.4;fill:	none;}.style2{fill:	#2DA343;}.style3{fill:	none;}.style4{font-size:	21.6;font-family:	'MyriadPro-Regular';}.style5{font-size:	28.8;font-family:	'MyriadPro-Regular';fill:	#C5D5ED;}.style6{font-size:	28.8;font-family:	'MyriadPro-Regular';fill:	#92B4DF;}.style7{fill:	#BF2F38;}</style><path d="M579.2 429.72l0.8 5.6l-4.8 3.2l-3.2 4l-1.6 4.8h-4.8l-5.6 3.2l-4.8 4 l-4 3.2l-6.4 0.8H540l-4 1.6l-3.2 3.2l-4-0.8l-3.2-1.6l-1.6 6.4l-1.6 5.6l0.8 5.6l4.8 4.8l2.4 1.6l4 3.2l-0.8 4.8v4.8l0.8 4l1.6 3.2 l-1.6 2.4l-2.4 4l-3.2 2.4l-3.2 4l-1.6 7.2l-0.8 4l-1.6 4.8l-4 3.2l-5.6 1.6h-4.8l-3.2 1.6l-1.6 3.2l2.4 2.4l0.8 4.8l-1.6 4.8 l-0.8 4.8l-0.8 6.4l-2.4 4.8l-4.8 2.4l-0.8-6.4l-2.4-4l-4-3.2l-2.4-6.4l-3.2-4.8l-4.8-4.8l-3.2-1.6H460h-41.6l-80 2.4l-48.8 2.4 l-56.8-3.2l-38.4-2.4H180l-8.8 0.8l-0.8-5.6v-6.4l-5.6-3.2l-0.8-8.8l1.6-7.2l3.2-4l-2.4-5.6l-3.2-4l0.8-6.4l1.6-5.6l-0.8-5.6 l-1.6-4.8l0.8-8l-3.2-3.2v-6.4l0.8-3.2l-1.6-7.2h-3.2l-3.2-0.8l-2.4-5.6l-1.6-5.6l-0.8-6.4l1.6-6.4l-0.8-5.6l-1.6-5.6l1.6-7.2 l-2.4-4l-6.4-3.2l-1.6-4.8l-0.8-4.8l-2.4-3.2l-1.6-4v-7.2l2.4-4l-2.4-3.2l-1.6-8.8l0.8-8l-1.6-6.4l-5.6-4.8l-5.6-5.6l-4-5.6v-6.4 l4-3.2l2.4-5.6l3.2-4.8l1.6-6.4l-0.8-7.2l2.4-5.6l0.8-4.8l-3.2-4.8l-4.8-4v-4.8l3.2-2.4l-1.6-5.6l-2.4-5.6l-2.4-5.6l118.4 2.4 l139.2 3.2l135.2 1.6l0.8 7.2l4 4.8l2.4 4.8l-0.8 8l-2.4 7.2l-2.4 6.4l2.4 8l2.4 8l3.2 3.2v5.6v9.6l6.4 2.4l6.4 0.8l6.4 2.4l7.2 4 l2.4 4.8l2.4 8l6.4 5.6l8 5.6l3.2 6.4l4 5.6l6.4 2.4l5.6 3.2l4 7.2l0.8 6.4v9.6v6.4l-2.4 4.8l-3.2 4.8l-5.6 4c0 0.5 0 1.1 0 1.6" class="style0"/><polyline points="552.8,348.9 674.8,350.1 759.2,348.9" class="style1"/><circle cx="424.8" cy="203.3" r="8" class="style2"/><circle cx="642.4" cy="289.7" r="8" class="style2"/><circle cx="576.8" cy="361.7" r="8" class="style2"/><circle cx="773.6" cy="410.5" r="8" class="style2"/><circle cx="341.6" cy="451.3" r="8" class="style2"/><path d="M160.02 477.72c0 4.42-3.58 8-8 8s-8-3.58-8-8c0-4.42 3.58-8 8-8S160.02 473.3 160 477.72z" class="style2"/><path d="M269.97 699.81c0 4.42-3.58 8-8 8s-8-3.58-8-8c0-4.42 3.58-8 8-8S269.97 695.4 270 699.81z" class="style2"/><rect x="318" y="188.8" width="99.2" height="30.4" class="style3"/><text transform="matrix(1 0 0 1 317.978 209.416)" class="style4">Rochester</text><rect x="552.4" y="275.2" width="92.8" height="30.4" class="style3"/><text transform="matrix(1 0 0 1 552.4209 295.8105)" class="style4">Madison</text><rect x="588.5" y="353.6" width="94.4" height="30.4" class="style3"/><text transform="matrix(1 0 0 1 588.5127 374.2148)" class="style4">Galena</text><rect x="687.8" y="396.1" width="94.4" height="30.4" class="style3"/><text transform="matrix(1 0 0 1 687.7744 416.6167)" class="style4">Chicago</text><rect x="356" y="439.3" width="132.8" height="30.4" class="style3"/><text transform="matrix(1 0 0 1 356.0034 459.8403)" class="style4">Des Moines</text><rect x="72.5" y="465.6" width="94.4" height="30.4" class="style3"/><text transform="matrix(1 0 0 1 72.5327 486.2144)" class="style4">Omaha</text><rect x="273.6" y="690.1" width="145.6" height="30.4" class="style3"/><text transform="matrix(1 0 0 1 273.644 710.7104)" class="style4">Kansas City</text><rect x="503.7" y="724.9" width="94.4" height="30.4" class="style3"/><text transform="matrix(1 0 0 1 503.7129 745.4175)" class="style4">St. Louis</text><rect x="392.5" y="276" width="116.8" height="30.4" class="style3"/><text transform="matrix(1 0 0 1 392.5122 296.6035)" class="style4">Decorah</text><rect x="157.6" y="22.5" width="222.4" height="40" class="style3"/><text transform="matrix(1 0 0 1 194.7539 49.9346)" class="style5">MINNESOTA</text><rect x="486.4" y="123.8" width="222.4" height="40" class="style3"/><text transform="matrix(1 0 0 1 527.1094 151.2168)" class="style5">WISCONSIN</text><rect x="524.8" y="534.2" width="222.4" height="40" class="style3"/><text transform="matrix(1 0 0 1 585.583 561.6167)" class="style5">ILLINOIS</text><rect x="276.8" y="602.2" width="222.4" height="40" class="style3"/><text transform="matrix(1 0 0 1 328.3535 629.6187)" class="style5">MISSOURI</text><rect x="-43.2" y="408.6" width="222.4" height="40" class="style3"/><text transform="matrix(1 0 0 1 3.3564 436.0181)" class="style5">NEBRASKA</text><rect x="152" y="381.7" width="222.4" height="40" class="style3"/><text transform="matrix(1 0 0 1 228.8379 409.1372)" class="style6">IOWA</text><rect x="186.3" y="100.5" width="190.4" height="30.4" class="style3"/><text transform="matrix(1 0 0 1 186.2729 121.1104)" class="style4">Minneapolis/St. Paul</text><polyline points="133.2,0.1 134.4,12.1 129.6,21.7 121.2,26.5 112.8,32.5 115.2,42.1 120,46.9 122.4,52.9 133.2,57.7 140.4,68.5 138,122.5 135.6,154.9 130.8,181.3 133.2,211.3 133.2,248.5" class="style1"/><polyline points="414,6.1 405.6,10.9 400.8,16.9 399.6,24.1 393.6,30.1 392.4,34.9 392.4,46.9 402,49.3 406.8,57.7 408,67.3 403.2,72.1 399.6,74.5 402,84.1 398.4,94.9 398.4,112.9 399.6,124.9 396,130.9 404.4,138.1 416.4,146.5 426,147.7 432,148.9 440.4,159.7 448.8,163.3 457.2,166.9 458.4,178.9 464.4,184.9 471.6,190.9 482.4,200.5 494.4,205.3 502.8,213.7 507.6,226.9 506.4,240.1 508.8,247.3 512,256.9" class="style1"/><polyline points="793.2,21.7 783.6,30.1 781.2,44.5 775.2,51.7 770.4,62.5 759.6,75.7 762,80.5 765.6,88.9 760.8,92.5 753.6,93.7 750,97.3 745.2,110.5 739.2,120.1 735.6,134.5 735.6,145.3 742.8,139.3 752.4,128.5 757.2,117.7 762,110.5 770.4,108.1 778.8,96.1 784.8,84.1 793.2,70.9 800.4,60.1 805.2,48.1 812.4,51.7 806.4,62.5 804,72.1 801.6,81.7 794.4,86.5 792,96.1 789.6,108.1 783.6,114.1 784.8,124.9 780,132.1 774,140.5 769.2,153.7 771.6,166.9 776.4,175.3 770.4,180.1 766.8,184.9 760.8,193.3 758.4,205.3 764.4,219.7 760.8,228.1 756,234.1 756,247.3 751.2,254.5 748.8,268.9 752.4,282.1 749.6,288.9 756,295.3 759.6,303.7 762,314.5 759.7,326.4 758.4,336.1 762,348.1 758.4,361.3 762,370.9 769.2,384.1 775,393.6 777.6,403.3 782.4,414.1 787.2,416.5 790.8,423.7 796.8,423.7 802.8,427.3 811.2,424.9" class="style1"/><line x1="552.8" y1="348.9" x2="762" y2="348.1" class="style1"/><polyline points="170.4,546.1 177.6,554.5 178.8,566.5 187.2,576.1 193.2,582.1 198,591.7 204,600.1 211.2,608.5 220.8,615.7 229.2,613.3 235.2,615.7 236.4,621.7 230.4,627.7 225.6,633.7 217.2,643.3 222,651.7 234,666.1 234,678.1 242.4,681.7 248.4,684.1 254.4,686.5 253.2,691.3 253.2,705.7 253.2,720.1 254.4,733.3 250.8,753.7" class="style1"/><path d="M495.2 573.72l-2 13.2l2.4 9.6l3.6 14.4l4.8 12l4.8 9.6l7.2 9.6l7.2 3.6 l6 9.6l16.8 10.8l8.4 7.2v12l4.8 16.8l6 12l6-6l6-4.8l8.4 4.8l7.2 3.6l4.8 2.4l0.52 10.73l-2.92 2.46c0 0 2.4 1.2 2.4 7.2 s-4.8 10.8-4.8 10.8l-4.8 0.4l1.2 8" class="style1"/><polygon points="493.9,293.3 483.2,287.3 472.3,292.8 474.6,280.8 466.1,272.1 478.2,270.6 483.8,259.8 489,270.9 501,272.9 492.1,281.2" class="style7"/><path d="M596 737.72c0 4.42-3.58 8-8 8s-8-3.58-8-8c0-4.42 3.58-8 8-8S596 733.3 596 737.72z" class="style2"/><circle cx="378.3" cy="120.6" r="8" class="style2"/><circle cx="485.9" cy="403.7" r="8" class="style2"/><rect x="355" y="389.7" width="125.3" height="30.4" class="style3"/><text transform="matrix(1 0 0 1 354.9595 410.3003)" class="style4">Cedar Rapids</text><rect x="337.6" y="338.4" width="94.4" height="30.4" class="style3"/><text transform="matrix(1 0 0 1 337.6011 359.0146)" class="style4">Waterloo</text><rect x="529.6" y="206.9" width="94.4" height="30.4" class="style3"/><text transform="matrix(1 0 0 1 529.5977 227.4805)" class="style4">La Crosse</text><circle cx="432.8" cy="353.7" r="8" class="style2"/><circle cx="517.3" cy="222.1" r="8" class="style2"/></svg>