<svg xmlns="http://www.w3.org/2000/svg" xmlns:xlink="http://www.w3.org/1999/xlink" viewBox="-36.5 -22.5 636 175" enable-background="new -36.5 -22.5 636 175"><style type="text/css"><![CDATA[
.st0{fill-opacity:0;}.st1{fill:#FFFFFF;stroke:#FFFFFF;stroke-width:0.2;}.st2{fill:#FFFFFF;}.st3{fill:none;stroke:#FFFFFF;stroke-width:1.0253;}.st4{fill:none;stroke:#FFFFFF;stroke-width:1.6868;}.st5{fill:none;}.st6{fill:none;stroke:#FFFFFF;stroke-width:1.2;}.st7{fill:#FFFFFF;stroke:#FFFFFF;stroke-width:0.75;}
]]></style><path class="st4" d="M123.07 12.634v106.622"/><path class="st5" d="M137.056 11.2h607.22v128.018h-607.22z"/><path class="st7" d="M146.738 41.8l-9.682-33.35h2.152l5.14 17.93c1.435 4.782 2.51 9.085 3.466 12.79h.12c.837-3.824 2.15-8.127 3.706-12.79l5.618-17.93h2.152L148.65 41.8h-1.912zM161.68 29.608c0 7.53 3.706 10.638 7.77 10.638 2.988 0 4.542-.717 5.737-1.315l.48 1.794c-.718.478-2.87 1.554-6.456 1.554-5.976 0-9.68-4.9-9.68-11.953 0-7.89 3.943-12.91 9.322-12.91 6.813 0 8.128 7.292 8.128 10.758 0 .598 0 .957-.12 1.435h-15.18zm13.148-1.913c0-3.347-1.195-8.367-6.216-8.367-4.542 0-6.455 4.662-6.933 8.367h13.148zM181.402 38.692c1.076.717 2.75 1.673 4.662 1.673 3.228 0 4.78-2.032 4.78-4.542 0-2.63-1.433-4.064-4.302-5.38-3.347-1.433-5.26-3.585-5.26-6.454 0-3.467 2.392-6.456 6.336-6.456 1.912 0 3.586.598 4.542 1.435l-.717 1.91c-.717-.597-2.032-1.433-4.184-1.433-2.63 0-4.065 1.913-4.065 4.064 0 2.51 1.554 3.587 4.303 4.902 3.347 1.554 5.26 3.466 5.26 7.052 0 4.064-2.75 6.813-6.934 6.813-2.032 0-3.825-.598-5.26-1.674l.838-1.91zM201.125 12.754v5.26h5.857v1.912h-5.857v15.42c0 2.987.717 4.9 2.988 4.9 1.076 0 1.913-.12 2.39-.358l.24 1.793c-.717.24-1.674.6-2.87.48-1.553 0-2.748-.6-3.585-1.674-.956-1.195-1.314-3.228-1.314-5.738V19.926h-3.467v-1.913h3.467V13.71l2.15-.956zM211.644 29.608c0 7.53 3.706 10.638 7.77 10.638 2.988 0 4.542-.717 5.738-1.315l.478 1.794c-.717.478-2.87 1.554-6.455 1.554-5.977 0-9.682-4.9-9.682-11.953 0-7.89 3.944-12.91 9.323-12.91 6.813 0 8.128 7.292 8.128 10.758 0 .598 0 .957-.12 1.435h-15.18zm13.268-1.913c0-3.347-1.195-8.367-6.215-8.367-4.542 0-6.455 4.662-6.933 8.367h13.148zM232.203 25.065c0-2.39 0-4.78-.12-7.172h1.913l.12 4.78h.12c.956-2.987 3.107-5.378 5.857-5.378.358 0 .598 0 .836.12v2.27h-.957c-2.87 0-4.9 2.87-5.38 6.695-.12.717-.12 1.435-.12 2.27V41.8h-2.03l-.24-16.735zM245.352 6.538h2.032v15.66h.12c.597-1.316 1.553-2.63 2.75-3.467s2.628-1.434 4.183-1.434c1.913 0 7.172 1.195 7.172 10.04v14.345h-2.033V27.696c0-4.303-1.434-8.128-5.737-8.128-2.988 0-5.38 2.39-6.216 5.38-.24.716-.24 1.433-.24 2.39V41.8h-2.03V6.538h-.002zM268.78 29.608c0 7.53 3.706 10.638 7.77 10.638 2.988 0 4.542-.717 5.737-1.315l.478 1.794c-.717.478-2.87 1.554-6.455 1.554-5.977 0-9.682-4.9-9.682-11.953 0-7.89 3.945-12.91 9.324-12.91 6.813 0 8.128 7.292 8.128 10.758 0 .598 0 .957-.12 1.435h-15.18zm13.148-1.913c0-3.347-1.195-8.367-6.216-8.367-4.542 0-6.455 4.662-6.933 8.367h13.148zM290.295 13.232c-.957 0-1.554-.956-1.554-2.032s.718-2.032 1.675-2.032c.956 0 1.673.837 1.673 2.032-.12 1.076-.717 2.032-1.793 2.032zM289.34 41.8V18.013h2.03V41.8h-2.03zM298.304 23.63c0-2.15 0-3.824-.12-5.737h1.913l.12 4.184h.12c1.315-2.75 3.347-4.662 6.693-4.662 2.87 0 5.02 2.152 5.977 5.14h.12c.598-1.435 1.314-2.51 2.15-3.228 1.315-1.195 2.75-1.913 4.9-1.913 2.033 0 6.814 1.315 6.814 10.28V41.68h-2.15V27.934c0-5.38-1.793-8.487-5.38-8.487-2.63 0-4.66 2.27-5.378 4.662-.12.717-.358 1.435-.358 2.39v15.3h-2.032V26.86c0-4.303-1.793-7.41-5.14-7.41-2.75 0-4.9 2.628-5.738 5.378-.12.717-.358 1.434-.358 2.39V41.92h-2.032l-.12-18.29z"/><path class="st1" d="M143.99 60.566h-7.293V59.25h16.256v1.316h-7.41v21.157h-1.555V60.566zM155.105 58.056h1.554v10.52h.12c.477-.958 1.194-1.675 2.15-2.272.957-.598 2.033-.956 3.228-.956 1.554 0 5.5.717 5.5 6.694v9.682h-1.555V72.28c0-2.87-1.076-5.498-4.423-5.498-2.27 0-4.184 1.673-4.78 3.586-.12.478-.24.956-.24 1.554v9.802h-1.554V58.056zM173.155 73.595c0 5.02 2.75 7.052 6.096 7.052 2.392 0 3.587-.478 4.423-.956l.36 1.196c-.6.358-2.272 1.076-5.022 1.076-4.54 0-7.41-3.347-7.41-8.008 0-5.38 3.108-8.606 7.172-8.606 5.26 0 6.216 4.9 6.216 7.172 0 .358 0 .717-.12.956l-11.713.12zm10.16-1.315c0-2.27-.957-5.618-4.78-5.618-3.587 0-5.022 3.108-5.38 5.618h10.16zM196.463 81.724V59.25h1.554l8.726 13.27c1.793 2.748 3.107 4.9 4.303 7.05h.12c-.24-2.987-.24-5.617-.24-9.083V59.25h1.555v22.473h-1.434l-8.606-13.03c-1.673-2.51-3.228-4.9-4.303-7.29h-.12c.12 2.75.24 5.14.24 8.965v11.355h-1.794zM227.66 77.898c0 1.315 0 2.51.24 3.825h-1.434l-.24-2.27h-.12c-.835 1.194-2.51 2.63-5.14 2.63-3.227 0-4.66-2.272-4.66-4.424 0-3.706 3.226-5.978 9.8-5.858v-.478c0-1.554-.24-4.78-4.064-4.662-1.435 0-2.87.358-4.064 1.195l-.478-1.195c1.434-.957 3.227-1.315 4.662-1.315 4.662 0 5.5 3.466 5.5 6.335v6.216zm-1.673-4.78c-3.466-.12-8.128.477-8.128 4.302 0 2.27 1.553 3.227 3.107 3.347 2.63 0 4.184-1.673 4.78-3.227.12-.36.12-.717.12-.957l.12-3.466zM234.952 62.24v3.586h4.542v1.315h-4.542v10.4c0 2.032.598 3.227 2.27 3.347.837 0 1.435-.12 1.794-.24l.24 1.196c-.48.24-1.316.36-2.272.36-1.195 0-2.15-.36-2.75-1.077-.716-.837-.956-2.152-.956-3.825V67.26h-2.75v-1.315h2.75v-2.988l1.674-.717zM243.798 62.6c-.717 0-1.195-.6-1.195-1.316s.598-1.435 1.314-1.435c.717 0 1.315.597 1.315 1.434-.12.597-.598 1.315-1.434 1.315zm-.717 19.124V65.706h1.555v16.018h-1.554zM255.99 82.082c-4.184 0-7.292-3.228-7.292-8.248 0-5.5 3.586-8.487 7.53-8.487 4.423 0 7.412 3.228 7.412 8.248 0 5.977-4.064 8.487-7.65 8.487zm.12-1.315c3.346 0 5.976-2.988 5.976-7.052 0-2.988-1.673-6.933-5.857-6.933-4.065 0-5.978 3.586-5.978 7.052 0 3.945 2.51 6.813 5.857 6.933zM267.704 69.53c0-1.434 0-2.51-.12-3.824h1.554l.12 2.87h.12c.836-1.794 2.87-3.23 5.5-3.23 1.553 0 5.497.718 5.497 6.814v9.562h-1.554V72.28c0-2.988-1.075-5.618-4.422-5.618-2.27 0-4.184 1.554-4.78 3.706-.12.358-.24.956-.24 1.434v9.92h-1.554l-.12-12.19zM295.555 77.898c0 1.315 0 2.51.24 3.825h-1.436l-.24-2.27H294c-.836 1.194-2.51 2.63-5.14 2.63-3.226 0-4.66-2.272-4.66-4.424 0-3.706 3.227-5.978 9.8-5.858v-.478c0-1.554-.358-4.78-4.063-4.662-1.434 0-2.87.358-4.064 1.195l-.478-1.195c1.435-.957 3.228-1.315 4.662-1.315 4.662 0 5.5 3.466 5.5 6.335v6.216h-.002zM294 73.118c-3.466-.12-8.127.477-8.127 4.302 0 2.27 1.554 3.227 3.108 3.347 2.63 0 4.185-1.673 4.782-3.227.12-.36.12-.717.12-.957l.12-3.466zM300.694 58.056h1.554v23.667h-1.554V58.056zM315.158 81.724V59.25h1.554l8.726 13.27c1.793 2.748 3.107 4.9 4.303 7.05h.12c-.238-2.987-.238-5.617-.238-9.083V59.25h1.554v22.473h-1.435l-8.604-13.03c-1.674-2.51-3.228-4.9-4.304-7.29h-.12c.12 2.75.24 5.14.24 8.965v11.355h-1.794zM342.29 82.082c-4.183 0-7.29-3.228-7.29-8.248 0-5.5 3.586-8.487 7.53-8.487 4.423 0 7.41 3.228 7.41 8.248 0 5.977-4.063 8.487-7.65 8.487zm.12-1.315c3.348 0 5.978-2.988 5.978-7.052 0-2.988-1.674-6.933-5.857-6.933-4.062 0-5.976 3.586-5.976 7.052 0 3.945 2.51 6.813 5.857 6.933zM354.006 70.487c0-1.554 0-3.227-.12-4.78h1.435l.12 3.227h.12c.717-2.032 2.39-3.586 4.542-3.586.24 0 .48 0 .598.12v1.554h-.717c-2.152 0-3.706 1.913-4.184 4.423-.12.478-.12.956-.12 1.554v8.844h-1.555l-.12-11.357zM364.524 65.706l2.75 9.084c.478 1.913.955 3.466 1.434 5.02h.12c.357-1.434.955-3.107 1.553-5.02l3.23-9.084h1.553l3.108 8.965c.718 2.033 1.076 3.707 1.555 5.14h.12c.358-1.553.836-3.107 1.434-5.02l2.868-9.084h1.673l-5.378 16.018h-1.314l-2.988-8.965c-.717-1.914-1.195-3.587-1.674-5.38h-.12c-.478 1.912-1.075 3.586-1.673 5.498l-3.107 8.846h-1.793l-4.9-16.018h1.55zM388.908 73.595c0 5.02 2.75 7.052 6.097 7.052 2.27 0 3.586-.478 4.423-.956l.358 1.196c-.598.358-2.27 1.076-5.02 1.076-4.543 0-7.412-3.347-7.412-8.008 0-5.38 3.108-8.606 7.172-8.606 5.26 0 6.216 4.9 6.216 7.172 0 .358 0 .717-.12.956l-11.714.12zm10.16-1.315c0-2.27-.956-5.618-4.78-5.618-3.587 0-5.02 3.108-5.38 5.618h10.16zM417.596 79.452c0 4.064-.836 6.096-2.15 7.41-1.436 1.436-3.587 1.914-5.38 1.914s-3.825-.478-5.14-1.435l.598-1.314c1.076.717 2.63 1.435 4.78 1.435 3.348 0 5.738-1.672 5.738-6.454v-2.27h-.12c-.836 1.672-2.748 3.106-5.617 3.106-4.064 0-6.813-3.466-6.813-7.89 0-5.617 3.706-8.486 7.172-8.486 3.108 0 4.662 1.793 5.38 3.108h.12l.118-2.75h1.435c-.12 1.195-.12 2.51-.12 4.184v9.444zm-1.554-7.53c0-.598 0-1.076-.24-1.554-.716-1.913-2.39-3.586-5.02-3.586-3.347 0-5.737 2.75-5.737 7.052 0 3.706 1.913 6.694 5.738 6.694 2.15 0 4.184-1.315 4.9-3.586.12-.48.24-1.076.24-1.674l.12-3.346zM423.453 62.6c-.717 0-1.195-.6-1.195-1.316s.598-1.435 1.314-1.435c.718 0 1.315.597 1.315 1.434-.12.597-.597 1.315-1.434 1.315zm-.717 19.124V65.706h1.554v16.018h-1.554zM439.59 77.898c0 1.315 0 2.51.24 3.825h-1.436l-.24-2.27h-.118c-.837 1.194-2.51 2.63-5.14 2.63-3.228 0-4.662-2.272-4.662-4.424 0-3.706 3.228-5.978 9.802-5.858v-.478c0-1.554-.24-4.78-4.064-4.662-1.435 0-2.868.358-4.063 1.195l-.48-1.195c1.435-.957 3.228-1.315 4.662-1.315 4.66 0 5.498 3.466 5.498 6.335v6.216zm-1.554-4.78c-3.467-.12-8.128.477-8.128 4.302 0 2.27 1.554 3.227 3.107 3.227 2.63 0 4.184-1.673 4.78-3.227.12-.36.12-.717.12-.957l.12-3.346zM444.73 69.53c0-1.434 0-2.51-.12-3.824h1.554l.12 2.87h.12c.836-1.794 2.867-3.23 5.497-3.23 1.555 0 5.5.718 5.5 6.814v9.562h-1.555V72.28c0-2.988-1.075-5.618-4.422-5.618-2.27 0-4.184 1.554-4.78 3.706-.12.358-.24.956-.24 1.434v9.92h-1.554l-.12-12.19zM468.875 71.922v1.435h-7.89v-1.435h7.89zM475.21 73.834l-2.75 7.89h-1.673l8.13-22.473h1.553l8.128 22.473h-1.674l-2.868-7.89h-8.846zm8.487-1.314l-2.75-7.53c-.478-1.554-.836-2.75-1.195-3.945h-.12c-.357 1.315-.716 2.51-1.194 3.945l-2.75 7.53h8.01zM492.064 69.53c0-1.434 0-2.51-.12-3.824h1.554l.12 2.75h.12c1.075-1.793 2.51-3.108 5.14-3.108 2.15 0 3.944 1.554 4.542 3.466h.12c.478-.956 1.075-1.673 1.673-2.15 1.075-.838 2.15-1.316 3.824-1.316 1.555 0 5.14.837 5.14 6.933v9.444h-1.554V72.4c0-3.586-1.434-5.737-4.184-5.737-2.032 0-3.587 1.554-4.185 3.108-.12.48-.238.957-.238 1.555v10.28h-1.555V71.563c0-2.87-1.314-5.02-3.944-5.02-2.15 0-3.825 1.672-4.423 3.585-.12.478-.238.956-.238 1.554v9.802h-1.555l-.238-11.953zM519.557 73.595c0 5.02 2.75 7.052 6.096 7.052 2.39 0 3.586-.478 4.423-.956l.358 1.196c-.598.358-2.27 1.076-5.02 1.076-4.543 0-7.412-3.347-7.412-8.008 0-5.38 3.108-8.606 7.172-8.606 5.26 0 6.216 4.9 6.216 7.172 0 .358 0 .717-.12.956l-11.713.12zm10.16-1.315c0-2.27-.957-5.618-4.78-5.618-3.587 0-5.022 3.108-5.38 5.618h10.16zM535.454 70.487c0-1.554 0-3.227-.12-4.78h1.435l.12 3.227h.118c.717-2.032 2.39-3.586 4.542-3.586.24 0 .48 0 .598.12v1.554h-.717c-2.15 0-3.705 1.913-4.183 4.423-.12.478-.12.956-.12 1.554v8.844h-1.554l-.12-11.357zM546.212 62.6c-.718 0-1.195-.6-1.195-1.316s.598-1.435 1.314-1.435c.72 0 1.316.597 1.316 1.434 0 .597-.597 1.315-1.434 1.315zm-.718 19.124V65.706h1.555v16.018h-1.556zM563.544 81.006c-.718.358-2.39 1.076-4.662.956-4.542 0-7.65-3.347-7.65-8.128 0-5.14 3.467-8.487 8.248-8.487 1.913 0 3.706.478 4.184.956l-.598 1.315c-.717-.478-2.032-.956-3.705-.956-4.303 0-6.454 3.227-6.454 7.052 0 4.184 2.63 6.933 6.335 6.933 1.914 0 3.11-.478 3.946-.956l.358 1.316zM577.29 77.898c0 1.315 0 2.51.24 3.825h-1.436l-.24-2.27h-.118c-.837 1.194-2.51 2.63-5.14 2.63-3.228 0-4.662-2.272-4.662-4.424 0-3.706 3.228-5.978 9.802-5.858v-.478c0-1.554-.24-4.78-4.064-4.662-1.435 0-2.87.358-4.064 1.195l-.478-1.195c1.435-.957 3.228-1.315 4.66-1.315 4.663 0 5.5 3.466 5.5 6.335v6.216zm-1.554-4.78c-3.467-.12-8.13.477-8.13 4.302 0 2.27 1.556 3.227 3.11 3.227 2.63 0 4.183-1.673 4.78-3.227.12-.36.12-.717.12-.957l.12-3.346zM582.43 69.53c0-1.434 0-2.51-.12-3.824h1.555l.12 2.87h.12c.835-1.794 2.867-3.23 5.497-3.23 1.554 0 5.498.718 5.498 6.814v9.562h-1.554V72.28c0-2.988-1.075-5.618-4.423-5.618-2.27 0-4.184 1.554-4.78 3.706-.12.358-.24.956-.24 1.434v9.92h-1.554l-.12-12.19zM158.69 111.128c-.238-3.347-.477-7.53-.477-9.92h-.12c-.837 2.39-1.673 5.02-2.988 8.366l-4.78 12.192h-1.077l-4.423-11.953c-1.315-3.467-2.27-6.216-2.87-8.606-.12 2.63-.238 6.574-.477 10.28l-.717 10.28h-1.553l1.673-22.472h1.793l4.78 12.91c1.077 2.75 1.914 5.02 2.51 7.29h.12c.598-2.03 1.315-4.183 2.51-7.29l5.02-12.91h1.914l1.554 22.472h-1.553l-.836-10.64zM178.056 117.822c0 1.435 0 2.63.12 3.945h-1.555l-.12-2.87h.12c-.836 1.555-2.63 3.23-5.498 3.23-2.032 0-5.5-1.077-5.5-7.053v-9.324h1.555v8.965c0 3.467.956 5.977 4.303 5.977 2.39 0 4.064-1.673 4.78-3.227.12-.478.36-1.076.36-1.793v-9.92h1.553l-.117 12.07zM182.837 119.615c.836.478 2.15 1.195 3.705 1.195 2.51 0 3.706-1.315 3.706-2.988 0-1.793-1.076-2.75-3.347-3.586-2.63-.956-4.063-2.39-4.063-4.422 0-2.39 1.793-4.303 4.9-4.303 1.435 0 2.75.36 3.586.957l-.598 1.315c-.598-.358-1.554-.956-3.227-.956-2.032 0-3.108 1.314-3.108 2.75 0 1.672 1.195 2.39 3.228 3.227 2.63.956 4.184 2.27 4.184 4.78 0 2.75-2.152 4.543-5.38 4.543-1.553 0-2.987-.478-4.063-1.076l.477-1.435zM196.104 113.52c0 5.02 2.75 7.052 6.096 7.052 2.39 0 3.586-.48 4.423-.957l.358 1.195c-.597.36-2.27 1.076-5.02 1.076-4.54 0-7.41-3.347-7.41-8.008 0-5.38 3.108-8.606 7.172-8.606 5.26 0 6.216 4.9 6.216 7.172 0 .36 0 .717-.12.957l-11.714.12zm10.16-1.197c0-2.27-.955-5.618-4.78-5.618-3.586 0-5.02 3.108-5.38 5.618h10.16zM224.314 117.822c0 1.435 0 2.63.12 3.945h-1.554l-.12-2.87h-.12c-.837 1.555-2.63 3.23-5.5 3.23-2.03 0-5.498-1.077-5.498-7.053v-9.324h1.554v8.965c0 3.467.956 5.977 4.303 5.977 2.39 0 4.063-1.673 4.78-3.227.12-.478.358-1.076.358-1.793v-9.92h1.554l.122 12.07zM229.693 109.574c0-1.435 0-2.51-.12-3.825h1.554l.12 2.75h.12c1.075-1.794 2.51-3.11 5.14-3.11 2.15 0 3.943 1.555 4.54 3.467h.12c.48-.956 1.077-1.673 1.674-2.15 1.077-.838 2.153-1.316 3.826-1.316 1.554 0 5.14.838 5.14 6.934v9.443h-1.554v-9.324c0-3.586-1.435-5.737-4.184-5.737-2.032 0-3.586 1.554-4.184 3.108-.12.478-.24.956-.24 1.554v10.28h-1.553v-10.04c0-2.87-1.314-5.022-3.944-5.022-2.15 0-3.825 1.673-4.422 3.586-.12.478-.24.956-.24 1.554v9.802h-1.553l-.237-11.954zM278.223 121.647l-2.51-2.51c-2.27 2.15-4.422 2.87-6.813 2.87-3.706 0-6.335-2.75-6.335-6.216 0-3.107 1.913-5.14 4.423-6.573v-.12c-1.195-1.673-1.913-3.347-1.913-4.9 0-2.63 1.793-5.26 5.02-5.26 2.392 0 4.304 1.793 4.304 4.422 0 2.39-1.435 4.183-5.26 6.095v.12c2.27 2.63 4.9 5.5 6.574 7.53 1.076-1.673 1.793-3.825 2.39-7.172h1.555c-.6 3.586-1.436 6.335-2.99 8.128 1.196 1.196 2.272 2.272 3.587 3.707l-2.034-.12zm-8.846-.957c2.27 0 4.184-1.076 5.5-2.51-1.316-1.554-4.185-4.662-7.054-8.01-1.434.838-3.586 2.51-3.586 5.38 0 2.99 2.152 5.14 5.14 5.14zm.598-20.56c-2.152 0-3.347 1.794-3.347 3.945 0 1.913.837 3.228 1.913 4.542 2.75-1.435 4.543-2.75 4.543-5.02 0-1.673-.837-3.346-3.108-3.466zM291.85 99.294v9.92h12.43v-9.92h1.554v22.472h-1.554V110.53h-12.43v11.236h-1.555V99.294h1.554zM311.452 113.52c0 5.02 2.75 7.052 6.097 7.052 2.39 0 3.585-.48 4.42-.957l.36 1.195c-.598.36-2.27 1.076-5.02 1.076-4.543 0-7.412-3.347-7.412-8.008 0-5.38 3.107-8.606 7.172-8.606 5.26 0 6.216 4.9 6.216 7.172 0 .36 0 .717-.12.957l-11.714.12zm10.16-1.197c0-2.27-.956-5.618-4.78-5.618-3.587 0-5.022 3.108-5.38 5.618h10.16zM327.35 110.53c0-1.554 0-3.227-.12-4.78h1.436l.12 3.227h.12c.716-2.032 2.39-3.586 4.54-3.586.24 0 .48 0 .6.12v1.555h-.72c-2.15 0-3.704 1.913-4.183 4.423-.12.478-.12.956-.12 1.554v8.845h-1.553l-.12-11.357zM338.228 102.522c-.718 0-1.195-.598-1.195-1.315s.598-1.435 1.314-1.435c.718 0 1.315.598 1.315 1.435-.12.717-.598 1.315-1.434 1.315zm-.718 19.125V105.75h1.555v16.017h-1.555v-.12zM346.595 102.163v3.586h4.542v1.314h-4.542v10.4c0 2.03.598 3.226 2.27 3.346.838 0 1.436-.12 1.794-.24l.238 1.196c-.478.24-1.314.358-2.27.358-1.196 0-2.153-.358-2.75-1.076-.718-.837-.957-2.152-.957-3.825v-10.04h-2.748v-1.316h2.75v-2.988l1.673-.717zM364.644 117.94c0 1.316 0 2.51.24 3.826h-1.436l-.24-2.27h-.118c-.837 1.194-2.51 2.63-5.14 2.63-3.228 0-4.662-2.272-4.662-4.424 0-3.705 3.228-5.977 9.802-5.857v-.478c0-1.554-.24-4.78-4.064-4.662-1.434 0-2.868.358-4.063 1.195l-.48-1.195c1.436-.957 3.23-1.315 4.663-1.315 4.66 0 5.498 3.466 5.498 6.335v6.216zm-1.554-4.78c-3.467-.12-8.128.478-8.128 4.303 0 2.27 1.554 3.227 3.107 3.347 2.63 0 4.183-1.673 4.78-3.227.12-.36.12-.717.12-.957l.12-3.466zM382.573 119.376c0 4.064-.837 6.096-2.15 7.41-1.436 1.436-3.587 1.914-5.38 1.914s-3.825-.478-5.14-1.435l.598-1.314c1.076.718 2.63 1.435 4.782 1.435 3.347 0 5.737-1.673 5.737-6.455v-2.39h-.12c-.837 1.672-2.75 3.107-5.618 3.107-4.064 0-6.813-3.466-6.813-7.89 0-5.617 3.704-8.486 7.17-8.486 3.108 0 4.663 1.794 5.38 3.11h.12l.12-2.75h1.434c-.12 1.195-.12 2.51-.12 4.184v9.562zm-1.553-7.53c0-.6 0-1.077-.24-1.555-.716-1.912-2.27-3.585-4.9-3.585-3.346 0-5.736 2.75-5.736 7.052 0 3.706 1.912 6.694 5.737 6.694 2.152 0 4.185-1.314 5.022-3.585.12-.478.238-1.076.238-1.673l-.12-3.347zM388.19 113.52c0 5.02 2.75 7.052 6.097 7.052 2.27 0 3.586-.48 4.423-.957l.358 1.195c-.598.36-2.27 1.076-5.02 1.076-4.543 0-7.41-3.347-7.41-8.008 0-5.38 3.106-8.606 7.17-8.606 5.26 0 6.217 4.9 6.217 7.172 0 .36 0 .717-.12.957l-11.714.12zm10.162-1.197c0-2.27-.956-5.618-4.78-5.618-3.587 0-5.022 3.108-5.38 5.618h10.16zM426.56 120.93c-1.074.598-3.346 1.076-6.095 1.195-5.38 0-10.64-3.466-10.64-11.475 0-6.694 4.305-11.714 11.356-11.714 2.87 0 4.544.598 5.142.956l-.48 1.435c-1.075-.598-2.748-.957-4.66-.957-6.097 0-9.802 3.945-9.802 10.4 0 6.095 3.466 9.92 9.442 9.92 1.913 0 3.706-.358 5.02-1.076l.72 1.316zM430.386 113.52c0 5.02 2.75 7.052 6.097 7.052 2.27 0 3.586-.48 4.422-.957l.36 1.195c-.6.36-2.272 1.076-5.022 1.076-4.542 0-7.41-3.347-7.41-8.008 0-5.38 3.106-8.606 7.17-8.606 5.26 0 6.217 4.9 6.217 7.172 0 .36 0 .717-.12.957l-11.714.12zm10.28-1.197c0-2.27-.957-5.618-4.78-5.618-3.587 0-5.022 3.108-5.38 5.618h10.16zM446.283 109.574c0-1.435 0-2.51-.12-3.825h1.555l.12 2.868h.12c.836-1.793 2.868-3.228 5.497-3.228 1.555 0 5.5.717 5.5 6.813v9.562H457.4v-9.443c0-2.988-1.076-5.618-4.423-5.618-2.27 0-4.184 1.554-4.78 3.706-.12.358-.24.956-.24 1.434v9.92h-1.554l-.12-12.19zM466.365 102.163v3.586h4.542v1.314h-4.542v10.4c0 2.03.598 3.226 2.27 3.346.838 0 1.436-.12 1.794-.24l.238 1.196c-.48.24-1.314.358-2.27.358-1.196 0-2.152-.358-2.75-1.076-.717-.837-.956-2.152-.956-3.825v-10.04h-2.75v-1.316h2.75v-2.988l1.673-.717zM474.493 113.52c0 5.02 2.75 7.052 6.096 7.052 2.39 0 3.585-.48 4.422-.957l.358 1.195c-.598.36-2.27 1.076-5.02 1.076-4.543 0-7.41-3.347-7.41-8.008 0-5.38 3.106-8.606 7.17-8.606 5.26 0 6.216 4.9 6.216 7.172 0 .36 0 .717-.12.957l-11.713.12zm10.16-1.197c0-2.27-.956-5.618-4.78-5.618-3.587 0-5.022 3.108-5.38 5.618h10.16zM490.39 110.53c0-1.554 0-3.227-.118-4.78h1.434l.12 3.227h.12c.717-2.032 2.39-3.586 4.54-3.586.24 0 .48 0 .6.12v1.555h-.718c-2.15 0-3.705 1.913-4.184 4.423-.12.478-.12.956-.12 1.554v8.845h-1.554l-.12-11.357z"/><path class="st6" d="M7.126 29.25L.432 18.85l10.4 6.215M15.612 20.882L11.548 9.288l8.726 8.486M26.73 13.71l-.48-12.43 5.858 10.876M38.802 9.646l.836-12.43L44.18 8.81M51.353 9.646l4.9-11.236.478 12.193M62.827 11.678l8.248-10.52-2.75 13.03M75.14 16.1l8.725-8.605L79.68 19.09M85.538 23.512l10.997-5.26-7.41 9.563M93.188 33.433l11.714-3.347-9.084 8.247M99.045 45.027l12.312-.12-10.878 5.5M101.077 58.176l11.953 2.75-11.833 2.748M3.18 34.15l-11.593-3.706L.432 38.93M-1.72 44.67l-12.55-1.196 10.757 6.454M-4.947 56.98l-11.833 2.87 11.833 2.868M90.56 91.645l6.692 10.4-10.52-6.217M80.996 100.61l4.78 11.355-9.203-8.01M70.238 107.184l.598 12.43-5.977-10.877M58.046 110.41l-.956 12.313-4.542-11.475M45.017 111.248l-4.9 11.235-.48-12.31M32.706 108.737l-6.934 10.04 1.793-12.19M21.35 103.717l-8.726 8.606 4.184-11.714M11.07 96.545l-10.877 5.26 7.53-9.563M3.3 86.624L-8.412 89.97.67 81.725M-2.437 75.03l-12.072.12 10.878-5.5M93.786 86.983l11.834 3.108-9.204-8.008M98.926 75.747l12.192.598-10.64-5.977"/><path class="st2" d="M89.363 60.447c-.478 22.59-19.005 39.326-41.238 39.804-22.233.48-40.76-17.81-41.12-39.684-.596-22.71 19.724-39.445 41.24-39.923 22.113-.36 40.76 17.93 41.118 39.804 0 1.315 1.913 1.315 1.913 0-.478-23.667-19.842-41.24-43.15-41.717-23.19-.358-42.554 18.767-43.032 41.717-.598 23.667 20.68 41.358 43.15 41.836 23.31.478 42.673-18.766 43.152-41.716-.12-1.316-2.033-1.316-2.033-.12zM99.763 60.447c-.48 28.09-23.667 49.127-51.28 49.605-27.61.478-50.92-22.113-51.278-49.486-.478-28.09 24.504-49.127 51.398-49.605 27.492-.477 50.8 22.114 51.16 49.487.12 1.315 1.912 1.315 1.912 0-.358-25.7-20.2-48.05-46.14-50.92C29.12 6.537 3.66 22.317-3.272 48.374c-6.813 25.58 8.965 50.92 32.75 60.125 24.983 9.68 54.03-1.674 66.58-24.983 3.825-7.053 5.5-15.06 5.618-23.07 0-1.196-1.793-1.196-1.912 0zM94.384 72.878c-.957.24-1.913-.478-2.152-1.434-.24-.957.478-1.793 1.315-2.152.956-.24 2.032.24 2.27 1.315.12 1.076-.477 2.032-1.433 2.27zM89.483 84.233c-1.076-.12-1.793-.956-1.673-1.912.12-.956.717-1.792 1.793-1.673.956 0 1.912.717 1.912 1.793 0 1.077-.956 1.793-2.032 1.793zM81.952 93.796c-.956-.358-1.434-1.314-1.195-2.27.24-.957 1.195-1.435 2.152-1.196.955.24 1.553 1.315 1.314 2.27-.36.957-1.315 1.674-2.272 1.196zM72.03 101.207c-.836-.598-1.075-1.673-.597-2.51.478-.836 1.554-1.076 2.51-.478.836.477 1.315 1.672.598 2.51-.477.716-1.672.955-2.51.477zM60.676 105.75c-.717-.718-.598-1.913.12-2.63.717-.598 1.793-.598 2.51 0 .717.717.717 1.913 0 2.63-.718.836-1.913.716-2.63 0zM48.483 107.303c-.478-.957-.12-2.032.717-2.51.837-.478 1.913-.24 2.39.598s.24 2.033-.597 2.51c-.836.6-2.03.36-2.51-.597zM36.292 105.75c-.24-.957.478-1.913 1.434-2.152.957-.24 1.913.358 2.152 1.315.24.956-.24 2.032-1.315 2.27-.957.12-2.033-.477-2.27-1.434zM24.936 101.327c0-1.076.956-1.793 1.913-1.793.955 0 1.792.717 1.792 1.793 0 .956-.717 1.913-1.793 1.913-1.078 0-1.914-.957-1.914-1.913zM15.015 94.035c.24-.956 1.315-1.554 2.27-1.315.957.24 1.555 1.195 1.315 2.152-.24.956-1.195 1.673-2.15 1.314-1.076-.238-1.674-1.195-1.435-2.15zM7.365 84.353c.478-.836 1.673-1.076 2.51-.598s.956 1.673.598 2.39c-.358.838-1.554 1.316-2.39.718-.957-.478-1.316-1.553-.718-2.51zM2.464 73.117c.837-.717 1.913-.598 2.51 0 .598.717.717 1.793 0 2.51s-1.793.836-2.63.12c-.717-.717-.597-2.032.12-2.63zM.79 60.925c.958-.478 2.033-.12 2.51.717.48.837.24 1.913-.716 2.39-.836.48-2.032.24-2.51-.597-.48-.956-.24-2.032.717-2.51zM2.464 48.733c.957-.24 2.032.478 2.152 1.434.24.957-.478 1.793-1.315 2.152-.955.238-2.03-.24-2.27-1.316-.24-.956.358-2.15 1.434-2.27zM7.245 37.497c1.076.12 1.793.956 1.793 1.912-.12.956-.717 1.792-1.793 1.792-.956 0-1.793-.836-1.793-1.793-.12-1.196.717-2.033 1.793-1.913zM14.896 27.815c.956.358 1.434 1.434 1.195 2.27-.238.957-1.194 1.436-2.15 1.196-.957-.238-1.555-1.194-1.316-2.27.24-.956 1.315-1.554 2.272-1.195zM24.697 20.523c.837.478.957 1.793.478 2.51-.478.836-1.554 1.076-2.51.478-.837-.477-1.195-1.672-.598-2.51.598-.716 1.793-1.074 2.63-.477zM36.052 15.862c.717.717.598 1.913-.12 2.63-.717.597-1.793.597-2.51-.12-.717-.717-.717-1.913 0-2.63.718-.717 2.033-.597 2.63.12zM48.245 14.308c.478.837.12 2.032-.717 2.51s-1.913.24-2.39-.717c-.48-.835-.24-2.03.597-2.51.955-.597 2.15-.12 2.51.718zM60.437 15.862c.24.956-.358 1.913-1.314 2.15-.957.24-1.913-.357-2.152-1.314-.238-.956.24-2.032 1.316-2.27.955-.24 1.912.358 2.15 1.434zM71.912 20.404c0 1.076-.956 1.793-1.913 1.793-.957 0-1.794-.717-1.794-1.793 0-.956.717-1.913 1.793-1.913 1.075 0 1.912.838 1.912 1.914zM81.713 27.695c-.24.956-1.315 1.554-2.27 1.315-.958-.24-1.436-1.195-1.196-2.152.24-.956 1.195-1.673 2.15-1.314 1.077.12 1.675 1.195 1.316 2.15zM89.363 37.258c-.478.837-1.673 1.076-2.51.598-.836-.478-1.076-1.554-.598-2.39s1.554-1.316 2.51-.718c.838.478 1.076 1.673.598 2.51zM94.264 48.494c-.717.717-1.913.598-2.63-.12-.598-.717-.717-1.793 0-2.51.717-.717 1.793-.837 2.63-.12.837.837.837 2.152 0 2.75zM96.057 60.686c-.957.478-2.032.12-2.51-.717s-.24-1.914.717-2.392c.836-.478 2.032-.24 2.51.598.36.956 0 2.032-.717 2.51z"/><path class="st3" d="M32.228 23.034c13.626 21.994 14.224 53.91-2.152 74.587M36.172 22.556c13.626 21.994 13.985 55.82-2.39 76.38M63.186 22.077c-13.626 21.875-14.344 53.91 2.15 74.468M59.24 21.6c-13.625 21.874-13.984 55.82 2.392 76.38M9.158 74.67c22.95-12.908 56.658-13.625 78.413 2.033M8.56 70.966c23.07-13.03 58.69-13.268 80.325 2.27M8.202 45.267c23.07 13.03 56.658 13.626 78.413-2.032M7.604 48.972c23.07 13.03 58.57 13.268 80.325-2.27"/><a xlink:href="http://vesterheim.org/" target="_top"><path class="st0" d="M-17.02-3.98h612v133.875h-612z"/></a></svg>