<svg xmlns="http://www.w3.org/2000/svg" version="1.1" x="0px" y="0px" viewBox="-36.5 -22.5 636 175" xml:space="preserve" enable-background="new -36.5 -22.5 636 175"><style type="text/css"><![CDATA[
.st0{fill-opacity:0;}.st1{fill:#FFFFFF;stroke:#FFFFFF;stroke-width:0.2;}.st2{fill:#FFFFFF;}.st3{fill:none;stroke:#FFFFFF;stroke-width:1.0253;}.st4{fill:none;stroke:#FFFFFF;stroke-width:1.6868;}.st5{fill:none;}.st6{fill:none;stroke:#FFFFFF;stroke-width:1.2;}.st7{fill:#FFFFFF;stroke:#FFFFFF;stroke-width:0.75;}
]]></style><line class="st4" x1="123.071" y1="12.634" x2="123.071" y2="119.256"/><rect x="137.056" y="11.2" class="st5" width="607.219" height="128.018"/><path class="st7" d="M146.738 41.8l-9.682-33.349h2.152l5.14 17.93c1.435 4.781 2.51 9.084 3.466 12.79h0.12c0.837-3.825 2.151-8.128 3.706-12.79l5.618-17.93h2.152L148.651 41.8H146.738L146.738 41.8z"/><path class="st7" d="M161.68 29.608c0 7.53 3.706 10.638 7.77 10.638 2.988 0 4.542-0.717 5.737-1.315l0.479 1.793c-0.717 0.478-2.869 1.554-6.455 1.554 -5.977 0-9.682-4.901-9.682-11.953 0-7.889 3.944-12.91 9.323-12.91 6.813 0 8.128 7.292 8.128 10.758 0 0.598 0 0.957-0.119 1.435H161.68zM174.828 27.695c0-3.347-1.195-8.367-6.216-8.367 -4.542 0-6.455 4.662-6.933 8.367H174.828z"/><path class="st7" d="M181.402 38.692c1.076 0.717 2.749 1.673 4.662 1.673 3.228 0 4.781-2.032 4.781-4.542 0-2.629-1.434-4.064-4.303-5.379 -3.347-1.434-5.259-3.586-5.259-6.455 0-3.466 2.391-6.455 6.335-6.455 1.912 0 3.586 0.598 4.542 1.435l-0.717 1.912c-0.717-0.598-2.032-1.434-4.184-1.434 -2.629 0-4.064 1.913-4.064 4.064 0 2.51 1.554 3.586 4.303 4.901 3.347 1.554 5.259 3.466 5.259 7.052 0 4.064-2.749 6.813-6.933 6.813 -2.032 0-3.825-0.598-5.26-1.674L181.402 38.692z"/><path class="st7" d="M201.125 12.754v5.259h5.857v1.913h-5.857v15.419c0 2.988 0.717 4.901 2.988 4.901 1.076 0 1.913-0.12 2.391-0.358l0.239 1.793c-0.717 0.239-1.674 0.598-2.869 0.478 -1.554 0-2.749-0.598-3.586-1.673 -0.956-1.195-1.314-3.228-1.314-5.738V19.926h-3.467v-1.913h3.467V13.71L201.125 12.754z"/><path class="st7" d="M211.644 29.608c0 7.53 3.706 10.638 7.77 10.638 2.988 0 4.542-0.717 5.738-1.315l0.478 1.793c-0.717 0.478-2.869 1.554-6.455 1.554 -5.977 0-9.682-4.901-9.682-11.953 0-7.889 3.944-12.91 9.323-12.91 6.813 0 8.128 7.292 8.128 10.758 0 0.598 0 0.957-0.12 1.435H211.644zM224.912 27.695c0-3.347-1.195-8.367-6.215-8.367 -4.542 0-6.455 4.662-6.933 8.367H224.912z"/><path class="st7" d="M232.203 25.065c0-2.391 0-4.781-0.12-7.172h1.913l0.12 4.781h0.12c0.956-2.988 3.107-5.379 5.857-5.379 0.358 0 0.598 0 0.836 0.12v2.271h-0.956c-2.869 0-4.901 2.869-5.379 6.694 -0.12 0.717-0.12 1.435-0.12 2.271V41.8h-2.032L232.203 25.065z"/><path class="st7" d="M245.352 6.538h2.032v15.659h0.119c0.598-1.315 1.554-2.629 2.75-3.466s2.629-1.435 4.184-1.435c1.913 0 7.172 1.195 7.172 10.041v14.344h-2.032V27.695c0-4.303-1.434-8.128-5.737-8.128 -2.988 0-5.379 2.391-6.216 5.379 -0.239 0.717-0.239 1.434-0.239 2.391V41.8h-2.032V6.538L245.352 6.538z"/><path class="st7" d="M268.78 29.608c0 7.53 3.706 10.638 7.77 10.638 2.988 0 4.542-0.717 5.737-1.315l0.478 1.793c-0.717 0.478-2.869 1.554-6.455 1.554 -5.977 0-9.682-4.901-9.682-11.953 0-7.889 3.945-12.91 9.324-12.91 6.813 0 8.128 7.292 8.128 10.758 0 0.598 0 0.957-0.12 1.435H268.78zM281.928 27.695c0-3.347-1.195-8.367-6.216-8.367 -4.542 0-6.455 4.662-6.933 8.367H281.928z"/><path class="st7" d="M290.295 13.232c-0.957 0-1.554-0.956-1.554-2.032 0-1.076 0.717-2.032 1.674-2.032 0.956 0 1.673 0.837 1.673 2.032C291.969 12.276 291.371 13.232 290.295 13.232L290.295 13.232zM289.339 41.8V18.013h2.032V41.8H289.339z"/><path class="st7" d="M298.304 23.631c0-2.152 0-3.825-0.119-5.738h1.912l0.12 4.184h0.12c1.315-2.749 3.347-4.662 6.693-4.662 2.869 0 5.021 2.152 5.977 5.14h0.12c0.598-1.435 1.314-2.51 2.151-3.228 1.314-1.195 2.749-1.913 4.9-1.913 2.032 0 6.813 1.315 6.813 10.28v13.985h-2.151V27.935c0-5.379-1.793-8.487-5.379-8.487 -2.63 0-4.662 2.271-5.379 4.662 -0.119 0.717-0.358 1.435-0.358 2.391v15.3h-2.032V26.858c0-4.303-1.793-7.411-5.14-7.411 -2.75 0-4.901 2.629-5.738 5.379 -0.12 0.717-0.358 1.434-0.358 2.391v14.702h-2.032L298.304 23.631 298.304 23.631z"/><path class="st1" d="M143.989 60.566h-7.292v-1.315h16.256v1.315h-7.411v21.157h-1.554V60.566z"/><path class="st1" d="M155.105 58.056h1.554v10.519h0.12c0.478-0.957 1.195-1.674 2.152-2.271 0.956-0.598 2.032-0.956 3.227-0.956 1.554 0 5.499 0.717 5.499 6.694v9.682h-1.554V72.28c0-2.869-1.076-5.498-4.423-5.498 -2.271 0-4.184 1.673-4.781 3.586 -0.12 0.478-0.239 0.956-0.239 1.554v9.802h-1.554V58.056L155.105 58.056z"/><path class="st1" d="M173.155 73.595c0 5.021 2.749 7.052 6.096 7.052 2.391 0 3.586-0.478 4.422-0.956l0.359 1.195c-0.598 0.358-2.271 1.076-5.021 1.076 -4.542 0-7.411-3.347-7.411-8.008 0-5.379 3.108-8.606 7.172-8.606 5.26 0 6.216 4.901 6.216 7.172 0 0.358 0 0.717-0.12 0.956L173.155 73.595zM183.315 72.28c0-2.271-0.957-5.618-4.781-5.618 -3.586 0-5.021 3.108-5.379 5.618H183.315z"/><path class="st1" d="M196.463 81.724V59.251h1.554l8.726 13.268c1.793 2.749 3.107 4.901 4.303 7.052h0.12c-0.239-2.988-0.239-5.618-0.239-9.084V59.251h1.554v22.472h-1.435l-8.606-13.029c-1.673-2.51-3.228-4.9-4.303-7.291h-0.12c0.12 2.749 0.239 5.14 0.239 8.965v11.355H196.463L196.463 81.724z"/><path class="st1" d="M227.661 77.898c0 1.315 0 2.51 0.239 3.825h-1.434l-0.239-2.271h-0.12c-0.836 1.195-2.51 2.63-5.14 2.63 -3.228 0-4.662-2.271-4.662-4.423 0-3.705 3.227-5.977 9.801-5.857v-0.478c0-1.554-0.239-4.781-4.064-4.662 -1.435 0-2.869 0.358-4.064 1.195l-0.478-1.195c1.434-0.957 3.227-1.315 4.662-1.315 4.662 0 5.499 3.466 5.499 6.335V77.898L227.661 77.898zM225.987 73.117c-3.466-0.12-8.128 0.478-8.128 4.303 0 2.271 1.554 3.227 3.108 3.347 2.629 0 4.184-1.673 4.781-3.227 0.12-0.359 0.12-0.717 0.12-0.957L225.987 73.117 225.987 73.117z"/><path class="st1" d="M234.952 62.24v3.586h4.542v1.315h-4.542V77.54c0 2.032 0.598 3.227 2.271 3.347 0.836 0 1.434-0.12 1.793-0.239l0.239 1.195c-0.478 0.239-1.315 0.359-2.271 0.359 -1.195 0-2.151-0.359-2.749-1.076 -0.717-0.837-0.957-2.152-0.957-3.825V67.26h-2.749v-1.315h2.749v-2.988L234.952 62.24 234.952 62.24z"/><path class="st1" d="M243.798 62.599c-0.717 0-1.195-0.598-1.195-1.315s0.598-1.435 1.314-1.435c0.717 0 1.315 0.598 1.315 1.435C245.112 61.881 244.634 62.599 243.798 62.599L243.798 62.599zM243.081 81.724V65.706h1.554v16.018H243.081z"/><path class="st1" d="M255.99 82.082c-4.184 0-7.292-3.228-7.292-8.248 0-5.499 3.586-8.487 7.531-8.487 4.422 0 7.411 3.228 7.411 8.248C263.64 79.572 259.576 82.082 255.99 82.082zM256.109 80.767c3.347 0 5.977-2.988 5.977-7.052 0-2.988-1.673-6.933-5.857-6.933 -4.064 0-5.977 3.586-5.977 7.052C250.252 77.779 252.763 80.647 256.109 80.767z"/><path class="st1" d="M267.704 69.531c0-1.435 0-2.51-0.12-3.825h1.554l0.12 2.869h0.12c0.836-1.793 2.869-3.228 5.499-3.228 1.554 0 5.498 0.717 5.498 6.813v9.562h-1.554V72.28c0-2.988-1.076-5.618-4.423-5.618 -2.271 0-4.184 1.554-4.781 3.706 -0.119 0.358-0.239 0.956-0.239 1.434v9.921h-1.554L267.704 69.531 267.704 69.531z"/><path class="st1" d="M295.555 77.898c0 1.315 0 2.51 0.239 3.825h-1.435l-0.239-2.271h-0.119c-0.837 1.195-2.51 2.63-5.14 2.63 -3.227 0-4.662-2.271-4.662-4.423 0-3.705 3.228-5.977 9.802-5.857v-0.478c0-1.554-0.359-4.781-4.064-4.662 -1.434 0-2.869 0.358-4.064 1.195l-0.478-1.195c1.435-0.957 3.228-1.315 4.662-1.315 4.662 0 5.499 3.466 5.499 6.335V77.898L295.555 77.898zM294.001 73.117c-3.467-0.12-8.128 0.478-8.128 4.303 0 2.271 1.554 3.227 3.108 3.347 2.63 0 4.184-1.673 4.781-3.227 0.12-0.359 0.12-0.717 0.12-0.957L294.001 73.117 294.001 73.117z"/><path class="st1" d="M300.694 58.056h1.554v23.667h-1.554V58.056z"/><path class="st1" d="M315.158 81.724V59.251h1.554l8.726 13.268c1.793 2.749 3.107 4.901 4.303 7.052h0.12c-0.239-2.988-0.239-5.618-0.239-9.084V59.251h1.554v22.472h-1.435l-8.605-13.029c-1.674-2.51-3.228-4.9-4.304-7.291h-0.119c0.119 2.749 0.239 5.14 0.239 8.965v11.355H315.158L315.158 81.724z"/><path class="st1" d="M342.291 82.082c-4.184 0-7.291-3.228-7.291-8.248 0-5.499 3.586-8.487 7.53-8.487 4.423 0 7.411 3.228 7.411 8.248C349.941 79.572 345.877 82.082 342.291 82.082zM342.411 80.767c3.347 0 5.977-2.988 5.977-7.052 0-2.988-1.674-6.933-5.857-6.933 -4.063 0-5.977 3.586-5.977 7.052C336.554 77.779 339.064 80.647 342.411 80.767z"/><path class="st1" d="M354.006 70.487c0-1.554 0-3.227-0.12-4.781h1.435l0.119 3.228h0.12c0.717-2.032 2.391-3.586 4.542-3.586 0.239 0 0.479 0 0.598 0.12v1.554h-0.717c-2.152 0-3.706 1.913-4.184 4.423 -0.12 0.478-0.12 0.956-0.12 1.554v8.845h-1.554L354.006 70.487z"/><path class="st1" d="M364.524 65.706l2.749 9.084c0.479 1.913 0.956 3.466 1.435 5.021h0.119c0.358-1.435 0.956-3.108 1.554-5.021l3.228-9.084h1.554l3.108 8.965c0.717 2.032 1.075 3.706 1.554 5.14h0.119c0.359-1.554 0.837-3.108 1.435-5.021l2.869-9.084h1.673l-5.379 16.018h-1.314l-2.988-8.965c-0.717-1.913-1.195-3.586-1.674-5.379h-0.119c-0.479 1.912-1.076 3.586-1.674 5.498l-3.107 8.846h-1.793l-4.9-16.018H364.524L364.524 65.706z"/><path class="st1" d="M388.908 73.595c0 5.021 2.75 7.052 6.097 7.052 2.271 0 3.586-0.478 4.423-0.956l0.358 1.195c-0.598 0.358-2.271 1.076-5.021 1.076 -4.542 0-7.411-3.347-7.411-8.008 0-5.379 3.108-8.606 7.172-8.606 5.26 0 6.216 4.901 6.216 7.172 0 0.358 0 0.717-0.119 0.956L388.908 73.595zM399.068 72.28c0-2.271-0.956-5.618-4.781-5.618 -3.586 0-5.02 3.108-5.379 5.618H399.068z"/><path class="st1" d="M417.596 79.452c0 4.064-0.836 6.096-2.151 7.411 -1.435 1.435-3.586 1.913-5.379 1.913s-3.825-0.478-5.14-1.435l0.598-1.315c1.076 0.717 2.63 1.435 4.781 1.435 3.347 0 5.737-1.673 5.737-6.455v-2.271h-0.119c-0.837 1.673-2.749 3.107-5.618 3.107 -4.064 0-6.813-3.466-6.813-7.889 0-5.618 3.706-8.487 7.172-8.487 3.108 0 4.662 1.793 5.379 3.108h0.12l0.119-2.75h1.435c-0.12 1.195-0.12 2.51-0.12 4.184V79.452zM416.042 71.922c0-0.598 0-1.076-0.239-1.554 -0.717-1.913-2.391-3.586-5.02-3.586 -3.348 0-5.738 2.749-5.738 7.052 0 3.706 1.913 6.694 5.738 6.694 2.151 0 4.184-1.315 4.9-3.586 0.119-0.479 0.239-1.076 0.239-1.674L416.042 71.922z"/><path class="st1" d="M423.453 62.599c-0.717 0-1.195-0.598-1.195-1.315s0.598-1.435 1.314-1.435c0.718 0 1.315 0.598 1.315 1.435C424.768 61.881 424.29 62.599 423.453 62.599zM422.736 81.724V65.706h1.554v16.018H422.736z"/><path class="st1" d="M439.59 77.898c0 1.315 0 2.51 0.239 3.825h-1.435l-0.239-2.271h-0.119c-0.837 1.195-2.511 2.63-5.14 2.63 -3.228 0-4.662-2.271-4.662-4.423 0-3.705 3.228-5.977 9.802-5.857v-0.478c0-1.554-0.239-4.781-4.064-4.662 -1.435 0-2.868 0.358-4.063 1.195l-0.479-1.195c1.435-0.957 3.228-1.315 4.662-1.315 4.661 0 5.498 3.466 5.498 6.335V77.898L439.59 77.898zM438.036 73.117c-3.467-0.12-8.128 0.478-8.128 4.303 0 2.271 1.554 3.227 3.107 3.227 2.63 0 4.184-1.673 4.781-3.227 0.119-0.359 0.119-0.717 0.119-0.957L438.036 73.117 438.036 73.117z"/><path class="st1" d="M444.729 69.531c0-1.435 0-2.51-0.119-3.825h1.554l0.119 2.869h0.12c0.837-1.793 2.868-3.228 5.498-3.228 1.554 0 5.499 0.717 5.499 6.813v9.562h-1.555V72.28c0-2.988-1.075-5.618-4.422-5.618 -2.271 0-4.184 1.554-4.781 3.706 -0.12 0.358-0.239 0.956-0.239 1.434v9.921h-1.554L444.729 69.531z"/><path class="st1" d="M468.875 71.922v1.435h-7.889v-1.435H468.875z"/><path class="st1" d="M475.21 73.834l-2.749 7.889h-1.674l8.129-22.472h1.554l8.128 22.472h-1.674l-2.868-7.889H475.21zM483.697 72.52l-2.75-7.53c-0.478-1.554-0.836-2.75-1.195-3.945h-0.119c-0.358 1.315-0.717 2.51-1.195 3.945l-2.749 7.53H483.697L483.697 72.52z"/><path class="st1" d="M492.064 69.531c0-1.435 0-2.51-0.12-3.825h1.554l0.12 2.75h0.119c1.076-1.793 2.511-3.108 5.14-3.108 2.152 0 3.945 1.554 4.543 3.466h0.119c0.479-0.956 1.076-1.673 1.674-2.151 1.075-0.837 2.151-1.315 3.824-1.315 1.555 0 5.141 0.837 5.141 6.933v9.443h-1.555V72.4c0-3.586-1.434-5.737-4.184-5.737 -2.031 0-3.586 1.554-4.184 3.108 -0.119 0.478-0.238 0.956-0.238 1.554v10.28h-1.555V71.563c0-2.869-1.314-5.021-3.944-5.021 -2.151 0-3.825 1.673-4.423 3.586 -0.119 0.478-0.238 0.956-0.238 1.554v9.802h-1.555L492.064 69.531 492.064 69.531z"/><path class="st1" d="M519.557 73.595c0 5.021 2.749 7.052 6.096 7.052 2.391 0 3.586-0.478 4.423-0.956l0.358 1.195c-0.598 0.358-2.271 1.076-5.021 1.076 -4.542 0-7.411-3.347-7.411-8.008 0-5.379 3.108-8.606 7.172-8.606 5.26 0 6.216 4.901 6.216 7.172 0 0.358 0 0.717-0.119 0.956L519.557 73.595zM529.717 72.28c0-2.271-0.957-5.618-4.781-5.618 -3.586 0-5.021 3.108-5.379 5.618H529.717z"/><path class="st1" d="M535.454 70.487c0-1.554 0-3.227-0.12-4.781h1.435l0.12 3.228h0.119c0.717-2.032 2.391-3.586 4.542-3.586 0.239 0 0.479 0 0.598 0.12v1.554h-0.717c-2.151 0-3.706 1.913-4.184 4.423 -0.12 0.478-0.12 0.956-0.12 1.554v8.845h-1.554L535.454 70.487z"/><path class="st1" d="M546.212 62.599c-0.718 0-1.195-0.598-1.195-1.315s0.598-1.435 1.314-1.435c0.718 0 1.315 0.598 1.315 1.435C547.646 61.881 547.049 62.599 546.212 62.599zM545.494 81.724V65.706h1.555v16.018H545.494z"/><path class="st1" d="M563.544 81.006c-0.718 0.358-2.391 1.076-4.662 0.956 -4.542 0-7.649-3.347-7.649-8.128 0-5.14 3.466-8.487 8.247-8.487 1.913 0 3.706 0.478 4.184 0.956l-0.598 1.315c-0.717-0.478-2.032-0.956-3.705-0.956 -4.304 0-6.455 3.227-6.455 7.052 0 4.184 2.63 6.933 6.335 6.933 1.913 0 3.108-0.478 3.945-0.956L563.544 81.006 563.544 81.006z"/><path class="st1" d="M577.29 77.898c0 1.315 0 2.51 0.239 3.825h-1.435l-0.239-2.271h-0.119c-0.837 1.195-2.511 2.63-5.141 2.63 -3.227 0-4.661-2.271-4.661-4.423 0-3.705 3.228-5.977 9.802-5.857v-0.478c0-1.554-0.239-4.781-4.064-4.662 -1.435 0-2.869 0.358-4.064 1.195l-0.478-1.195c1.435-0.957 3.228-1.315 4.661-1.315 4.662 0 5.499 3.466 5.499 6.335V77.898L577.29 77.898zM575.736 73.117c-3.467-0.12-8.129 0.478-8.129 4.303 0 2.271 1.555 3.227 3.108 3.227 2.63 0 4.184-1.673 4.781-3.227 0.119-0.359 0.119-0.717 0.119-0.957L575.736 73.117 575.736 73.117z"/><path class="st1" d="M582.43 69.531c0-1.435 0-2.51-0.119-3.825h1.554l0.119 2.869h0.12c0.836-1.793 2.868-3.228 5.498-3.228 1.554 0 5.498 0.717 5.498 6.813v9.562h-1.554V72.28c0-2.988-1.075-5.618-4.423-5.618 -2.271 0-4.184 1.554-4.781 3.706 -0.119 0.358-0.238 0.956-0.238 1.434v9.921h-1.555L582.43 69.531z"/><path class="st1" d="M158.691 111.128c-0.239-3.347-0.478-7.53-0.478-9.921h-0.12c-0.837 2.391-1.673 5.021-2.988 8.367l-4.781 12.192h-1.076l-4.423-11.953c-1.315-3.467-2.271-6.216-2.869-8.606 -0.12 2.63-0.239 6.574-0.478 10.28l-0.717 10.28h-1.554l1.673-22.472h1.793l4.781 12.91c1.076 2.749 1.913 5.02 2.51 7.291h0.119c0.598-2.032 1.315-4.184 2.51-7.291l5.021-12.91h1.913l1.554 22.472h-1.554L158.691 111.128z"/><path class="st1" d="M178.056 117.822c0 1.435 0 2.63 0.119 3.945h-1.554l-0.12-2.869h0.12c-0.837 1.554-2.63 3.228-5.499 3.228 -2.032 0-5.499-1.076-5.499-7.052v-9.324h1.554v8.965c0 3.467 0.956 5.977 4.303 5.977 2.391 0 4.064-1.673 4.781-3.227 0.119-0.478 0.358-1.076 0.358-1.793v-9.921h1.554L178.056 117.822z"/><path class="st1" d="M182.837 119.615c0.836 0.478 2.151 1.195 3.705 1.195 2.51 0 3.706-1.315 3.706-2.988 0-1.793-1.076-2.749-3.347-3.586 -2.63-0.956-4.064-2.391-4.064-4.422 0-2.391 1.793-4.303 4.9-4.303 1.435 0 2.75 0.358 3.586 0.956l-0.598 1.315c-0.598-0.358-1.554-0.956-3.227-0.956 -2.032 0-3.108 1.314-3.108 2.749 0 1.673 1.195 2.391 3.228 3.228 2.629 0.956 4.184 2.271 4.184 4.781 0 2.749-2.152 4.542-5.379 4.542 -1.554 0-2.988-0.478-4.064-1.076L182.837 119.615 182.837 119.615z"/><path class="st1" d="M196.104 113.519c0 5.021 2.75 7.053 6.096 7.053 2.391 0 3.586-0.479 4.423-0.957l0.358 1.195c-0.598 0.359-2.271 1.076-5.02 1.076 -4.542 0-7.411-3.347-7.411-8.008 0-5.379 3.108-8.606 7.172-8.606 5.259 0 6.216 4.901 6.216 7.172 0 0.359 0 0.717-0.12 0.957L196.104 113.519zM206.265 112.323c0-2.271-0.956-5.618-4.781-5.618 -3.586 0-5.02 3.108-5.379 5.618H206.265z"/><path class="st1" d="M224.314 117.822c0 1.435 0 2.63 0.12 3.945h-1.554l-0.12-2.869h-0.12c-0.837 1.554-2.63 3.228-5.499 3.228 -2.032 0-5.499-1.076-5.499-7.052v-9.324h1.554v8.965c0 3.467 0.956 5.977 4.303 5.977 2.391 0 4.064-1.673 4.781-3.227 0.119-0.478 0.358-1.076 0.358-1.793v-9.921h1.554L224.314 117.822z"/><path class="st1" d="M229.693 109.574c0-1.435 0-2.51-0.12-3.825h1.554l0.12 2.75h0.119c1.076-1.793 2.51-3.108 5.14-3.108 2.151 0 3.944 1.554 4.542 3.466h0.12c0.478-0.956 1.076-1.673 1.673-2.151 1.076-0.837 2.152-1.315 3.825-1.315 1.554 0 5.14 0.837 5.14 6.933v9.443h-1.554v-9.324c0-3.586-1.435-5.737-4.184-5.737 -2.032 0-3.586 1.554-4.184 3.108 -0.12 0.478-0.239 0.956-0.239 1.554v10.28h-1.554v-10.041c0-2.869-1.315-5.021-3.945-5.021 -2.151 0-3.825 1.673-4.422 3.586 -0.12 0.478-0.239 0.956-0.239 1.554v9.802h-1.554L229.693 109.574 229.693 109.574z"/><path class="st1" d="M278.223 121.647l-2.51-2.51c-2.271 2.151-4.422 2.869-6.813 2.869 -3.706 0-6.335-2.749-6.335-6.215 0-3.108 1.913-5.14 4.423-6.574v-0.12c-1.195-1.673-1.913-3.347-1.913-4.901 0-2.63 1.793-5.259 5.021-5.259 2.391 0 4.303 1.793 4.303 4.422 0 2.391-1.434 4.184-5.259 6.096v0.12c2.271 2.63 4.901 5.499 6.574 7.53 1.076-1.673 1.793-3.825 2.391-7.172h1.554c-0.598 3.586-1.435 6.335-2.988 8.128 1.195 1.195 2.271 2.271 3.586 3.706L278.223 121.647zM269.377 120.69c2.271 0 4.184-1.076 5.499-2.51 -1.315-1.554-4.184-4.662-7.053-8.009 -1.434 0.837-3.586 2.51-3.586 5.379C264.237 118.539 266.389 120.69 269.377 120.69L269.377 120.69zM269.975 100.131c-2.152 0-3.347 1.793-3.347 3.944 0 1.913 0.837 3.228 1.913 4.542 2.75-1.435 4.542-2.75 4.542-5.021C273.083 101.924 272.246 100.251 269.975 100.131z"/><path class="st1" d="M291.849 99.294v9.921h12.431v-9.921h1.554v22.472h-1.554V110.53h-12.431v11.236h-1.554V99.294H291.849z"/><path class="st1" d="M311.452 113.519c0 5.021 2.749 7.053 6.097 7.053 2.391 0 3.586-0.479 4.422-0.957l0.359 1.195c-0.598 0.359-2.271 1.076-5.021 1.076 -4.542 0-7.411-3.347-7.411-8.008 0-5.379 3.107-8.606 7.172-8.606 5.26 0 6.216 4.901 6.216 7.172 0 0.359 0 0.717-0.12 0.957L311.452 113.519zM321.612 112.323c0-2.271-0.956-5.618-4.781-5.618 -3.586 0-5.021 3.108-5.379 5.618H321.612z"/><path class="st1" d="M327.35 110.53c0-1.554 0-3.227-0.119-4.781h1.435l0.119 3.228h0.12c0.717-2.032 2.391-3.586 4.542-3.586 0.239 0 0.478 0 0.598 0.12v1.554h-0.718c-2.151 0-3.705 1.913-4.184 4.423 -0.119 0.478-0.119 0.956-0.119 1.554v8.845h-1.554L327.35 110.53z"/><path class="st1" d="M338.228 102.522c-0.718 0-1.195-0.598-1.195-1.315s0.598-1.435 1.314-1.435c0.718 0 1.315 0.598 1.315 1.435C339.542 101.924 339.064 102.522 338.228 102.522zM337.51 121.647v-15.898h1.555v16.018h-1.555V121.647z"/><path class="st1" d="M346.595 102.163v3.586h4.542v1.315h-4.542v10.399c0 2.032 0.598 3.227 2.271 3.347 0.837 0 1.435-0.12 1.793-0.239l0.239 1.195c-0.478 0.239-1.314 0.358-2.271 0.358 -1.195 0-2.152-0.358-2.75-1.076 -0.717-0.837-0.956-2.152-0.956-3.825v-10.041h-2.749v-1.315h2.749v-2.988L346.595 102.163 346.595 102.163z"/><path class="st1" d="M364.644 117.941c0 1.315 0 2.51 0.239 3.825h-1.435l-0.239-2.271h-0.119c-0.837 1.195-2.51 2.63-5.14 2.63 -3.228 0-4.662-2.271-4.662-4.423 0-3.705 3.228-5.977 9.802-5.857v-0.478c0-1.554-0.239-4.781-4.064-4.662 -1.434 0-2.868 0.358-4.063 1.195l-0.479-1.195c1.435-0.957 3.228-1.315 4.662-1.315 4.661 0 5.498 3.466 5.498 6.335V117.941L364.644 117.941zM363.09 113.16c-3.467-0.12-8.128 0.478-8.128 4.303 0 2.271 1.554 3.227 3.107 3.347 2.63 0 4.184-1.673 4.781-3.227 0.12-0.359 0.12-0.717 0.12-0.957L363.09 113.16 363.09 113.16z"/><path class="st1" d="M382.573 119.376c0 4.064-0.837 6.096-2.151 7.411 -1.435 1.435-3.586 1.913-5.379 1.913s-3.825-0.478-5.14-1.435l0.598-1.314c1.075 0.717 2.63 1.434 4.781 1.434 3.347 0 5.737-1.673 5.737-6.455v-2.391H380.9c-0.837 1.673-2.75 3.108-5.618 3.108 -4.064 0-6.813-3.466-6.813-7.889 0-5.618 3.705-8.487 7.172-8.487 3.107 0 4.662 1.793 5.379 3.108h0.119l0.12-2.749h1.435c-0.12 1.195-0.12 2.51-0.12 4.184V119.376zM381.02 111.845c0-0.598 0-1.076-0.239-1.554 -0.717-1.913-2.271-3.586-4.9-3.586 -3.347 0-5.737 2.749-5.737 7.052 0 3.706 1.912 6.694 5.737 6.694 2.151 0 4.184-1.315 5.021-3.586 0.119-0.478 0.238-1.076 0.238-1.673L381.02 111.845 381.02 111.845z"/><path class="st1" d="M388.191 113.519c0 5.021 2.749 7.053 6.096 7.053 2.271 0 3.586-0.479 4.423-0.957l0.358 1.195c-0.598 0.359-2.271 1.076-5.02 1.076 -4.543 0-7.411-3.347-7.411-8.008 0-5.379 3.107-8.606 7.172-8.606 5.259 0 6.216 4.901 6.216 7.172 0 0.359 0 0.717-0.12 0.957L388.191 113.519zM398.352 112.323c0-2.271-0.956-5.618-4.781-5.618 -3.586 0-5.021 3.108-5.379 5.618H398.352z"/><path class="st1" d="M426.561 120.93c-1.075 0.598-3.347 1.076-6.096 1.195 -5.379 0-10.639-3.466-10.639-11.475 0-6.694 4.304-11.714 11.355-11.714 2.869 0 4.543 0.598 5.141 0.956l-0.479 1.435c-1.076-0.598-2.749-0.957-4.662-0.957 -6.096 0-9.801 3.945-9.801 10.399 0 6.096 3.466 9.921 9.442 9.921 1.913 0 3.706-0.358 5.021-1.076L426.561 120.93z"/><path class="st1" d="M430.386 113.519c0 5.021 2.749 7.053 6.097 7.053 2.271 0 3.586-0.479 4.422-0.957l0.359 1.195c-0.598 0.359-2.271 1.076-5.021 1.076 -4.542 0-7.411-3.347-7.411-8.008 0-5.379 3.107-8.606 7.172-8.606 5.26 0 6.216 4.901 6.216 7.172 0 0.359 0 0.717-0.12 0.957L430.386 113.519zM440.666 112.323c0-2.271-0.957-5.618-4.781-5.618 -3.586 0-5.021 3.108-5.379 5.618H440.666z"/><path class="st1" d="M446.283 109.574c0-1.435 0-2.51-0.119-3.825h1.554l0.12 2.869h0.119c0.837-1.793 2.869-3.228 5.498-3.228 1.555 0 5.499 0.717 5.499 6.813v9.562H457.4v-9.443c0-2.988-1.076-5.618-4.423-5.618 -2.271 0-4.184 1.554-4.781 3.706 -0.12 0.358-0.239 0.956-0.239 1.434v9.921h-1.554L446.283 109.574z"/><path class="st1" d="M466.365 102.163v3.586h4.542v1.315h-4.542v10.399c0 2.032 0.598 3.227 2.271 3.347 0.837 0 1.435-0.12 1.793-0.239l0.239 1.195c-0.479 0.239-1.314 0.358-2.271 0.358 -1.195 0-2.151-0.358-2.749-1.076 -0.717-0.837-0.956-2.152-0.956-3.825v-10.041h-2.749v-1.315h2.749v-2.988L466.365 102.163 466.365 102.163z"/><path class="st1" d="M474.493 113.519c0 5.021 2.749 7.053 6.096 7.053 2.391 0 3.586-0.479 4.423-0.957l0.358 1.195c-0.598 0.359-2.271 1.076-5.021 1.076 -4.542 0-7.41-3.347-7.41-8.008 0-5.379 3.107-8.606 7.172-8.606 5.259 0 6.215 4.901 6.215 7.172 0 0.359 0 0.717-0.119 0.957L474.493 113.519zM484.653 112.323c0-2.271-0.956-5.618-4.781-5.618 -3.586 0-5.021 3.108-5.379 5.618H484.653z"/><path class="st1" d="M490.391 110.53c0-1.554 0-3.227-0.119-4.781h1.434l0.12 3.228h0.119c0.718-2.032 2.391-3.586 4.542-3.586 0.239 0 0.479 0 0.598 0.12v1.554h-0.717c-2.151 0-3.705 1.913-4.184 4.423 -0.119 0.478-0.119 0.956-0.119 1.554v8.845h-1.555L490.391 110.53z"/><polyline class="st6" points="7.126,29.249 0.432,18.85 10.831,25.065  "/><polyline class="st6" points="15.612,20.882 11.548,9.288 20.274,17.774  "/><polyline class="st6" points="26.729,13.71 26.251,1.279 32.108,12.156  "/><polyline class="st6" points="38.802,9.646 39.638,-2.785 44.181,8.81  "/><polyline class="st6" points="51.353,9.646 56.253,-1.59 56.731,10.603  "/><polyline class="st6" points="62.827,11.678 71.075,1.159 68.326,14.188  "/><polyline class="st6" points="75.139,16.101 83.865,7.495 79.681,19.089  "/><polyline class="st6" points="85.538,23.512 96.535,18.252 89.124,27.815  "/><polyline class="st6" points="93.188,33.433 104.902,30.086 95.818,38.333  "/><polyline class="st6" points="99.045,45.027 111.357,44.908 100.479,50.406  "/><polyline class="st6" points="101.077,58.176 113.03,60.925 101.197,63.674  "/><polyline class="st6" points="3.181,34.15 -8.413,30.444 0.432,38.931  "/><polyline class="st6" points="-1.72,44.669 -14.271,43.474 -3.513,49.928  "/><polyline class="st6" points="-4.947,56.98 -16.78,59.849 -4.947,62.718  "/><polyline class="st6" points="90.559,91.645 97.252,102.044 86.733,95.828  "/><polyline class="st6" points="80.996,100.609 85.777,111.965 76.573,103.956  "/><polyline class="st6" points="70.238,107.184 70.836,119.615 64.859,108.737  "/><polyline class="st6" points="58.046,110.411 57.09,122.723 52.548,111.248  "/><polyline class="st6" points="45.017,111.248 40.116,122.483 39.638,110.172  "/><polyline class="st6" points="32.706,108.737 25.772,118.778 27.565,106.586  "/><polyline class="st6" points="21.35,103.717 12.624,112.323 16.808,100.609  "/><polyline class="st6" points="11.07,96.545 0.193,101.805 7.724,92.242  "/><polyline class="st6" points="3.301,86.624 -8.413,89.971 0.671,81.724  "/><polyline class="st6" points="-2.437,75.03 -14.509,75.149 -3.632,69.651  "/><polyline class="st6" points="93.786,86.983 105.62,90.091 96.416,82.082  "/><polyline class="st6" points="98.926,75.747 111.118,76.345 100.479,70.368  "/><path class="st2" d="M89.363 60.447c-0.478 22.591-19.005 39.326-41.238 39.804C25.892 100.729 7.365 82.44 7.006 60.566 6.409 37.855 26.729 21.121 48.245 20.643 70.358 20.284 89.005 38.573 89.363 60.447c0 1.315 1.913 1.315 1.913 0C90.798 36.78 71.434 19.208 48.125 18.73 24.936 18.372 5.572 37.497 5.094 60.447c-0.598 23.667 20.679 41.358 43.151 41.836 23.309 0.478 42.672-18.766 43.151-41.716C91.276 59.251 89.363 59.251 89.363 60.447z"/><path class="st2" d="M99.763 60.447c-0.479 28.09-23.667 49.127-51.279 49.605C20.872 110.53-2.437 87.939-2.795 60.566c-0.478-28.09 24.504-49.127 51.398-49.605C76.095 10.483 99.404 33.074 99.763 60.447c0.119 1.315 1.912 1.315 1.912 0 -0.358-25.699-20.201-48.051-46.139-50.92C29.12 6.538 3.659 22.316-3.273 48.374c-6.813 25.58 8.965 50.92 32.751 60.125 24.982 9.682 54.028-1.673 66.579-24.982 3.825-7.053 5.499-15.061 5.618-23.07C101.675 59.251 99.882 59.251 99.763 60.447z"/><path class="st2" d="M94.384 72.878c-0.957 0.239-1.913-0.478-2.152-1.434 -0.239-0.957 0.478-1.793 1.315-2.152 0.956-0.239 2.032 0.239 2.271 1.315C95.938 71.683 95.34 72.639 94.384 72.878z"/><path class="st2" d="M89.483 84.233c-1.076-0.119-1.793-0.956-1.673-1.912 0.119-0.957 0.717-1.793 1.793-1.674 0.956 0 1.912 0.717 1.912 1.793C91.515 83.517 90.559 84.233 89.483 84.233z"/><path class="st2" d="M81.952 93.796c-0.956-0.358-1.434-1.314-1.195-2.271 0.239-0.956 1.195-1.434 2.152-1.195 0.956 0.239 1.554 1.315 1.315 2.271C83.865 93.557 82.909 94.274 81.952 93.796z"/><path class="st2" d="M72.031 101.207c-0.837-0.598-1.076-1.673-0.598-2.51 0.478-0.836 1.554-1.076 2.51-0.478 0.836 0.478 1.315 1.673 0.598 2.51C74.063 101.446 72.868 101.685 72.031 101.207z"/><path class="st2" d="M60.676 105.749c-0.717-0.717-0.598-1.912 0.12-2.629 0.717-0.598 1.793-0.598 2.51 0 0.717 0.717 0.717 1.913 0 2.629C62.588 106.586 61.393 106.466 60.676 105.749z"/><path class="st2" d="M48.483 107.303c-0.478-0.957-0.119-2.032 0.717-2.51 0.837-0.478 1.913-0.239 2.391 0.598s0.239 2.032-0.598 2.51C50.157 108.499 48.962 108.259 48.483 107.303z"/><path class="st2" d="M36.292 105.749c-0.239-0.956 0.478-1.912 1.434-2.151 0.957-0.239 1.913 0.358 2.152 1.315 0.239 0.956-0.239 2.032-1.315 2.271C37.606 107.303 36.53 106.706 36.292 105.749z"/><path class="st2" d="M24.936 101.327c0-1.076 0.956-1.793 1.913-1.793 0.956 0 1.793 0.717 1.793 1.793 0 0.956-0.717 1.913-1.793 1.913C25.772 103.239 24.936 102.283 24.936 101.327z"/><path class="st2" d="M15.015 94.035c0.239-0.956 1.315-1.554 2.271-1.315 0.956 0.239 1.554 1.195 1.314 2.152 -0.239 0.956-1.195 1.673-2.151 1.314C15.374 95.948 14.776 94.991 15.015 94.035z"/><path class="st2" d="M7.365 84.353c0.478-0.836 1.673-1.076 2.51-0.598s0.956 1.673 0.598 2.391c-0.358 0.837-1.554 1.315-2.391 0.717C7.126 86.385 6.767 85.31 7.365 84.353z"/><path class="st2" d="M2.464 73.117c0.837-0.717 1.913-0.598 2.51 0 0.598 0.717 0.717 1.793 0 2.51s-1.793 0.836-2.629 0.12C1.627 75.03 1.747 73.715 2.464 73.117z"/><path class="st2" d="M0.791 60.925c0.957-0.478 2.032-0.119 2.51 0.717 0.478 0.837 0.239 1.913-0.717 2.391 -0.836 0.478-2.032 0.239-2.51-0.598C-0.405 62.479-0.166 61.403 0.791 60.925z"/><path class="st2" d="M2.464 48.733c0.957-0.239 2.032 0.478 2.152 1.434 0.239 0.957-0.478 1.793-1.315 2.152 -0.956 0.239-2.032-0.239-2.271-1.315C0.791 50.048 1.388 48.853 2.464 48.733z"/><path class="st2" d="M7.245 37.497c1.076 0.119 1.793 0.956 1.793 1.912 -0.119 0.957-0.717 1.793-1.793 1.793 -0.956 0-1.793-0.836-1.793-1.793C5.333 38.214 6.169 37.377 7.245 37.497z"/><path class="st2" d="M14.896 27.815c0.956 0.358 1.434 1.434 1.195 2.271 -0.239 0.956-1.195 1.435-2.152 1.195 -0.956-0.239-1.554-1.195-1.315-2.271C12.863 28.054 13.939 27.456 14.896 27.815z"/><path class="st2" d="M24.697 20.523c0.837 0.478 0.957 1.793 0.478 2.51 -0.478 0.836-1.554 1.076-2.51 0.478 -0.837-0.478-1.195-1.673-0.598-2.51C22.665 20.284 23.86 19.926 24.697 20.523z"/><path class="st2" d="M36.052 15.862c0.717 0.717 0.598 1.913-0.12 2.629 -0.717 0.598-1.793 0.598-2.51-0.119 -0.717-0.717-0.717-1.913 0-2.63C34.14 15.025 35.455 15.145 36.052 15.862z"/><path class="st2" d="M48.245 14.308c0.478 0.837 0.12 2.032-0.717 2.51s-1.913 0.239-2.391-0.717c-0.478-0.836-0.239-2.032 0.598-2.51C46.69 12.993 47.886 13.471 48.245 14.308z"/><path class="st2" d="M60.437 15.862c0.239 0.956-0.358 1.913-1.314 2.151 -0.957 0.239-1.913-0.358-2.152-1.315 -0.239-0.956 0.239-2.032 1.315-2.271C59.241 14.188 60.198 14.786 60.437 15.862z"/><path class="st2" d="M71.912 20.404c0 1.076-0.956 1.793-1.913 1.793 -0.956 0-1.793-0.717-1.793-1.793 0-0.956 0.717-1.913 1.793-1.913C71.075 18.491 71.912 19.328 71.912 20.404z"/><path class="st2" d="M81.713 27.695c-0.239 0.956-1.315 1.554-2.271 1.315 -0.957-0.239-1.435-1.195-1.195-2.152 0.239-0.956 1.195-1.673 2.151-1.314C81.474 25.663 82.072 26.739 81.713 27.695z"/><path class="st2" d="M89.363 37.258c-0.478 0.837-1.673 1.076-2.51 0.598 -0.836-0.478-1.076-1.554-0.598-2.391s1.554-1.315 2.51-0.717C89.603 35.226 89.841 36.421 89.363 37.258z"/><path class="st2" d="M94.264 48.494c-0.717 0.717-1.913 0.598-2.63-0.12 -0.598-0.717-0.717-1.793 0-2.51 0.717-0.717 1.793-0.837 2.63-0.12C95.101 46.581 95.101 47.896 94.264 48.494z"/><path class="st2" d="M96.057 60.686c-0.957 0.478-2.032 0.12-2.51-0.717s-0.239-1.913 0.717-2.391c0.836-0.478 2.032-0.239 2.51 0.598C97.133 59.132 96.774 60.208 96.057 60.686z"/><path class="st3" d="M32.228 23.034c13.626 21.994 14.224 53.909-2.152 74.587"/><path class="st3" d="M36.172 22.556c13.626 21.994 13.985 55.821-2.391 76.38"/><path class="st3" d="M63.186 22.077C49.56 43.952 48.842 75.986 65.337 96.545"/><path class="st3" d="M59.241 21.599c-13.626 21.875-13.985 55.821 2.391 76.38"/><path class="st3" d="M9.158 74.671c22.95-12.909 56.658-13.626 78.413 2.032"/><path class="st3" d="M8.56 70.966c23.07-13.029 58.69-13.268 80.325 2.271"/><path class="st3" d="M8.202 45.267c23.069 13.029 56.658 13.626 78.413-2.032"/><path class="st3" d="M7.604 48.972c23.069 13.029 58.57 13.268 80.325-2.271"/><a><rect x="-17.02" y="-3.98" class="st0" width="612" height="133.875"/></a></svg>