<svg xmlns="http://www.w3.org/2000/svg" xmlns:xlink="http://www.w3.org/1999/xlink" viewBox="-36.5 -22.5 636 175" enable-background="new -36.5 -22.5 636 175"><style type="text/css"><![CDATA[
.st0{fill-opacity:0;}.st1{fill:#FFFFFF;stroke:#FFFFFF;stroke-width:0.2;}.st2{fill:#FFFFFF;}.st3{fill:none;stroke:#FFFFFF;stroke-width:1.0253;}.st4{fill:none;stroke:#FFFFFF;stroke-width:1.6868;}.st5{fill:none;}.st6{fill:none;stroke:#FFFFFF;stroke-width:1.2;}.st7{fill:#FFFFFF;stroke:#FFFFFF;stroke-width:0.75;}
]]></style><path class="st4" d="M123.07 12.634v106.622"/><path class="st5" d="M137.056 11.2h607.22v128.018h-607.22z"/><path class="st7" d="M146.738 41.8l-9.682-33.35h2.152l5.14 17.93c1.435 4.782 2.51 9.085 3.466 12.79h.12c.837-3.824 2.15-8.127 3.706-12.79l5.618-17.93h2.152L148.65 41.8h-1.912zm14.942-12.192c0 7.53 3.706 10.638 7.77 10.638 2.988 0 4.542-.717 5.737-1.315l.48 1.795c-.718.478-2.87 1.554-6.456 1.554-5.975 0-9.68-4.9-9.68-11.954 0-7.89 3.944-12.91 9.323-12.91 6.813 0 8.128 7.292 8.128 10.758 0 .598 0 .957-.12 1.435h-15.18zm13.148-1.913c0-3.347-1.195-8.367-6.216-8.367-4.542 0-6.455 4.662-6.933 8.367h13.147zm6.574 10.997c1.076.717 2.75 1.673 4.662 1.673 3.228 0 4.78-2.032 4.78-4.542 0-2.63-1.433-4.064-4.302-5.38-3.347-1.433-5.26-3.585-5.26-6.454 0-3.468 2.392-6.457 6.336-6.457 1.912 0 3.586.598 4.542 1.435l-.717 1.91c-.717-.597-2.032-1.433-4.184-1.433-2.63 0-4.066 1.913-4.066 4.064 0 2.51 1.554 3.586 4.303 4.9 3.347 1.555 5.26 3.467 5.26 7.053 0 4.064-2.75 6.813-6.934 6.813-2.032 0-3.825-.598-5.26-1.674l.838-1.91zm19.723-25.938v5.26h5.857v1.912h-5.857v15.42c0 2.987.717 4.9 2.988 4.9 1.076 0 1.913-.12 2.39-.358l.24 1.793c-.717.24-1.674.6-2.87.48-1.553 0-2.748-.6-3.585-1.673-.956-1.195-1.314-3.228-1.314-5.738V19.925h-3.467v-1.913h3.467V13.71l2.15-.956zm10.52 16.854c0 7.53 3.705 10.638 7.77 10.638 2.987 0 4.54-.717 5.737-1.315l.478 1.795c-.717.478-2.87 1.554-6.455 1.554-5.977 0-9.682-4.9-9.682-11.954 0-7.89 3.944-12.91 9.323-12.91 6.813 0 8.128 7.292 8.128 10.758 0 .598 0 .957-.12 1.435h-15.18zm13.267-1.913c0-3.347-1.195-8.367-6.215-8.367-4.542 0-6.455 4.662-6.933 8.367h13.148zm7.29-2.63c0-2.39 0-4.78-.12-7.172h1.914l.12 4.78h.12c.956-2.987 3.107-5.378 5.857-5.378.358 0 .598 0 .836.12v2.27h-.958c-2.87 0-4.9 2.87-5.38 6.695-.12.717-.12 1.435-.12 2.27V41.8h-2.03l-.24-16.735zm13.15-18.527h2.032v15.66h.12c.597-1.316 1.553-2.63 2.75-3.467s2.628-1.433 4.183-1.433c1.913 0 7.172 1.195 7.172 10.04v14.345h-2.034V27.696c0-4.303-1.434-8.128-5.737-8.128-2.99 0-5.38 2.39-6.217 5.38-.24.716-.24 1.433-.24 2.39V41.8h-2.03V6.538h-.002zm23.428 23.07c0 7.53 3.706 10.638 7.77 10.638 2.988 0 4.542-.717 5.737-1.315l.478 1.795c-.717.478-2.87 1.554-6.455 1.554-5.977 0-9.682-4.9-9.682-11.954 0-7.89 3.945-12.91 9.324-12.91 6.813 0 8.128 7.292 8.128 10.758 0 .598 0 .957-.12 1.435h-15.18zm13.148-1.913c0-3.347-1.195-8.367-6.216-8.367-4.542 0-6.455 4.662-6.933 8.367h13.147zm8.367-14.463c-.957 0-1.554-.956-1.554-2.032s.72-2.032 1.676-2.032 1.673.837 1.673 2.032c-.12 1.076-.718 2.032-1.794 2.032zM289.34 41.8V18.013h2.03V41.8h-2.03zm8.964-18.17c0-2.15 0-3.824-.12-5.737h1.913l.12 4.184h.12c1.315-2.75 3.347-4.662 6.693-4.662 2.87 0 5.02 2.152 5.977 5.14h.12c.598-1.435 1.314-2.51 2.15-3.228 1.315-1.195 2.75-1.913 4.9-1.913 2.033 0 6.814 1.315 6.814 10.28V41.68h-2.15V27.934c0-5.38-1.792-8.487-5.38-8.487-2.63 0-4.66 2.27-5.377 4.662-.12.716-.358 1.434-.358 2.39v15.3h-2.032V26.86c0-4.303-1.793-7.41-5.14-7.41-2.75 0-4.9 2.628-5.738 5.378-.12.717-.358 1.434-.358 2.39V41.92h-2.032l-.12-18.29z"/><path class="st1" d="M143.99 60.566h-7.293V59.25h16.256v1.316h-7.41v21.157h-1.555V60.566zm11.115-2.51h1.554v10.52h.12c.476-.958 1.193-1.675 2.15-2.272.956-.598 2.032-.956 3.227-.956 1.554 0 5.5.717 5.5 6.694v9.682h-1.555V72.28c0-2.87-1.076-5.498-4.423-5.498-2.27 0-4.185 1.673-4.78 3.586-.12.478-.24.956-.24 1.554v9.802h-1.555V58.056zm18.05 15.54c0 5.02 2.75 7.05 6.096 7.05 2.393 0 3.588-.477 4.424-.955l.36 1.197c-.6.358-2.272 1.076-5.022 1.076-4.54 0-7.41-3.347-7.41-8.008 0-5.38 3.108-8.606 7.172-8.606 5.26 0 6.216 4.9 6.216 7.17 0 .36 0 .718-.12.957l-11.713.12zm10.16-1.316c0-2.27-.957-5.618-4.78-5.618-3.587 0-5.022 3.108-5.38 5.618h10.16zm13.148 9.444V59.25h1.554l8.726 13.27c1.793 2.748 3.107 4.9 4.303 7.05h.12c-.24-2.987-.24-5.617-.24-9.083V59.25h1.555v22.473h-1.433l-8.606-13.03c-1.672-2.51-3.227-4.9-4.302-7.29h-.12c.12 2.75.24 5.14.24 8.965v11.355h-1.794zm31.197-3.826c0 1.315 0 2.51.24 3.825h-1.434l-.24-2.27h-.12c-.835 1.194-2.51 2.63-5.14 2.63-3.227 0-4.66-2.272-4.66-4.424 0-3.707 3.226-5.98 9.8-5.86v-.477c0-1.554-.24-4.78-4.064-4.662-1.435 0-2.87.36-4.064 1.196l-.478-1.195c1.434-.956 3.227-1.314 4.662-1.314 4.662 0 5.5 3.466 5.5 6.335v6.217zm-1.673-4.78c-3.466-.12-8.128.477-8.128 4.302 0 2.27 1.552 3.227 3.106 3.347 2.63 0 4.184-1.673 4.78-3.227.12-.36.12-.717.12-.957l.12-3.466zm8.965-10.878v3.586h4.542v1.315h-4.542v10.4c0 2.033.598 3.228 2.27 3.348.837 0 1.435-.12 1.794-.24l.24 1.196c-.48.24-1.316.36-2.272.36-1.195 0-2.15-.36-2.75-1.077-.716-.837-.956-2.152-.956-3.825V67.26h-2.75v-1.315h2.75v-2.988l1.674-.717zm8.846.36c-.717 0-1.195-.6-1.195-1.316s.598-1.435 1.314-1.435c.717 0 1.315.596 1.315 1.433-.12.597-.598 1.315-1.434 1.315zm-.717 19.124V65.706h1.556v16.018h-1.554zm12.91.358c-4.184 0-7.292-3.228-7.292-8.248 0-5.5 3.586-8.487 7.53-8.487 4.423 0 7.412 3.228 7.412 8.248 0 5.977-4.064 8.487-7.65 8.487zm.12-1.315c3.346 0 5.976-2.988 5.976-7.052 0-2.988-1.673-6.933-5.857-6.933-4.066 0-5.98 3.586-5.98 7.052 0 3.945 2.51 6.813 5.858 6.933zm11.594-11.237c0-1.434 0-2.51-.12-3.824h1.554l.12 2.87h.12c.836-1.794 2.87-3.23 5.5-3.23 1.553 0 5.497.718 5.497 6.814v9.562h-1.554V72.28c0-2.988-1.074-5.618-4.42-5.618-2.27 0-4.185 1.554-4.78 3.706-.12.358-.24.956-.24 1.434v9.92h-1.555l-.12-12.19zm27.85 8.368c0 1.315 0 2.51.24 3.825h-1.435l-.24-2.27H294c-.836 1.194-2.51 2.63-5.14 2.63-3.226 0-4.66-2.272-4.66-4.424 0-3.707 3.227-5.98 9.8-5.86v-.477c0-1.554-.358-4.78-4.063-4.662-1.434 0-2.87.36-4.064 1.196l-.478-1.195c1.435-.956 3.228-1.314 4.662-1.314 4.662 0 5.5 3.466 5.5 6.335v6.217h-.002zM294 73.118c-3.466-.12-8.127.477-8.127 4.302 0 2.27 1.554 3.227 3.108 3.347 2.63 0 4.186-1.673 4.783-3.227.12-.36.12-.717.12-.957l.12-3.466zm6.694-15.062h1.554v23.667h-1.554V58.056zm14.464 23.668V59.25h1.554l8.726 13.27c1.793 2.748 3.107 4.9 4.303 7.05h.12c-.237-2.987-.237-5.617-.237-9.083V59.25h1.554v22.473h-1.435l-8.604-13.03c-1.674-2.51-3.228-4.9-4.304-7.29h-.12c.12 2.75.24 5.14.24 8.965v11.355h-1.794zm27.132.358c-4.183 0-7.29-3.228-7.29-8.248 0-5.5 3.586-8.487 7.53-8.487 4.423 0 7.41 3.228 7.41 8.248 0 5.977-4.063 8.487-7.65 8.487zm.12-1.315c3.348 0 5.978-2.988 5.978-7.052 0-2.988-1.674-6.933-5.857-6.933-4.06 0-5.975 3.586-5.975 7.052 0 3.945 2.51 6.813 5.857 6.933zm11.596-10.28c0-1.554 0-3.227-.12-4.78h1.435l.12 3.227h.12c.718-2.032 2.39-3.586 4.543-3.586.24 0 .48 0 .598.12v1.554h-.716c-2.152 0-3.706 1.913-4.184 4.423-.12.478-.12.956-.12 1.554v8.843h-1.555l-.12-11.357zm10.518-4.78l2.75 9.083c.478 1.913.955 3.466 1.434 5.02h.12c.357-1.434.955-3.107 1.553-5.02l3.23-9.084h1.554l3.108 8.965c.718 2.034 1.076 3.708 1.555 5.14h.12c.358-1.552.836-3.106 1.434-5.02l2.87-9.083h1.672l-5.378 16.018h-1.314l-2.988-8.965c-.717-1.914-1.195-3.587-1.674-5.38h-.12c-.478 1.912-1.075 3.586-1.673 5.498l-3.107 8.846h-1.793l-4.9-16.018h1.55zm24.384 7.888c0 5.02 2.75 7.052 6.097 7.052 2.27 0 3.586-.478 4.423-.956l.358 1.197c-.598.358-2.27 1.076-5.02 1.076-4.543 0-7.412-3.347-7.412-8.008 0-5.38 3.108-8.606 7.172-8.606 5.26 0 6.216 4.9 6.216 7.17 0 .36 0 .718-.12.957l-11.714.12zm10.16-1.315c0-2.27-.956-5.618-4.78-5.618-3.587 0-5.02 3.108-5.38 5.618h10.16zm18.528 7.172c0 4.064-.836 6.096-2.15 7.41-1.436 1.436-3.587 1.914-5.38 1.914s-3.825-.478-5.14-1.435l.598-1.313c1.076.717 2.63 1.435 4.78 1.435 3.348 0 5.738-1.672 5.738-6.454v-2.27h-.12c-.836 1.672-2.748 3.106-5.617 3.106-4.064 0-6.813-3.466-6.813-7.89 0-5.617 3.706-8.486 7.172-8.486 3.108 0 4.662 1.793 5.38 3.108h.12l.118-2.75h1.435c-.12 1.195-.12 2.51-.12 4.184v9.444zm-1.554-7.53c0-.598 0-1.076-.24-1.554-.716-1.913-2.39-3.586-5.02-3.586-3.347 0-5.737 2.75-5.737 7.052 0 3.706 1.913 6.694 5.738 6.694 2.15 0 4.184-1.315 4.9-3.586.12-.48.24-1.076.24-1.674l.12-3.346zm7.41-9.322c-.716 0-1.194-.6-1.194-1.316s.598-1.435 1.314-1.435c.718 0 1.315.596 1.315 1.433-.12.597-.597 1.315-1.434 1.315zm-.716 19.124V65.706h1.554v16.018h-1.554zm16.854-3.826c0 1.315 0 2.51.24 3.825h-1.436l-.24-2.27h-.118c-.837 1.194-2.51 2.63-5.14 2.63-3.228 0-4.662-2.272-4.662-4.424 0-3.707 3.228-5.98 9.802-5.86v-.477c0-1.554-.24-4.78-4.064-4.662-1.435 0-2.868.36-4.063 1.196l-.48-1.195c1.434-.956 3.227-1.314 4.66-1.314 4.66 0 5.5 3.466 5.5 6.335v6.217zm-1.554-4.78c-3.467-.12-8.128.477-8.128 4.302 0 2.27 1.554 3.227 3.107 3.227 2.63 0 4.184-1.673 4.78-3.227.12-.36.12-.717.12-.957l.12-3.346zm6.694-3.588c0-1.434 0-2.51-.12-3.824h1.554l.12 2.87h.12c.836-1.794 2.867-3.23 5.497-3.23 1.556 0 5.5.718 5.5 6.814v9.562h-1.554V72.28c0-2.988-1.075-5.618-4.422-5.618-2.27 0-4.184 1.554-4.78 3.706-.12.358-.24.956-.24 1.434v9.92h-1.554l-.12-12.19zm24.145 2.392v1.435h-7.89v-1.435h7.89zm6.335 1.912l-2.75 7.89h-1.673l8.13-22.473h1.553l8.128 22.474h-1.674l-2.868-7.89h-8.846zm8.487-1.314l-2.75-7.53c-.478-1.554-.836-2.75-1.195-3.945h-.12c-.357 1.315-.716 2.51-1.194 3.945l-2.75 7.53h8.01zm8.367-2.99c0-1.434 0-2.51-.12-3.824h1.554l.12 2.75h.12c1.075-1.793 2.51-3.108 5.14-3.108 2.15 0 3.944 1.554 4.542 3.466h.12c.478-.956 1.075-1.673 1.673-2.15 1.075-.838 2.15-1.316 3.824-1.316 1.555 0 5.14.837 5.14 6.933v9.445h-1.554V72.4c0-3.586-1.434-5.737-4.184-5.737-2.033 0-3.588 1.554-4.186 3.108-.12.48-.238.958-.238 1.556v10.28h-1.555V71.563c0-2.87-1.313-5.02-3.943-5.02-2.15 0-3.825 1.672-4.423 3.585-.12.478-.238.956-.238 1.554v9.802H492.3l-.237-11.953zm27.493 4.065c0 5.02 2.75 7.052 6.096 7.052 2.39 0 3.586-.478 4.423-.956l.358 1.197c-.598.358-2.27 1.076-5.02 1.076-4.543 0-7.412-3.347-7.412-8.008 0-5.38 3.108-8.606 7.172-8.606 5.26 0 6.216 4.9 6.216 7.17 0 .36 0 .718-.12.957l-11.713.12zm10.16-1.315c0-2.27-.957-5.618-4.78-5.618-3.587 0-5.022 3.108-5.38 5.618h10.16zm5.737-1.793c0-1.554 0-3.227-.12-4.78h1.435l.12 3.227h.117c.717-2.032 2.39-3.586 4.542-3.586.24 0 .48 0 .597.12v1.554h-.717c-2.15 0-3.705 1.913-4.183 4.423-.12.478-.12.956-.12 1.554v8.843h-1.554l-.12-11.357zm10.758-7.887c-.718 0-1.195-.6-1.195-1.316s.598-1.435 1.314-1.435c.72 0 1.317.596 1.317 1.433 0 .597-.597 1.315-1.434 1.315zm-.718 19.124V65.706h1.555v16.018h-1.557zm18.05-.718c-.718.358-2.39 1.076-4.662.956-4.542 0-7.65-3.347-7.65-8.128 0-5.14 3.467-8.487 8.248-8.487 1.913 0 3.706.478 4.184.956l-.598 1.315c-.717-.478-2.032-.956-3.705-.956-4.302 0-6.453 3.227-6.453 7.052 0 4.184 2.63 6.933 6.335 6.933 1.914 0 3.11-.478 3.946-.956l.358 1.317zm13.746-3.108c0 1.315 0 2.51.24 3.825h-1.436l-.24-2.27h-.118c-.837 1.194-2.51 2.63-5.14 2.63-3.228 0-4.662-2.272-4.662-4.424 0-3.707 3.228-5.98 9.802-5.86v-.477c0-1.554-.24-4.78-4.064-4.662-1.435 0-2.87.36-4.064 1.196l-.478-1.195c1.435-.956 3.228-1.314 4.66-1.314 4.663 0 5.5 3.466 5.5 6.335v6.217zm-1.554-4.78c-3.467-.12-8.13.477-8.13 4.302 0 2.27 1.556 3.227 3.11 3.227 2.63 0 4.183-1.673 4.78-3.227.12-.36.12-.717.12-.957l.12-3.346zm6.694-3.588c0-1.434 0-2.51-.12-3.824h1.555l.12 2.87h.12c.835-1.794 2.867-3.23 5.497-3.23 1.554 0 5.498.718 5.498 6.814v9.562h-1.554V72.28c0-2.988-1.075-5.618-4.423-5.618-2.27 0-4.184 1.554-4.78 3.706-.12.358-.24.956-.24 1.434v9.92h-1.554l-.12-12.19zm-423.74 41.598c-.238-3.347-.477-7.53-.477-9.92h-.12c-.837 2.39-1.673 5.02-2.988 8.366l-4.78 12.192h-1.077l-4.423-11.953c-1.315-3.467-2.27-6.216-2.87-8.606-.12 2.63-.238 6.574-.477 10.28l-.717 10.28h-1.552l1.673-22.472h1.794l4.78 12.91c1.077 2.75 1.914 5.02 2.51 7.29h.12c.598-2.03 1.315-4.183 2.51-7.29l5.02-12.91h1.914l1.554 22.472h-1.553l-.837-10.64zm19.366 6.694c0 1.435 0 2.63.12 3.945h-1.555l-.12-2.87h.12c-.835 1.555-2.63 3.23-5.497 3.23-2.032 0-5.5-1.077-5.5-7.053v-9.324h1.555v8.965c0 3.467.956 5.977 4.303 5.977 2.39 0 4.065-1.673 4.78-3.227.12-.478.36-1.076.36-1.793v-9.92h1.554l-.117 12.07zm4.78 1.793c.837.478 2.15 1.195 3.706 1.195 2.51 0 3.706-1.315 3.706-2.988 0-1.793-1.076-2.75-3.347-3.586-2.63-.956-4.062-2.39-4.062-4.422 0-2.39 1.793-4.303 4.9-4.303 1.435 0 2.75.36 3.586.958l-.598 1.315c-.598-.358-1.554-.956-3.227-.956-2.033 0-3.11 1.314-3.11 2.75 0 1.672 1.196 2.39 3.23 3.227 2.63.956 4.183 2.27 4.183 4.78 0 2.75-2.152 4.543-5.38 4.543-1.553 0-2.987-.478-4.063-1.076l.477-1.434zm13.268-6.095c0 5.02 2.75 7.052 6.096 7.052 2.39 0 3.586-.48 4.423-.957l.358 1.195c-.596.36-2.27 1.076-5.02 1.076-4.54 0-7.41-3.347-7.41-8.008 0-5.38 3.11-8.606 7.173-8.606 5.26 0 6.216 4.9 6.216 7.172 0 .36 0 .717-.12.957l-11.715.12zm10.16-1.197c0-2.27-.955-5.618-4.78-5.618-3.586 0-5.02 3.108-5.38 5.618h10.16zm18.05 5.5c0 1.434 0 2.63.12 3.944h-1.554l-.12-2.87h-.12c-.837 1.555-2.63 3.23-5.5 3.23-2.03 0-5.498-1.077-5.498-7.053v-9.324h1.554v8.965c0 3.467.956 5.977 4.303 5.977 2.39 0 4.062-1.673 4.78-3.227.12-.478.357-1.076.357-1.793v-9.92h1.554l.123 12.07zm5.38-8.25c0-1.434 0-2.51-.12-3.824h1.553l.12 2.75h.12c1.075-1.795 2.51-3.11 5.14-3.11 2.15 0 3.943 1.554 4.54 3.466h.12c.48-.956 1.077-1.673 1.674-2.15 1.078-.838 2.154-1.316 3.827-1.316 1.554 0 5.14.838 5.14 6.934v9.443h-1.554v-9.324c0-3.586-1.435-5.737-4.184-5.737-2.033 0-3.587 1.554-4.185 3.108-.12.478-.24.956-.24 1.554v10.28h-1.553v-10.04c0-2.87-1.314-5.022-3.944-5.022-2.15 0-3.825 1.673-4.422 3.586-.12.478-.24.956-.24 1.554v9.802h-1.553l-.237-11.954zm48.53 12.074l-2.51-2.51c-2.27 2.15-4.423 2.87-6.814 2.87-3.706 0-6.335-2.75-6.335-6.216 0-3.106 1.913-5.14 4.423-6.572v-.12c-1.195-1.673-1.913-3.347-1.913-4.9 0-2.63 1.793-5.26 5.02-5.26 2.392 0 4.304 1.793 4.304 4.422 0 2.39-1.436 4.183-5.26 6.095v.12c2.27 2.63 4.9 5.5 6.573 7.53 1.076-1.673 1.793-3.825 2.39-7.172h1.555c-.6 3.586-1.436 6.335-2.99 8.128 1.196 1.197 2.272 2.273 3.587 3.708l-2.034-.12zm-8.847-.957c2.27 0 4.184-1.076 5.5-2.51-1.316-1.554-4.185-4.662-7.054-8.01-1.434.838-3.586 2.51-3.586 5.38 0 2.99 2.152 5.14 5.14 5.14zm.598-20.56c-2.152 0-3.347 1.794-3.347 3.945 0 1.913.837 3.228 1.913 4.542 2.75-1.435 4.544-2.75 4.544-5.02 0-1.673-.837-3.346-3.108-3.466zm21.875-.836v9.92h12.43v-9.92h1.554v22.472h-1.554V110.53h-12.43v11.236h-1.555V99.294h1.554zm19.602 14.226c0 5.02 2.75 7.052 6.097 7.052 2.39 0 3.584-.48 4.42-.957l.36 1.195c-.6.36-2.27 1.076-5.02 1.076-4.544 0-7.413-3.347-7.413-8.008 0-5.38 3.107-8.606 7.172-8.606 5.26 0 6.215 4.9 6.215 7.172 0 .36 0 .717-.12.957l-11.714.12zm10.16-1.197c0-2.27-.956-5.618-4.78-5.618-3.587 0-5.022 3.108-5.38 5.618h10.16zm5.738-1.793c0-1.554 0-3.227-.12-4.78h1.436l.12 3.227h.12c.716-2.032 2.39-3.586 4.54-3.586.24 0 .48 0 .6.12v1.556h-.72c-2.15 0-3.704 1.913-4.183 4.423-.12.477-.12.955-.12 1.553v8.845h-1.553l-.12-11.357zm10.878-8.008c-.718 0-1.195-.598-1.195-1.315s.598-1.435 1.314-1.435c.718 0 1.315.598 1.315 1.435-.12.717-.598 1.315-1.434 1.315zm-.718 19.125V105.75h1.555v16.017h-1.555v-.12zm9.085-19.484v3.586h4.542v1.313h-4.542v10.4c0 2.03.598 3.226 2.27 3.346.838 0 1.436-.12 1.794-.24l.237 1.195c-.478.24-1.314.358-2.27.358-1.196 0-2.153-.358-2.75-1.076-.718-.837-.957-2.152-.957-3.825v-10.04h-2.748v-1.316h2.75v-2.988l1.673-.717zm18.05 15.777c0 1.316 0 2.51.24 3.826h-1.437l-.24-2.27h-.118c-.837 1.194-2.51 2.63-5.14 2.63-3.228 0-4.662-2.272-4.662-4.424 0-3.705 3.228-5.977 9.802-5.857v-.478c0-1.554-.24-4.78-4.064-4.662-1.434 0-2.868.358-4.063 1.195l-.48-1.195c1.436-.957 3.23-1.315 4.663-1.315 4.66 0 5.498 3.466 5.498 6.335v6.216zm-1.555-4.78c-3.467-.12-8.128.478-8.128 4.303 0 2.27 1.554 3.227 3.107 3.347 2.63 0 4.182-1.673 4.78-3.227.12-.36.12-.717.12-.957l.12-3.466zm19.483 6.216c0 4.064-.837 6.096-2.15 7.41-1.436 1.436-3.587 1.914-5.38 1.914s-3.825-.478-5.14-1.435l.598-1.314c1.077.72 2.63 1.436 4.783 1.436 3.347 0 5.737-1.673 5.737-6.455v-2.39h-.12c-.837 1.673-2.75 3.108-5.618 3.108-4.064 0-6.813-3.466-6.813-7.89 0-5.617 3.703-8.486 7.17-8.486 3.107 0 4.662 1.794 5.38 3.11h.12l.12-2.75h1.433c-.12 1.195-.12 2.51-.12 4.184v9.562zm-1.553-7.53c0-.6 0-1.077-.24-1.555-.716-1.91-2.27-3.584-4.9-3.584-3.346 0-5.736 2.75-5.736 7.052 0 3.706 1.912 6.694 5.737 6.694 2.153 0 4.186-1.314 5.023-3.585.12-.478.238-1.076.238-1.673l-.12-3.347zm7.17 1.674c0 5.02 2.75 7.052 6.097 7.052 2.27 0 3.586-.48 4.423-.957l.358 1.195c-.598.36-2.27 1.076-5.02 1.076-4.543 0-7.41-3.347-7.41-8.008 0-5.38 3.106-8.606 7.17-8.606 5.26 0 6.217 4.9 6.217 7.172 0 .36 0 .717-.12.957l-11.714.12zm10.162-1.197c0-2.27-.956-5.618-4.78-5.618-3.587 0-5.022 3.108-5.38 5.618h10.16zm28.208 8.607c-1.074.598-3.346 1.076-6.095 1.195-5.38 0-10.64-3.466-10.64-11.475 0-6.694 4.305-11.714 11.356-11.714 2.87 0 4.545.598 5.143.956l-.48 1.435c-1.075-.598-2.748-.957-4.66-.957-6.097 0-9.802 3.945-9.802 10.4 0 6.095 3.467 9.92 9.443 9.92 1.913 0 3.706-.358 5.02-1.076l.72 1.316zm3.826-7.41c0 5.02 2.75 7.052 6.097 7.052 2.27 0 3.586-.48 4.422-.957l.36 1.195c-.6.36-2.272 1.076-5.022 1.076-4.542 0-7.41-3.347-7.41-8.008 0-5.38 3.106-8.606 7.17-8.606 5.26 0 6.217 4.9 6.217 7.172 0 .36 0 .717-.12.957l-11.714.12zm10.28-1.197c0-2.27-.957-5.618-4.78-5.618-3.587 0-5.022 3.108-5.38 5.618h10.16zm5.617-2.75c0-1.434 0-2.51-.12-3.824h1.555l.12 2.867h.12c.836-1.793 2.868-3.228 5.497-3.228 1.555 0 5.5.716 5.5 6.812v9.562H457.4v-9.443c0-2.987-1.076-5.617-4.423-5.617-2.27 0-4.184 1.554-4.78 3.706-.12.357-.24.955-.24 1.433v9.92h-1.554l-.12-12.19zm20.082-7.41v3.586h4.542v1.313h-4.542v10.4c0 2.03.598 3.226 2.27 3.346.838 0 1.436-.12 1.794-.24l.237 1.195c-.48.24-1.314.358-2.27.358-1.196 0-2.152-.358-2.75-1.076-.717-.837-.956-2.152-.956-3.825v-10.04h-2.75v-1.316h2.75v-2.988l1.674-.717zm8.128 11.357c0 5.02 2.75 7.052 6.096 7.052 2.39 0 3.584-.48 4.42-.957l.36 1.195c-.6.36-2.27 1.076-5.02 1.076-4.544 0-7.41-3.347-7.41-8.008 0-5.38 3.105-8.606 7.17-8.606 5.26 0 6.215 4.9 6.215 7.172 0 .36 0 .717-.12.957l-11.713.12zm10.16-1.197c0-2.27-.956-5.618-4.78-5.618-3.587 0-5.022 3.108-5.38 5.618h10.16zm5.737-1.793c0-1.554 0-3.227-.118-4.78h1.434l.12 3.227h.12c.717-2.032 2.39-3.586 4.54-3.586.24 0 .48 0 .6.12v1.556h-.718c-2.15 0-3.705 1.913-4.184 4.423-.12.477-.12.955-.12 1.553v8.845h-1.554l-.12-11.357z"/><path class="st6" d="M7.126 29.25L.432 18.85l10.4 6.215m4.78-4.183L11.548 9.288l8.726 8.486m6.456-4.064l-.48-12.43 5.858 10.876m6.694-2.51l.836-12.43L44.18 8.81m7.173.836l4.9-11.236.478 12.193m6.097 1.075l8.248-10.52-2.75 13.03M75.14 16.1l8.725-8.605L79.68 19.09m5.858 4.422l10.997-5.26-7.41 9.563m4.063 5.618l11.714-3.347-9.084 8.247m3.227 6.694l12.312-.12-10.878 5.5m.597 7.77l11.953 2.75-11.833 2.747M3.18 34.15l-11.593-3.706L.432 38.93m-2.152 5.74l-12.55-1.196 10.757 6.454m-1.434 7.052l-11.833 2.87 11.833 2.868M90.56 91.645l6.692 10.4-10.52-6.217m-5.736 4.782l4.78 11.355-9.203-8.01m-6.335 3.23l.598 12.43-5.977-10.878m-6.814 1.673l-.956 12.313-4.542-11.475m-7.53 0l-4.9 11.235-.48-12.31m-6.932-1.436l-6.934 10.04 1.793-12.19m-6.215-2.87l-8.726 8.606 4.184-11.714m-5.738-4.065l-10.877 5.26 7.53-9.563M3.3 86.624L-8.412 89.97.67 81.725m-3.107-6.695l-12.072.12 10.88-5.5m97.416 17.333l11.834 3.108-9.204-8.007m2.51-6.336l12.192.598-10.64-5.977"/><path class="st2" d="M89.363 60.447c-.478 22.59-19.005 39.326-41.238 39.804-22.233.48-40.76-17.81-41.12-39.683-.596-22.71 19.724-39.445 41.24-39.923 22.113-.36 40.76 17.93 41.118 39.804 0 1.315 1.913 1.315 1.913 0-.478-23.667-19.842-41.24-43.15-41.717C24.936 18.374 5.572 37.5 5.094 60.45c-.598 23.667 20.68 41.358 43.15 41.836 23.31.478 42.673-18.766 43.152-41.716-.12-1.316-2.033-1.316-2.033-.12zm10.4 0c-.48 28.09-23.667 49.127-51.28 49.605-27.61.478-50.92-22.113-51.278-49.486-.478-28.09 24.504-49.127 51.398-49.605 27.492-.476 50.8 22.115 51.16 49.488.12 1.315 1.912 1.315 1.912 0-.358-25.7-20.2-48.05-46.14-50.92C29.12 6.538 3.66 22.318-3.272 48.374c-6.813 25.58 8.965 50.92 32.75 60.125 24.983 9.68 54.03-1.675 66.58-24.984 3.825-7.053 5.5-15.06 5.618-23.07 0-1.196-1.793-1.196-1.912 0zm-5.38 12.43c-.956.24-1.912-.477-2.15-1.433-.24-.957.477-1.793 1.314-2.152.956-.24 2.032.24 2.27 1.315.12 1.076-.477 2.032-1.433 2.27zm-4.9 11.356c-1.076-.12-1.793-.956-1.673-1.912.12-.955.717-1.79 1.793-1.672.956 0 1.912.717 1.912 1.793 0 1.078-.956 1.794-2.032 1.794zm-7.53 9.563c-.957-.358-1.435-1.314-1.196-2.27.24-.957 1.195-1.435 2.152-1.196.954.24 1.552 1.315 1.313 2.27-.36.957-1.315 1.674-2.272 1.196zm-9.923 7.41c-.836-.597-1.075-1.672-.597-2.51.478-.835 1.554-1.075 2.51-.477.836.476 1.315 1.67.598 2.51-.476.715-1.67.954-2.51.476zm-11.354 4.544c-.717-.718-.598-1.913.12-2.63.717-.598 1.793-.598 2.51 0 .717.717.717 1.913 0 2.63-.718.836-1.913.716-2.63 0zm-12.193 1.553c-.478-.957-.12-2.032.717-2.51.837-.478 1.913-.24 2.39.598s.24 2.034-.597 2.51c-.836.6-2.03.36-2.51-.596zm-12.19-1.553c-.24-.957.477-1.913 1.433-2.152.957-.24 1.913.358 2.152 1.315.24.956-.24 2.032-1.315 2.27-.957.12-2.033-.477-2.27-1.434zm-11.357-4.423c0-1.076.956-1.793 1.913-1.793.954 0 1.79.717 1.79 1.793 0 .956-.716 1.913-1.792 1.913-1.078 0-1.914-.957-1.914-1.913zm-9.92-7.292c.24-.956 1.314-1.554 2.27-1.315.956.24 1.554 1.195 1.314 2.152-.24.956-1.195 1.673-2.15 1.314-1.076-.238-1.674-1.195-1.435-2.15zm-7.65-9.682c.477-.836 1.672-1.076 2.51-.598s.955 1.673.597 2.39c-.358.838-1.554 1.316-2.39.718-.957-.478-1.316-1.553-.718-2.51zM2.463 73.117c.837-.717 1.913-.598 2.51 0 .598.717.717 1.793 0 2.51s-1.793.836-2.63.12c-.717-.717-.597-2.032.12-2.63zM.79 60.925c.958-.478 2.033-.12 2.51.717.48.837.24 1.913-.716 2.39-.836.48-2.032.24-2.51-.597-.48-.956-.24-2.032.717-2.51zm1.674-12.192c.957-.24 2.032.478 2.152 1.434.24.957-.478 1.793-1.315 2.152-.954.237-2.03-.24-2.27-1.317-.24-.956.36-2.15 1.435-2.27zm4.78-11.236c1.077.12 1.794.956 1.794 1.912-.12.955-.717 1.79-1.793 1.79-.956 0-1.793-.835-1.793-1.792-.12-1.196.717-2.033 1.793-1.913zm7.652-9.682c.956.358 1.434 1.434 1.195 2.27-.237.957-1.193 1.436-2.15 1.196-.956-.237-1.554-1.193-1.315-2.27.24-.955 1.315-1.553 2.272-1.194zm9.8-7.292c.838.478.958 1.793.48 2.51-.48.836-1.555 1.076-2.51.478-.838-.476-1.196-1.67-.6-2.51.6-.715 1.794-1.073 2.63-.476zm11.356-4.66c.717.716.598 1.912-.12 2.63-.717.596-1.793.596-2.51-.12-.717-.718-.717-1.914 0-2.63.718-.718 2.033-.598 2.63.12zm12.193-1.555c.478.837.12 2.032-.717 2.51s-1.913.24-2.39-.717c-.48-.834-.24-2.03.597-2.51.955-.596 2.15-.12 2.51.72zm12.192 1.554c.24.956-.358 1.913-1.314 2.15-.957.24-1.913-.357-2.152-1.314-.237-.956.24-2.032 1.317-2.27.955-.24 1.912.358 2.15 1.434zm11.475 4.542c0 1.076-.956 1.793-1.913 1.793-.958 0-1.795-.717-1.795-1.793 0-.956.717-1.913 1.793-1.913 1.075 0 1.912.84 1.912 1.915zm9.8 7.29c-.24.957-1.314 1.555-2.27 1.316-.957-.24-1.435-1.195-1.195-2.152.24-.956 1.195-1.673 2.15-1.314 1.077.12 1.675 1.195 1.316 2.15zm7.65 9.564c-.477.837-1.672 1.076-2.51.598-.835-.478-1.075-1.554-.597-2.39s1.554-1.316 2.51-.718c.838.478 1.076 1.673.598 2.51zm4.902 11.236c-.717.717-1.913.598-2.63-.12-.598-.717-.717-1.793 0-2.51.717-.717 1.793-.837 2.63-.12.837.837.837 2.152 0 2.75zm1.793 12.192c-.957.478-2.032.12-2.51-.717s-.24-1.915.717-2.393c.836-.478 2.032-.24 2.51.598.36.956 0 2.032-.717 2.51z"/><path class="st3" d="M32.228 23.034c13.626 21.994 14.224 53.91-2.152 74.587m6.096-75.064c13.626 21.994 13.985 55.82-2.39 76.38m29.404-76.86c-13.626 21.876-14.344 53.91 2.15 74.47M59.24 21.6c-13.625 21.874-13.984 55.82 2.392 76.38M9.158 74.67c22.95-12.908 56.658-13.625 78.413 2.033M8.56 70.966c23.07-13.03 58.69-13.268 80.325 2.27M8.202 45.266c23.07 13.03 56.658 13.627 78.413-2.03M7.605 48.97c23.07 13.03 58.57 13.268 80.324-2.27"/><a xlink:href="http://vesterheim.org/" target="_top"><path class="st0" d="M-17.02-3.98h612v133.875h-612z"/></a></svg>