<svg xmlns="http://www.w3.org/2000/svg" xmlns:xlink="http://www.w3.org/1999/xlink" class="svg-content" preserveAspectRatio="xMinYMin meet" version="1.1" viewBox="-34.5 -22.2 635 170" x="0" y="0"><style type="text/css"><![CDATA[
.st0{fill:#FFFFFF;stroke:#FFFFFF;stroke-width:0.2;}.st1{fill:#FFFFFF;}.st2{fill:none;stroke:#FFFFFF;stroke-width:1.0253;}.st3{fill:none;stroke:#FFFFFF;stroke-width:1.6868;}.st4{fill:none;}.st5{fill:none;stroke:#FFFFFF;stroke-width:1.2;}.st6{fill:#FFFFFF;stroke:#FFFFFF;stroke-width:0.75;}
]]></style><line class="st3" x1="123.1" y1="12.6" x2="123.1" y2="119.3"/><rect x="137.1" y="11.2" class="st4" width="607.2" height="128"/><path class="st6" d="M146.7 41.8l-9.7-33.3h2.2l5.1 17.9c1.4 4.8 2.5 9.1 3.5 12.8h0.1c0.8-3.8 2.2-8.1 3.7-12.8l5.6-17.9h2.2L148.7 41.8H146.7L146.7 41.8zM161.7 29.6c0 7.5 3.7 10.6 7.8 10.6 3 0 4.5-0.7 5.7-1.3l0.5 1.8c-0.7 0.5-2.9 1.6-6.5 1.6 -6 0-9.7-4.9-9.7-12 0-7.9 3.9-12.9 9.3-12.9 6.8 0 8.1 7.3 8.1 10.8 0 0.6 0 1-0.1 1.4H161.7zM174.8 27.7c0-3.3-1.2-8.4-6.2-8.4 -4.5 0-6.5 4.7-6.9 8.4H174.8zM181.4 38.7c1.1 0.7 2.7 1.7 4.7 1.7 3.2 0 4.8-2 4.8-4.5 0-2.6-1.4-4.1-4.3-5.4 -3.3-1.4-5.3-3.6-5.3-6.5 0-3.5 2.4-6.5 6.3-6.5 1.9 0 3.6 0.6 4.5 1.4l-0.7 1.9c-0.7-0.6-2-1.4-4.2-1.4 -2.6 0-4.1 1.9-4.1 4.1 0 2.5 1.6 3.6 4.3 4.9 3.3 1.6 5.3 3.5 5.3 7.1 0 4.1-2.7 6.8-6.9 6.8 -2 0-3.8-0.6-5.3-1.7L181.4 38.7zM201.1 12.8v5.3h5.9v1.9h-5.9v15.4c0 3 0.7 4.9 3 4.9 1.1 0 1.9-0.1 2.4-0.4l0.2 1.8c-0.7 0.2-1.7 0.6-2.9 0.5 -1.6 0-2.7-0.6-3.6-1.7 -1-1.2-1.3-3.2-1.3-5.7V19.9h-3.5v-1.9h3.5V13.7L201.1 12.8zM211.6 29.6c0 7.5 3.7 10.6 7.8 10.6 3 0 4.5-0.7 5.7-1.3l0.5 1.8c-0.7 0.5-2.9 1.6-6.5 1.6 -6 0-9.7-4.9-9.7-12 0-7.9 3.9-12.9 9.3-12.9 6.8 0 8.1 7.3 8.1 10.8 0 0.6 0 1-0.1 1.4H211.6zM224.9 27.7c0-3.3-1.2-8.4-6.2-8.4 -4.5 0-6.5 4.7-6.9 8.4H224.9zM232.2 25.1c0-2.4 0-4.8-0.1-7.2h1.9l0.1 4.8h0.1c1-3 3.1-5.4 5.9-5.4 0.4 0 0.6 0 0.8 0.1v2.3h-1c-2.9 0-4.9 2.9-5.4 6.7 -0.1 0.7-0.1 1.4-0.1 2.3V41.8h-2L232.2 25.1zM245.4 6.5h2v15.7h0.1c0.6-1.3 1.6-2.6 2.8-3.5s2.6-1.4 4.2-1.4c1.9 0 7.2 1.2 7.2 10v14.3h-2V27.7c0-4.3-1.4-8.1-5.7-8.1 -3 0-5.4 2.4-6.2 5.4 -0.2 0.7-0.2 1.4-0.2 2.4V41.8h-2V6.5L245.4 6.5zM268.8 29.6c0 7.5 3.7 10.6 7.8 10.6 3 0 4.5-0.7 5.7-1.3l0.5 1.8c-0.7 0.5-2.9 1.6-6.5 1.6 -6 0-9.7-4.9-9.7-12 0-7.9 3.9-12.9 9.3-12.9 6.8 0 8.1 7.3 8.1 10.8 0 0.6 0 1-0.1 1.4H268.8zM281.9 27.7c0-3.3-1.2-8.4-6.2-8.4 -4.5 0-6.5 4.7-6.9 8.4H281.9zM290.3 13.2c-1 0-1.6-1-1.6-2 0-1.1 0.7-2 1.7-2 1 0 1.7 0.8 1.7 2C292 12.3 291.4 13.2 290.3 13.2L290.3 13.2zM289.3 41.8V18h2V41.8H289.3zM298.3 23.6c0-2.2 0-3.8-0.1-5.7h1.9l0.1 4.2h0.1c1.3-2.7 3.3-4.7 6.7-4.7 2.9 0 5 2.2 6 5.1h0.1c0.6-1.4 1.3-2.5 2.2-3.2 1.3-1.2 2.7-1.9 4.9-1.9 2 0 6.8 1.3 6.8 10.3v14h-2.2V27.9c0-5.4-1.8-8.5-5.4-8.5 -2.6 0-4.7 2.3-5.4 4.7 -0.1 0.7-0.4 1.4-0.4 2.4v15.3h-2V26.9c0-4.3-1.8-7.4-5.1-7.4 -2.7 0-4.9 2.6-5.7 5.4 -0.1 0.7-0.4 1.4-0.4 2.4v14.7h-2L298.3 23.6 298.3 23.6zM144 60.6h-7.3v-1.3h16.3v1.3h-7.4v21.2h-1.6V60.6zM155.1 58.1h1.6v10.5h0.1c0.5-1 1.2-1.7 2.2-2.3 1-0.6 2-1 3.2-1 1.6 0 5.5 0.7 5.5 6.7v9.7h-1.6V72.3c0-2.9-1.1-5.5-4.4-5.5 -2.3 0-4.2 1.7-4.8 3.6 -0.1 0.5-0.2 1-0.2 1.6v9.8h-1.6V58.1L155.1 58.1zM173.2 73.6c0 5 2.7 7.1 6.1 7.1 2.4 0 3.6-0.5 4.4-1l0.4 1.2c-0.6 0.4-2.3 1.1-5 1.1 -4.5 0-7.4-3.3-7.4-8 0-5.4 3.1-8.6 7.2-8.6 5.3 0 6.2 4.9 6.2 7.2 0 0.4 0 0.7-0.1 1L173.2 73.6zM183.3 72.3c0-2.3-1-5.6-4.8-5.6 -3.6 0-5 3.1-5.4 5.6H183.3zM196.5 81.7V59.3h1.6l8.7 13.3c1.8 2.7 3.1 4.9 4.3 7.1h0.1c-0.2-3-0.2-5.6-0.2-9.1V59.3h1.6v22.5h-1.4l-8.6-13c-1.7-2.5-3.2-4.9-4.3-7.3h-0.1c0.1 2.7 0.2 5.1 0.2 9v11.4H196.5L196.5 81.7zM227.7 77.9c0 1.3 0 2.5 0.2 3.8h-1.4l-0.2-2.3h-0.1c-0.8 1.2-2.5 2.6-5.1 2.6 -3.2 0-4.7-2.3-4.7-4.4 0-3.7 3.2-6 9.8-5.9v-0.5c0-1.6-0.2-4.8-4.1-4.7 -1.4 0-2.9 0.4-4.1 1.2l-0.5-1.2c1.4-1 3.2-1.3 4.7-1.3 4.7 0 5.5 3.5 5.5 6.3V77.9L227.7 77.9zM226 73.1c-3.5-0.1-8.1 0.5-8.1 4.3 0 2.3 1.6 3.2 3.1 3.3 2.6 0 4.2-1.7 4.8-3.2 0.1-0.4 0.1-0.7 0.1-1L226 73.1 226 73.1zM235 62.2v3.6h4.5v1.3h-4.5V77.5c0 2 0.6 3.2 2.3 3.3 0.8 0 1.4-0.1 1.8-0.2l0.2 1.2c-0.5 0.2-1.3 0.4-2.3 0.4 -1.2 0-2.2-0.4-2.7-1.1 -0.7-0.8-1-2.2-1-3.8V67.3h-2.7v-1.3h2.7v-3L235 62.2 235 62.2zM243.8 62.6c-0.7 0-1.2-0.6-1.2-1.3s0.6-1.4 1.3-1.4c0.7 0 1.3 0.6 1.3 1.4C245.1 61.9 244.6 62.6 243.8 62.6L243.8 62.6zM243.1 81.7V65.7h1.6v16H243.1zM256 82.1c-4.2 0-7.3-3.2-7.3-8.2 0-5.5 3.6-8.5 7.5-8.5 4.4 0 7.4 3.2 7.4 8.2C263.6 79.6 259.6 82.1 256 82.1zM256.1 80.8c3.3 0 6-3 6-7.1 0-3-1.7-6.9-5.9-6.9 -4.1 0-6 3.6-6 7.1C250.3 77.8 252.8 80.6 256.1 80.8zM267.7 69.5c0-1.4 0-2.5-0.1-3.8h1.6l0.1 2.9h0.1c0.8-1.8 2.9-3.2 5.5-3.2 1.6 0 5.5 0.7 5.5 6.8v9.6h-1.6V72.3c0-3-1.1-5.6-4.4-5.6 -2.3 0-4.2 1.6-4.8 3.7 -0.1 0.4-0.2 1-0.2 1.4v9.9h-1.6L267.7 69.5 267.7 69.5zM295.6 77.9c0 1.3 0 2.5 0.2 3.8h-1.4l-0.2-2.3h-0.1c-0.8 1.2-2.5 2.6-5.1 2.6 -3.2 0-4.7-2.3-4.7-4.4 0-3.7 3.2-6 9.8-5.9v-0.5c0-1.6-0.4-4.8-4.1-4.7 -1.4 0-2.9 0.4-4.1 1.2l-0.5-1.2c1.4-1 3.2-1.3 4.7-1.3 4.7 0 5.5 3.5 5.5 6.3V77.9L295.6 77.9zM294 73.1c-3.5-0.1-8.1 0.5-8.1 4.3 0 2.3 1.6 3.2 3.1 3.3 2.6 0 4.2-1.7 4.8-3.2 0.1-0.4 0.1-0.7 0.1-1L294 73.1 294 73.1zM300.7 58.1h1.6v23.7h-1.6V58.1zM315.2 81.7V59.3h1.6l8.7 13.3c1.8 2.7 3.1 4.9 4.3 7.1h0.1c-0.2-3-0.2-5.6-0.2-9.1V59.3h1.6v22.5h-1.4l-8.6-13c-1.7-2.5-3.2-4.9-4.3-7.3h-0.1c0.1 2.7 0.2 5.1 0.2 9v11.4H315.2L315.2 81.7zM342.3 82.1c-4.2 0-7.3-3.2-7.3-8.2 0-5.5 3.6-8.5 7.5-8.5 4.4 0 7.4 3.2 7.4 8.2C349.9 79.6 345.9 82.1 342.3 82.1zM342.4 80.8c3.3 0 6-3 6-7.1 0-3-1.7-6.9-5.9-6.9 -4.1 0-6 3.6-6 7.1C336.6 77.8 339.1 80.6 342.4 80.8zM354 70.5c0-1.6 0-3.2-0.1-4.8h1.4l0.1 3.2h0.1c0.7-2 2.4-3.6 4.5-3.6 0.2 0 0.5 0 0.6 0.1v1.6h-0.7c-2.2 0-3.7 1.9-4.2 4.4 -0.1 0.5-0.1 1-0.1 1.6v8.8h-1.6L354 70.5zM364.5 65.7l2.7 9.1c0.5 1.9 1 3.5 1.4 5h0.1c0.4-1.4 1-3.1 1.6-5l3.2-9.1h1.6l3.1 9c0.7 2 1.1 3.7 1.6 5.1h0.1c0.4-1.6 0.8-3.1 1.4-5l2.9-9.1h1.7l-5.4 16h-1.3l-3-9c-0.7-1.9-1.2-3.6-1.7-5.4h-0.1c-0.5 1.9-1.1 3.6-1.7 5.5l-3.1 8.8h-1.8l-4.9-16H364.5L364.5 65.7zM388.9 73.6c0 5 2.8 7.1 6.1 7.1 2.3 0 3.6-0.5 4.4-1l0.4 1.2c-0.6 0.4-2.3 1.1-5 1.1 -4.5 0-7.4-3.3-7.4-8 0-5.4 3.1-8.6 7.2-8.6 5.3 0 6.2 4.9 6.2 7.2 0 0.4 0 0.7-0.1 1L388.9 73.6zM399.1 72.3c0-2.3-1-5.6-4.8-5.6 -3.6 0-5 3.1-5.4 5.6H399.1zM417.6 79.5c0 4.1-0.8 6.1-2.2 7.4 -1.4 1.4-3.6 1.9-5.4 1.9s-3.8-0.5-5.1-1.4l0.6-1.3c1.1 0.7 2.6 1.4 4.8 1.4 3.3 0 5.7-1.7 5.7-6.5v-2.3h-0.1c-0.8 1.7-2.7 3.1-5.6 3.1 -4.1 0-6.8-3.5-6.8-7.9 0-5.6 3.7-8.5 7.2-8.5 3.1 0 4.7 1.8 5.4 3.1h0.1l0.1-2.7h1.4c-0.1 1.2-0.1 2.5-0.1 4.2V79.5zM416 71.9c0-0.6 0-1.1-0.2-1.6 -0.7-1.9-2.4-3.6-5-3.6 -3.3 0-5.7 2.7-5.7 7.1 0 3.7 1.9 6.7 5.7 6.7 2.2 0 4.2-1.3 4.9-3.6 0.1-0.5 0.2-1.1 0.2-1.7L416 71.9zM423.5 62.6c-0.7 0-1.2-0.6-1.2-1.3s0.6-1.4 1.3-1.4c0.7 0 1.3 0.6 1.3 1.4C424.8 61.9 424.3 62.6 423.5 62.6zM422.7 81.7V65.7h1.6v16H422.7zM439.6 77.9c0 1.3 0 2.5 0.2 3.8h-1.4l-0.2-2.3h-0.1c-0.8 1.2-2.5 2.6-5.1 2.6 -3.2 0-4.7-2.3-4.7-4.4 0-3.7 3.2-6 9.8-5.9v-0.5c0-1.6-0.2-4.8-4.1-4.7 -1.4 0-2.9 0.4-4.1 1.2l-0.5-1.2c1.4-1 3.2-1.3 4.7-1.3 4.7 0 5.5 3.5 5.5 6.3V77.9L439.6 77.9zM438 73.1c-3.5-0.1-8.1 0.5-8.1 4.3 0 2.3 1.6 3.2 3.1 3.2 2.6 0 4.2-1.7 4.8-3.2 0.1-0.4 0.1-0.7 0.1-1L438 73.1 438 73.1zM444.7 69.5c0-1.4 0-2.5-0.1-3.8h1.6l0.1 2.9h0.1c0.8-1.8 2.9-3.2 5.5-3.2 1.6 0 5.5 0.7 5.5 6.8v9.6h-1.6V72.3c0-3-1.1-5.6-4.4-5.6 -2.3 0-4.2 1.6-4.8 3.7 -0.1 0.4-0.2 1-0.2 1.4v9.9h-1.6L444.7 69.5zM468.9 71.9v1.4h-7.9v-1.4H468.9zM475.2 73.8l-2.7 7.9h-1.7l8.1-22.5h1.6l8.1 22.5h-1.7l-2.9-7.9H475.2zM483.7 72.5l-2.7-7.5c-0.5-1.6-0.8-2.7-1.2-3.9h-0.1c-0.4 1.3-0.7 2.5-1.2 3.9l-2.7 7.5H483.7L483.7 72.5zM492.1 69.5c0-1.4 0-2.5-0.1-3.8h1.6l0.1 2.8h0.1c1.1-1.8 2.5-3.1 5.1-3.1 2.2 0 3.9 1.6 4.5 3.5h0.1c0.5-1 1.1-1.7 1.7-2.2 1.1-0.8 2.2-1.3 3.8-1.3 1.6 0 5.1 0.8 5.1 6.9v9.4h-1.6V72.4c0-3.6-1.4-5.7-4.2-5.7 -2 0-3.6 1.6-4.2 3.1 -0.1 0.5-0.2 1-0.2 1.6v10.3h-1.6V71.6c0-2.9-1.3-5-3.9-5 -2.2 0-3.8 1.7-4.4 3.6 -0.1 0.5-0.2 1-0.2 1.6v9.8h-1.6L492.1 69.5 492.1 69.5zM519.6 73.6c0 5 2.7 7.1 6.1 7.1 2.4 0 3.6-0.5 4.4-1l0.4 1.2c-0.6 0.4-2.3 1.1-5 1.1 -4.5 0-7.4-3.3-7.4-8 0-5.4 3.1-8.6 7.2-8.6 5.3 0 6.2 4.9 6.2 7.2 0 0.4 0 0.7-0.1 1L519.6 73.6zM529.7 72.3c0-2.3-1-5.6-4.8-5.6 -3.6 0-5 3.1-5.4 5.6H529.7zM535.5 70.5c0-1.6 0-3.2-0.1-4.8h1.4l0.1 3.2h0.1c0.7-2 2.4-3.6 4.5-3.6 0.2 0 0.5 0 0.6 0.1v1.6h-0.7c-2.2 0-3.7 1.9-4.2 4.4 -0.1 0.5-0.1 1-0.1 1.6v8.8h-1.6L535.5 70.5zM546.2 62.6c-0.7 0-1.2-0.6-1.2-1.3s0.6-1.4 1.3-1.4c0.7 0 1.3 0.6 1.3 1.4C547.6 61.9 547 62.6 546.2 62.6zM545.5 81.7V65.7h1.6v16H545.5zM563.5 81c-0.7 0.4-2.4 1.1-4.7 1 -4.5 0-7.6-3.3-7.6-8.1 0-5.1 3.5-8.5 8.2-8.5 1.9 0 3.7 0.5 4.2 1l-0.6 1.3c-0.7-0.5-2-1-3.7-1 -4.3 0-6.5 3.2-6.5 7.1 0 4.2 2.6 6.9 6.3 6.9 1.9 0 3.1-0.5 3.9-1L563.5 81 563.5 81zM577.3 77.9c0 1.3 0 2.5 0.2 3.8h-1.4l-0.2-2.3h-0.1c-0.8 1.2-2.5 2.6-5.1 2.6 -3.2 0-4.7-2.3-4.7-4.4 0-3.7 3.2-6 9.8-5.9v-0.5c0-1.6-0.2-4.8-4.1-4.7 -1.4 0-2.9 0.4-4.1 1.2l-0.5-1.2c1.4-1 3.2-1.3 4.7-1.3 4.7 0 5.5 3.5 5.5 6.3V77.9L577.3 77.9zM575.7 73.1c-3.5-0.1-8.1 0.5-8.1 4.3 0 2.3 1.6 3.2 3.1 3.2 2.6 0 4.2-1.7 4.8-3.2 0.1-0.4 0.1-0.7 0.1-1L575.7 73.1 575.7 73.1zM582.4 69.5c0-1.4 0-2.5-0.1-3.8h1.6l0.1 2.9h0.1c0.8-1.8 2.9-3.2 5.5-3.2 1.6 0 5.5 0.7 5.5 6.8v9.6h-1.6V72.3c0-3-1.1-5.6-4.4-5.6 -2.3 0-4.2 1.6-4.8 3.7 -0.1 0.4-0.2 1-0.2 1.4v9.9h-1.6L582.4 69.5zM158.7 111.1c-0.2-3.3-0.5-7.5-0.5-9.9h-0.1c-0.8 2.4-1.7 5-3 8.4l-4.8 12.2h-1.1l-4.4-12c-1.3-3.5-2.3-6.2-2.9-8.6 -0.1 2.6-0.2 6.6-0.5 10.3l-0.7 10.3h-1.6l1.7-22.5h1.8l4.8 12.9c1.1 2.7 1.9 5 2.5 7.3h0.1c0.6-2 1.3-4.2 2.5-7.3l5-12.9h1.9l1.6 22.5h-1.6L158.7 111.1zM178.1 117.8c0 1.4 0 2.6 0.1 3.9h-1.6l-0.1-2.9h0.1c-0.8 1.6-2.6 3.2-5.5 3.2 -2 0-5.5-1.1-5.5-7.1v-9.3h1.6v9c0 3.5 1 6 4.3 6 2.4 0 4.1-1.7 4.8-3.2 0.1-0.5 0.4-1.1 0.4-1.8v-9.9h1.6L178.1 117.8zM182.8 119.6c0.8 0.5 2.2 1.2 3.7 1.2 2.5 0 3.7-1.3 3.7-3 0-1.8-1.1-2.7-3.3-3.6 -2.6-1-4.1-2.4-4.1-4.4 0-2.4 1.8-4.3 4.9-4.3 1.4 0 2.8 0.4 3.6 1l-0.6 1.3c-0.6-0.4-1.6-1-3.2-1 -2 0-3.1 1.3-3.1 2.7 0 1.7 1.2 2.4 3.2 3.2 2.6 1 4.2 2.3 4.2 4.8 0 2.7-2.2 4.5-5.4 4.5 -1.6 0-3-0.5-4.1-1.1L182.8 119.6 182.8 119.6zM196.1 113.5c0 5 2.8 7.1 6.1 7.1 2.4 0 3.6-0.5 4.4-1l0.4 1.2c-0.6 0.4-2.3 1.1-5 1.1 -4.5 0-7.4-3.3-7.4-8 0-5.4 3.1-8.6 7.2-8.6 5.3 0 6.2 4.9 6.2 7.2 0 0.4 0 0.7-0.1 1L196.1 113.5zM206.3 112.3c0-2.3-1-5.6-4.8-5.6 -3.6 0-5 3.1-5.4 5.6H206.3zM224.3 117.8c0 1.4 0 2.6 0.1 3.9h-1.6l-0.1-2.9h-0.1c-0.8 1.6-2.6 3.2-5.5 3.2 -2 0-5.5-1.1-5.5-7.1v-9.3h1.6v9c0 3.5 1 6 4.3 6 2.4 0 4.1-1.7 4.8-3.2 0.1-0.5 0.4-1.1 0.4-1.8v-9.9h1.6L224.3 117.8zM229.7 109.6c0-1.4 0-2.5-0.1-3.8h1.6l0.1 2.8h0.1c1.1-1.8 2.5-3.1 5.1-3.1 2.2 0 3.9 1.6 4.5 3.5h0.1c0.5-1 1.1-1.7 1.7-2.2 1.1-0.8 2.2-1.3 3.8-1.3 1.6 0 5.1 0.8 5.1 6.9v9.4h-1.6v-9.3c0-3.6-1.4-5.7-4.2-5.7 -2 0-3.6 1.6-4.2 3.1 -0.1 0.5-0.2 1-0.2 1.6v10.3h-1.6v-10c0-2.9-1.3-5-3.9-5 -2.2 0-3.8 1.7-4.4 3.6 -0.1 0.5-0.2 1-0.2 1.6v9.8h-1.6L229.7 109.6 229.7 109.6zM278.2 121.6l-2.5-2.5c-2.3 2.2-4.4 2.9-6.8 2.9 -3.7 0-6.3-2.7-6.3-6.2 0-3.1 1.9-5.1 4.4-6.6v-0.1c-1.2-1.7-1.9-3.3-1.9-4.9 0-2.6 1.8-5.3 5-5.3 2.4 0 4.3 1.8 4.3 4.4 0 2.4-1.4 4.2-5.3 6.1v0.1c2.3 2.6 4.9 5.5 6.6 7.5 1.1-1.7 1.8-3.8 2.4-7.2h1.6c-0.6 3.6-1.4 6.3-3 8.1 1.2 1.2 2.3 2.3 3.6 3.7L278.2 121.6zM269.4 120.7c2.3 0 4.2-1.1 5.5-2.5 -1.3-1.6-4.2-4.7-7.1-8 -1.4 0.8-3.6 2.5-3.6 5.4C264.2 118.5 266.4 120.7 269.4 120.7L269.4 120.7zM270 100.1c-2.2 0-3.3 1.8-3.3 3.9 0 1.9 0.8 3.2 1.9 4.5 2.8-1.4 4.5-2.7 4.5-5C273.1 101.9 272.2 100.3 270 100.1zM291.8 99.3v9.9h12.4v-9.9h1.6v22.5h-1.6V110.5h-12.4v11.2h-1.6V99.3H291.8zM311.5 113.5c0 5 2.7 7.1 6.1 7.1 2.4 0 3.6-0.5 4.4-1l0.4 1.2c-0.6 0.4-2.3 1.1-5 1.1 -4.5 0-7.4-3.3-7.4-8 0-5.4 3.1-8.6 7.2-8.6 5.3 0 6.2 4.9 6.2 7.2 0 0.4 0 0.7-0.1 1L311.5 113.5zM321.6 112.3c0-2.3-1-5.6-4.8-5.6 -3.6 0-5 3.1-5.4 5.6H321.6zM327.4 110.5c0-1.6 0-3.2-0.1-4.8h1.4l0.1 3.2h0.1c0.7-2 2.4-3.6 4.5-3.6 0.2 0 0.5 0 0.6 0.1v1.6h-0.7c-2.2 0-3.7 1.9-4.2 4.4 -0.1 0.5-0.1 1-0.1 1.6v8.8h-1.6L327.4 110.5zM338.2 102.5c-0.7 0-1.2-0.6-1.2-1.3s0.6-1.4 1.3-1.4c0.7 0 1.3 0.6 1.3 1.4C339.5 101.9 339.1 102.5 338.2 102.5zM337.5 121.6v-15.9h1.6v16h-1.6V121.6zM346.6 102.2v3.6h4.5v1.3h-4.5v10.4c0 2 0.6 3.2 2.3 3.3 0.8 0 1.4-0.1 1.8-0.2l0.2 1.2c-0.5 0.2-1.3 0.4-2.3 0.4 -1.2 0-2.2-0.4-2.7-1.1 -0.7-0.8-1-2.2-1-3.8v-10h-2.7v-1.3h2.7v-3L346.6 102.2 346.6 102.2zM364.6 117.9c0 1.3 0 2.5 0.2 3.8h-1.4l-0.2-2.3h-0.1c-0.8 1.2-2.5 2.6-5.1 2.6 -3.2 0-4.7-2.3-4.7-4.4 0-3.7 3.2-6 9.8-5.9v-0.5c0-1.6-0.2-4.8-4.1-4.7 -1.4 0-2.9 0.4-4.1 1.2l-0.5-1.2c1.4-1 3.2-1.3 4.7-1.3 4.7 0 5.5 3.5 5.5 6.3V117.9L364.6 117.9zM363.1 113.2c-3.5-0.1-8.1 0.5-8.1 4.3 0 2.3 1.6 3.2 3.1 3.3 2.6 0 4.2-1.7 4.8-3.2 0.1-0.4 0.1-0.7 0.1-1L363.1 113.2 363.1 113.2zM382.6 119.4c0 4.1-0.8 6.1-2.2 7.4 -1.4 1.4-3.6 1.9-5.4 1.9s-3.8-0.5-5.1-1.4l0.6-1.3c1.1 0.7 2.6 1.4 4.8 1.4 3.3 0 5.7-1.7 5.7-6.5v-2.4H380.9c-0.8 1.7-2.7 3.1-5.6 3.1 -4.1 0-6.8-3.5-6.8-7.9 0-5.6 3.7-8.5 7.2-8.5 3.1 0 4.7 1.8 5.4 3.1h0.1l0.1-2.7h1.4c-0.1 1.2-0.1 2.5-0.1 4.2V119.4zM381 111.8c0-0.6 0-1.1-0.2-1.6 -0.7-1.9-2.3-3.6-4.9-3.6 -3.3 0-5.7 2.7-5.7 7.1 0 3.7 1.9 6.7 5.7 6.7 2.2 0 4.2-1.3 5-3.6 0.1-0.5 0.2-1.1 0.2-1.7L381 111.8 381 111.8zM388.2 113.5c0 5 2.7 7.1 6.1 7.1 2.3 0 3.6-0.5 4.4-1l0.4 1.2c-0.6 0.4-2.3 1.1-5 1.1 -4.5 0-7.4-3.3-7.4-8 0-5.4 3.1-8.6 7.2-8.6 5.3 0 6.2 4.9 6.2 7.2 0 0.4 0 0.7-0.1 1L388.2 113.5zM398.4 112.3c0-2.3-1-5.6-4.8-5.6 -3.6 0-5 3.1-5.4 5.6H398.4zM426.6 120.9c-1.1 0.6-3.3 1.1-6.1 1.2 -5.4 0-10.6-3.5-10.6-11.5 0-6.7 4.3-11.7 11.4-11.7 2.9 0 4.5 0.6 5.1 1l-0.5 1.4c-1.1-0.6-2.7-1-4.7-1 -6.1 0-9.8 3.9-9.8 10.4 0 6.1 3.5 9.9 9.4 9.9 1.9 0 3.7-0.4 5-1.1L426.6 120.9zM430.4 113.5c0 5 2.7 7.1 6.1 7.1 2.3 0 3.6-0.5 4.4-1l0.4 1.2c-0.6 0.4-2.3 1.1-5 1.1 -4.5 0-7.4-3.3-7.4-8 0-5.4 3.1-8.6 7.2-8.6 5.3 0 6.2 4.9 6.2 7.2 0 0.4 0 0.7-0.1 1L430.4 113.5zM440.7 112.3c0-2.3-1-5.6-4.8-5.6 -3.6 0-5 3.1-5.4 5.6H440.7zM446.3 109.6c0-1.4 0-2.5-0.1-3.8h1.6l0.1 2.9h0.1c0.8-1.8 2.9-3.2 5.5-3.2 1.6 0 5.5 0.7 5.5 6.8v9.6H457.4v-9.4c0-3-1.1-5.6-4.4-5.6 -2.3 0-4.2 1.6-4.8 3.7 -0.1 0.4-0.2 1-0.2 1.4v9.9h-1.6L446.3 109.6zM466.4 102.2v3.6h4.5v1.3h-4.5v10.4c0 2 0.6 3.2 2.3 3.3 0.8 0 1.4-0.1 1.8-0.2l0.2 1.2c-0.5 0.2-1.3 0.4-2.3 0.4 -1.2 0-2.2-0.4-2.7-1.1 -0.7-0.8-1-2.2-1-3.8v-10h-2.7v-1.3h2.7v-3L466.4 102.2 466.4 102.2zM474.5 113.5c0 5 2.7 7.1 6.1 7.1 2.4 0 3.6-0.5 4.4-1l0.4 1.2c-0.6 0.4-2.3 1.1-5 1.1 -4.5 0-7.4-3.3-7.4-8 0-5.4 3.1-8.6 7.2-8.6 5.3 0 6.2 4.9 6.2 7.2 0 0.4 0 0.7-0.1 1L474.5 113.5zM484.7 112.3c0-2.3-1-5.6-4.8-5.6 -3.6 0-5 3.1-5.4 5.6H484.7zM490.4 110.5c0-1.6 0-3.2-0.1-4.8h1.4l0.1 3.2h0.1c0.7-2 2.4-3.6 4.5-3.6 0.2 0 0.5 0 0.6 0.1v1.6h-0.7c-2.2 0-3.7 1.9-4.2 4.4 -0.1 0.5-0.1 1-0.1 1.6v8.8h-1.6L490.4 110.5z"/><polyline class="st5" points="7.1"/><polyline class="st5" points="15.6"/><polyline class="st5" points="26.7"/><polyline class="st5" points="38.8"/><polyline class="st5" points="51.4"/><polyline class="st5" points="62.8"/><polyline class="st5" points="75.1"/><polyline class="st5" points="85.5"/><polyline class="st5" points="93.2"/><polyline class="st5" points="99"/><polyline class="st5" points="101.1"/><polyline class="st5" points="3.2"/><polyline class="st5" points="-1.7"/><polyline class="st5" points="-4.9"/><polyline class="st5" points="90.6"/><polyline class="st5" points="81"/><polyline class="st5" points="70.2"/><polyline class="st5" points="58"/><polyline class="st5" points="45"/><polyline class="st5" points="32.7"/><polyline class="st5" points="21.4"/><polyline class="st5" points="11.1"/><polyline class="st5" points="3.3"/><polyline class="st5" points="-2.4"/><polyline class="st5" points="93.8"/><polyline class="st5" points="98.9"/><path class="st1" d="M89.4 60.4c-0.5 22.6-19 39.3-41.2 39.8C25.9 100.7 7.4 82.4 7 60.6 6.4 37.9 26.7 21.1 48.2 20.6 70.4 20.3 89 38.6 89.4 60.4c0 1.3 1.9 1.3 1.9 0C90.8 36.8 71.4 19.2 48.1 18.7 24.9 18.4 5.6 37.5 5.1 60.4c-0.6 23.7 20.7 41.4 43.2 41.8 23.3 0.5 42.7-18.8 43.2-41.7C91.3 59.3 89.4 59.3 89.4 60.4zM99.8 60.4c-0.5 28.1-23.7 49.1-51.3 49.6C20.9 110.5-2.4 87.9-2.8 60.6c-0.5-28.1 24.5-49.1 51.4-49.6C76.1 10.5 99.4 33.1 99.8 60.4c0.1 1.3 1.9 1.3 1.9 0 -0.4-25.7-20.2-48.1-46.1-50.9C29.1 6.5 3.7 22.3-3.3 48.4c-6.8 25.6 9 50.9 32.8 60.1 25 9.7 54-1.7 66.6-25 3.8-7.1 5.5-15.1 5.6-23.1C101.7 59.3 99.9 59.3 99.8 60.4zM94.4 72.9c-1 0.2-1.9-0.5-2.2-1.4 -0.2-1 0.5-1.8 1.3-2.2 1-0.2 2 0.2 2.3 1.3C95.9 71.7 95.3 72.6 94.4 72.9zM89.5 84.2c-1.1-0.1-1.8-1-1.7-1.9 0.1-1 0.7-1.8 1.8-1.7 1 0 1.9 0.7 1.9 1.8C91.5 83.5 90.6 84.2 89.5 84.2zM82 93.8c-1-0.4-1.4-1.3-1.2-2.3 0.2-1 1.2-1.4 2.2-1.2 1 0.2 1.6 1.3 1.3 2.3C83.9 93.6 82.9 94.3 82 93.8zM72 101.2c-0.8-0.6-1.1-1.7-0.6-2.5 0.5-0.8 1.6-1.1 2.5-0.5 0.8 0.5 1.3 1.7 0.6 2.5C74.1 101.4 72.9 101.7 72 101.2zM60.7 105.7c-0.7-0.7-0.6-1.9 0.1-2.6 0.7-0.6 1.8-0.6 2.5 0 0.7 0.7 0.7 1.9 0 2.6C62.6 106.6 61.4 106.5 60.7 105.7zM48.5 107.3c-0.5-1-0.1-2 0.7-2.5 0.8-0.5 1.9-0.2 2.4 0.6s0.2 2-0.6 2.5C50.2 108.5 49 108.3 48.5 107.3zM36.3 105.7c-0.2-1 0.5-1.9 1.4-2.2 1-0.2 1.9 0.4 2.2 1.3 0.2 1-0.2 2-1.3 2.3C37.6 107.3 36.5 106.7 36.3 105.7zM24.9 101.3c0-1.1 1-1.8 1.9-1.8 1 0 1.8 0.7 1.8 1.8 0 1-0.7 1.9-1.8 1.9C25.8 103.2 24.9 102.3 24.9 101.3zM15 94c0.2-1 1.3-1.6 2.3-1.3 1 0.2 1.6 1.2 1.3 2.2 -0.2 1-1.2 1.7-2.2 1.3C15.4 95.9 14.8 95 15 94zM7.4 84.4c0.5-0.8 1.7-1.1 2.5-0.6s1 1.7 0.6 2.4c-0.4 0.8-1.6 1.3-2.4 0.7C7.1 86.4 6.8 85.3 7.4 84.4zM2.5 73.1c0.8-0.7 1.9-0.6 2.5 0 0.6 0.7 0.7 1.8 0 2.5s-1.8 0.8-2.6 0.1C1.6 75 1.7 73.7 2.5 73.1zM0.8 60.9c1-0.5 2-0.1 2.5 0.7 0.5 0.8 0.2 1.9-0.7 2.4 -0.8 0.5-2 0.2-2.5-0.6C-0.4 62.5-0.2 61.4 0.8 60.9zM2.5 48.7c1-0.2 2 0.5 2.2 1.4 0.2 1-0.5 1.8-1.3 2.2 -1 0.2-2-0.2-2.3-1.3C0.8 50 1.4 48.9 2.5 48.7zM7.2 37.5c1.1 0.1 1.8 1 1.8 1.9 -0.1 1-0.7 1.8-1.8 1.8 -1 0-1.8-0.8-1.8-1.8C5.3 38.2 6.2 37.4 7.2 37.5zM14.9 27.8c1 0.4 1.4 1.4 1.2 2.3 -0.2 1-1.2 1.4-2.2 1.2 -1-0.2-1.6-1.2-1.3-2.3C12.9 28.1 13.9 27.5 14.9 27.8zM24.7 20.5c0.8 0.5 1 1.8 0.5 2.5 -0.5 0.8-1.6 1.1-2.5 0.5 -0.8-0.5-1.2-1.7-0.6-2.5C22.7 20.3 23.9 19.9 24.7 20.5zM36.1 15.9c0.7 0.7 0.6 1.9-0.1 2.6 -0.7 0.6-1.8 0.6-2.5-0.1 -0.7-0.7-0.7-1.9 0-2.6C34.1 15 35.5 15.1 36.1 15.9zM48.2 14.3c0.5 0.8 0.1 2-0.7 2.5s-1.9 0.2-2.4-0.7c-0.5-0.8-0.2-2 0.6-2.5C46.7 13 47.9 13.5 48.2 14.3zM60.4 15.9c0.2 1-0.4 1.9-1.3 2.2 -1 0.2-1.9-0.4-2.2-1.3 -0.2-1 0.2-2 1.3-2.3C59.2 14.2 60.2 14.8 60.4 15.9zM71.9 20.4c0 1.1-1 1.8-1.9 1.8 -1 0-1.8-0.7-1.8-1.8 0-1 0.7-1.9 1.8-1.9C71.1 18.5 71.9 19.3 71.9 20.4zM81.7 27.7c-0.2 1-1.3 1.6-2.3 1.3 -1-0.2-1.4-1.2-1.2-2.2 0.2-1 1.2-1.7 2.2-1.3C81.5 25.7 82.1 26.7 81.7 27.7zM89.4 37.3c-0.5 0.8-1.7 1.1-2.5 0.6 -0.8-0.5-1.1-1.6-0.6-2.4s1.6-1.3 2.5-0.7C89.6 35.2 89.8 36.4 89.4 37.3zM94.3 48.5c-0.7 0.7-1.9 0.6-2.6-0.1 -0.6-0.7-0.7-1.8 0-2.5 0.7-0.7 1.8-0.8 2.6-0.1C95.1 46.6 95.1 47.9 94.3 48.5zM96.1 60.7c-1 0.5-2 0.1-2.5-0.7s-0.2-1.9 0.7-2.4c0.8-0.5 2-0.2 2.5 0.6C97.1 59.1 96.8 60.2 96.1 60.7zM32.2 23c13.6 22 14.2 53.9-2.2 74.6M36.2 22.6c13.6 22 14 55.8-2.4 76.4M63.2 22.1C49.6 44 48.8 76 65.3 96.5M59.2 21.6c-13.6 21.9-14 55.8 2.4 76.4M9.2 74.7c23-12.9 56.7-13.6 78.4 2M8.6 71c23.1-13 58.7-13.3 80.3 2.3M8.2 45.3c23.1 13 56.7 13.6 78.4-2M7.6 49c23.1 13 58.6 13.3 80.3-2.3"/></svg>